<?xml version="1.0" encoding="UTF-8"?>
<svg width="80px" height="80px" viewBox="0 0 80 80" version="1.1" xmlns="http://www.w3.org/2000/svg" xmlns:xlink="http://www.w3.org/1999/xlink">
    <title>@_slice</title>
    <g id="页面-1" stroke="none" stroke-width="1" fill="none" fill-rule="evenodd">
        <g id="画板" transform="translate(-334.000000, -553.000000)">
            <g id="@" transform="translate(334.000000, 553.000000)">
                <rect id="矩形备份-17" x="0" y="0" width="80" height="80"></rect>
                <g transform="translate(10.688000, 8.720000)" fill="#6D7172" fill-rule="nonzero" id="形状">
                    <path d="M28.3978142,64 C33.8535519,64 38.8196721,62.7409836 43.5060109,60.0830601 L41.4775956,55.4666667 C38.0502732,57.4251366 33.5737705,58.8240437 29.0273224,58.8240437 C15.947541,58.8240437 5.73551913,50.5704918 5.73551913,35.1825137 C5.73551913,16.9967213 19.1650273,5.17595628 33.0142077,5.17595628 C47.7027322,5.17595628 54.6972678,14.6885246 54.6972678,26.9989071 C54.6972678,36.6513661 49.3814208,42.526776 44.4852459,42.526776 C40.4284153,42.526776 39.0295082,39.8688525 40.4284153,34.063388 L43.715847,17.9060109 L38.5398907,17.9060109 L37.5606557,21.1234973 L37.420765,21.1234973 C36.0218579,18.4655738 33.8535519,17.2765027 31.1956284,17.2765027 C22.1027322,17.2765027 15.8076503,27.0688525 15.8076503,35.8120219 C15.8076503,43.0163934 20.0043716,47.1431694 25.6,47.1431694 C28.957377,47.1431694 32.6644809,44.904918 35.1125683,41.8273224 L35.3224044,41.8273224 C35.8819672,45.7442623 39.379235,47.7726776 43.715847,47.7726776 C51.2,47.7726776 60.1530055,40.6382514 60.1530055,26.7191257 C60.1530055,10.9114754 49.8710383,0 33.6437158,0 C15.5278689,0 0,14.0590164 0,35.3923497 C0,54.2775956 12.8699454,64 28.3978142,64 Z M27.2087432,41.8972678 C24.2710383,41.8972678 22.1027322,39.9387978 22.1027322,35.3923497 C22.1027322,29.7967213 25.6699454,22.6622951 31.3355191,22.6622951 C33.2939891,22.6622951 34.6928962,23.5016393 35.9519126,25.6 L33.8535519,37.5606557 C31.3355191,40.6382514 29.2371585,41.8972678 27.2087432,41.8972678 Z"></path>
                </g>
            </g>
        </g>
    </g>
</svg>