<?xml version="1.0" encoding="UTF-8"?>
<svg width="80px" height="80px" viewBox="0 0 80 80" version="1.1" xmlns="http://www.w3.org/2000/svg" xmlns:xlink="http://www.w3.org/1999/xlink">
    <title>撤回_slice</title>
    <g id="页面-1" stroke="none" stroke-width="1" fill="none" fill-rule="evenodd">
        <g id="画板" transform="translate(-431.000000, -393.000000)" fill="#747677" fill-rule="nonzero">
            <g id="撤回" transform="translate(436.000000, 398.000000)">
                <path d="M9.96223744,22.5511525 L20.2755135,32.2149877 C21.7871162,33.7429237 23.3426631,36.2193544 21.8310603,37.7469014 C20.318291,39.2744485 18.2556358,39.2744485 16.7436442,37.7469014 L0.944731949,21.7473236 C-0.254983639,20.5386637 -0.342483153,18.6035633 0.857232435,17.3949034 L16.7440331,1.14566033 C18.2560247,-0.381886775 20.3190688,-0.381886775 21.8310603,1.14566033 C23.3430518,2.67320743 21.787505,5.150027 20.2755135,6.67718509 L10.0964034,16.7178516 L44.8119327,16.7178516 C58.7764662,16.7178516 69.9993483,28.8293399 69.9993483,42.7615958 C69.9993483,56.6934628 58.7760774,70 44.8119327,70 L7.78874952,70 C5.66348357,70 3.88043789,69.0133944 3.88043789,66.8889062 C3.88043789,64.7640291 5.66348357,64.1663102 7.78874952,64.1663102 L44.5035456,64.1663102 C53.8698825,64.1663102 64.1648808,52.1057662 64.1648808,42.7612069 C64.1648808,33.4166476 53.8698824,22.5519302 44.5035456,22.5519302 L9.96223744,22.5519302 L9.96223744,22.5511525 Z" id="路径"></path>
            </g>
        </g>
    </g>
</svg>