<?xml version="1.0" encoding="UTF-8"?>
<svg width="80px" height="80px" viewBox="0 0 80 80" version="1.1" xmlns="http://www.w3.org/2000/svg" xmlns:xlink="http://www.w3.org/1999/xlink">
    <title>关闭_slice</title>
    <g id="页面-1" stroke="none" stroke-width="1" fill="none" fill-rule="evenodd">
        <g id="画板" transform="translate(-522.000000, -394.000000)" fill="#9D9EA0">
            <path d="M531.906958,395.699765 L562,425.793 L592.093042,395.699765 C594.359395,393.433412 598.033881,393.433412 600.300235,395.699765 C602.566588,397.966119 602.566588,401.640605 600.300235,403.906958 L570.207,434 L600.300235,464.093042 C602.566588,466.359395 602.566588,470.033881 600.300235,472.300235 C598.033881,474.566588 594.359395,474.566588 592.093042,472.300235 L562,442.207 L531.906958,472.300235 C529.640605,474.566588 525.966119,474.566588 523.699765,472.300235 C521.433412,470.033881 521.433412,466.359395 523.699765,464.093042 L553.793,434 L523.699765,403.906958 C521.433412,401.640605 521.433412,397.966119 523.699765,395.699765 C525.966119,393.433412 529.640605,393.433412 531.906958,395.699765 Z" id="关闭"></path>
        </g>
    </g>
</svg>