<?xml version="1.0" encoding="UTF-8"?>
<svg width="20px" height="20px" viewBox="0 0 20 20" version="1.1" xmlns="http://www.w3.org/2000/svg" xmlns:xlink="http://www.w3.org/1999/xlink">
    <title>01</title>
    <g id="页面-1" stroke="none" stroke-width="1" fill="none" fill-rule="evenodd">
        <g id="文件发送进度" transform="translate(-1288.000000, -126.000000)">
            <g id="01" transform="translate(1288.000000, 126.000000)">
                <rect id="矩形备份-16" x="0" y="0" width="20" height="20"></rect>
                <g id="编组" transform="translate(2.000000, 3.000000)" fill="#6D7172" fill-rule="nonzero">
                    <g id="形状结合">
                        <path d="M6.03820802,0 C6.20623394,-0.00178750978 6.39570998,0.0572003128 6.5279857,0.287789074 L6.5279857,0.287789074 L8.00268126,2.27013741 L12.0102782,2.27013741 C13.2740476,2.27013741 14.2982907,3.29438052 14.2982907,4.55814993 L14.2982907,4.55814993 L14.2982907,4.63680036 C15.2760585,4.89420177 15.9982125,5.78795665 16,6.85152497 C16,7.06066361 15.9713998,7.26265222 15.9195621,7.45570327 L15.9195621,7.45570327 L14.7076304,12.5590437 C14.4448665,13.538599 13.5582616,14.257178 12.5018434,14.260753 L12.5018434,14.260753 L12.4929058,14.267903 L10.8519718,14.267903 C10.5266451,14.264328 10.2620936,14.0015641 10.2620936,13.6762373 C10.2620936,13.3509105 10.5266451,13.0881466 10.8519718,13.0881466 C10.8698469,13.0881466 10.8895096,13.0881466 10.9073846,13.0899341 L10.9073846,13.0899341 L12.3516925,13.0899341 C12.3731427,13.0917216 12.3963803,13.0917216 12.4196179,13.0917216 C12.7181321,13.0917216 12.991621,12.9755335 13.1953972,12.7860574 C13.261535,12.7181321 13.3187353,12.6394816 13.3652106,12.5554687 L13.3652106,12.5554687 L13.3884482,12.5554687 C13.4259859,12.4929058 13.4599486,12.4285555 13.4867613,12.3588426 L13.4867613,12.3588426 L13.4956988,12.3516925 L13.5225115,12.248017 C13.524299,12.2372919 13.527874,12.2283544 13.5296615,12.2176293 L13.5296615,12.2176293 L14.8256061,7.21617696 C14.8595688,7.10535136 14.8792314,6.98737571 14.8792314,6.86761256 C14.8792314,6.23662161 14.3662161,5.7236063 13.7352251,5.7236063 C13.7119875,5.7236063 13.6905374,5.7236063 13.6672997,5.72539381 L13.6672997,5.72539381 L4.15417272,5.72539381 C3.61076975,5.72896883 3.16031728,6.10255837 3.04055413,6.60484862 L3.04055413,6.60484862 L3.03697911,6.60663613 L1.73030946,11.6545637 C1.70707184,11.7457267 1.69455927,11.8422523 1.69455927,11.9405653 C1.69455927,12.5715563 2.20757457,13.0845716 2.83856552,13.0845716 L2.83856552,13.0845716 L6.07395822,13.0845716 L6.07395822,13.0845716 L6.12937102,13.082784 C6.4546978,13.082784 6.71924925,13.345548 6.71924925,13.6708748 C6.71924925,13.9962015 6.4546978,14.2589655 6.12937102,14.2589655 L6.12937102,14.2589655 L6.12937102,14.2661155 L2.28801251,14.2661155 C1.0242431,14.2661155 0,13.2418724 0,11.978103 L0,11.978103 L0,2.28801251 C0,1.0242431 1.0242431,0 2.28801251,0 L2.28801251,0 L6.03820802,0 Z M8.1939448,13.1633608 C8.37645377,13.0583085 8.60131408,13.0583085 8.78382304,13.1633608 C8.96633201,13.268413 9.07876215,13.4625577 9.07876215,13.6726623 C9.07876215,13.8827669 8.96633201,14.0769115 8.78382304,14.1819638 C8.60131408,14.2870161 8.37645377,14.2870161 8.1939448,14.1819638 C8.01143584,14.0769115 7.8990057,13.8827669 7.8990057,13.6726623 C7.8990057,13.4625577 8.01143584,13.268413 8.1939448,13.1633608 Z M5.70036867,1.13864373 L2.29516255,1.13864373 C1.6641716,1.13864373 1.1511563,1.65165903 1.1511563,2.28264998 L1.1511563,2.28264998 L1.1511563,9.25751313 L1.83041001,6.39213496 L1.83934756,6.38498492 C2.05027371,5.3392917 2.97441627,4.54921238 4.08267233,4.54921238 L4.08267233,4.54921238 L13.1489219,4.54921238 C13.1453469,3.92000894 12.6341191,3.41056865 12.0049157,3.41056865 L12.0049157,3.41056865 L7.74170484,3.41056865 C7.52184114,3.43559379 7.2966149,3.33191822 7.17863926,3.12814211 L7.17863926,3.12814211 L5.70036867,1.13864373 Z"></path>
                    </g>
                </g>
            </g>
        </g>
    </g>
</svg>