<?xml version="1.0" encoding="UTF-8"?>
<svg width="80px" height="80px" viewBox="0 0 80 80" version="1.1" xmlns="http://www.w3.org/2000/svg" xmlns:xlink="http://www.w3.org/1999/xlink">
    <title>搜索_取消_slice</title>
    <g id="页面-1" stroke="none" stroke-width="1" fill="none" fill-rule="evenodd">
        <g id="画板" transform="translate(-1084.000000, -715.000000)" fill="#999999" fill-rule="nonzero">
            <g id="搜索-取消" transform="translate(1086.000000, 717.000000)">
                <path d="M38,0 C17.024,0 0,17.024 0,38 C0,58.976 17.024,76 38,76 C58.976,76 76,58.976 76,38 C76,17.024 58.976,0 38,0 Z M55.024,54.9733333 C54.0106667,55.9866667 52.3893333,55.9866667 51.4266667,54.9733333 L37.848,41.2933333 L24.0666667,54.9226667 C23.0533333,55.936 21.432,55.936 20.4186667,54.9226667 C19.4053333,53.9093333 19.4053333,52.288 20.4186667,51.3253333 L34.2506667,37.6453333 L21.1786667,24.5733333 C20.1653333,23.56 20.1653333,21.9386667 21.1786667,20.976 C22.192,19.9626667 23.8133333,19.9626667 24.776,20.976 L37.848,34.0986667 L51.1226667,20.976 C52.136,19.9626667 53.7573333,19.9626667 54.7706667,20.976 C55.784,21.9893333 55.784,23.6106667 54.7706667,24.5733333 L41.4453333,37.7466667 L54.9733333,51.376 C55.9866667,52.3386667 55.9866667,53.96 55.024,54.9733333 Z" id="形状"></path>
            </g>
        </g>
    </g>
</svg>