<?xml version="1.0" encoding="UTF-8"?>
<svg width="20px" height="20px" viewBox="0 0 20 20" version="1.1" xmlns="http://www.w3.org/2000/svg" xmlns:xlink="http://www.w3.org/1999/xlink">
    <title>03</title>
    <g id="页面-1" stroke="none" stroke-width="1" fill="none" fill-rule="evenodd">
        <g id="文件发送进度" transform="translate(-1368.000000, -126.000000)">
            <g id="03" transform="translate(1368.000000, 126.000000)">
                <rect id="矩形备份-16" x="0" y="0" width="20" height="20"></rect>
                <g id="编组" transform="translate(2.000000, 2.000000)" fill="#707273" fill-rule="nonzero">
                    <path d="M11.6285923,9.8426289 C11.6992853,9.73047585 11.722481,9.59481556 11.6930675,9.46554589 C11.663654,9.33627622 11.5840454,9.22400764 11.4717866,9.15348275 C10.9406546,8.8245304 10.3701981,8.56379822 9.77389028,8.37744425 C11.5268822,7.35761756 12.3794697,5.28994448 11.8547761,3.33093352 C11.3300826,1.37192255 9.55817208,0.00718433774 7.53012463,2.78296453e-05 C5.50207718,-0.00707257958 3.72061661,1.34517576 3.18216461,3.30044983 C2.64371261,5.25572391 3.48174369,7.32933941 5.22752317,8.36146406 C2.11783857,9.35106564 0.00446337597,12.2372723 0,15.5006187 C0,15.7764194 0.22358061,16 0.49938127,16 C0.77518193,16 0.99876254,15.7764194 0.99876254,15.5006187 C0.999047188,13.1390395 2.28153872,10.9638294 4.34781762,9.8203486 C6.41409651,8.67686782 8.93830338,8.74544726 10.9394462,9.99943462 C11.0515992,10.0701276 11.1872595,10.0933233 11.3165292,10.0639098 C11.4457989,10.0344963 11.5580674,9.95488772 11.6285923,9.8426289 Z M4.02101801,4.51423071 C4.02101801,2.58362609 5.5860823,1.01856182 7.51668693,1.01856182 C9.44729155,1.01856182 11.0123558,2.58362611 11.0123558,4.51423073 C11.0123558,6.44483536 9.44729154,8.00989963 7.51668692,8.00989963 C5.58699495,8.00769804 4.0232196,6.44392268 4.02101801,4.51423071 L4.02101801,4.51423071 Z M15.4808195,12.4823583 L13.4623204,12.4823583 L13.4623204,10.4638592 C13.4623204,10.1880586 13.2387397,9.96447794 12.9629391,9.96447794 C12.6871384,9.96447794 12.4635578,10.1880586 12.4635578,10.4638592 L12.4635578,12.4823583 L10.4430612,12.4823583 C10.1672605,12.4823583 9.94367991,12.7059389 9.94367991,12.9817396 C9.94367991,13.2575402 10.1672605,13.4811209 10.4430612,13.4811209 L12.4635578,13.4811209 L12.4635578,15.5006187 C12.4635578,15.7764194 12.6871384,16 12.9629391,16 C13.2387397,16 13.4623204,15.7764194 13.4623204,15.5006187 L13.4623204,13.4811209 L15.4808195,13.4811209 C15.7566201,13.4811209 15.9802007,13.2575402 15.9802007,12.9817396 C15.9802007,12.7059389 15.7566201,12.4823583 15.4808195,12.4823583 Z" id="形状"></path>
                </g>
            </g>
        </g>
    </g>
</svg>