<?xml version="1.0" encoding="UTF-8"?>
<svg width="80px" height="80px" viewBox="0 0 80 80" version="1.1" xmlns="http://www.w3.org/2000/svg" xmlns:xlink="http://www.w3.org/1999/xlink">
    <title>收藏_slice</title>
    <g id="页面-1" stroke="none" stroke-width="1" fill="none" fill-rule="evenodd">
        <g id="画板" transform="translate(-319.000000, -757.000000)" fill="#747677" fill-rule="nonzero">
            <path d="M338.286205,832.719717 C337.357456,832.719717 336.439311,832.427395 335.654603,831.857421 C334.375916,830.928672 333.686644,829.434367 333.813895,827.860531 L335.46196,807.369731 L322.084794,791.760386 C321.057956,790.562114 320.735413,788.949396 321.223205,787.447138 C321.710997,785.94488 322.918989,784.829674 324.454827,784.464714 L344.453416,779.698138 L355.163632,762.152647 C355.987223,760.805034 357.421438,760 358.999693,760 C360.577947,760 362.013045,760.80415 362.834869,762.152647 L362.836636,762.152647 L373.545969,779.698138 L393.544558,784.464714 C395.080396,784.829674 396.288388,785.94488 396.777064,787.447138 C397.263972,788.949396 396.943196,790.561231 395.913707,791.76127 L382.538309,807.370615 L384.184607,827.860531 C384.310973,829.434367 383.623469,830.929555 382.344783,831.857421 C381.069631,832.78617 379.438355,832.977929 377.974979,832.368188 L358.999693,824.47073 L340.019988,832.369072 C339.45885,832.603248 338.870318,832.719717 338.286205,832.719717 Z M359.000576,819.099715 C359.58469,819.099715 360.167919,819.215477 360.722871,819.445235 L378.792384,826.965362 L377.225617,807.458983 C377.129296,806.278385 377.519,805.080997 378.292221,804.176107 L391.027834,789.316124 L371.99069,784.778421 C370.835719,784.505363 369.81595,783.765722 369.19649,782.748605 L358.999693,766.045263 L348.802895,782.748605 C348.1799,783.765722 347.161015,784.50448 346.00516,784.778421 L326.972435,789.31524 L339.706281,804.175223 C340.478618,805.074811 340.868322,806.270431 340.773768,807.456332 L339.205234,826.964478 L357.272979,819.446118 C357.830582,819.215477 358.415579,819.099715 359.000576,819.099715 Z M373.868273,780.168399 L373.959173,780.168399 L373.868273,780.168399 Z" id="收藏"></path>
        </g>
    </g>
</svg>