<?xml version="1.0" encoding="UTF-8"?>
<svg width="80px" height="80px" viewBox="0 0 80 80" version="1.1" xmlns="http://www.w3.org/2000/svg" xmlns:xlink="http://www.w3.org/1999/xlink">
    <title>shape_slice</title>
    <g id="页面-1" stroke="none" stroke-width="1" fill="none" fill-rule="evenodd">
        <g id="画板" transform="translate(-1369.000000, -726.000000)" fill="#999999">
            <path d="M1446.01134,733.758471 L1428.69713,751.050772 C1433.25172,756.640373 1435.9811,763.766693 1435.9811,771.534718 C1435.9811,789.468726 1421.43851,804 1403.49055,804 C1385.54258,804 1371,789.468726 1371,771.534718 C1371,753.600711 1385.54258,739.069437 1403.49055,739.069437 C1411.23082,739.069437 1418.33734,741.771359 1423.91439,746.288635 L1441.2286,728.98789 C1441.8877,728.329297 1442.74961,728 1443.61997,728 C1444.48188,728 1445.35223,728.329297 1446.01134,728.98789 C1447.32955,730.305077 1447.32955,732.441284 1446.01134,733.758471 L1446.01134,733.758471 Z M1413.76584,747.21742 C1410.51256,745.841129 1407.05648,745.148761 1403.49055,745.148761 C1399.92462,745.148761 1396.46853,745.849572 1393.21525,747.21742 C1390.07183,748.543051 1387.2495,750.451283 1384.81588,752.874569 C1382.3907,755.297856 1380.48099,758.12643 1379.15433,761.267415 C1377.77696,764.518165 1377.08406,767.971559 1377.08406,771.534718 C1377.08406,775.097878 1377.78541,778.551272 1379.15433,781.802022 C1380.48099,784.943006 1382.3907,787.763137 1384.81588,790.194867 C1387.24105,792.618154 1390.07183,794.526386 1393.21525,795.852016 C1396.46853,797.228308 1399.92462,797.920675 1403.49055,797.920675 C1407.05648,797.920675 1410.51256,797.219864 1413.76584,795.852016 C1416.90927,794.526386 1419.7316,792.618154 1422.16522,790.194867 C1424.59039,787.771581 1426.50011,784.95145 1427.82677,781.802022 C1429.20414,778.551272 1429.89704,775.097878 1429.89704,771.534718 C1429.89704,767.971559 1429.19569,764.518165 1427.82677,761.267415 C1426.50011,758.12643 1424.59039,755.306299 1422.16522,752.874569 C1419.7316,750.451283 1416.90927,748.551494 1413.76584,747.21742 L1413.76584,747.21742 Z" id="Shape" transform="translate(1409.000000, 766.000000) scale(1, -1) translate(-1409.000000, -766.000000) "></path>
        </g>
    </g>
</svg>