<?xml version="1.0" encoding="UTF-8"?>
<svg width="16px" height="16px" viewBox="0 0 16 16" version="1.1" xmlns="http://www.w3.org/2000/svg" xmlns:xlink="http://www.w3.org/1999/xlink">
    <title>搜索_1_slice</title>
    <g id="页面-1" stroke="none" stroke-width="1" fill="none" fill-rule="evenodd">
        <g id="画板" transform="translate(-418.000000, -1.000000)" fill="#171A1D" fill-rule="nonzero">
            <path d="M431.348156,14.1132864 L428.723827,11.4889579 C429.458696,10.5922168 429.899905,9.44765429 429.899905,8.19995225 C429.899905,5.33353229 427.567805,3 424.699952,3 C421.833532,3 419.5,5.3320998 419.5,8.19995225 C419.5,11.0678047 421.8321,13.3999045 424.699952,13.3999045 C425.946222,13.3999045 427.092217,12.9586964 427.988958,12.2238271 L430.613286,14.8481557 C430.714993,14.9498627 430.848215,15 430.981437,15 C431.114659,15 431.247881,14.9498627 431.349588,14.8481557 C431.55157,14.6447416 431.55157,14.315268 431.348156,14.1132864 L431.348156,14.1132864 Z M420.53999,8.19995225 C420.53999,5.90652978 422.40653,4.03999045 424.699952,4.03999045 C426.993375,4.03999045 428.859914,5.90652978 428.859914,8.19995225 C428.859914,10.4933747 426.993375,12.3599141 424.699952,12.3599141 C422.40653,12.3599141 420.53999,10.4933747 420.53999,8.19995225 Z" id="搜索-1"></path>
        </g>
    </g>
</svg>