<?xml version="1.0" encoding="UTF-8"?>
<svg width="20px" height="20px" viewBox="0 0 20 20" version="1.1" xmlns="http://www.w3.org/2000/svg" xmlns:xlink="http://www.w3.org/1999/xlink">
    <title>04</title>
    <g id="页面-1" stroke="none" stroke-width="1" fill="none" fill-rule="evenodd">
        <g id="文件发送进度" transform="translate(-1408.000000, -126.000000)">
            <g id="04" transform="translate(1408.000000, 126.000000)">
                <rect id="矩形备份-16" x="0" y="0" width="20" height="20" rx="4"></rect>
                <g transform="translate(2.000000, 2.000000)" fill="#707273" fill-rule="nonzero" id="形状结合">
                    <path d="M5.25642016,0.0801677904 C5.66132619,-0.0931611165 6.20366697,0.0244520726 6.50168818,0.337748247 C6.71882788,0.564798744 7.46528677,1.21288768 8.0410091,1.21288768 C8.60933326,1.21288768 9.35413703,0.577541157 9.57017997,0.354718215 C9.86871967,0.0436953392 10.4167237,-0.067436951 10.8171031,0.106191062 L10.8171031,0.106191062 L10.8465164,0.120588606 L12.847855,1.23492272 C13.2459411,1.51342149 13.3969359,2.05604144 13.2001561,2.49883575 C13.1939145,2.5141107 13.0321914,2.89839754 13.0321914,3.23542373 C13.0321914,4.30227785 13.8996934,5.16975986 14.9662484,5.16975986 L14.9662484,5.16975986 L15.0346866,5.16975986 C15.4293827,5.16975986 15.7375739,5.49466181 15.8326336,5.99710025 C15.8394136,6.03245597 16,6.8827088 16,7.56447846 C16,8.24533078 15.8394135,9.09528448 15.8326335,9.13036106 C15.7375938,9.63311855 15.4288442,9.95829967 15.046033,9.95829967 L15.046033,9.95829967 L14.9662682,9.95829967 C13.8997132,9.95829967 13.0322113,10.8258016 13.0322113,11.8923367 C13.0322113,12.2338696 13.1945127,12.6150456 13.2013126,12.6314572 C13.3975141,13.0728357 13.245941,13.6145982 12.8478549,13.8927978 L12.8478549,13.8927978 L12.8178833,13.912081 L10.7820265,15.0340326 C10.6530867,15.0894293 10.5122819,15.1188824 10.3635604,15.1188824 C10.0451793,15.1188824 9.73413645,14.9853761 9.53171335,14.7636898 C9.31228041,14.5216635 8.55050669,13.8328546 7.95899092,13.8328546 C7.41330003,13.8328546 6.67019126,14.4481602 6.39593996,14.7445063 C6.09903546,15.0690892 5.54993463,15.1856057 5.14389194,15.0068926 L5.14389194,15.0068926 L5.11392032,14.9933127 L3.15047004,13.8916811 C2.75350062,13.6145782 2.60306421,13.0728157 2.79928561,12.6291639 C2.80550727,12.6144673 2.96780868,12.2316162 2.96780868,11.8923167 C2.96780868,10.8257817 2.10030674,9.95827972 1.03377167,9.95827972 L1.03377167,9.95827972 L0.965333479,9.95827972 C0.570617395,9.95827972 0.262406244,9.6330986 0.16740637,9.1303411 C0.160327238,9.09526455 0,8.24531085 0,7.5644585 C0,6.88272875 0.160327238,6.03247593 0.16740637,5.99712018 C0.262406225,5.49466181 0.570617395,5.1697798 0.952910108,5.1697798 L0.952910108,5.1697798 L1.03377167,5.1697798 C2.10030672,5.1697798 2.96780868,4.30229779 2.96780868,3.23544367 C2.96780868,2.89389081 2.80548733,2.51273476 2.79872726,2.49660232 C2.6030443,2.05550302 2.7545974,1.512903 3.15272343,1.23552093 L3.15272343,1.23552093 L3.1838317,1.21571933 Z M5.6862328,1.1642511 L3.9065606,2.14230705 C3.98347381,2.34307504 4.12824691,2.78162188 4.12824691,3.23544367 C4.12824691,4.85223615 2.88808383,6.18939321 1.28881966,6.32030717 C1.24809973,6.55669015 1.16043823,7.12304011 1.16043823,7.56443855 C1.16043823,8.00497949 1.24809973,8.57105029 1.28881966,8.80743326 C2.88808383,8.9386264 4.12824691,10.2755043 4.12824691,11.8922968 C4.12824691,12.3452611 3.98742217,12.7767487 3.90598231,12.9879859 L3.90598231,12.9879859 L5.57649638,13.9233078 C5.66359955,13.831698 5.91240587,13.5840083 6.25397866,13.3351821 C6.85398938,12.8940827 7.42739854,12.671539 7.95897106,12.671539 C8.49509018,12.671539 9.07306588,12.899746 9.67590825,13.3464887 C10.0191561,13.6021149 10.2713724,13.8566245 10.3567805,13.945961 L10.3567805,13.945961 L12.0934794,12.9868691 C12.0165662,12.7858021 11.8717732,12.348671 11.8717732,11.8922968 C11.8717732,10.2755043 13.1119363,8.9386264 14.7117787,8.80743326 C14.7519403,8.57105031 14.8396018,8.00495956 14.8396018,7.56443855 C14.8396018,7.12587177 14.7519403,6.55722855 14.7117588,6.32030719 C13.1119163,6.18939323 11.8717533,4.85223617 11.8717533,3.23544368 C11.8717533,2.77737443 12.0165463,2.3402434 12.0940179,2.14061207 L12.0940179,2.14061207 L10.3810888,1.18915767 C10.3075856,1.25843339 10.0542327,1.50357054 9.70418487,1.74956516 C9.11661746,2.16352449 8.55732667,2.37332585 8.04102909,2.37332585 C7.51964652,2.37332585 6.95636749,2.15955619 6.36483178,1.73740103 C6.01761562,1.49026975 5.76370436,1.2417426 5.6862328,1.1642511 L5.6862328,1.1642511 Z M7.96523262,4.70716394 C9.53452515,4.70716394 10.8114598,5.98409858 10.8114598,7.55339114 C10.8114598,9.12294293 9.53452517,10.3993392 7.96523262,10.3993392 C6.39595999,10.3993392 5.11902536,9.12294293 5.11902536,7.55339114 C5.11902536,5.98409858 6.39594006,4.70716394 7.96523262,4.70716394 Z M7.9652326,5.86816045 C7.03553403,5.86816045 6.28000191,6.62453011 6.28000191,7.55339114 C6.28000191,8.48279057 7.03553403,9.23886112 7.9652326,9.23886112 C8.89495109,9.23886112 9.65104157,8.48279057 9.65104157,7.55339114 C9.65104157,6.62453011 8.89495111,5.86816045 7.9652326,5.86816045 Z"></path>
                </g>
            </g>
        </g>
    </g>
</svg>