<?xml version="1.0" encoding="UTF-8"?>
<svg width="80px" height="80px" viewBox="0 0 80 80" version="1.1" xmlns="http://www.w3.org/2000/svg" xmlns:xlink="http://www.w3.org/1999/xlink">
    <title>通讯录默认_slice</title>
    <g id="页面-1" stroke="none" stroke-width="1" fill="none" fill-rule="evenodd">
        <g id="画板" transform="translate(-731.000000, -455.000000)">
            <g id="通讯录默认" transform="translate(731.000000, 455.000000)">
                <g id="编组-2">
                    <rect id="矩形" x="0" y="0" width="80" height="80"></rect>
                    <g id="编组" transform="translate(4.000000, 4.000000)" fill="#6B6F70" fill-rule="nonzero">
                        <path d="M59.3435627,0 C65.3346893,0 70.2092531,4.87448147 70.2092531,10.8656903 L70.2092531,10.8656903 L70.2092531,61.1343097 C70.2092531,67.1254363 65.3346894,72 59.3435628,72 L59.3435628,72 L14.2090429,72 C8.21791629,72 3.34335248,67.1254363 3.34335248,61.1343097 L3.34335248,61.1343097 L3.34335248,56.7160317 C3.34335248,55.3308815 4.46567562,54.2085584 5.85082585,54.2085584 C7.23597608,54.2085584 8.35829914,55.3308815 8.35829914,56.7160317 L8.35829914,56.7160317 L8.35829914,61.1343096 C8.35829914,64.360073 10.9832794,66.9850533 14.2090428,66.9850533 L14.2090428,66.9850533 L59.3435627,66.9850533 C62.569326,66.9850533 65.1943063,64.360073 65.1943063,61.1343096 L65.1943063,61.1343096 L65.1943063,10.8656903 C65.1943063,7.63992696 62.569326,5.01494666 59.3435627,5.01494666 L59.3435627,5.01494666 L14.2090427,5.01494666 C10.9832794,5.01494666 8.35829906,7.63992696 8.35829906,10.8656903 L8.35829906,10.8656903 L8.35829906,16.2511789 C8.35829906,17.6363291 7.235976,18.7586522 5.85082577,18.7586522 C4.46567554,18.7586522 3.34335248,17.6363291 3.34335248,16.2511789 L3.34335248,16.2511789 L3.34335248,10.8656903 C3.34335248,4.87456373 8.21791621,0 14.2090428,0 L14.2090428,0 Z M56.432797,38.8282311 C57.8179472,38.8282311 58.9402704,39.9505542 58.9402704,41.335622 C58.9402704,48.0230679 56.1895544,53.2477661 50.2849122,57.7770503 C49.8294493,58.1264442 49.2931798,58.2953811 48.7602018,58.2953811 C48.0076801,58.2953811 47.2623996,57.9574251 46.7694135,57.3142638 C45.9262105,56.2156396 46.1335758,54.6411452 47.2322,53.7987652 C51.8610524,50.2481296 53.9253237,46.4045496 53.9253237,41.3357044 C53.9253237,39.9505542 55.0476468,38.8282311 56.432797,38.8282311 Z M19.2736914,38.8282312 C20.6588416,38.8282312 21.7811647,39.9505542 21.7811647,41.3357045 C21.7811647,46.362912 23.7262833,50.045784 28.2849442,53.6502358 C29.3713898,54.5097317 29.555879,56.0858719 28.6970415,57.1723175 C28.2015867,57.798363 27.4686495,58.1248809 26.7283063,58.1248809 C26.1838903,58.1248809 25.6353599,57.9485382 25.1750421,57.584497 C19.4377732,53.0486298 16.7662181,47.8851537 16.7662181,41.3357045 C16.7662181,39.9505542 17.8885411,38.8282312 19.2736914,38.8282312 Z M9.19409623,44.874326 C10.5792465,44.874326 11.7015695,45.996649 11.7015695,47.3817993 C11.7015695,48.7669496 10.5792465,49.8892726 9.19409623,49.8892726 L9.19409623,49.8892726 L2.50747329,49.8892726 C1.12232305,49.8892726 0,48.7669495 0,47.3817993 C0,45.996649 1.12232305,44.874326 2.50747329,44.874326 L2.50747329,44.874326 Z M31.9939014,41.2287302 C33.1619765,40.5039394 34.6940104,40.8541562 35.431885,42.0115339 C35.4955757,42.1069877 36.3983551,43.4129771 37.8299979,43.4129771 C39.3073928,43.4129771 40.2893329,41.9944181 40.2991251,41.9796886 C41.0696679,40.8475732 42.617172,40.5243468 43.7640168,41.2818059 C44.908393,42.0368786 45.2438803,43.5566516 44.50436,44.711643 C43.6203423,46.091856 41.2198431,48.4279239 37.8299979,48.4279239 C34.4222139,48.4279239 32.0510914,46.0730944 31.1866582,44.6821839 C30.4561073,43.5060446 30.8176798,41.960104 31.9939014,41.2287302 Z M9.19417841,33.1727564 C10.5793286,33.1727564 11.7016517,34.2950794 11.7016517,35.6802297 C11.7016517,37.0653799 10.5793286,38.187703 9.19417841,38.187703 L9.19417841,38.187703 L2.50755547,38.187703 C1.12240524,38.187703 8.2182747e-05,37.0653799 8.2182747e-05,35.6802297 C8.2182747e-05,34.2950794 1.12240524,33.1727564 2.50755547,33.1727564 L2.50755547,33.1727564 Z M29.4950683,30.0259892 C30.8802186,30.0259892 32.0025416,31.1483123 32.0025416,32.5334625 L32.0025416,32.5334625 L32.0025416,35.0409358 C32.0025416,36.426086 30.8802186,37.5484091 29.4950683,37.5484091 C28.1099181,37.5484091 26.987595,36.426086 26.987595,35.0409358 L26.987595,35.0409358 L26.987595,32.5334625 C26.987595,31.1483123 28.1099181,30.0259892 29.4950683,30.0259892 Z M46.2115023,30.0259892 C47.5966525,30.0259892 48.7189756,31.1483123 48.7189756,32.5334625 L48.7189756,32.5334625 L48.7189756,35.0409358 C48.7189756,36.426086 47.5966525,37.5484091 46.2115023,37.5484091 C44.8263521,37.5484091 43.704029,36.426086 43.704029,35.0409358 L43.704029,35.0409358 L43.704029,32.5334625 C43.704029,31.1483123 44.8263521,30.0259892 46.2115023,30.0259892 Z M37.8143631,12.7723806 C45.9146902,12.7723806 51.9106719,15.0137352 55.6360044,19.4336589 C60.7227883,25.4705375 59.4600823,33.2247622 59.4047026,33.5520207 C59.1696065,34.916023 57.8717635,35.8293351 56.5086664,35.5983533 C55.1431006,35.3632572 54.2272375,34.0670599 54.4615109,32.7023171 C54.4696574,32.6549193 55.3634673,26.8539598 51.7703712,22.6291404 C49.0384168,19.4164607 44.3425822,17.787245 37.8143632,17.787245 C31.2673826,17.787245 26.5731938,19.4254302 23.8641153,22.6560485 C20.3412108,26.8572513 21.2439901,32.6329484 21.2537823,32.6900562 C21.4953792,34.0540585 20.5852763,35.3542877 19.2213563,35.5958847 C19.0736497,35.6219699 18.9267661,35.6350537 18.7814458,35.6350537 C17.5881084,35.6350537 16.5311218,34.7796722 16.3156101,33.5634587 C16.2575972,33.2362002 14.9548993,25.4745696 20.0220987,19.4336589 C23.7285873,15.0137352 29.7148589,12.7723806 37.8143631,12.7723806 Z M9.19417841,21.471269 C10.5793286,21.471269 11.7016517,22.5935921 11.7016517,23.9787423 C11.7016517,25.3638926 10.5793286,26.4862156 9.19417841,26.4862156 L9.19417841,26.4862156 L2.50755547,26.4862156 C1.12240524,26.4862156 8.2182747e-05,25.3638926 8.2182747e-05,23.9787423 C8.2182747e-05,22.5935921 1.12240524,21.471269 2.50755547,21.471269 L2.50755547,21.471269 Z" id="形状结合"></path>
                    </g>
                </g>
                <g id="编组" transform="translate(0.000000, 4.000000)"></g>
            </g>
        </g>
    </g>
</svg>