<?xml version="1.0" encoding="UTF-8"?>
<svg width="80px" height="80px" viewBox="0 0 80 80" version="1.1" xmlns="http://www.w3.org/2000/svg" xmlns:xlink="http://www.w3.org/1999/xlink">
    <title>编辑_slice</title>
    <g id="页面-1" stroke="none" stroke-width="1" fill="none" fill-rule="evenodd">
        <g id="画板" transform="translate(-1324.000000, -527.000000)" fill="#6B6F70" fill-rule="nonzero">
            <path d="M1331.42857,570.717539 C1331.42857,569.964166 1331.74073,569.244481 1332.29171,568.730681 L1373.006,530.730681 C1374.07552,529.731717 1375.74446,529.760533 1376.77886,530.795824 L1393.06457,547.081539 C1393.58623,547.602659 1393.87343,548.313587 1393.86057,549.050825 C1393.84681,549.788064 1393.53413,550.488161 1392.994,550.99011 L1352.27971,588.99011 C1351.77693,589.458072 1351.11543,589.717539 1350.42857,589.717539 L1334.14286,589.717539 C1332.6438,589.717539 1331.42857,588.502311 1331.42857,587.003253 L1331.42857,570.717539 Z M1336.85714,571.895539 L1336.85714,584.288967 L1349.35914,584.288967 L1387.23429,548.93811 L1374.792,536.490396 L1336.85714,571.895539 Z M1326,603.288967 L1326,597.860396 L1402,597.860396 L1402,603.288967 L1326,603.288967 Z" id="编辑"></path>
        </g>
    </g>
</svg>