<?xml version="1.0" encoding="UTF-8"?>
<svg width="80px" height="80px" viewBox="0 0 80 80" version="1.1" xmlns="http://www.w3.org/2000/svg" xmlns:xlink="http://www.w3.org/1999/xlink">
    <title>多选_slice</title>
    <g id="页面-1" stroke="none" stroke-width="1" fill="none" fill-rule="evenodd">
        <g id="画板" transform="translate(-339.000000, -415.000000)" fill="#747677" fill-rule="nonzero">
            <g id="多选" transform="translate(344.000000, 420.000000)">
                <path d="M68.5183869,28.7851569 C69.4352123,29.3144863 70,30.2927275 70,31.3513863 L70,60.1964713 C69.9925242,65.6077111 65.6077111,69.9925242 60.1964713,70 L22.687908,70 C21.0513633,70 19.7246817,68.6733184 19.7246817,67.0367737 C19.7246817,65.4002291 21.0513633,64.0735475 22.687908,64.0735475 L60.1964713,64.0735475 C62.3366879,64.0710545 64.0710545,62.3366879 64.0735475,60.1964713 L64.0735475,31.3513863 C64.0735474,30.2927275 64.6383351,29.3144863 65.5551606,28.7851569 C66.471986,28.2558275 67.6015615,28.2558275 68.5183869,28.7851569 Z M33.6224391,0 C35.260233,0 36.5879274,1.32769432 36.5879274,2.96548827 C36.5879274,4.60328222 35.260233,5.93097654 33.6224391,5.93097654 L9.80352873,5.93097654 C7.66331214,5.93346951 5.9289455,7.66783615 5.92645253,9.80805274 L5.92645253,43.6702643 C5.9289455,45.8104809 7.66331214,47.5448476 9.80352873,47.5473405 L43.6657403,47.5473405 C45.8059569,47.5448476 47.5403235,45.8104809 47.5428165,43.6702643 L47.5428165,31.3513863 C47.5428165,29.7135923 48.8705108,28.385898 50.5083048,28.385898 C52.1460987,28.385898 53.4737931,29.7135923 53.4737931,31.3513863 L53.4737931,43.6657403 C53.4663119,49.0787439 49.0787468,53.4642853 43.6657403,53.469269 L9.80352873,53.469269 C4.39228893,53.4617932 0.00747581977,49.0769801 0,43.6657403 L0,9.80352873 C0.00747581977,4.39228893 4.39228893,0.00747581977 9.80352873,0 L33.6224391,0 Z M61.7822873,2.24817079 C62.7509157,3.45098661 62.5853454,5.20644282 61.4089058,6.20694112 L29.1481936,32.2019001 C28.6426237,32.6114036 28.0118203,32.8352622 27.3612098,32.8352622 C26.5584883,32.8358695 25.7928484,32.4974107 25.2530214,31.9033155 L12.3595941,17.7657856 C11.3083012,16.6015649 11.3953878,14.8066711 12.5544512,13.749695 C13.7135146,12.6927188 15.5088129,12.7710231 16.571447,13.9249014 L27.6597945,26.0809151 L57.8349383,1.76888774 C59.0632672,0.832824228 60.8136588,1.04535497 61.7822873,2.24817079 Z" id="形状结合"></path>
            </g>
        </g>
    </g>
</svg>