<?xml version="1.0" encoding="UTF-8"?>
<svg width="105px" height="88px" viewBox="0 0 105 88" version="1.1" xmlns="http://www.w3.org/2000/svg" xmlns:xlink="http://www.w3.org/1999/xlink">
    <title>文件夹空空如也_slice</title>
    <defs>
        <linearGradient x1="144.588078%" y1="66.9103226%" x2="29.5159577%" y2="67.3261502%" id="linearGradient-1">
            <stop stop-color="#E0E5EF" stop-opacity="0" offset="0%"></stop>
            <stop stop-color="#E0E5EF" offset="100%"></stop>
        </linearGradient>
        <linearGradient x1="144.588078%" y1="66.9094031%" x2="29.5159577%" y2="67.3252081%" id="linearGradient-2">
            <stop stop-color="#E0E5EF" stop-opacity="0" offset="0%"></stop>
            <stop stop-color="#E0E5EF" offset="100%"></stop>
        </linearGradient>
        <linearGradient x1="93.4061835%" y1="98.8%" x2="40.5999348%" y2="100%" id="linearGradient-3">
            <stop stop-color="#E0E5EF" stop-opacity="0" offset="0%"></stop>
            <stop stop-color="#E0E5EF" offset="100%"></stop>
        </linearGradient>
        <linearGradient x1="92.5182204%" y1="98.8%" x2="40.7922325%" y2="100%" id="linearGradient-4">
            <stop stop-color="#E0E5EF" stop-opacity="0" offset="0%"></stop>
            <stop stop-color="#E0E5EF" offset="100%"></stop>
        </linearGradient>
        <linearGradient x1="50%" y1="100%" x2="50%" y2="-26.8681996%" id="linearGradient-5">
            <stop stop-color="#A2ABB9" offset="0%"></stop>
            <stop stop-color="#E7EAF0" offset="100%"></stop>
        </linearGradient>
        <linearGradient x1="50%" y1="100%" x2="95.9201389%" y2="-28.9579615%" id="linearGradient-6">
            <stop stop-color="#A2ABB9" offset="0%"></stop>
            <stop stop-color="#E7EAF0" offset="100%"></stop>
        </linearGradient>
    </defs>
    <g id="页面-1" stroke="none" stroke-width="1" fill="none" fill-rule="evenodd">
        <g id="画板" transform="translate(-59.000000, 0.000000)">
            <g id="文件夹空空如也" transform="translate(59.000000, 0.000000)">
                <path d="M52.1331636,0 C62.0471968,0 71.1886201,3.25622519 78.5139112,8.74146601 L75.5673289,8.74172185 C74.1725965,8.74172185 73.0419426,9.87237577 73.0419426,11.2671082 L73.0419426,11.2671082 L73.0419426,11.4613687 C73.0419426,12.8561011 74.1725965,13.986755 75.5673289,13.986755 L75.5673289,13.986755 L84.3436676,13.9866077 C86.0086325,15.7809285 87.520934,17.7148513 88.8603416,19.7684616 L93.0268636,19.7684892 C94.5288832,19.7684892 95.7465104,20.9861165 95.7465104,22.488136 L95.7465104,22.6399302 C95.7465104,23.88083 94.9154421,24.9276234 93.7795344,25.2540817 L89.9426049,25.2538631 C88.2260112,25.2538631 86.8344371,26.6454372 86.8344371,28.3620309 L86.8344371,28.3620309 L86.8344371,29.3333333 C86.8344371,31.049927 88.2260112,32.4415011 89.9426049,32.4415011 L89.9426049,32.4415011 L103.133164,32.4414931 C104.483446,32.7798257 105.483444,34.0014342 105.483444,35.4566045 L105.483444,35.6300836 C105.483444,37.3466772 104.09187,38.7382514 102.375276,38.7382514 L95.5410982,38.7380342 C95.6769797,40.1178058 95.7465104,41.5166936 95.7465104,42.9315673 C95.7465104,66.6420173 76.2201498,85.8631347 52.1331636,85.8631347 C32.8668045,85.8631347 16.5182677,73.5657435 10.7461564,56.5098422 L9.10934854,56.5099234 C8.44766156,56.5099234 7.91125828,55.9735203 7.91125828,55.3118333 C7.91125828,54.8070152 8.22347486,54.3751194 8.66534409,54.1987093 L10.6843267,54.1986755 C12.079059,54.1986755 13.209713,53.0680216 13.209713,51.6732892 L13.209713,51.6732892 L13.209713,51.4790287 C13.209713,50.0842963 12.079059,48.9536424 10.6843267,48.9536424 L10.6843267,48.9536424 L8.94551503,48.9536908 C8.94403551,48.9433155 8.94255975,48.9329393 8.94108774,48.9225617 L4.63390318,48.9220185 C3.53109155,48.9220185 2.63708609,48.0280131 2.63708609,46.9252016 C2.63708609,45.8223899 3.53109155,44.9283845 4.63390318,44.9283845 L8.56617075,44.9286964 C8.53538025,44.2667859 8.51981661,43.6009658 8.51981661,42.9315673 C8.51981661,36.5928426 9.91536692,30.5749708 12.4205214,25.1594281 L5.4392936,25.1598953 C2.43525469,25.1598953 0,22.7246406 0,19.7206017 L0,19.4170131 C0,16.5181156 2.26777004,14.1488842 5.12603982,13.9865891 L29.7218543,13.986755 C30.7947252,13.986755 31.6644592,13.1170211 31.6644592,12.0441501 C31.6644592,10.9712792 30.7947252,10.1015453 29.7218543,10.1015453 L29.7218543,10.1015453 L24.0283553,10.1013531 C24.0757537,10.0619952 24.1232386,10.0227351 24.1708094,9.983573 L21.3391408,9.98408546 C19.3006859,9.98408546 17.6481916,8.33159115 17.6481916,6.29313623 L17.6481916,6.08712978 C17.6481916,4.04867476 19.3006859,2.3961805 21.3391408,2.3961805 L37.7313155,2.39584346 C42.2399602,0.843780346 47.0864594,0 52.1331636,0 Z" id="背景" fill="#F3F3FA" fill-rule="nonzero" opacity="0.60159418"></path>
                <path d="M29.6790688,26.6074945 L28.2587677,26.6074945 C28.2587677,23.7643942 25.954002,21.4596283 23.1109015,21.4596283 C20.2678012,21.4596283 17.9629619,23.7643942 17.9629619,26.6074945 L16.9255272,26.6074945 C15.6175657,26.6074945 14.5572809,27.7599875 14.5572809,29.1815378 C14.5572809,30.6030879 15.6176392,31.7554341 16.9255272,31.7554341 L29.6791423,31.7554341 C30.9872506,31.7554341 32.047462,30.6030144 32.047462,29.1815378 C32.047462,27.7599141 30.9871772,26.6074945 29.6790688,26.6074945 Z" id="路径" fill="url(#linearGradient-1)" fill-rule="nonzero"></path>
                <path d="M66.0295762,11.9717514 L65.0112355,11.9717514 C65.0112355,9.93323292 63.3587435,8.28086352 61.3202251,8.28086352 C59.2815842,8.28086352 57.6290921,9.93323292 57.6290921,11.9717514 L56.8852075,11.9717514 C55.9474523,11.9717514 55.1871564,12.7981811 55.1871564,13.8173791 C55.1871564,14.8365772 55.9474523,15.662762 56.8852075,15.662762 L66.0295762,15.662762 C66.9674539,15.662762 67.7276273,14.8365772 67.7276273,13.8173791 C67.7276273,12.7981811 66.9674539,11.9717514 66.0295762,11.9717514 Z" id="路径" fill="url(#linearGradient-2)" fill-rule="nonzero"></path>
                <path d="M49.6335541,65.6600442 C61.55719,65.6600442 72.2945069,66.6326637 79.7998803,68.1861875 C87.1404096,68.2350426 93.0507726,70.4338116 93.0507726,73.1390728 C93.0507726,75.2830491 89.3385356,77.108903 84.1437524,77.7985464 C82.9039303,78.1653652 81.5083266,78.5111218 79.9753816,78.832444 C80.0152866,79.037151 80.0353201,79.2439724 80.0353201,79.4525386 C80.0353201,84.1731712 69.7724609,88 57.1125828,88 C45.7226998,88 36.2730368,84.9024488 34.4917428,80.8432662 C19.2938265,79.6892116 8.54746137,76.8487169 8.54746137,73.5275938 C8.54746137,69.1824662 26.9423316,65.6600442 49.6335541,65.6600442 Z" id="形状结合" fill="#E7EAF0" fill-rule="nonzero"></path>
                <g id="树备份" transform="translate(12.238411, 56.918322)" fill-rule="nonzero">
                    <path d="M72.1313466,5.9381019 C72.1475349,6.00208146 72.1677704,6.07005973 72.192053,6.14203671 L72.2406181,6.33397536 C72.2568064,6.39795491 72.2649007,6.4499383 72.2649007,6.4899255 C72.2649007,6.71385393 72.2041943,6.91179066 72.0827815,7.08373571 C71.9613687,7.25568073 71.803532,7.38164048 71.6092715,7.46161492 C71.5364238,7.46961235 71.4595291,7.47361106 71.3785872,7.47361106 C71.3138338,7.48160852 71.2409861,7.48560723 71.1600442,7.48560723 L70.9293598,7.48560723 L69.0353201,7.50959957 L69.0353201,9.5129592 C69.0353201,9.80886462 69.0413907,10.1067694 69.053532,10.4066735 C69.0656733,10.7065777 69.0798382,10.9764914 69.0960265,11.2164147 C69.1122148,11.5043227 69.1324503,11.7802345 69.1567329,12.0441501 L67.4083885,12.0441501 L67.4448124,11.5762997 C67.4529066,11.3923585 67.4610007,11.1424384 67.4690949,10.8265393 C67.4771892,10.5106403 67.4812362,10.0887752 67.4812362,9.56094387 L67.4812362,7.72553055 C67.3436351,7.84549221 67.1898455,7.90547303 67.0198675,7.90547303 C66.8822664,7.90547303 66.7628771,7.87348326 66.6616998,7.8095037 C66.5605225,7.74552415 66.477557,7.65755228 66.4128035,7.54558807 L65.0408389,7.47361106 C64.7737307,7.40963153 64.5511406,7.27567433 64.3730684,7.07173952 C64.1949963,6.86780471 64.1059603,6.62588204 64.1059603,6.34597153 C64.1059603,6.29798686 64.1100073,6.25400092 64.1181015,6.2140137 C64.1261958,6.17402648 64.1383371,6.13403926 64.1545254,6.09405204 L64.4580574,5.39827445 C64.4742457,5.22233069 64.5248344,5.05838309 64.6098234,4.90643167 C64.6948124,4.75448024 64.8020603,4.62252241 64.9315673,4.51055821 L66.8377483,1.01967406 L66.8498896,1.01967406 C67.0036792,0.739763536 67.1857984,0.499840227 67.3962472,0.299904136 C67.606696,0.0999680455 67.8778514,0 68.209713,0 C68.5011038,0 68.7621413,0.0759757142 68.9928256,0.227927143 C69.2235099,0.379878571 69.3955115,0.579814662 69.50883,0.827735415 L71.0386313,3.79078828 C71.3138338,3.8867576 71.5404709,4.05470393 71.718543,4.29462723 C71.8966152,4.53455052 71.9856512,4.81046234 71.9856512,5.12236265 C71.9856512,5.25032174 71.9654157,5.38627828 71.9249448,5.53023227 L72.1313466,5.9381019 Z" id="路径" fill="url(#linearGradient-3)"></path>
                    <path d="M79.901766,9.82331161 C79.9179543,9.88729117 79.9381898,9.95526944 79.9624724,10.0272464 L80.0110375,10.2191851 C80.0272258,10.2831646 80.0353201,10.335148 80.0353201,10.3751352 C80.0353201,10.5990636 79.9746137,10.7970004 79.8532009,10.9689454 C79.7317881,11.1408904 79.5739514,11.2668502 79.3796909,11.3468246 C79.3068433,11.3548221 79.2299486,11.3588208 79.1490066,11.3588208 C79.0842532,11.3668182 79.0114055,11.3708169 78.9304636,11.3708169 L78.6997792,11.3708169 L76.8057395,11.3948093 L76.8057395,13.3981689 C76.8057395,13.6940743 76.8118102,13.9919791 76.8239514,14.2918832 C76.8360927,14.5917874 76.8502576,14.8617011 76.8664459,15.1016244 C76.8826342,15.3895324 76.9028698,15.6654442 76.9271523,15.9293598 L75.1788079,15.9293598 L75.2152318,15.4615094 C75.223326,15.2775682 75.2314201,15.0276481 75.2395143,14.711749 C75.2476086,14.39585 75.2516556,13.9739849 75.2516556,13.4461536 L75.2516556,11.6107403 C75.1140545,11.7307019 74.9602649,11.7906827 74.790287,11.7906827 C74.6526859,11.7906827 74.5332965,11.758693 74.4321192,11.6947134 C74.3309419,11.6307339 74.2479764,11.542762 74.183223,11.4307978 L72.8112583,11.3588208 C72.5441501,11.2948412 72.32156,11.160884 72.1434879,10.9569492 C71.9654157,10.7530144 71.8763797,10.5110918 71.8763797,10.2311812 C71.8763797,10.1831966 71.8804267,10.1392106 71.888521,10.0992234 C71.8966152,10.0592362 71.9087565,10.019249 71.9249448,9.97926176 L72.2284768,9.28348416 C72.2446651,9.1075404 72.2952539,8.94359281 72.3802428,8.79164138 C72.4652318,8.63968995 72.5724797,8.50773213 72.7019868,8.39576792 L74.6081678,4.90488378 L74.6203091,4.90488378 C74.7740987,4.62497324 74.9562179,4.38504995 75.1666667,4.18511385 C75.3771155,3.98517775 75.6482709,3.88520971 75.9801325,3.88520971 C76.2715232,3.88520971 76.5325607,3.96118544 76.763245,4.11313686 C76.9939294,4.26508829 77.1659309,4.46502437 77.2792494,4.71294513 L78.8090508,7.67599799 C79.0842532,7.77196731 79.3108903,7.93991364 79.4889625,8.17983694 C79.6670346,8.41976024 79.7560706,8.69567206 79.7560706,9.00757236 C79.7560706,9.13553145 79.7358351,9.27148799 79.6953642,9.41544199 L79.901766,9.82331161 Z" id="路径" fill="url(#linearGradient-3)"></path>
                    <path d="M11.2737569,8.42827366 C11.2964978,8.51908337 11.3249238,8.61556865 11.359035,8.71772952 L11.4272574,8.99015858 C11.4499982,9.08096826 11.4613687,9.15475114 11.4613687,9.21150717 C11.4613687,9.52934107 11.3760906,9.81028351 11.2055345,10.0543345 C11.0349784,10.2983856 10.8132555,10.4771671 10.5403658,10.5906792 C10.4380322,10.6020304 10.3300133,10.607706 10.2163093,10.607706 C10.125346,10.6190572 10.0230124,10.6247328 9.90930832,10.6247328 L9.58525176,10.6247328 L6.92457689,10.6587865 L6.92457689,13.5022647 C6.92457689,13.9222595 6.93310469,14.345092 6.95016029,14.7707624 C6.9672159,15.1964328 6.98711412,15.5795362 7.00985493,15.9200725 C7.03259574,16.328716 7.06102176,16.7203328 7.09513297,17.0949227 L4.63912541,17.0949227 L4.69029222,16.4308769 C4.70166264,16.1697991 4.71303304,15.8150738 4.72440345,15.366701 C4.73577387,14.9183282 4.74145908,14.3195518 4.74145906,13.5703719 L4.74145906,10.9652692 C4.54816216,11.1355373 4.33212447,11.2206714 4.09334595,11.2206714 C3.90004906,11.2206714 3.73233559,11.1752666 3.59020553,11.0844569 C3.44807544,10.9936472 3.33152879,10.8687839 3.24056554,10.7098669 L1.31328183,10.607706 C0.938058447,10.5168964 0.625372297,10.3267636 0.375223379,10.0373077 C0.125074459,9.74785185 0,9.40447775 0,9.00718539 C0,8.93907811 0.00568520091,8.87664647 0.0170556028,8.81989041 C0.0284260046,8.76313435 0.0454816129,8.7063783 0.0682224278,8.64962226 L0.494612631,7.66206697 C0.517353445,7.41234034 0.588418479,7.17964054 0.707807733,6.96396753 C0.827196985,6.74829453 0.977854854,6.56099957 1.15978134,6.40208262 L3.83751181,1.44727931 L3.85456741,1.44727931 C4.07060512,1.04998695 4.32643923,0.709450644 4.62206977,0.425670387 C4.91770031,0.141890129 5.29860889,0 5.76479552,0 C6.1741301,0 6.54082567,0.107836498 6.86488223,0.323509493 C7.1889388,0.539182488 7.43055991,0.822962746 7.5897456,1.17485027 L9.7387522,5.3804737 C10.125346,5.51668822 10.4437173,5.75506363 10.6938663,6.09559993 C10.9440152,6.43613623 11.0690896,6.82775299 11.0690896,7.2704502 C11.0690896,7.45206956 11.0406636,7.64504013 10.9838116,7.84936193 L11.2737569,8.42827366 Z" id="路径" fill="url(#linearGradient-4)"></path>
                </g>
                <ellipse id="椭圆形" fill="#D1D6E2" fill-rule="nonzero" cx="52.9359823" cy="75.5865108" rx="6.70198675" ry="1.74834437"></ellipse>
                <g id="文件夹" transform="translate(33.801325, 31.858720)" fill-rule="nonzero">
                    <path d="M2.52538631,4.27373068 L12.2306853,4.27373068 L13.8433119,6.82855133 L27.3796702,6.80447126 C30.8128521,6.79836393 33.6009468,9.57655676 33.607064,13.0097386 C33.607064,13.0134248 33.607064,13.0171109 33.607064,13.020797 L33.607064,32.6357616 L33.607064,32.6357616 L2.52538631,32.6357616 L2.52538631,4.27373068 Z" id="矩形" fill="#D9DFE8"></path>
                    <rect id="矩形" fill="#A2ABB9" x="5.82781457" y="10.4900662" width="25.2538631" height="27.9735099"></rect>
                    <rect id="矩形" fill="#FFFFFF" x="5.24503311" y="13.209713" width="26.419426" height="24.6710817"></rect>
                    <rect id="矩形" fill="#C8CEDE" x="5.05077263" y="14.9580574" width="27.3907285" height="22.7284768"></rect>
                    <polygon id="矩形" fill="url(#linearGradient-5)" points="0 17.4834437 36.9094923 17.4834437 33.5540839 38.4635762 3.35540839 38.4635762"></polygon>
                    <rect id="矩形" fill="#D9DFE8" x="21.3686534" y="26.6136865" width="1.3598234" height="1.3598234" rx="0.6799117"></rect>
                    <rect id="矩形" fill="#D9DFE8" x="24.0883002" y="26.6136865" width="6.02207506" height="1.3598234" rx="0.6799117"></rect>
                    <rect id="矩形备份-2" fill="#D9DFE8" x="21.1743929" y="29.5275938" width="8.74172185" height="1.3598234" rx="0.6799117"></rect>
                    <circle id="椭圆形" fill="#D9DFE8" cx="16.5121413" cy="2.91390728" r="2.91390728"></circle>
                    <polygon id="星形" fill="#FFFFFF" points="16.5121413 3.88520971 15.3703068 4.48550762 15.5883778 3.21405625 14.6646143 2.31360938 15.941224 2.12810711 16.5121413 0.971302428 17.0830585 2.12810711 18.3596683 2.31360938 17.4359048 3.21405625 17.6539758 4.48550762"></polygon>
                </g>
                <g id="plane" transform="translate(66.242826, 25.059603) scale(-1, 1) rotate(28.000000) translate(-66.242826, -25.059603) translate(61.774834, 20.397351)" fill="url(#linearGradient-6)" fill-rule="nonzero">
                    <polygon id="路径" points="5.03155801 7.39707134 7.65799875 8.53739547 8.93598234 0 0 5.26769814 2.34472169 6.37784787 8.01021193 1.21099634 3.46163319 6.90259332 3.4012479 9.32450331"></polygon>
                </g>
                <path d="M71.2935982,29.3333333 C82.4689498,36.6035965 83.4710895,45.5139786 74.3000174,56.0644797" id="路径-26" stroke="#D1D6E2" stroke-linecap="round" stroke-linejoin="round" stroke-dasharray="4"></path>
            </g>
        </g>
    </g>
</svg>