<?xml version="1.0" encoding="UTF-8"?>
<svg width="200px" height="167px" viewBox="0 0 200 167" version="1.1" xmlns="http://www.w3.org/2000/svg" xmlns:xlink="http://www.w3.org/1999/xlink">
    <title>无网络_slice</title>
    <defs>
        <linearGradient x1="93.4061835%" y1="98.8%" x2="40.5999348%" y2="100%" id="linearGradient-1">
            <stop stop-color="#E0E5EF" stop-opacity="0" offset="0%"></stop>
            <stop stop-color="#E0E5EF" offset="100%"></stop>
        </linearGradient>
        <linearGradient x1="92.5182204%" y1="98.8%" x2="40.7922325%" y2="100%" id="linearGradient-2">
            <stop stop-color="#E0E5EF" stop-opacity="0" offset="0%"></stop>
            <stop stop-color="#E0E5EF" offset="100%"></stop>
        </linearGradient>
        <linearGradient x1="144.588078%" y1="66.9103226%" x2="29.5159577%" y2="67.3261502%" id="linearGradient-3">
            <stop stop-color="#E0E5EF" stop-opacity="0" offset="0%"></stop>
            <stop stop-color="#E0E5EF" offset="100%"></stop>
        </linearGradient>
        <linearGradient x1="144.588078%" y1="66.9094031%" x2="29.5159577%" y2="67.3252081%" id="linearGradient-4">
            <stop stop-color="#E0E5EF" stop-opacity="0" offset="0%"></stop>
            <stop stop-color="#E0E5EF" offset="100%"></stop>
        </linearGradient>
        <linearGradient x1="50%" y1="116.487765%" x2="50%" y2="-14.3163109%" id="linearGradient-5">
            <stop stop-color="#A2ABB9" offset="0%"></stop>
            <stop stop-color="#E7EAF0" offset="100%"></stop>
        </linearGradient>
        <linearGradient x1="111.482015%" y1="58.5156069%" x2="-7.3256912%" y2="43.2307613%" id="linearGradient-6">
            <stop stop-color="#D1D6E2" offset="0%"></stop>
            <stop stop-color="#C0C7D2" offset="100%"></stop>
        </linearGradient>
        <linearGradient x1="50%" y1="116.487765%" x2="50%" y2="-14.3163109%" id="linearGradient-7">
            <stop stop-color="#A2ABB9" offset="0%"></stop>
            <stop stop-color="#E7EAF0" offset="100%"></stop>
        </linearGradient>
        <linearGradient x1="50%" y1="116.487765%" x2="50%" y2="-14.3163109%" id="linearGradient-8">
            <stop stop-color="#A2ABB9" offset="0%"></stop>
            <stop stop-color="#E7EAF0" offset="100%"></stop>
        </linearGradient>
    </defs>
    <g id="页面-1" stroke="none" stroke-width="1" fill="none" fill-rule="evenodd">
        <g id="画板" fill-rule="nonzero">
            <g id="无网络">
                <path d="M98.846154,0 C117.64348,0 134.975912,6.17390762 148.864899,16.5741006 L143.278085,16.5745856 C140.633627,16.5745856 138.489871,18.7183418 138.489871,21.3627993 L138.489871,21.3627993 L138.489871,21.7311234 C138.489871,24.3755808 140.633627,26.519337 143.278085,26.519337 L143.278085,26.519337 L159.918305,26.5190578 C163.075132,29.9211477 165.942504,33.5879274 168.482064,37.4816387 L176.381924,37.481691 C179.229801,37.481691 181.538462,39.7903514 181.538462,42.6382287 L181.538462,42.9260354 C181.538462,45.2788214 179.962729,47.2635753 177.809012,47.8825506 L170.53407,47.8821363 C167.279353,47.8821363 164.640884,50.5206055 164.640884,53.7753223 L164.640884,53.7753223 L164.640884,55.6169429 C164.640884,58.8716597 167.279353,61.5101289 170.53407,61.5101289 L170.53407,61.5101289 L195.543794,61.5101138 C198.103972,62.1516033 200,64.4678122 200,67.2268619 L200,67.5557838 C200,70.8105006 197.361531,73.4489698 194.106814,73.4489698 L181.148993,73.448558 C181.406629,76.0646494 181.538462,78.7169856 181.538462,81.3996317 C181.538462,126.355407 144.515854,162.799263 98.846154,162.799263 C62.3165179,162.799263 31.3191665,139.483014 20.3750579,107.144477 L17.2716176,107.144631 C16.0170379,107.144631 15,106.127594 15,104.873014 C15,103.915863 15.5919727,103.096974 16.4297709,102.762495 L20.2578269,102.762431 C22.9022842,102.762431 25.0460405,100.618675 25.0460405,97.9742173 L25.0460405,97.9742173 L25.0460405,97.6058932 C25.0460405,94.9614357 22.9022842,92.8176796 20.2578269,92.8176796 L20.2578269,92.8176796 L16.9609841,92.8177713 C16.9581788,92.7980994 16.9553807,92.7784258 16.9525898,92.7587495 L8.78602939,92.7577197 C6.69506309,92.7577197 5,91.0626567 5,88.9716906 C5,86.8807241 6.69506309,85.1856611 8.78602939,85.1856611 L16.2417351,85.1862527 C16.1833553,83.931249 16.1538462,82.6688328 16.1538462,81.3996317 C16.1538462,69.3812059 18.7998544,57.9711274 23.5497078,47.7030843 L10.3130755,47.7039702 C4.61732118,47.7039702 0,43.086649 0,37.3908947 L0,36.815281 C0,31.3188781 4.2997649,26.8267392 9.71913628,26.5190225 L56.3535912,26.519337 C58.387789,26.519337 60.0368324,24.8702936 60.0368324,22.8360958 C60.0368324,20.801898 58.387789,19.1528545 56.3535912,19.1528545 L56.3535912,19.1528545 L45.5585341,19.1524902 C45.6484029,19.0778663 45.7384357,19.003428 45.8286317,18.9291753 L40.4596969,18.930147 C36.5947208,18.930147 33.4615385,15.7969646 33.4615385,11.9319886 L33.4615385,11.5413937 C33.4615385,7.6764175 36.5947208,4.54323525 40.4596969,4.54323525 L71.5397871,4.54259621 C80.0883223,1.59983466 89.2774405,0 98.846154,0 Z" id="背景" fill="#F3F3FA" opacity="0.60159418"></path>
                <path d="M94.106814,124.493554 C116.714411,124.493554 137.072709,126.337672 151.303138,129.283203 C165.221018,129.375834 176.427256,133.544771 176.427256,138.674033 C176.427256,142.739081 169.388735,146.200959 159.539259,147.508545 C157.188517,148.204045 154.542407,148.859611 151.635894,149.468848 C151.711555,149.856979 151.74954,150.249119 151.74954,150.644567 C151.74954,159.595038 132.290829,166.850829 108.287293,166.850829 C86.6917087,166.850829 68.7748438,160.977772 65.397453,153.281431 C36.5817153,151.093307 16.2062615,145.707638 16.2062615,139.410681 C16.2062615,131.17218 51.0835267,124.493554 94.106814,124.493554 Z" id="形状结合" fill="#E7EAF0"></path>
                <ellipse id="椭圆形" fill="#D1D6E2" cx="99.2633517" cy="143.314454" rx="12.7071823" ry="3.31491713"></ellipse>
                <g id="树备份" transform="translate(23.204420, 107.918969)">
                    <path d="M136.763352,11.2588321 C136.794045,11.3801394 136.832413,11.5090284 136.878453,11.645499 L136.970534,12.0094209 C137.001228,12.1307282 137.016575,12.2292903 137.016575,12.3051074 C137.016575,12.7296829 136.901473,13.1049773 136.671271,13.4309906 C136.441068,13.7570039 136.141805,13.9958276 135.773481,14.1474617 C135.635359,14.1626251 135.489564,14.1702068 135.336096,14.1702068 C135.213321,14.1853702 135.0752,14.1929519 134.921731,14.1929519 L134.484346,14.1929519 L130.893186,14.2384422 L130.893186,18.0368764 C130.893186,18.5979226 130.904696,19.1627596 130.927716,19.7313875 C130.950737,20.3000154 130.977594,20.8117805 131.008287,21.2666828 C131.038981,21.8125656 131.077348,22.3357032 131.123389,22.8360958 L127.808471,22.8360958 L127.877532,21.9490363 C127.892879,21.6002779 127.908226,21.1264213 127.923573,20.5274666 C127.93892,19.9285119 127.946593,19.128642 127.946593,18.1278569 L127.946593,14.6478543 C127.685697,14.8753054 127.394107,14.989031 127.071823,14.989031 C126.810927,14.989031 126.584561,14.9283773 126.392726,14.8070701 C126.20089,14.6857628 126.043585,14.5189653 125.92081,14.3066775 L123.319521,14.1702068 C122.813076,14.0488996 122.391038,13.7949124 122.053407,13.4082455 C121.715776,13.0215785 121.546961,12.5628853 121.546961,12.032166 C121.546961,11.9411855 121.554635,11.8577868 121.569982,11.7819697 C121.585329,11.7061527 121.608349,11.6303356 121.639042,11.5545186 L122.214549,10.2353019 C122.245242,9.90170685 122.34116,9.59085694 122.502302,9.30275215 C122.663444,9.01464737 122.866789,8.76445109 123.112339,8.55216335 L126.726519,1.9333348 L126.74954,1.9333348 C127.04113,1.40261544 127.386434,0.947713138 127.785451,0.568627882 C128.184469,0.189542628 128.698588,0 129.327808,0 C129.880295,0 130.37523,0.144052396 130.812615,0.43215719 C131.25,0.720261982 131.57612,1.09934724 131.790976,1.56941295 L134.691529,7.18745643 C135.213321,7.36941735 135.643032,7.68784899 135.980663,8.14275127 C136.318294,8.59765355 136.487109,9.12079123 136.487109,9.71216424 C136.487109,9.95477878 136.448741,10.2125568 136.372007,10.4854982 L136.763352,11.2588321 Z" id="路径" fill="url(#linearGradient-1)"></path>
                    <path d="M151.496317,18.6253146 C151.52701,18.7466219 151.565378,18.8755109 151.611418,19.0119815 L151.703499,19.3759034 C151.734193,19.4972107 151.74954,19.5957729 151.74954,19.6715899 C151.74954,20.0961654 151.634438,20.4714598 151.404236,20.7974731 C151.174033,21.1234864 150.87477,21.3623101 150.506446,21.5139442 C150.368324,21.5291076 150.222529,21.5366893 150.069061,21.5366893 C149.946286,21.5518527 149.808165,21.5594344 149.654696,21.5594344 L149.217311,21.5594344 L145.626151,21.6049247 L145.626151,25.4033589 C145.626151,25.9644051 145.637661,26.5292421 145.660681,27.09787 C145.683702,27.6664979 145.710559,28.178263 145.741252,28.6331653 C145.771946,29.1790481 145.810313,29.7021857 145.856354,30.2025783 L142.541436,30.2025783 L142.610497,29.3155188 C142.625844,28.9667604 142.641191,28.4929038 142.656538,27.8939491 C142.671885,27.2949944 142.679558,26.4951245 142.679558,25.4943394 L142.679558,22.0143368 C142.418662,22.2417879 142.127072,22.3555135 141.804788,22.3555135 C141.543892,22.3555135 141.317526,22.2948599 141.125691,22.1735526 C140.933855,22.0522453 140.77655,21.8854478 140.653775,21.67316 L138.052486,21.5366893 C137.546041,21.4153821 137.124003,21.1613949 136.786372,20.774728 C136.448741,20.388061 136.279926,19.9293678 136.279926,19.3986485 C136.279926,19.307668 136.2876,19.2242693 136.302947,19.1484522 C136.318294,19.0726352 136.341314,18.9968181 136.372007,18.9210011 L136.947514,17.6017844 C136.978207,17.2681894 137.074125,16.9573394 137.235267,16.6692347 C137.396409,16.3811299 137.599754,16.1309336 137.845304,15.9186459 L141.459484,9.29981731 L141.482505,9.29981731 C141.774095,8.76909794 142.119399,8.31419565 142.518416,7.93511039 C142.917434,7.55602512 143.431553,7.3664825 144.060773,7.3664825 C144.61326,7.3664825 145.108195,7.51053492 145.54558,7.79863971 C145.982965,8.08674449 146.309085,8.46582972 146.523941,8.93589547 L149.424494,14.5539389 C149.946286,14.7358999 150.375997,15.0543315 150.713628,15.5092338 C151.051259,15.9641361 151.220074,16.4872737 151.220074,17.0786467 C151.220074,17.3212613 151.181706,17.5790393 151.104972,17.8519807 L151.496317,18.6253146 Z" id="路径" fill="url(#linearGradient-1)"></path>
                    <path d="M21.3754056,15.9802778 C21.4185229,16.1524559 21.4724195,16.3353951 21.5370955,16.5290954 L21.6664474,17.0456297 C21.7095647,17.2178077 21.7311234,17.3577024 21.7311234,17.4653137 C21.7311234,18.067937 21.5694335,18.6006129 21.2460537,19.0633415 C20.9226738,19.5260701 20.5022801,19.8650457 19.9848724,20.0802683 C19.7908445,20.1017905 19.5860373,20.1125516 19.3704508,20.1125516 C19.1979815,20.1340739 19.0039536,20.144835 18.7883671,20.144835 L18.1739455,20.144835 L13.1292204,20.2094018 L13.1292204,25.6007278 C13.1292204,26.3970515 13.1453894,27.1987556 13.1777273,28.0058403 C13.2100653,28.8129251 13.247793,29.5393014 13.2909103,30.1849691 C13.3340276,30.9597705 13.3879242,31.7022884 13.4526002,32.412523 L8.7959309,32.412523 L8.89294483,31.1534708 C8.9145035,30.6584589 8.93606214,29.9858883 8.95762081,29.135759 C8.97917948,28.2856297 8.98995882,27.1503305 8.98995878,25.7298614 L8.98995878,20.7905028 C8.62346166,21.1133367 8.21384726,21.2747537 7.76111551,21.2747537 C7.39461838,21.2747537 7.07662825,21.1886646 6.80714508,21.0164865 C6.53766188,20.8443084 6.31668567,20.6075636 6.14421643,20.306252 L2.49002457,20.1125516 C1.77858897,19.9403736 1.18572598,19.5798757 0.711435587,19.0310581 C0.237145195,18.4822404 0,17.8311921 0,17.077913 C0,16.9487794 0.0107793237,16.830407 0.0323379711,16.7227957 C0.0538966184,16.6151844 0.0862346,16.5075731 0.129351916,16.3999618 L0.937801448,14.5275253 C0.980918762,14.0540355 1.11566035,13.6128292 1.34202621,13.2039063 C1.56839207,12.7949834 1.85404424,12.4398661 2.1989827,12.1385544 L7.27604575,2.7440881 L7.30838372,2.7440881 C7.71799816,1.99080902 8.20306785,1.34514123 8.76359285,0.807084737 C9.32411786,0.269028246 10.0463328,0 10.9302376,0 C11.7063491,0 12.4016157,0.204461466 13.0160374,0.613384398 C13.630459,1.02230733 14.0885804,1.56036382 14.3904016,2.22755387 L18.4649872,10.2015511 C19.1979815,10.4598182 19.8016238,10.9117856 20.2759142,11.5574534 C20.7502046,12.2031212 20.9873498,12.9456392 20.9873498,13.7850073 C20.9873498,14.1293634 20.9334531,14.4952418 20.8256599,14.8826425 L21.3754056,15.9802778 Z" id="路径" fill="url(#linearGradient-2)"></path>
                </g>
                <g id="暂无数据" transform="translate(86.355158, 75.303967) scale(-1, 1) translate(-86.355158, -75.303967) translate(27.601073, 15.700783)">
                    <path d="M113.017621,34.7478815 L110.324684,34.7478815 C110.324684,29.3572718 105.954774,24.9873618 100.564164,24.9873618 C95.1735547,24.9873618 90.8035053,29.3572718 90.8035053,34.7478815 L88.8364954,34.7478815 C86.3565587,34.7478815 84.3462247,36.9330453 84.3462247,39.6283503 C84.3462247,42.3236552 86.356698,44.5085403 88.8364954,44.5085403 L113.01776,44.5085403 C115.497975,44.5085403 117.50817,42.323516 117.50817,39.6283503 C117.50817,36.9329061 115.497836,34.7478815 113.017621,34.7478815 Z" id="路径" fill="url(#linearGradient-3)"></path>
                    <path d="M27.8682511,6.99804228 L25.9374444,6.99804228 C25.9374444,3.13294576 22.8042664,0 18.9391699,0 C15.0738412,0 11.9406632,3.13294576 11.9406632,6.99804228 L10.5302339,6.99804228 C8.75221982,6.99804228 7.31067466,8.56497956 7.31067466,10.4974117 C7.31067466,12.4298439 8.75221982,13.9963168 10.5302339,13.9963168 L27.8682511,13.9963168 C29.6464973,13.9963168 31.0878103,12.4298439 31.0878103,10.4974117 C31.0878103,8.56497956 29.6464973,6.99804228 27.8682511,6.99804228 Z" id="路径" fill="url(#linearGradient-4)"></path>
                    <g id="编组" transform="translate(0.000000, 50.401726)">
                        <path d="M26.3335322,24.6387729 L53.1073429,24.6387729 C54.7299031,24.6387729 55.5410409,25.4501954 55.5410409,27.0730403 C55.5410409,28.6956006 54.7299031,29.5070231 53.1073429,29.5070231 L26.3335322,29.5070231 C24.710972,29.5070231 23.8995495,28.6956006 23.8995495,27.0730403 C23.8995495,25.4499106 24.710972,24.6387729 26.3335322,24.6387729 L26.3335322,24.6387729 Z" id="路径" fill="#FFFFFF"></path>
                        <path d="M26.3335322,36.8089714 L45.8056792,36.8089714 C47.42767,36.8089714 48.2396619,37.6203941 48.2396619,39.2426696 C48.2396619,40.8652298 47.42767,41.676937 45.8056792,41.676937 L26.3335322,41.676937 C24.710972,41.676937 23.8995495,40.8652298 23.8995495,39.2426696 C23.8995495,37.6203941 24.710972,36.8089714 26.3335322,36.8089714 L26.3335322,36.8089714 Z" id="路径" fill="#FFFFFF"></path>
                        <circle id="椭圆形" fill="url(#linearGradient-5)" cx="47.3428265" cy="34.4023208" r="34.4023208"></circle>
                        <ellipse id="椭圆形" fill="#E7EAF0" transform="translate(58.327533, 13.173016) rotate(17.067486) translate(-58.327533, -13.173016) " cx="58.3275333" cy="13.1730155" rx="7.11285831" ry="3.68324125"></ellipse>
                        <circle id="椭圆形" fill="#B7C0CC" cx="40.6834247" cy="28.4600295" r="7.55064457"></circle>
                        <ellipse id="椭圆形" fill="#E7EAF0" transform="translate(25.493387, 18.667935) rotate(-46.235767) translate(-25.493387, -18.667935) " cx="25.4933868" cy="18.6679353" rx="2.71615954" ry="1.72906047"></ellipse>
                        <path d="M81.2155875,40.3564538 C81.1486807,40.7573249 80.8772085,42.0717039 80.796351,42.4674501 C86.7436508,46.4568018 89.4645212,49.9980446 88.6315219,51.9432416 C86.2973087,57.9018744 62.7162766,55.401372 41.8308066,48.7295271 C20.9453363,42.0576821 0.0177295774,30.0658779 2.61265429,24.6387729 C4.59952221,21.7588996 11.8627352,21.8255026 15.3090961,21.8255026 C15.4722347,21.4522482 16.0882556,20.1238473 16.2639214,19.7577107 C7.31265013,19.4374123 1.23409918,20.9591854 0.166153295,24.3962002 C-1.96005835,31.2383425 16.5674219,43.0774236 41.5487006,50.8397477 C66.5294096,58.6020715 88.5041543,59.3474413 90.6300814,52.5052991 C91.6385227,49.2579009 87.9928158,44.8847606 81.2155875,40.3564538 Z" id="路径" fill="url(#linearGradient-6)"></path>
                        <circle id="椭圆形" fill="#B7C0CC" cx="72.365228" cy="42.7372692" r="4.23572744"></circle>
                        <circle id="椭圆形" fill="#B7C0CC" cx="46.3983772" cy="45.4997002" r="2.57826888"></circle>
                    </g>
                </g>
                <g id="问号" transform="translate(132.228361, 63.351750) rotate(45.000000) translate(-132.228361, -63.351750) translate(125.598527, 52.670350)" fill="url(#linearGradient-7)">
                    <path d="M5.3038674,14.6869245 L5.3038674,12.0165746 L6.62983425,12.0165746 C8.8839779,12.0165746 10.6077348,10.2808471 10.6077348,8.01104972 L10.6077348,6.67587477 C10.6077348,4.40607735 8.8839779,2.6703499 6.62983425,2.6703499 C4.37569061,2.6703499 2.65193369,4.40607735 2.65193369,6.67587477 L2.65193369,8.01104972 L0,8.01104972 L0,6.67587477 C0,2.93738488 2.91712709,0 6.62983425,0 C10.3425414,0 13.2596685,2.93738491 13.2596685,6.67587477 L13.2596685,8.01104972 C13.2596685,11.2154696 11.0055249,13.8858195 7.9558011,14.553407 L7.9558011,17.3572744 L5.3038674,17.3572744 L5.3038674,14.6869245 L5.3038674,14.6869245 Z M5.3038674,18.6924494 L7.9558011,18.6924494 L7.9558011,21.3627993 L5.3038674,21.3627993 L5.3038674,18.6924494 Z" id="形状"></path>
                </g>
                <g id="问号备份" transform="translate(116.390424, 54.511971) rotate(15.000000) translate(-116.390424, -54.511971) translate(111.602210, 46.777164)" fill="url(#linearGradient-8)">
                    <path d="M3.8305709,10.6353591 L3.8305709,8.70165746 L4.78821363,8.70165746 C6.41620626,8.70165746 7.6611418,7.44475138 7.6611418,5.80110497 L7.6611418,4.83425414 C7.6611418,3.19060774 6.41620626,1.93370165 4.78821363,1.93370165 C3.160221,1.93370165 1.91528545,3.19060774 1.91528545,4.83425414 L1.91528545,5.80110497 L0,5.80110497 L0,4.83425414 C0,2.12707181 2.10681401,-1.11985299e-23 4.78821363,-1.11985299e-23 C7.46961326,-1.11985299e-23 9.57642726,2.12707183 9.57642726,4.83425414 L9.57642726,5.80110497 C9.57642726,8.12154696 7.94843462,10.0552486 5.74585635,10.538674 L5.74585635,12.5690608 L3.8305709,12.5690608 L3.8305709,10.6353591 L3.8305709,10.6353591 Z M3.8305709,13.5359116 L5.74585635,13.5359116 L5.74585635,15.4696133 L3.8305709,15.4696133 L3.8305709,13.5359116 Z" id="形状"></path>
                </g>
            </g>
        </g>
    </g>
</svg>