<?xml version="1.0" encoding="UTF-8"?>
<svg width="36px" height="36px" viewBox="0 0 36 36" version="1.1" xmlns="http://www.w3.org/2000/svg" xmlns:xlink="http://www.w3.org/1999/xlink">
    <title>大汉软件</title>
    <defs>
        <rect id="path-1" x="0" y="0" width="36" height="36" rx="6"></rect>
    </defs>
    <g id="页面-1" stroke="none" stroke-width="1" fill="none" fill-rule="evenodd">
        <g id="pc通讯2.1" transform="translate(-80.000000, -501.000000)">
            <g id="编组-13备份" transform="translate(64.000000, 112.000000)">
                <g id="编组-7备份" transform="translate(16.000000, 372.000000)">
                    <g id="大汉软件" transform="translate(0.000000, 17.000000)">
                        <mask id="mask-2" fill="white">
                            <use xlink:href="#path-1"></use>
                        </mask>
                        <use id="蒙版" fill="#AEB7C3" xlink:href="#path-1"></use>
                        <path d="M19.3809524,8 C20.9589088,8 22.2380952,9.27918643 22.2380952,10.8571429 L22.2380952,12.7619048 C22.2380952,14.3398612 20.9589088,15.6190476 19.3809524,15.6190476 L19.38,17.523 L24.6190476,17.5238095 C26.1611414,17.5238095 27.4178913,18.7455119 27.4742198,20.2738389 L27.4761905,20.3809524 L27.4768011,21.3729399 C28.8277927,21.5998953 29.8571429,22.7749769 29.8571429,24.1904762 L29.8571429,25.1428571 C29.8571429,26.7208136 28.5779564,28 27,28 L26.047619,28 C24.4696626,28 23.1904762,26.7208136 23.1904762,25.1428571 L23.1904762,24.1904762 C23.1904762,22.7746717 24.2202703,21.5993886 25.5716919,21.3727932 L25.5714286,20.3809524 C25.5714286,19.8788753 25.1829153,19.4675404 24.6901249,19.4311837 L24.6190476,19.4285714 L12.2380952,19.4285714 C11.7360182,19.4285714 11.3246833,19.8170847 11.2883265,20.3098751 L11.2857143,20.3809524 L11.285451,21.3727932 C12.6368726,21.5993886 13.6666667,22.7746717 13.6666667,24.1904762 L13.6666667,25.1428571 C13.6666667,26.7208136 12.3874802,28 10.8095238,28 L9.85714286,28 C8.27918643,28 7,26.7208136 7,25.1428571 L7,24.1904762 C7,22.7749769 8.02935015,21.5998953 9.38034178,21.3729399 L9.38095238,20.3809524 C9.38095238,18.8388586 10.6026547,17.5821087 12.1309818,17.5257802 L12.2380952,17.5238095 L17.476,17.523 L17.4761905,15.6190476 C15.898234,15.6190476 14.6190476,14.3398612 14.6190476,12.7619048 L14.6190476,10.8571429 C14.6190476,9.27918643 15.898234,8 17.4761905,8 L19.3809524,8 Z M18.9047619,21.3333333 C20.4827183,21.3333333 21.7619048,22.6125198 21.7619048,24.1904762 L21.7619048,25.1428571 C21.7619048,26.7208136 20.4827183,28 18.9047619,28 L17.952381,28 C16.3744245,28 15.0952381,26.7208136 15.0952381,25.1428571 L15.0952381,24.1904762 C15.0952381,22.6125198 16.3744245,21.3333333 17.952381,21.3333333 L18.9047619,21.3333333 Z M27,23.2380952 L26.047619,23.2380952 C25.545542,23.2380952 25.1342071,23.6266085 25.0978504,24.1193989 L25.0952381,24.1904762 L25.0952381,25.1428571 C25.0952381,25.6449342 25.4837513,26.0562691 25.9765417,26.0926258 L26.047619,26.0952381 L27,26.0952381 C27.502077,26.0952381 27.913412,25.7067249 27.9497687,25.2139344 L27.952381,25.1428571 L27.952381,24.1904762 C27.952381,23.6883991 27.5638677,23.2770642 27.0710773,23.2407075 L27,23.2380952 Z M18.9047619,23.2380952 L17.952381,23.2380952 C17.4503039,23.2380952 17.038969,23.6266085 17.0026123,24.1193989 L17,24.1904762 L17,25.1428571 C17,25.6449342 17.3885132,26.0562691 17.8813036,26.0926258 L17.952381,26.0952381 L18.9047619,26.0952381 C19.406839,26.0952381 19.8181739,25.7067249 19.8545306,25.2139344 L19.8571429,25.1428571 L19.8571429,24.1904762 C19.8571429,23.6883991 19.4686296,23.2770642 18.9758392,23.2407075 L18.9047619,23.2380952 Z M10.8095238,23.2380952 L9.85714286,23.2380952 C9.35506581,23.2380952 8.94373089,23.6266085 8.90737416,24.1193989 L8.9047619,24.1904762 L8.9047619,25.1428571 C8.9047619,25.6449342 9.29327514,26.0562691 9.78606555,26.0926258 L9.85714286,26.0952381 L10.8095238,26.0952381 C11.3116009,26.0952381 11.7229358,25.7067249 11.7592925,25.2139344 L11.7619048,25.1428571 L11.7619048,24.1904762 C11.7619048,23.6883991 11.3733915,23.2770642 10.8806011,23.2407075 L10.8095238,23.2380952 Z M19.3809524,9.9047619 L17.4761905,9.9047619 C16.9741134,9.9047619 16.5627785,10.2932751 16.5264218,10.7860656 L16.5238095,10.8571429 L16.5238095,12.7619048 C16.5238095,13.2639818 16.9123228,13.6753167 17.4051132,13.7116735 L17.4761905,13.7142857 L19.3809524,13.7142857 C19.8830294,13.7142857 20.2943643,13.3257725 20.3307211,12.8329821 L20.3333333,12.7619048 L20.3333333,10.8571429 C20.3333333,10.3550658 19.9448201,9.94373089 19.4520297,9.90737416 L19.3809524,9.9047619 Z" id="形状结合" fill="#FFFFFF" fill-rule="nonzero" mask="url(#mask-2)"></path>
                    </g>
                </g>
            </g>
        </g>
    </g>
</svg>