<?xml version="1.0" encoding="UTF-8"?>
<svg width="14px" height="14px" viewBox="0 0 14 14" version="1.1" xmlns="http://www.w3.org/2000/svg" xmlns:xlink="http://www.w3.org/1999/xlink">
    <title>添加人员</title>
    <g id="页面-1" stroke="none" stroke-width="1" fill="none" fill-rule="evenodd">
        <g id="pc分享录制-仅指定成员可查看" transform="translate(-1244.000000, -237.000000)" fill="#323333" fill-rule="nonzero">
            <g id="编组-53" transform="translate(810.000000, 103.000000)">
                <g id="编组-50" transform="translate(20.000000, 122.000000)">
                    <g id="添加人员" transform="translate(414.000000, 12.000000)">
                        <path d="M13.4998731,10.5000702 L11.5000501,10.5000702 L11.5000501,8.49997335 C11.5000501,8.24990922 11.3000815,7.99998337 11.0000601,7.99998337 C10.7000388,7.99998337 10.5000702,8.19995198 10.5000702,8.49997335 L10.5000702,10.5000702 L8.49997335,10.5000702 C8.24990922,10.5000702 7.99998337,10.7000388 7.99998337,11.0000601 C7.99998337,11.3000815 8.19995198,11.5000501 8.49997335,11.5000501 L10.5000702,11.5000501 L10.5000702,13.50001 C10.5000702,13.7500742 10.7000388,14 11.0000601,14 C11.3000815,14 11.5000501,13.7998945 11.5000501,13.50001 L11.5000501,11.5000501 L13.50001,11.5000501 C13.7500742,11.5000501 14,11.2999446 14,11.0000601 C14,10.7000388 13.7998945,10.5000702 13.4998731,10.5000702 Z M10.9999164,4.00005672 C10.9999164,1.7999913 9.19992509,0 7,0 C4.80006807,0 3.00007677,1.7999913 3.00007677,4.00005672 C3.00007677,5.39997389 3.70003535,6.65002071 4.80006807,7.34997245 C1.9999599,8.25003655 0,10.8999937 0,14 L0.999979951,14 C0.999979951,10.7000251 3.7000422,7.99997653 7,7.99997653 C9.19992509,8.00011341 10.9999164,6.19998523 10.9999164,4.00005672 Z M6.99999658,6.99999658 C5.35001254,6.99999658 4.00005672,5.65003665 4.00005672,4.00005672 C4.00005672,2.35007269 5.35001665,0.999979951 6.99999658,0.999979951 C8.64998061,0.999979951 9.99993643,2.3500768 9.99993643,4.00005672 C9.99993643,5.65004076 8.6499765,6.99999658 6.99999658,6.99999658 Z" id="形状"></path>
                    </g>
                </g>
            </g>
        </g>
    </g>
</svg>