<?xml version="1.0" encoding="UTF-8"?>
<svg width="19px" height="9px" viewBox="0 0 19 9" version="1.1" xmlns="http://www.w3.org/2000/svg" xmlns:xlink="http://www.w3.org/1999/xlink">
    <!-- Generator: Sketch 59.1 (86144) - https://sketch.com -->
    <title>形状</title>
    <desc>Created with Sketch.</desc>
    <g id="页面-1" stroke="none" stroke-width="1" fill="none" fill-rule="evenodd">
        <g id="我的直播" transform="translate(-484.000000, -498.000000)" fill="#1890FF" fill-rule="nonzero">
            <g id="编组-3备份" transform="translate(272.000000, 456.000000)">
                <path d="M230.385905,51 L229.618468,51 L229.618468,51 C229.269777,50.9927376 228.993035,50.7107746 229.000134,50.3699998 L229.000134,42.6299996 L229.000134,42.6299997 C228.993035,42.2892249 229.269777,42.0072614 229.618468,42 L230.385905,42 L230.385905,42 C230.732974,42.009349 231.007221,42.2907651 230.999855,42.6299997 L230.999855,50.3699999 L230.999855,50.3700003 C231.00722,50.7092349 230.732974,50.9906501 230.385905,51 L230.385905,51 Z M227.394802,51 L226.600918,51 L226.600918,51 C226.261297,50.9898774 225.992934,50.685173 226.000142,50.3178655 L226.000142,45.6774945 L226.000142,45.6774942 C225.994616,45.311682 226.262695,45.0093714 226.600918,45 L227.394802,45 L227.394802,45 C227.734511,45.0073643 228.004896,45.3101141 227.999869,45.6774942 L227.999869,50.3178652 L227.999869,50.317865 C228.006815,50.6868402 227.736011,50.9921372 227.394802,51 L227.394802,51 Z M223.397793,51 L222.602207,51 L222.602207,51 C222.261857,50.9901349 221.992919,50.6931816 222.000142,50.3352177 L222.000142,43.6647828 L222.000142,43.6647823 C221.99292,43.3068184 222.261857,43.0098661 222.602207,43 L223.397793,43 L223.397793,43 C223.738143,43.0098651 224.007081,43.3068184 223.999858,43.6647823 L223.999858,50.3352172 L223.999858,50.3352176 C224.00708,50.6931816 223.738143,50.9901339 223.397793,51 L223.397793,51 Z M220.385905,51 L219.618468,51 L219.618468,51 C219.269777,50.9927376 218.993035,50.7107746 219.000134,50.3699998 L219.000134,42.6299996 L219.000134,42.6299997 C218.993035,42.2892249 219.269777,42.0072614 219.618468,42 L220.385905,42 L220.385905,42 C220.732974,42.009349 221.007221,42.2907651 220.999855,42.6299997 L220.999855,50.3699999 L220.999855,50.3700003 C221.00722,50.7092349 220.732974,50.9906501 220.385905,51 L220.385905,51 Z M216.397739,51 L215.606478,51 L215.606478,51 C215.264547,50.9921371 214.99317,50.6868407 215.000131,50.3178655 L215.000131,45.6774946 L215.000131,45.6774942 C214.995094,45.3101141 215.26605,45.0073639 215.606478,45 L216.397739,45 L216.397739,45 C216.737296,45.0078623 217.006747,45.3110816 216.999786,45.6774942 L216.999786,50.3178651 L216.999786,50.3178658 C217.008661,50.6849921 216.740051,50.9903683 216.399827,51 C216.399131,51 216.398434,51 216.397738,51 L216.397739,51 Z M213.397793,51 L212.602207,51 L212.602207,51 C212.261857,50.9901349 211.992919,50.6931816 212.000142,50.3352177 L212.000142,43.6647828 L212.000142,43.6647823 C211.99292,43.3068184 212.261857,43.0098661 212.602207,43 L213.397793,43 L213.397793,43 C213.738143,43.0098651 214.007081,43.3068184 213.999858,43.6647823 L213.999858,50.3352172 L213.999858,50.3352176 C214.00708,50.6931816 213.738143,50.9901339 213.397793,51 L213.397793,51 Z" id="形状"></path>
            </g>
        </g>
    </g>
</svg>