<?xml version="1.0" encoding="UTF-8"?>
<svg width="72px" height="72px" viewBox="0 0 72 72" version="1.1" xmlns="http://www.w3.org/2000/svg" xmlns:xlink="http://www.w3.org/1999/xlink">
    <!-- Generator: Sketch 59.1 (86144) - https://sketch.com -->
    <title>直播</title>
    <desc>Created with Sketch.</desc>
    <g id="页面-1" stroke="none" stroke-width="1" fill="none" fill-rule="evenodd">
        <g id="今日暂无会议" transform="translate(-828.000000, -192.000000)" fill-rule="nonzero">
            <g id="编组-6备份" transform="translate(828.000000, 192.000000)">
                <g id="直播">
                    <rect id="矩形_1" fill="#FF943E" x="0" y="0" width="72" height="72" rx="8"></rect>
                    <g transform="translate(16.000000, 15.000000)" fill="#FFFFFF" id="形状结合">
                        <path d="M30.5003753,0.172699373 C31.2420594,0.556554497 31.5254776,1.45638682 31.1334071,2.18252906 L28.2937818,7.43429543 L33.7870295,7.43429003 C37.7706371,7.43428986 41,10.5959687 41,14.4961137 L41,34.9381763 C41,38.838308 37.7706508,42 33.7870295,42 L7.21297049,42 C3.22936288,42 0,38.8383213 0,34.9381763 L0,14.4961148 C0,10.5959831 3.22934924,7.4342911 7.21297049,7.4342911 L12.5050167,7.4342911 L9.66728779,2.18252483 C9.29058336,1.44893827 9.59262323,0.55526755 10.3419124,0.186457353 C11.069326,-0.171586622 11.9557252,0.0957438915 12.3512655,0.792466357 L15.9406607,7.43430011 L24.8581332,7.43430011 L28.4475285,0.792466131 C28.8395994,0.0663238893 29.7586912,-0.211155305 30.5003753,0.172699373 Z M14.2296331,16.7670938 C14.0794078,17.0126254 14,17.293594 14,17.579955 L14,30.219025 C14,31.0915767 14.721065,31.7989206 15.6105424,31.7989206 C15.9025211,31.7989206 16.1890089,31.721057 16.4393577,31.5736586 L27.17629,25.254076 C27.9388667,24.8049196 28.1858837,23.8343768 27.7280165,23.086311 C27.5921104,22.8642671 27.4026417,22.6784037 27.17629,22.5450832 L16.4393577,16.2255006 C15.6767004,15.7764696 14.6873744,16.018948 14.2296331,16.7670938 Z"></path>
                    </g>
                </g>
            </g>
        </g>
    </g>
</svg>