<?xml version="1.0" encoding="UTF-8"?>
<svg width="20px" height="20px" viewBox="0 0 20 20" version="1.1" xmlns="http://www.w3.org/2000/svg" xmlns:xlink="http://www.w3.org/1999/xlink">
    <title>视频会议_选中_slice</title>
    <g id="页面-1" stroke="none" stroke-width="1" fill="none" fill-rule="evenodd">
        <g id="画板" transform="translate(-14.000000, -8.000000)">
            <g id="编组-2" transform="translate(14.000000, 8.000000)">
                <rect id="矩形" x="0" y="0" width="20" height="20"></rect>
                <g id="编组" transform="translate(1.000000, 4.000000)" fill-rule="nonzero">
                    <path d="M16.092139,2.58512984 C16.5040143,2.4207776 16.9696841,2.46358726 17.344691,2.70027865 C17.7196978,2.93697003 17.9586911,3.33891938 17.9875315,3.78143624 L17.9903016,3.86869217 L18,8.58674458 C18.0009682,9.0306243 17.7891302,9.44807639 17.4303109,9.70937855 C17.0714915,9.97068072 16.6091703,10.04417 16.1870125,9.9070098 L16.1046041,9.87723199 L12.9024503,8.6075198 C12.5572388,8.47007783 12.3820177,8.08469096 12.5053856,7.73420332 C12.6287535,7.38371568 13.0067385,7.19305148 13.3619289,7.3021435 L13.4128281,7.3201487 L16.614982,8.58951463 L16.6052869,3.87180845 L13.4142132,5.14463692 C13.0685566,5.28323358 12.6751834,5.12364667 12.5237874,4.78340152 C12.3723913,4.44315636 12.517191,4.04410317 12.851551,3.88011854 L12.9010652,3.85795832 L16.092139,2.58512984 L16.092139,2.58512984 Z" id="路径" fill="#1890FF"></path>
                    <path d="M12.4651319,0 L1.38501464,0 C0.620092181,0 0,0.620092181 0,1.38501464 L0,11.0801172 C0,11.8450397 0.620092173,12.4651319 1.38501464,12.4651319 L12.4651319,12.4651319 C13.2300543,12.4651319 13.8501465,11.8450397 13.8501465,11.0801172 L13.8501465,1.38501464 C13.8501465,0.620092181 13.2300543,0 12.4651319,0 L12.4651319,0 Z" id="形状" fill="#1890FF"></path>
                    <path d="M9.00259524,8.31008792 L9.00259524,9.00259524 C9.00259524,9.38505647 8.69254915,9.69510256 8.31008792,9.69510256 L3.46253662,9.69510256 C3.08007539,9.69510256 2.7700293,9.38505647 2.7700293,9.00259524 L2.7700293,8.31008792 L9.00259524,8.31008792 L9.00259524,8.31008792 Z" id="路径" fill="#FFFFFF"></path>
                </g>
            </g>
        </g>
    </g>
</svg>