<?xml version="1.0" encoding="UTF-8"?>
<svg width="30px" height="25px" viewBox="0 0 30 25" version="1.1" xmlns="http://www.w3.org/2000/svg" xmlns:xlink="http://www.w3.org/1999/xlink">
    <title>形状</title>
    <g id="页面-1" stroke="none" stroke-width="1" fill="none" fill-rule="evenodd">
        <g id="pc录制文件-发起人" transform="translate(-53.000000, -62.000000)" fill="#0088FE" fill-rule="nonzero">
            <g id="语音文字_voice-input" transform="translate(29.000000, 62.000000)">
                <path d="M51.3204593,24.0040339 L46.4209216,6.19998892 L43.3977379,15.9378276 L42.3477384,19.3162168 L42.3395565,19.3459465 C41.8377391,20.836939 40.9122822,22.0936959 39.5631923,23.1162171 C37.9086455,24.3720745 35.9027213,25 33.5454614,25 C30.9090958,25 28.6590913,24.0765751 26.7954573,22.2297284 C24.9318202,20.3828818 24,18.153155 24,15.5405387 L24,15.540332 C24,14.7940028 24.6105206,14.1889795 25.3636383,14.1889795 C26.1167527,14.1889794 26.7272765,14.7939996 26.7272765,15.540332 C26.7272765,15.5404699 26.7272765,15.5406078 26.7272764,15.5407458 C26.7272764,17.4065103 27.3927303,18.9988542 28.7236413,20.3177838 C30.0563708,21.6374671 31.663642,22.2973057 33.5454517,22.2973057 C35.2863615,22.2973057 36.739546,21.854964 37.9049892,20.9702775 C38.8068082,20.2864947 39.420445,19.4648709 39.7458994,18.5054124 L40.7904465,15.1432394 L45.1963583,0.954048995 L45.1963583,0.954048789 C45.4181992,0.240832935 46.181469,-0.159128037 46.9011722,0.0607125644 C47.3467044,0.19680622 47.6911975,0.549032919 47.8145417,0.994589333 L53.9509091,23.2918885 C53.9822727,23.4040506 53.9986363,23.5175641 54,23.6324291 L54,23.6486451 L54,23.6487424 C54,24.3887847 53.3993455,24.9911697 52.6526295,25 L52.636364,25 L52.636364,25 C52.0212667,25 51.4822251,24.5921494 51.3204552,24.0040518 L51.3204593,24.0040339 Z M50.4054598,14.1891682 L42.0941018,14.1891682 L42.0941018,14.1891682 C41.3409873,14.1891682 40.7304635,14.7941883 40.7304635,15.5405208 C40.7304635,16.28685 41.3409841,16.8918733 42.0941018,16.8918733 L50.4054598,16.8918733 L50.4054597,16.8918733 C51.1585742,16.8918733 51.769098,16.2868532 51.769098,15.5405208 C51.769098,14.7941915 51.1585774,14.1891682 50.4054597,14.1891682 L50.4054598,14.1891682 Z M37.6363506,5.40539425 L37.6363506,5.40539425 C37.6363506,3.16640335 35.8047856,1.35133985 33.545439,1.35133985 C31.2860925,1.35133985 29.4545275,3.16640335 29.4545275,5.40539425 L29.4545275,15.5405303 L29.4545275,15.5405309 C29.4545275,17.7795218 31.2860925,19.5945853 33.545439,19.5945853 C35.8047856,19.5945853 37.6363506,17.7795218 37.6363506,15.5405309 L37.6363506,5.40539487 L37.6363506,5.40539425 Z M38.9999888,15.5405303 C38.9999888,17.0333218 38.4672627,18.3071975 37.4018071,19.3621416 C36.3372624,20.4179979 35.0518053,20.9459245 33.5454518,20.9459245 C32.0390887,20.9459245 30.7536316,20.4179979 29.6890965,19.3621416 C28.6236409,18.307188 28.0909148,17.0333123 28.0909148,15.5405303 L28.0909148,5.40539425 C28.0909148,3.91260274 28.6236409,2.638727 29.6890965,1.58378286 C30.7536412,0.527926565 32.0390983,0 33.5454518,0 C35.0518149,0 36.337272,0.527926565 37.4018071,1.58378286 C38.4672627,2.6387365 38.9999888,3.91261224 38.9999888,5.40539425 L38.9999888,15.5405303 Z M36.2727155,15.5405303 L36.2727155,5.40539425 C36.2727155,4.65944824 36.0063518,4.02251196 35.4736231,3.49458222 C34.9408969,2.96665566 34.2981667,2.70268921 33.545439,2.70268921 C32.7927113,2.70268921 32.1499843,2.96665312 31.617255,3.49458222 C31.0845288,4.02250879 30.8181625,4.65944824 30.8181625,5.40539425 L30.8181625,15.5405303 C30.8181625,16.2864763 31.0845262,16.9234126 31.617255,17.4513423 C32.1499811,17.9792688 32.7927113,18.2432353 33.545439,18.2432353 C34.2981667,18.2432353 34.9408937,17.9792714 35.4736231,17.4513423 C36.0063492,16.9234157 36.2727155,16.2864763 36.2727155,15.5405303 Z" id="形状"></path>
            </g>
        </g>
    </g>
</svg>