<?xml version="1.0" encoding="UTF-8"?>
<svg width="20px" height="20px" viewBox="0 0 20 20" version="1.1" xmlns="http://www.w3.org/2000/svg" xmlns:xlink="http://www.w3.org/1999/xlink">
    <title>剪</title>
    <g id="页面-1" stroke="none" stroke-width="1" fill="none" fill-rule="evenodd">
        <g id="剪">
            <rect id="矩形备份-16" x="0" y="0" width="20" height="20"></rect>
            <g id="编组" transform="translate(3.000000, 3.000000)" fill="#6D7172" fill-rule="nonzero" stroke="#6D7172" stroke-width="0.4">
                <g id="形状">
                    <path d="M11.1486643,8.1081 C10.9376571,8.1081 10.7319214,8.13006429 10.5312429,8.16657857 L8.1573,5.79265714 L12.2300143,1.71998571 C12.7049571,1.24502143 12.7049571,0.474964286 12.2300143,0 L7.29735,4.93266429 L2.36464286,0 C1.8897,0.474964286 1.8897,1.24502143 2.36464286,1.71998571 L6.43735714,5.79265714 L4.06341429,8.1666 C3.86273571,8.13008571 3.65702143,8.10812143 3.44595,8.10812143 C1.54581429,8.10812143 0,9.65393571 0,11.5540714 C0,13.4542071 1.54581429,15 3.44595,15 C5.34608571,15 6.8919,13.4541857 6.8919,11.55405 C6.8919,10.3356 6.25455,9.26539286 5.29744286,8.65249286 L7.29730714,6.65265 L9.29717143,8.65251429 C8.34006429,9.26541429 7.70271429,10.3356 7.70271429,11.55405 C7.70271429,13.4541857 9.24852857,15 11.1486643,15 C13.0488,15 14.5946143,13.4541857 14.5946143,11.55405 C14.5946143,9.65391429 13.0488,8.1081 11.1486643,8.1081 Z M3.44595,13.7837786 C2.21646429,13.7837786 1.21622143,12.7835357 1.21622143,11.55405 C1.21622143,10.3245643 2.21646429,9.32432143 3.44595,9.32432143 C4.67543571,9.32432143 5.67567857,10.3245643 5.67567857,11.55405 C5.67567857,12.7835357 4.67543571,13.7837786 3.44595,13.7837786 Z M11.1486643,13.7837786 C9.91917857,13.7837786 8.91893571,12.7835357 8.91893571,11.55405 C8.91893571,10.3245643 9.91917857,9.32432143 11.1486643,9.32432143 C12.37815,9.32432143 13.3783929,10.3245643 13.3783929,11.55405 C13.3783929,12.7835357 12.3781286,13.7837786 11.1486643,13.7837786 Z"></path>
                </g>
            </g>
        </g>
    </g>
</svg>