<?xml version="1.0" encoding="UTF-8"?>
<svg width="18px" height="12px" viewBox="0 0 18 12" version="1.1" xmlns="http://www.w3.org/2000/svg" xmlns:xlink="http://www.w3.org/1999/xlink">
    <!-- Generator: Sketch 59.1 (86144) - https://sketch.com -->
    <title>3</title>
    <desc>Created with Sketch.</desc>
    <g id="页面-1" stroke="none" stroke-width="1" fill="none" fill-rule="evenodd">
        <g id="全部通话" transform="translate(-1371.000000, -315.000000)">
            <g id="3" transform="translate(1370.000000, 311.000000)">
                <rect id="矩形备份-16" x="0" y="0" width="20" height="20"></rect>
                <path d="M17.6506923,5.35163636 C17.2055385,5.35163636 16.7749231,5.51581818 16.5000769,5.68163636 L14.1538462,7.20618182 L14.1538462,5.63636364 C14.1538462,4.73418182 13.222,4 12.0769231,4 L3.07692308,4 C1.93184615,4 1,4.73418182 1,5.63636364 L1,14.3636364 C1,15.2658182 1.93184615,16 3.07692308,16 L12.0769231,16 C13.222,16 14.1538462,15.2658182 14.1538462,14.3636364 L14.1538462,12.7916364 L16.5291538,14.3314545 C16.6530769,14.4061818 17.0996154,14.6483636 17.6555385,14.6483636 C18.0591538,14.6483636 18.4143077,14.5147273 18.6545385,14.2725455 C18.8871538,14.0374545 19,13.7216364 19,13.3070909 L19,6.69290909 C19,5.704 18.3028462,5.35163636 17.6506923,5.35163636 Z M17.726089,13.2955292 C17.726089,13.4152376 17.7268577,13.554293 17.7123192,13.5992514 C17.6430885,13.5840847 17.4487599,13.576438 17.4058368,13.550438 L13.9179906,11.304688 C13.7109906,11.171438 13.5705478,11.0887913 13.330317,11.1781663 C13.0880093,11.268083 12.9329324,11.4587496 12.9329324,11.6683746 L12.9329324,14.2912193 C12.9329324,14.5902193 12.4635834,14.7109942 12.0814296,14.7109942 L3.08142957,14.7109942 C2.69996803,14.7109942 2.22558824,14.4283485 2.22558824,14.1293485 L2.2513088,6.00075791 C2.2513088,5.70229958 2.7211821,5.25632218 3.10264363,5.25632218 L12.1026436,5.25632218 C12.4847975,5.25632218 12.958653,5.50881423 12.958653,5.80727257 L12.9329324,8.41837463 C12.9329324,8.62799963 13.0880093,8.8186663 13.3296247,8.9080413 C13.5740093,8.99795797 13.6514607,8.89728697 13.8570761,8.76403697 L17.3158453,6.53074531 C17.3746915,6.49553697 17.5772682,6.36431747 17.6702016,6.41986921 C17.6854324,6.46374421 17.726089,6.60648757 17.726089,6.72727923 L17.726089,13.2955292 Z" id="形状" fill="#1890FF" fill-rule="nonzero"></path>
            </g>
        </g>
    </g>
</svg>