<?xml version="1.0" encoding="UTF-8"?>
<svg width="18px" height="18px" viewBox="0 0 18 18" version="1.1" xmlns="http://www.w3.org/2000/svg" xmlns:xlink="http://www.w3.org/1999/xlink">
    <!-- Generator: Sketch 59.1 (86144) - https://sketch.com -->
    <title>22</title>
    <desc>Created with Sketch.</desc>
    <g id="页面-1" stroke="none" stroke-width="1" fill="none" fill-rule="evenodd">
        <g id="全部通话" transform="translate(-1335.000000, -340.000000)">
            <g id="22" transform="translate(1334.000000, 339.000000)">
                <rect id="矩形备份-15" x="0" y="0" width="20" height="20"></rect>
                <g id="电话-正在拨号" transform="translate(1.000000, 1.000000)" fill="#6D7172" fill-rule="nonzero">
                    <path d="M14.0118924,11.9081399 C13.7643921,11.7225147 13.3931416,11.7225147 13.2075164,11.970015 L11.7843898,13.3312666 C11.5987645,13.5168918 11.2893892,13.5787668 11.0418889,13.4550167 C9.68063731,12.7125158 8.44313587,11.7843898 7.39125965,10.7325135 C6.33938342,9.68063731 5.41125734,8.44313587 4.66875648,7.08188429 C4.54500634,6.834384 4.60688141,6.52500864 4.79250662,6.33938342 L6.21563328,4.91625677 C6.46313357,4.66875648 6.46313357,4.35938112 6.27750835,4.11188083 L4.29750605,1.69875302 C4.29750605,1.69875302 4.29750605,1.63687795 4.23563098,1.63687795 C3.98813069,1.38937766 3.61688026,1.38937766 3.36937997,1.63687795 L1.69875302,3.3075049 C0.894377088,4.11188083 2.93625446,7.9481353 6.52500864,11.5987645 C10.1137628,15.2493938 14.0118924,17.2293961 14.8162683,16.4250202 L16.4868952,14.7543932 L16.5487703,14.6925181 C16.7343955,14.4450179 16.7343955,14.0118924 16.4250202,13.8262671 L14.0118924,11.9081399 Z M12.3412654,11.0418889 C13.0218912,10.3612631 14.0737674,10.299388 14.8162683,10.9181388 L17.2293961,12.836266 C18.033772,13.4550167 18.1575222,14.6306431 17.5387715,15.435019 C17.4768964,15.4968941 17.4768964,15.5587692 17.4150213,15.5587692 L15.7443944,17.2293961 C14.1356425,18.838148 9.80438746,16.5487703 5.65875763,12.4031405 C1.51312781,8.25751066 -0.714374784,3.98813069 0.832502016,2.37937882 L2.50312896,0.708751872 C3.24562982,-0.033748992 4.42125619,-0.033748992 5.10188198,0.708751872 L5.22563213,0.832502016 L7.14375936,3.24562982 C7.76251008,3.98813069 7.70063501,5.04000691 7.02000922,5.7206327 L5.96813299,6.77250893 C6.64875878,7.88626022 7.39125965,8.87626138 8.25751066,9.74251238 C9.12376166,10.6087634 10.1137628,11.3512643 11.2275141,12.03189 L12.3412654,11.0418889 L12.3412654,11.0418889 Z M10.1756379,2.68875418 C9.80438746,2.68875418 9.55688717,2.44125389 9.55688717,2.07000346 C9.55688717,1.69875302 9.80438746,1.45125274 10.1756379,1.45125274 C13.5787668,1.45125274 16.3631451,4.23563098 16.3631451,7.63875994 C16.3631451,8.01001037 16.1156448,8.25751066 15.7443944,8.25751066 C15.3731439,8.25751066 15.1256436,8.01001037 15.1256436,7.63875994 C15.1256436,4.91625677 12.8981411,2.68875418 10.1756379,2.68875418 Z M10.1756379,5.16375706 C9.80438746,5.16375706 9.55688717,4.91625677 9.55688717,4.54500634 C9.55688717,4.1737559 9.80438746,3.92625562 10.1756379,3.92625562 C12.2175153,3.92625562 13.8881422,5.59688256 13.8881422,7.63875994 C13.8881422,8.01001037 13.6406419,8.25751066 13.2693915,8.25751066 C12.8981411,8.25751066 12.6506408,8.01001037 12.6506408,7.63875994 C12.6506408,6.27750835 11.5368895,5.16375706 10.1756379,5.16375706 Z" id="形状"></path>
                </g>
            </g>
        </g>
    </g>
</svg>