<?xml version="1.0" encoding="UTF-8"?>
<svg width="37px" height="44px" viewBox="0 0 37 44" version="1.1" xmlns="http://www.w3.org/2000/svg" xmlns:xlink="http://www.w3.org/1999/xlink">
    <!-- Generator: Sketch 59.1 (86144) - https://sketch.com -->
    <title>1</title>
    <desc>Created with Sketch.</desc>
    <g id="页面-1" stroke="none" stroke-width="1" fill="none" fill-rule="evenodd">
        <g id="画板" transform="translate(-281.000000, -746.000000)">
            <g id="1" transform="translate(281.000000, 746.000000)">
                <g id="编组-5备份">
                    <g id="编组-4" fill="#FFFFFF" fill-rule="nonzero">
                        <path d="M34.5831965,17.0162543 C35.799721,17.0162543 36.7859479,18.0024812 36.7859479,19.2190057 C36.7859479,28.6380094 29.7059264,36.4033967 20.5774408,37.4836104 L20.5957461,41.7876803 C20.6009568,43.0042048 19.6190253,43.994672 18.4025008,43.9999794 C17.1981465,44.0051351 16.2153339,43.0428631 16.1907182,41.8431897 L16.1902226,41.8067341 L16.1715689,37.4792015 C7.06092914,36.3824391 0,28.6253009 0,19.2190057 C0,18.0024812 0.986226857,17.0162543 2.20275137,17.0162543 C3.40710568,17.0162543 4.38573304,17.9828216 4.40522739,19.1826052 L4.40550274,19.2190057 C4.40550274,26.9440547 10.6679249,33.2064769 18.3929739,33.2064769 C26.0408165,33.2064769 32.2550535,27.0686754 32.3785728,19.4502946 L32.3804451,19.2190057 C32.3804451,18.0024812 33.366672,17.0162543 34.5831965,17.0162543 Z M18.3654395,1.77635684e-15 C24.1896794,1.77635684e-15 28.9111117,4.72143235 28.9111117,10.5456722 L28.9111117,10.5456722 L28.9111117,18.4205083 C28.9111117,24.2447481 24.1896794,28.9661805 18.3654395,28.9661805 C12.5411997,28.9661805 7.81976736,24.2447481 7.81976736,18.4205083 L7.81976736,18.4205083 L7.81976736,10.5456722 C7.81976736,4.72143235 12.5411997,1.77635684e-15 18.3654395,1.77635684e-15 Z M18.3654395,4.40550274 C14.9743038,4.40550274 12.2252701,7.15453645 12.2252701,10.5456722 L12.2252701,10.5456722 L12.2252701,18.4205083 C12.2252701,21.8116441 14.9743038,24.5606778 18.3654395,24.5606778 C21.7565753,24.5606778 24.505609,21.8116441 24.505609,18.4205083 L24.505609,18.4205083 L24.505609,10.5456722 C24.505609,7.15453645 21.7565753,4.40550274 18.3654395,4.40550274 Z" id="形状结合"></path>
                    </g>
                    <g id="编组"></g>
                </g>
            </g>
        </g>
    </g>
</svg>