<?xml version="1.0" encoding="UTF-8"?>
<svg width="84px" height="84px" viewBox="0 0 84 84" version="1.1" xmlns="http://www.w3.org/2000/svg" xmlns:xlink="http://www.w3.org/1999/xlink">
    <!-- Generator: Sketch 59.1 (86144) - https://sketch.com -->
    <title>3</title>
    <desc>Created with Sketch.</desc>
    <g id="页面-1" stroke="none" stroke-width="1" fill="none" fill-rule="evenodd">
        <g id="画板" transform="translate(-294.000000, -2264.000000)">
            <g id="3" transform="translate(294.000000, 2264.000000)">
                <g id="编组-8">
                    <rect id="矩形备份-4" fill="#E9F4FF" x="0" y="0" width="84" height="84" rx="16"></rect>
                    <g id="视频-互动" transform="translate(22.000000, 25.000000)" fill="#0078EF" fill-rule="nonzero">
                        <path d="M36.8835203,4.75806885 C35.9011581,4.75806885 34.9508792,5.2179305 34.3443507,5.68237548 L29.1667058,9.95251934 L29.1667058,5.55556978 C29.1667058,3.02862239 27.1103145,0.972231111 24.5833671,0.972231111 L4.72223289,0.972231111 C2.1952855,0.972231111 0.138894222,3.02862239 0.138894222,5.55556978 L0.138894222,30.0000427 C0.138894222,32.5269901 2.1952855,34.5833813 4.72223289,34.5833813 L24.5833671,34.5833813 C27.1103145,34.5833813 29.1667058,32.5269901 29.1667058,30.0000427 L29.1667058,25.596982 L34.4085174,29.9099037 C34.68199,30.1192095 35.6674078,30.7975436 36.8942148,30.7975436 C37.7849103,30.7975436 38.5686612,30.4232376 39.0988007,29.7449035 C39.6121346,29.0864305 39.8611627,28.2018461 39.8611627,27.0407337 L39.8611627,8.51487878 C39.8611627,5.74501444 38.3226887,4.75806885 36.8835203,4.75806885 Z M36.8056036,27.0407337 C36.8056036,27.3783729 36.7719924,27.5892065 36.739909,27.7160122 C36.5871311,27.6732344 36.4022698,27.5876787 36.3075474,27.5143453 L28.610594,21.1801713 C28.1537879,20.8043375 27.5182316,20.7264208 26.9880921,20.9785044 C26.4533693,21.2321158 26.1111467,21.7698942 26.1111467,22.3611449 L26.1111467,30.0000427 C26.1111467,30.843377 25.4267014,31.5278222 24.5833671,31.5278222 L4.72223289,31.5278222 C3.88042635,31.5278222 3.19445333,30.843377 3.19445333,30.0000427 L3.19445333,5.55556978 C3.19445333,4.71376324 3.88042635,4.02779022 4.72223289,4.02779022 L24.5833671,4.02779022 C25.4267014,4.02779022 26.1111467,4.71376324 26.1111467,5.55556978 L26.1111467,13.1944676 C26.1111467,13.7857182 26.4533693,14.3234966 26.9865644,14.5755803 C27.5258705,14.8291917 28.1568435,14.7482194 28.610594,14.3723856 L36.2433807,8.07335049 C36.3732419,7.97404481 36.5764366,7.87932248 36.7368535,7.83654465 C36.7704646,7.9602948 36.8056036,8.17418394 36.8056036,8.51487878 L36.8056036,27.0407337 Z" id="形状"></path>
                    </g>
                </g>
            </g>
        </g>
    </g>
</svg>