<?xml version="1.0" encoding="UTF-8"?>
<svg width="30px" height="28px" viewBox="0 0 30 28" version="1.1" xmlns="http://www.w3.org/2000/svg" xmlns:xlink="http://www.w3.org/1999/xlink">
    <!-- Generator: Sketch 59.1 (86144) - https://sketch.com -->
    <title>播放中</title>
    <desc>Created with Sketch.</desc>
    <g id="页面-1" stroke="none" stroke-width="1" fill="none" fill-rule="evenodd">
        <g id="画板" transform="translate(-552.000000, -2322.000000)">
            <g id="播放中" transform="translate(550.000000, 2320.000000)">
                <rect id="矩形" x="0" y="0" width="32" height="32"></rect>
                <path d="M29.7142858,29.7142857 L29.7142857,29.7142857 C28.4519214,29.7142857 27.4285714,28.8956054 27.4285714,27.885714 C27.4285714,27.885714 27.4285714,27.885714 27.4285714,27.885714 L27.4285714,13.2571426 L27.4285714,13.2571429 C27.4285714,12.2472514 28.4519214,11.4285714 29.7142857,11.4285714 C30.97665,11.4285714 32,12.2472514 32,13.2571429 C32,13.2571429 32,13.2571429 32,13.2571429 L32,27.8857143 L32,27.8857143 C32,28.8956057 30.97665,29.7142857 29.7142857,29.7142857 L29.7142858,29.7142857 Z M20.5714287,29.7142857 L20.5714286,29.7142857 C19.3090643,29.7142857 18.2857143,28.946773 18.2857143,27.9999997 C18.2857143,27.9999997 18.2857143,27.9999997 18.2857143,27.9999997 L18.2857143,3.99999974 L18.2857143,4 C18.2857143,3.05322679 19.3090643,2.28571429 20.5714286,2.28571429 C21.8337929,2.28571429 22.8571429,3.05322679 22.8571429,4 C22.8571429,4 22.8571429,4 22.8571429,4 L22.8571429,28 L22.8571429,28 C22.8571429,28.9467732 21.8337929,29.7142857 20.5714286,29.7142857 L20.5714287,29.7142857 Z M13.7142858,29.7142857 L13.7142857,29.7142857 C12.4519214,29.7142857 11.4285714,28.8614938 11.4285714,27.8095235 C11.4285714,27.8095235 11.4285714,27.8095235 11.4285714,27.8095235 L11.4285714,20.1904759 L11.4285714,20.1904762 C11.4285714,19.138506 12.4519214,18.2857143 13.7142857,18.2857143 C14.97665,18.2857143 16,19.138506 16,20.1904762 C16,20.1904762 16,20.1904762 16,20.1904762 L16,27.8095238 L16,27.8095238 C16,28.861494 14.97665,29.7142857 13.7142857,29.7142857 L13.7142858,29.7142857 Z M4.57142867,29.7142857 L4.57142857,29.7142857 C3.30906429,29.7142857 2.28571429,28.946773 2.28571429,27.9999997 C2.28571429,27.9999997 2.28571429,27.9999997 2.28571429,27.9999997 L2.28571429,10.8571426 L2.28571429,10.8571429 C2.28571429,9.91036964 3.30906429,9.14285714 4.57142857,9.14285714 C5.83379286,9.14285714 6.85714286,9.91036964 6.85714286,10.8571429 C6.85714286,10.8571429 6.85714286,10.8571429 6.85714286,10.8571429 L6.85714286,28 L6.85714286,28 C6.85714286,28.9467732 5.83379286,29.7142857 4.57142857,29.7142857 L4.57142867,29.7142857 Z" id="形状" fill="#1890FF" fill-rule="nonzero"></path>
            </g>
        </g>
    </g>
</svg>