<?xml version="1.0" encoding="UTF-8"?>
<svg width="640px" height="670px" viewBox="0 0 640 670" version="1.1" xmlns="http://www.w3.org/2000/svg" xmlns:xlink="http://www.w3.org/1999/xlink">
    <!-- Generator: Sketch 61.2 (89653) - https://sketch.com -->
    <title>pt</title>
    <desc>Created with Sketch.</desc>
    <defs>
        <linearGradient x1="95.6226331%" y1="100%" x2="4.3773669%" y2="0%" id="linearGradient-1">
            <stop stop-color="#4FB2FF" offset="0%"></stop>
            <stop stop-color="#277AFF" offset="100%"></stop>
        </linearGradient>
        <rect id="path-2" x="0" y="0" width="640" height="670"></rect>
        <linearGradient x1="50%" y1="0%" x2="23.3754543%" y2="61.0893587%" id="linearGradient-4">
            <stop stop-color="#FFFFFF" stop-opacity="0.19768903" offset="0%"></stop>
            <stop stop-color="#FFFFFF" stop-opacity="0" offset="100%"></stop>
        </linearGradient>
        <linearGradient x1="50%" y1="0%" x2="23.3754543%" y2="61.0893587%" id="linearGradient-5">
            <stop stop-color="#00C2FF" stop-opacity="0.19768903" offset="0%"></stop>
            <stop stop-color="#FFFFFF" stop-opacity="0" offset="100%"></stop>
        </linearGradient>
        <linearGradient x1="0%" y1="50%" x2="100%" y2="50%" id="linearGradient-6">
            <stop stop-color="#3C92F4" offset="0%"></stop>
            <stop stop-color="#6FC4FA" offset="100%"></stop>
        </linearGradient>
        <linearGradient x1="0%" y1="50%" x2="100%" y2="50%" id="linearGradient-7">
            <stop stop-color="#3C92F4" offset="0%"></stop>
            <stop stop-color="#6FC4FA" offset="100%"></stop>
        </linearGradient>
        <linearGradient x1="0%" y1="50%" x2="100%" y2="50%" id="linearGradient-8">
            <stop stop-color="#3C92F4" offset="0%"></stop>
            <stop stop-color="#6FC4FA" offset="100%"></stop>
        </linearGradient>
        <linearGradient x1="100%" y1="50%" x2="0%" y2="50%" id="linearGradient-9">
            <stop stop-color="#6DC4FA" offset="0%"></stop>
            <stop stop-color="#3B91F4" offset="100%"></stop>
        </linearGradient>
        <rect id="path-10" x="0" y="0" width="60" height="50" rx="10"></rect>
        <rect id="path-12" x="0" y="0" width="60" height="50" rx="10"></rect>
        <rect id="path-14" x="0" y="0" width="60" height="50" rx="10"></rect>
        <path d="M8,0 L92,0 C96.418278,-8.11624501e-16 100,3.581722 100,8 L100,64 C100,68.418278 96.418278,72 92,72 L8,72 C3.581722,72 5.41083001e-16,68.418278 0,64 L0,8 C-5.41083001e-16,3.581722 3.581722,8.11624501e-16 8,0 Z" id="path-16"></path>
        <rect id="path-18" x="340" y="70" width="130" height="190" rx="20"></rect>
        <filter x="-18.5%" y="-12.6%" width="136.9%" height="125.3%" filterUnits="objectBoundingBox" id="filter-19">
            <feOffset dx="0" dy="0" in="SourceAlpha" result="shadowOffsetOuter1"></feOffset>
            <feGaussianBlur stdDeviation="8" in="shadowOffsetOuter1" result="shadowBlurOuter1"></feGaussianBlur>
            <feColorMatrix values="0 0 0 0 0.0920873497   0 0 0 0 0.354207007   0 0 0 0 0.774230072  0 0 0 0.198208042 0" type="matrix" in="shadowBlurOuter1"></feColorMatrix>
        </filter>
        <linearGradient x1="50%" y1="0%" x2="50%" y2="100%" id="linearGradient-20">
            <stop stop-color="#54E876" offset="0%"></stop>
            <stop stop-color="#2ACD41" offset="100%"></stop>
        </linearGradient>
    </defs>
    <g id="页面-1" stroke="none" stroke-width="1" fill="none" fill-rule="evenodd">
        <g id="微联叮会议-登录" transform="translate(-360.000000, -180.000000)">
            <g id="pt" transform="translate(360.000000, 180.000000)">
                <g id="椭圆形">
                    <mask id="mask-3" fill="white">
                        <use xlink:href="#path-2"></use>
                    </mask>
                    <use id="蒙版" fill="url(#linearGradient-1)" xlink:href="#path-2"></use>
                    <circle stroke="url(#linearGradient-4)" stroke-width="100" mask="url(#mask-3)" cx="640" cy="670" r="310"></circle>
                    <circle id="椭圆形备份-5" stroke="url(#linearGradient-5)" stroke-width="60" mask="url(#mask-3)" cx="10" cy="100" r="70"></circle>
                </g>
                <g id="编组-9" transform="translate(85.000000, 336.000000)">
                    <g id="编组-8">
                        <rect id="矩形" fill="#F1F9FF" x="0" y="0" width="370" height="260" rx="20"></rect>
                        <rect id="矩形" fill="#FFFFFF" x="50" y="100" width="200" height="150" rx="8"></rect>
                        <path d="M58,100 L180,100 L180,100 L50,210 L50,108 C50,103.581722 53.581722,100 58,100 Z" id="矩形备份-11" fill="#D3ECFF"></path>
                        <g id="编组-6" transform="translate(60.000000, 145.000000)">
                            <path d="M10.5,46.6666667 L10.5008858,46.6091501 C4.60491808,46.0242153 0,41.0498758 0,35 C0,28.9501242 4.60491808,23.9757847 10.5008858,23.3908499 L10.5,23.3333333 C10.5,10.4466892 20.9466892,0 33.8333333,0 C42.4989859,0 50.0613104,4.72390928 54.0856389,11.73706 C63.0075858,12.5388265 70,20.0361637 70,29.1666667 C70,38.8316498 62.1649831,46.6666667 52.5,46.6666667 C52.1610497,46.6666667 51.8243501,46.6570304 51.4901602,46.6380168 C51.2742221,46.6570589 51.0548997,46.6666667 50.8333333,46.6666667 L10.5,46.6666667 Z" id="形状结合" fill="#9ACEF5"></path>
                            <path d="M31.9053575,16.5901409 L42.8310836,23.0784304 C43.6759233,23.5802502 43.9390847,24.6465075 43.4182075,25.4604947 C43.2693852,25.6946176 43.0643008,25.8906274 42.8201968,26.0321901 L31.8944707,32.4152009 C31.0460021,32.9115795 29.940726,32.6502312 29.4261983,31.8326142 L29.4261982,31.8326141 C29.2566228,31.5636553 29.1666667,31.2521897 29.1666667,30.9342355 L29.1666667,18.064752 C29.1666667,17.1082974 29.970671,16.3333333 30.9634238,16.3333333 C31.2955516,16.3333333 31.6222356,16.4222637 31.9053583,16.59105 L31.9053575,16.5901409 Z" id="路径" fill="#FFFFFF" fill-rule="nonzero"></path>
                        </g>
                        <path d="M148,148 L223,148 C224.104569,148 225,148.895431 225,150 L225,154 C225,155.104569 224.104569,156 223,156 L148,156 C146.895431,156 146,155.104569 146,154 L146,150 C146,148.895431 146.895431,148 148,148 Z" id="矩形" fill="url(#linearGradient-6)"></path>
                        <path d="M148,164 L200,164 C201.104569,164 202,164.895431 202,166 L202,170 C202,171.104569 201.104569,172 200,172 L148,172 C146.895431,172 146,171.104569 146,170 L146,166 C146,164.895431 146.895431,164 148,164 Z" id="矩形备份-12" fill="url(#linearGradient-7)"></path>
                        <path d="M148,180 L234,180 C235.104569,180 236,180.895431 236,182 L236,186 C236,187.104569 235.104569,188 234,188 L148,188 C146.895431,188 146,187.104569 146,186 L146,182 C146,180.895431 146.895431,180 148,180 Z" id="矩形备份-13" fill="url(#linearGradient-8)"></path>
                        <path d="M64,110 L136,110 C138.209139,110 140,111.790861 140,114 L140,126 C140,128.209139 138.209139,130 136,130 L64,130 C61.790861,130 60,128.209139 60,126 L60,114 C60,111.790861 61.790861,110 64,110 Z" id="矩形备份-10" fill="url(#linearGradient-9)"></path>
                        <path d="M76.0725389,124.818653 L76.0725389,121.515544 C76.0725389,120.556995 75.8911917,119.119171 75.7746114,118.173575 L75.8264249,118.173575 L76.6036269,120.479275 L77.9119171,124.002591 L79.1813472,124.002591 L80.4766839,120.479275 L81.2797927,118.173575 L81.3316062,118.173575 C81.2150259,119.119171 81.0336788,120.556995 81.0336788,121.515544 L81.0336788,124.818653 L83.1450777,124.818653 L83.1450777,115.181347 L80.6321244,115.181347 L79.1554404,119.339378 C78.9740933,119.896373 78.8186528,120.505181 78.6243523,121.101036 L78.5595855,121.101036 C78.3782383,120.505181 78.2227979,119.896373 78.0284974,119.339378 L76.5,115.181347 L74,115.181347 L74,124.818653 L76.0725389,124.818653 Z M91.6165803,124.818653 L91.6165803,122.875648 L87.6787565,122.875648 L87.6787565,120.829016 L90.9041451,120.829016 L90.9041451,118.88601 L87.6787565,118.88601 L87.6787565,117.098446 L91.4740933,117.098446 L91.4740933,115.181347 L85.3601036,115.181347 L85.3601036,124.818653 L91.6165803,124.818653 Z M99.7772021,124.818653 L99.7772021,122.875648 L95.8393782,122.875648 L95.8393782,120.829016 L99.0647668,120.829016 L99.0647668,118.88601 L95.8393782,118.88601 L95.8393782,117.098446 L99.634715,117.098446 L99.634715,115.181347 L93.5207254,115.181347 L93.5207254,124.818653 L99.7772021,124.818653 Z M105.865285,124.818653 L105.865285,117.098446 L108.481865,117.098446 L108.481865,115.181347 L100.943005,115.181347 L100.943005,117.098446 L103.546632,117.098446 L103.546632,124.818653 L105.865285,124.818653 Z M112.290155,124.818653 L112.290155,115.181347 L109.971503,115.181347 L109.971503,124.818653 L112.290155,124.818653 Z M116.707254,124.818653 L116.707254,121.619171 C116.707254,120.453368 116.512953,119.132124 116.409326,118.056995 L116.474093,118.056995 L117.419689,120.168394 L119.803109,124.818653 L122.160622,124.818653 L122.160622,115.181347 L119.958549,115.181347 L119.958549,118.367876 C119.958549,119.520725 120.139896,120.906736 120.26943,121.930052 L120.204663,121.930052 L119.259067,119.792746 L116.862694,115.181347 L114.505181,115.181347 L114.505181,124.818653 L116.707254,124.818653 Z M128.740933,125 C130.088083,125 131.279793,124.468912 131.953368,123.821244 L131.953368,119.313472 L128.365285,119.313472 L128.365285,121.204663 L129.893782,121.204663 L129.893782,122.759067 C129.686528,122.914508 129.323834,123.005181 128.974093,123.005181 C127.186528,123.005181 126.331606,121.891192 126.331606,119.974093 C126.331606,118.095855 127.354922,116.981865 128.779793,116.981865 C129.582902,116.981865 130.088083,117.305699 130.554404,117.733161 L131.784974,116.256477 C131.124352,115.595855 130.11399,115 128.702073,115 C126.124352,115 123.96114,116.839378 123.96114,120.051813 C123.96114,123.316062 126.059585,125 128.740933,125 Z" id="MEETING" fill="#FFFFFF" fill-rule="nonzero"></path>
                        <circle id="椭圆形" fill="#FFFFFF" cx="68" cy="120" r="2"></circle>
                        <path d="M20,40 L30,40 C35.5228475,40 40,44.4771525 40,50 L40,240 C40,245.522847 35.5228475,250 30,250 L20,250 C14.4771525,250 10,245.522847 10,240 L10,50 C10,44.4771525 14.4771525,40 20,40 Z" id="矩形" fill="#FFFFFF"></path>
                        <g id="编组-3" transform="translate(50.000000, 40.000000)">
                            <mask id="mask-11" fill="white">
                                <use xlink:href="#path-10"></use>
                            </mask>
                            <use id="蒙版" fill="#D3ECFF" xlink:href="#path-10"></use>
                            <g mask="url(#mask-11)" fill-rule="nonzero">
                                <g transform="translate(14.000000, 12.000000)">
                                    <path d="M9.80718933,1.75957773 C9.86127217,1.71631824 9.91488695,1.67107708 9.96920355,1.6288085 C9.91465247,1.67107732 9.86174023,1.71697866 9.80718933,1.75957773 Z M16.9344374,0.0457391635 L16.9344368,0.0457391022 C16.7612902,0.027898256 16.5880138,0.0177255868 16.4147009,0.0152265868 C16.2327859,0.0152265868 16.0522756,0.0304830406 15.8719997,0.0473741099 C16.0482957,0.051188256 16.2229527,0.0648099637 16.3948007,0.0925984253 L16.3948009,0.0925983916 C16.5744268,0.063731084 16.7543999,0.0481036378 16.9344505,0.0457395916 L16.9344374,0.0457391635 Z M9.07250548,2.16518671 C9.1942506,2.08652075 9.31599516,2.00762048 9.43937934,1.93316877 C9.31529335,2.0078548 9.19401629,2.08652075 9.07250548,2.16518671 Z M8.68643375,2.42342626 C8.75011553,2.3794108 8.81286118,2.33328799 8.87677727,2.29044314 C8.81262687,2.33375622 8.75011553,2.37917666 8.68643375,2.42342626 Z M21.6482789,1.04911478 L21.6482789,1.04911478 C23.0433522,1.65522474 24.3352101,2.47549153 25.4771589,3.48026937 L25.4771589,3.48026937 C24.346555,2.46047762 23.0521235,1.6385757 21.6482789,1.04911478 L21.6482789,1.04911478 Z M14.1810823,8.05757761 C11.5787843,12.6256423 7.16924839,16.6731856 2.88082994,13.9975878 C3.11987162,21.2685698 9.08560729,27.0903002 16.4146336,27.0903002 C23.7460198,27.0903002 29.7133945,21.2640747 29.9484372,13.9896089 C26.3665626,16.2250313 16.9697343,12.9868539 14.1810823,8.05757761 L14.1810823,8.05757761 Z" id="形状" fill="#FCE9EA"></path>
                                    <path d="M21.2231308,27.6677084 L21.2678103,27.6786059 L21.2231308,27.6677084 Z M22.7882915,28.1566495 C22.7932082,28.1548872 22.798593,28.1517149 22.8032755,28.1506573 C22.8337117,28.1668713 22.8643821,28.1827328 22.8945842,28.1992993 L22.8945842,28.1992993 C22.8129963,28.1548615 22.7312068,28.1112706 22.6492206,28.06853 C22.6967479,28.0932035 22.7438068,28.1192868 22.7911002,28.1443127 C22.7899296,28.1481899 22.7894613,28.1524196 22.7882907,28.1566495 L22.7882915,28.1566495 Z M20.2391437,27.4256743 C20.318512,27.4621807 20.3983484,27.4970524 20.4772487,27.5357383 C20.3983484,27.4970524 20.318512,27.4621806 20.2391437,27.4256743 Z M21.4718111,36.2949757 L18.9432625,34.5163272 L16.4081565,32.7311269 L13.8796079,34.5163272 L11.3445019,36.2949757 C9.8100494,37.3742895 8.77357484,29.3410175 9.70867145,28.2434026 C4.92503395,30.0520173 1.41385201,33.790055 3.39147513e-13,38.7132234 C6.62109877,38.7132234 23.5627189,38.7132234 32.835058,38.7094755 C31.4146206,33.7687365 27.8816763,30.0213263 23.0699157,28.2218425 C24.0403951,29.2321326 23.0161007,37.3812964 21.4718111,36.2949757 Z M10.1820495,28.0701688 C10.1022131,28.1127874 10.0228447,28.1564986 9.94371016,28.200938 L10.01465,28.1619623 C10.0244832,28.1656049 10.0343165,28.1688832 10.0443839,28.1739828 L10.038999,28.1488489 C10.0867604,28.1226222 10.1340539,28.0960312 10.1820495,28.0701688 L10.1820495,28.0701688 Z" id="形状" fill="#10A5FE"></path>
                                    <path d="M16.5748216,32.6143175 L18.9432288,30.9527352 L22.5866819,28.2251785 C22.6590265,28.1715639 22.7259864,28.1404255 22.7882634,28.1270804 L22.791307,28.118886 C22.7440138,28.1022632 22.6969545,28.0849379 22.6494274,28.0685492 L22.6494267,28.0685489 C22.4872995,28.0129626 22.3244251,27.9595814 22.1608476,27.9084199 C22.0856935,27.8847733 22.0110075,27.8604243 21.9356197,27.8379481 L21.9356193,27.837948 C21.6978211,27.7664075 21.4585822,27.6997482 21.2180509,27.6380117 L21.1988527,27.6333293 L21.1988528,27.6333293 C20.9595498,27.5729998 20.7190545,27.517501 20.4775141,27.4668665 C20.3986138,27.4502437 20.3187774,27.4352596 20.2394091,27.4195733 L20.2394096,27.4195734 C19.9755971,27.3672818 19.7107468,27.3203688 19.4450239,27.2788641 L19.445024,27.2788641 C19.2658454,27.2511683 19.0862791,27.2260395 18.9063813,27.2034859 C18.8249059,27.1931844 18.7443671,27.1817122 18.6626573,27.1723472 L18.6626581,27.1723473 C18.4007195,27.1419693 18.1382163,27.116679 17.8752961,27.0964909 L14.9617001,27.0964909 L14.9616989,27.0964909 C14.6980095,27.1167675 14.434737,27.1421346 14.1720276,27.1725778 C14.0928935,27.1817087 14.0144613,27.1927125 13.9355616,27.2025457 C13.7515395,27.2259583 13.5686878,27.2512437 13.387007,27.2793389 L13.3870057,27.2793391 C13.1195168,27.3209873 12.8529521,27.3683676 12.5874955,27.421448 C12.5128095,27.4361979 12.4376554,27.4502454 12.3632037,27.4659318 L12.3632018,27.4659322 C11.8691212,27.5701117 11.3795459,27.6946141 10.8957221,27.8391235 C10.8250166,27.8604288 10.7552472,27.8831389 10.685244,27.9051467 C10.5162061,27.9580589 10.3485723,28.0123757 10.1825781,28.0699704 C10.1345825,28.0863592 10.0872895,28.1036844 10.039528,28.1205414 L10.0449129,28.136696 C10.0968886,28.1530847 10.1516738,28.1814138 10.2099709,28.2247271 L13.8798783,30.9522838 L16.2414977,32.6136357 C16.2993268,32.6150405 16.3566872,32.6180979 16.4149843,32.6180979 C16.4683647,32.6183183 16.5215109,32.6155088 16.5748914,32.6143381 L16.5748216,32.6143175 Z" id="路径" fill="#FEFEFE"></path>
                                    <path d="M14.1811133,8.05767145 C16.9697921,12.9869365 26.366598,16.2251082 29.9484838,13.9897027 L29.9597218,13.9831472 C30.1994658,9.49848526 28.227666,5.90117533 25.477403,3.4802867 L25.4774026,3.48028633 C24.3354201,2.47556472 23.0435734,1.65529793 21.6485225,1.04913178 C20.0585824,0.361040658 18.4262638,0.00259360673 16.9344201,0.013129226 C16.7525051,0.0142998316 16.5724629,0.0208553467 16.3947621,0.0332639462 C16.8604365,1.69180641 15.927683,4.99179273 14.1811133,8.05764107 L14.1811133,8.05767145 Z" id="路径" fill="#5F5F5F"></path>
                                    <path d="M14.1811289,8.05767145 C15.9276986,4.99180625 16.8604521,1.69202222 16.3947777,0.033294325 L16.3947781,0.0332943504 C16.2207504,0.0214794541 16.046402,0.0149989526 15.871977,0.0138620047 C14.0062341,-0.00252675503 11.9185463,0.56101183 9.96944554,1.62908762 C9.91512855,1.6588215 9.86151416,1.6911309 9.80743132,1.72180107 C9.68451576,1.79110185 9.56136589,1.85970081 9.43962133,1.93321583 C9.31623771,2.00766754 9.19449259,2.08656781 9.07274747,2.16523377 C9.00766094,2.2071421 8.94187148,2.2474116 8.87725301,2.29049076 C8.81310261,2.33333561 8.75035752,2.37945802 8.68690949,2.42347387 C5.26400199,4.78766683 2.57832937,8.78912311 2.85624496,13.9831553 C2.86443931,13.9883061 2.87263372,13.9925203 2.88082807,13.997671 C7.16929147,16.6732519 11.5788105,12.6256974 14.1810804,8.05771699 L14.1811289,8.05767145 Z" id="路径" fill="#757575"></path>
                                </g>
                            </g>
                        </g>
                        <g id="编组-3备份" transform="translate(120.000000, 40.000000)">
                            <mask id="mask-13" fill="white">
                                <use xlink:href="#path-12"></use>
                            </mask>
                            <use id="蒙版" fill="#FFE3D3" xlink:href="#path-12"></use>
                            <g id="编组-4" mask="url(#mask-13)" fill-rule="nonzero">
                                <g transform="translate(14.000000, 15.000000)">
                                    <path d="M4.99735591,28.4800604 L4.99735591,28.4739068 C5.04509902,28.4306197 5.09432765,28.38903 5.14270733,28.3461676 L5.22227918,28.2761444 L5.2222805,28.2761433 C5.37303109,28.1445174 5.52662336,28.0161819 5.68294831,27.8912279 L5.72665981,27.8557919 L5.72665939,27.8557922 C6.07962587,27.5759758 6.44556116,27.3129212 6.82325882,27.0675038 C6.84638772,27.0524382 6.87015315,27.037797 6.89349441,27.0229436 L6.89349423,27.0229437 C7.05609734,26.9184873 7.22079147,26.8173219 7.38747629,26.7195098 C7.42439763,26.6976541 7.46131897,26.6762228 7.49824031,26.6547916 L7.49823817,26.6547928 C7.66559216,26.5584174 7.83481208,26.4653181 8.00580066,26.3755488 C8.03274901,26.3615442 8.05927294,26.3466907 8.0864333,26.3326861 L8.08643071,26.3326874 C8.49098521,26.1234285 8.90475018,25.9324764 9.32646827,25.7604118 C9.3659359,25.7442852 9.40604012,25.7292196 9.44550776,25.7130931 L9.44550871,25.7130927 C9.83797593,25.5565834 10.2365013,25.4157191 10.6401458,25.2908312 C10.6872523,25.2764022 10.7339346,25.2607 10.7814654,25.2466954 L10.781466,25.2466952 C11.2268102,25.1133124 11.6775444,24.9986291 12.1324764,24.9029473 C12.1935876,24.8897915 12.2555477,24.8785453 12.3168707,24.8662382 L12.3168702,24.8662383 C12.7271737,24.7844114 13.1402925,24.7173872 13.5554207,24.6652945 C13.6256563,24.6563825 13.6954672,24.6466217 13.7659146,24.6385584 L13.7659146,24.6385584 C14.0044249,24.6107806 14.2434608,24.5877186 14.4828812,24.5693861 L15.7942253,24.5693861 C9.07708784,24.5693861 3.62352594,19.1739817 3.52274341,12.4808302 L3.52274364,12.4808302 C2.9929759,12.9050284 2.63850558,13.509912 2.52735452,14.1794257 C2.35760141,15.1998551 2.7705261,16.1812396 3.52189827,16.7876866 L3.52189827,17.0062441 L3.52189837,17.0062441 C2.56375651,17.3380717 1.86383996,18.1673617 1.69768884,19.1676295 C1.51244557,20.2805762 2.02064463,21.3474756 2.90527126,21.9314235 C1.87911266,22.1975117 1.05305244,23.0422465 0.867809169,24.1556159 C0.682565898,25.2685625 1.19076496,26.335248 2.07539159,26.9194098 C1.04923299,27.1854981 0.22317277,28.0302329 0.0379294993,29.1433883 C-0.198239757,30.5631641 0.691905723,31.9095198 2.05544898,32.2710943 L2.05544903,32.2710943 C2.81027907,30.8473411 3.80553578,29.5647906 4.99727513,28.4800773 L4.99735591,28.4800604 Z M15.8474672,24.6026001 L15.8198129,24.603094 L15.8474672,24.6026001 Z" id="形状" fill="#FECF77"></path>
                                    <path d="M11.0791929,0.956500047 L11.0791929,0.956500047 C8.8454417,1.88865437 6.93579874,3.45821361 5.58870967,5.46917891 C6.99872289,3.40518947 8.99671734,1.86743861 11.0791929,0.956500047 L11.0791929,0.956500047 Z M15.7938787,24.5691993 L15.8057614,24.5689871 C22.4516024,24.5626214 27.8573958,19.2748236 28.060234,12.6764964 C24.8160348,14.6719446 16.3943639,11.7761658 13.825148,7.35580042 C11.4568758,11.4767719 7.4689739,15.0999622 3.5960018,12.6601492 C3.52916144,11.4107667 3.65244459,10.2381959 3.92617176,9.14858862 L3.9261716,9.14858923 C3.65489448,10.1747937 3.51766779,11.2318134 3.51791496,12.2932637 C3.51791496,12.3560723 3.52173474,12.4180324 3.52258353,12.4808409 C3.62316235,19.1737885 9.07667332,24.5691993 15.7938617,24.5691993 L15.7938787,24.5691993 Z" id="形状" fill="#FFEDEE"></path>
                                    <path d="M13.8248579,7.355758 C16.394347,11.7761335 24.8158142,14.6718869 28.0600031,12.676454 C27.8571481,19.2747811 22.4513716,24.5625789 15.8055305,24.5689447 L15.8055305,24.5691569 L17.1170885,24.5691569 C17.3577138,24.5871932 17.5957928,24.6109586 17.8321759,24.6381193 C17.9049578,24.6463948 17.9766784,24.6563678 18.0488237,24.6657043 L18.0488242,24.6657043 C18.2931299,24.6964218 18.53677,24.7322177 18.7795867,24.773069 L18.7795884,24.7730693 C18.9445957,24.8011875 19.1091905,24.8316729 19.2733224,24.8645171 C19.3393138,24.877673 19.4055176,24.8897679 19.4710848,24.9037726 C19.9272966,25.0001065 20.3741706,25.1138422 20.8106521,25.2445524 C20.8656099,25.2608912 20.9197188,25.2787153 20.9742518,25.2956908 L20.9742523,25.2956909 C21.2003841,25.3659622 21.4249315,25.4412354 21.6477281,25.5214555 C21.812601,25.5808693 21.9759884,25.6428289 22.1376784,25.7073354 C22.1845727,25.7260082 22.2314672,25.7438323 22.2779372,25.7629297 L22.2779373,25.7629298 C22.6943922,25.9332971 23.1031165,26.1219778 23.5029212,26.3284221 C23.5394181,26.3473071 23.5750665,26.367041 23.6113512,26.3861381 L23.6113516,26.3861382 C23.9781674,26.5793738 24.3366649,26.7880023 24.6858898,27.0114686 C24.7175064,27.0320512 24.7501839,27.0515728 24.7818003,27.0723674 L24.7818002,27.0723673 C25.1527344,27.3140111 25.5123538,27.5725924 25.8595214,27.8472928 C25.8864697,27.868512 25.9125694,27.8905799 25.9393056,27.9120111 L25.9393062,27.9120116 C26.1196866,28.0571359 26.2965637,28.2065619 26.4697869,28.3601603 C26.5056473,28.3917768 26.5421441,28.4229688 26.5775804,28.4547975 L26.5775804,28.4594657 L26.5775799,28.4594652 C27.5538463,29.3427765 28.4003075,30.359692 29.0918366,31.4800127 C29.160799,31.4738592 29.2299733,31.4677056 29.2995723,31.4562473 C30.8071954,31.2052245 31.8263516,29.7797231 31.5757499,28.2718862 C31.390719,27.1587307 30.5642326,26.3135682 29.538074,26.0476938 C30.4226991,25.4637408 30.9308997,24.3970553 30.7458703,23.2838998 C30.560627,22.1705305 29.7343529,21.3257957 28.7084082,21.0597074 C29.5930333,20.4757544 30.10102,19.4088551 29.9159906,18.2959135 C29.7432665,17.2574461 29.0131136,16.4511197 28.0826551,16.1315591 L28.0826551,15.9238234 C28.8395426,15.318018 29.2564991,14.3323863 29.0861109,13.3079236 L29.086111,13.3079238 C28.9752003,12.6400142 28.6221243,12.0363681 28.0943274,11.6123023 C27.8632508,4.16330757 20.8064115,-0.299692994 15.8290076,0.0157934838 C15.8408903,0.0166422672 15.8531974,0.0162178501 15.8650801,0.0170666335 C16.2941316,1.53211469 15.4326335,4.55860525 13.8248579,7.3557048 L13.8248579,7.355758 Z" id="路径" fill="#FCBA6F"></path>
                                    <path d="M26.5783116,32.8376289 C24.893298,30.2616245 18.0603294,29.789286 15.7998268,32.496849 C13.5278913,29.7761282 6.63951523,30.2667135 4.99735591,32.8762476 L4.99735591,28.4800619 C3.80549968,29.5647953 2.81016148,30.8474274 2.05532125,32.2712874 C1.57813364,33.1725355 1.19638278,34.1211542 0.91627458,35.1017137 C-0.830394974,40.2436055 32.3541134,40.2436055 30.6791009,35.0961984 C30.3045825,33.7948256 29.7717679,32.5827872 29.0921199,31.4804535 C28.4009982,30.3598985 27.554644,29.342876 26.5782859,28.45969 L26.5783116,32.8376289 Z" id="路径" fill="#F4B3B3"></path>
                                    <path d="M3.59582188,12.6601068 C7.46874305,15.100098 11.4566551,11.4767142 13.824968,7.355758 C15.4325333,4.55843438 16.2940279,1.53216789 15.8660408,0.0169161282 C15.8541581,0.0160673448 15.8418509,0.0164917619 15.8299682,0.0156429785 C14.3522641,-0.0781458806 12.6910178,0.251599873 11.0792103,0.956500555 C8.99676022,1.86743911 6.99876577,3.40518998 5.58877802,5.46917942 C4.84695447,6.55517605 4.26788528,7.78631174 3.92583071,9.14858185 C3.65252776,10.238184 3.52903224,11.4107548 3.5958726,12.6601424 L3.59582188,12.6601068 Z" id="路径" fill="#FECF77"></path>
                                    <path d="M26.470705,28.3601806 L26.4707053,28.3601809 C26.2976415,28.2064002 26.1207603,28.0569706 25.9402246,27.9120322 C25.9134884,27.8906009 25.8873889,27.8685329 25.8604404,27.8473139 L25.8604409,27.8473144 C25.5133314,27.5725508 25.1537104,27.3139716 24.782735,27.0723991 C24.7511185,27.0516043 24.718441,27.0320827 24.6868246,27.0115003 L24.6868239,27.0114999 C24.4902898,26.8859648 24.2909253,26.7649172 24.0888866,26.64845 L24.0888871,26.6484503 C23.9317056,26.5580256 23.7728226,26.4705903 23.6123248,26.3861922 C23.5760401,26.3668827 23.5403919,26.3471489 23.5038947,26.3284762 L23.5038952,26.3284765 C23.1040967,26.1220353 22.6953739,25.933356 22.2789216,25.7629893 C22.2324516,25.743892 22.1855574,25.7260679 22.1386628,25.7073949 L22.1386621,25.7073946 C21.9166395,25.6187085 21.6925749,25.535224 21.4666529,25.4570083 L21.4666523,25.4570081 C21.3037172,25.4006478 21.1398944,25.3468888 20.9752456,25.2957515 C20.9205001,25.2787762 20.8663913,25.2609521 20.8116458,25.2446132 L20.8116452,25.244613 C20.3700186,25.112594 19.9231192,24.9989042 19.4720932,24.9038356 C19.406526,24.8900432 19.3403222,24.877736 19.2743308,24.8645802 L19.2743319,24.8645804 C19.1101648,24.8318554 18.9455593,24.8013675 18.7805622,24.773126 L18.7805625,24.7731261 C18.537778,24.7320154 18.2941241,24.6962171 18.0497746,24.6657573 C17.9774175,24.6564209 17.9056964,24.6464478 17.8331268,24.6381723 L17.8331283,24.6381725 C17.5952541,24.6104655 17.3568547,24.5874743 17.1180715,24.5692121 L14.4832883,24.5692121 L14.4832875,24.5692121 C14.2438656,24.5875444 14.0048297,24.610606 13.7663209,24.6383834 C13.6956611,24.6464467 13.6260621,24.6562075 13.555827,24.6651196 L13.5558254,24.6651198 C13.1407058,24.7172685 12.7275907,24.7842927 12.3172749,24.8660625 C12.2557395,24.8783696 12.1939918,24.8896158 12.1328806,24.9027717 L12.1328802,24.9027718 C11.6779497,24.998479 11.2272176,25.1131618 10.7818698,25.2465186 C10.7343389,25.2605232 10.6876568,25.2762254 10.6405502,25.2906544 C10.4665529,25.3445509 10.2942535,25.4009942 10.1236515,25.4601957 L9.96005174,25.5179116 C9.78690339,25.5800836 9.6154524,25.6454389 9.44591318,25.7129159 C9.40623333,25.7288302 9.36634133,25.7438958 9.32687369,25.7602346 L9.32687356,25.7602347 C8.90520691,25.9324307 8.49144296,26.1233812 8.08682582,26.3325154 C8.05987747,26.3465201 8.03314118,26.3613735 8.00619318,26.3753781 L8.00619122,26.3753791 C7.79744408,26.4852244 7.59127939,26.5999098 7.38786319,26.7193419 C7.22086822,26.8173744 7.05620771,26.9183774 6.89388113,27.0227757 C6.87054007,27.0376291 6.8469868,27.0522704 6.82364554,27.067336 L6.82364562,27.0673359 C6.44590009,27.3126835 6.07995818,27.5757407 5.7270411,27.8556294 L5.68332965,27.8910654 L5.68332867,27.8910662 C5.52705516,28.0160834 5.37346391,28.1444179 5.22266087,28.2759816 L5.14308901,28.3460048 C5.09470933,28.3886553 5.04548071,28.430245 4.9977376,28.473744 L4.9977376,32.8760815 C6.63988673,30.2665475 13.5284512,29.7759622 15.8002085,32.4966829 C18.0606857,29.7891163 24.8934506,30.2616687 26.5786933,32.8374628 L26.5786933,28.4548591 C26.5430451,28.4230304 26.5067603,28.3920506 26.4708998,28.3602218 L26.470705,28.3601806 Z" id="路径" fill="#FEFEFE"></path>
                                </g>
                            </g>
                        </g>
                        <g id="编组-3备份-2" transform="translate(190.000000, 40.000000)">
                            <mask id="mask-15" fill="white">
                                <use xlink:href="#path-14"></use>
                            </mask>
                            <use id="蒙版" fill="#C6EED1" xlink:href="#path-14"></use>
                            <g id="编组-5" mask="url(#mask-15)" fill-rule="nonzero">
                                <g transform="translate(14.000000, 12.000000)">
                                    <path d="M14.3777618,27.8766609 L14.3777618,27.8766609 C14.8313387,27.9346648 15.2877349,27.9679733 15.7449243,27.9764386 C15.8568488,27.9779569 15.9687734,27.9792584 16.0804808,27.9799091 L16.0804803,27.9799091 C16.9017078,27.9745898 17.7204514,27.8890107 18.5250307,27.7243923 C19.7249659,26.9964513 22.9879109,24.7475454 23.8694513,25.1915598 L23.8694517,25.1915595 C24.7042342,24.5163597 25.4493442,23.7372814 26.0866806,22.8732485 L26.0866808,22.8732485 C25.7937177,22.9026577 25.4995861,22.9189421 25.2051664,22.9220528 C27.0189523,20.2905232 27.9349505,17.0503764 27.3939835,12.813948 L16.1177924,12.8692596 L15.9826587,12.8692596 L15.9826587,12.8686089 L4.74312813,12.813948 C4.2019424,17.0501579 5.11816189,20.2905651 6.93194514,22.922053 L6.93194505,22.922053 C6.57562066,22.9180734 6.21972537,22.8960652 5.865623,22.856113 L5.86562184,22.8561114 C6.61993345,23.8822735 7.52513656,24.7884295 8.5505071,25.5438191 C8.7153572,23.9827306 13.3838672,27.3474087 14.3777638,27.8766641 L14.3777618,27.8766609 Z" id="路径" fill="#FCE9EA"></path>
                                    <path d="M22.3875188,29.12062 C22.375372,29.1390572 22.3645266,29.1564098 22.351946,29.175064 L16.3201922,29.1689906 L10.2823456,29.175064 C10.2244313,29.0880838 10.1708548,29.0050081 10.1161942,28.9210648 C5.50516681,30.5444032 2.11794563,34.0717625 0.774419844,38.7508827 C5.08763233,41.7522359 10.3287629,43.5130983 15.9820382,43.5130983 C21.6388025,43.5130983 26.8831877,41.7498561 31.197676,38.745243 C29.9040377,34.25004 26.7252505,30.8209404 22.3875317,29.1205992 L22.3875188,29.12062 Z" id="路径" fill="#76C28C"></path>
                                    <path d="M16.320198,29.1689974 L22.3519518,29.175079 C22.3645325,29.1564167 22.3753779,29.1390641 22.3875247,29.1206267 C24.1147625,26.5084064 24.3572637,25.4370956 23.8692254,25.1915585 C22.9879297,24.7475477 19.7249795,26.9962313 18.5248048,27.724391 C18.2911948,27.8658148 18.1354552,27.9501924 18.0909891,27.9456374 L18.0909873,27.9456375 C17.3093521,27.9774322 16.5269879,27.9877035 15.7447851,27.9764396 L15.7447837,27.9764396 C15.3462294,27.9716555 14.9477605,27.9613165 14.5494936,27.9454254 C14.5245492,27.9480283 14.4651165,27.9230838 14.3777025,27.8766655 C13.3838319,27.3476288 8.7153141,23.982732 8.55023748,25.5438204 C8.49644438,26.0535541 8.92418653,27.0899426 10.1163147,28.9210797 C10.1707587,29.005023 10.2245518,29.0880987 10.2824661,29.175079 L16.3203126,29.1690056 L16.320198,29.1689974 Z" id="路径" fill="#9FDBB0"></path>
                                    <path d="M4.74270307,12.8139143 L15.9822336,12.8685749 L15.9822336,1.40845621 L15.9945974,1.41452963 C3.97852976,-4.9018121 -7.2071556,21.3637525 5.86519407,22.8561076 L5.86519375,22.8561076 C6.2192909,22.8960663 6.57518464,22.9180743 6.93150538,22.9220476 C5.11771953,20.290518 4.20150264,17.0503712 4.74268837,12.8139428 L4.74270307,12.8139143 Z" id="路径" fill="#715F54"></path>
                                    <path d="M15.9822336,12.8685406 L15.9822336,12.8691913 L16.1173673,12.8691913 L27.3935584,12.8138797 C27.9345254,17.0500946 27.0185246,20.2904965 25.2047414,22.9219845 L25.2047419,22.9219845 C25.499161,22.9188738 25.7932947,22.9025894 26.0862562,22.8731801 C32.2789727,22.2645369 33.0592071,16.0364565 30.8896837,10.2962165 C30.3981705,10.5751601 29.9905994,10.5992368 29.8346411,10.1699761 L28.9307867,7.710673 L28.0330042,5.25136988 L25.4567883,4.77178638 L22.8805724,4.29220287 C21.974333,4.12214688 22.7118178,2.64522252 23.7299828,1.47044982 C21.3743603,0.228870563 18.7066128,-0.0112508229 15.9943987,1.41470444 L15.982035,1.40863097 L15.982035,12.8685414 L15.9822336,12.8685406 Z M27.9993427,5.15941034 L28.0513356,5.27058843 L28.1207712,5.28083891 L27.9993427,5.15941034 L27.9993427,5.15941034 Z" id="形状" fill="#593B37"></path>
                                    <path d="M28.0329829,5.25142634 L28.0778845,5.25967095 L28.0863438,5.26118929 L30.6091988,5.73079478 L33.1793428,6.20430482 C34.5048664,6.45201348 32.3334007,9.47722736 30.8896624,10.296273 C30.3983642,10.5752165 29.9907937,10.5992932 29.8346198,10.1700326 L29.8346198,10.1700326 L28.9307654,7.71072946 L28.0329829,5.25142634 Z M23.7425574,1.45640691 C24.7119165,0.343018237 25.9296383,-0.492075211 26.2315743,0.332823584 L26.2315743,0.332823584 L27.1293568,2.79212671 L27.9924315,5.14080766 L27.9993726,5.15967863 L28.0329933,5.2514305 L25.4567774,4.771847 L22.8805664,4.29225901 C21.9745406,4.12220406 22.7118134,2.64527866 23.7299768,1.47050596 L23.7299768,1.47050596 Z" id="形状结合" fill="#ED5B19"></path>
                                </g>
                            </g>
                        </g>
                        <g id="编组-7" transform="translate(260.000000, 40.000000)">
                            <mask id="mask-17" fill="white">
                                <use xlink:href="#path-16"></use>
                            </mask>
                            <use id="蒙版" fill="#D3ECFF" xlink:href="#path-16"></use>
                            <g mask="url(#mask-17)">
                                <g transform="translate(28.000000, 17.000000)">
                                    <path d="M24.0241773,41.9737199 C24.0795235,41.9672086 24.1348696,41.9633018 24.1898908,41.956465 C25.0210578,41.7083839 31.1394189,38.0893918 32.7418278,38.6122527 C34.3315696,37.4210079 35.7126176,35.926987 36.7736376,34.1246521 C37.5569489,32.7009546 38.1260347,31.2886482 38.5108561,29.8193709 C38.8676766,28.3787445 39.0639922,26.8140693 39.0639922,25.1195002 C39.0639922,24.2284239 39.0802705,23.3500464 39.0936187,22.4908824 C39.0311101,21.437677 38.9213944,20.3288005 38.7690296,19.1489467 C31.2292477,19.610274 25.8766064,16.952353 21.6409712,12.6890675 C15.7163206,16.7312915 10.0684421,19.0659246 4.78059417,19.1489467 C4.69594686,20.6849632 4.63539164,22.1236438 4.62790397,23.4838556 C4.63474087,23.9360668 4.63994994,24.3941374 4.64125219,24.8574199 C4.69952849,27.1484268 4.95477254,29.2118652 5.57595465,31.1284727 C5.59386078,31.1812144 5.61241799,31.2329795 5.6306497,31.2853956 C5.69185608,31.4673866 5.7569696,31.6474247 5.82501248,31.8268113 C5.91193879,32.0514517 6.00212014,32.2728363 6.09751094,32.4903143 C6.10890575,32.516034 6.11932382,32.5424049 6.13104421,32.5681246 C6.23587634,32.8031831 6.34624328,33.033033 6.46084286,33.2593009 C6.47940015,33.2957642 6.4973062,33.3328787 6.5158635,33.3690163 C6.60930065,33.5500313 6.70762193,33.7261621 6.80691925,33.9013169 C6.87528811,34.0204737 6.94333115,34.1399566 7.01593281,34.2584627 L7.01593272,34.2584626 C7.98577721,35.8671421 9.24422594,37.2829777 10.7280374,38.4348186 C13.2033175,38.666296 19.8507076,41.9180472 20.2938233,41.8786512 C21.8037964,42.077572 22.518737,42.0196211 24.0241568,41.9737167 L24.0241773,41.9737199 Z M36.4119606,46.7227371 C39.17178,48.9017579 41.3009807,51.7618593 42.6198508,55.1275302 L42.6279899,55.1223211 C41.2749389,51.620533 39.0929976,48.8200178 36.4119606,46.7227371 L36.4119606,46.7227371 Z M7.88200227,46.779721 C5.17036233,48.9222664 2.97702996,51.7908284 1.64416142,55.3801841 C2.94284112,51.933421 5.08734804,49.0065805 7.88200227,46.779721 Z" id="形状" fill="#FCE9EA" fill-rule="nonzero"></path>
                                    <path d="M36.4119606,46.7227391 C34.6737652,45.3498287 32.6861882,44.2481129 30.4970783,43.4569879 L13.9254157,43.4475464 L13.916951,43.4400584 C11.6790077,44.2435513 9.65008114,45.3709875 7.88193508,46.7800404 C5.08760383,49.0072386 2.94277392,51.9337484 1.64409422,55.3805035 C1.60958421,55.4723132 1.57832994,55.5660757 1.54512225,55.6585368 C7.45055933,59.0955395 14.3151273,61.0652107 21.6403624,61.0652107 C29.3344589,61.0652107 36.5199924,58.8917299 42.6198647,55.1281922 C41.3009947,51.761513 39.171794,48.9017424 36.4119745,46.7227 L36.4119606,46.7227391 Z" id="路径" fill="#4E97E9" fill-rule="nonzero"></path>
                                    <path d="M30.4971334,43.4566019 L30.5179696,43.4566019 C33.2136574,40.1729448 33.5434537,38.8736112 32.7412605,38.6118539 C31.138828,38.0893208 25.0204669,41.7083074 24.1893235,41.9560662 L24.1893235,41.9560662 C24.1649488,41.9648015 24.1393484,41.9696359 24.1134667,41.9703911 L24.0239361,41.9733212 C22.5185163,42.0195515 21.8038986,42.0771765 20.2929487,41.8782557 C19.8498535,41.9176492 13.2024508,38.6658989 10.7271629,38.4344231 C9.13189101,38.2849887 9.26895361,39.3902848 13.9167297,43.4393466 L13.9251944,43.4468346 L30.4971721,43.4566019 L30.4971334,43.4566019 Z" id="路径" fill="#86B4E8" fill-rule="nonzero"></path>
                                    <path d="M6.51531513,33.3690029 C6.49643234,33.332865 6.47885179,33.2957505 6.46029457,33.2592874 L6.46029507,33.2592884 C6.34418692,33.031894 6.23421387,32.8014186 6.13049642,32.5681121 L6.09696308,32.4903018 L6.0969639,32.4903037 C5.92359417,32.0957724 5.76782146,31.6937431 5.63010581,31.2853912 C5.61252526,31.2329751 5.59266572,31.1812098 5.57541067,31.1284684 C4.95423093,29.2118608 4.6989868,27.1484224 4.64070822,24.8574155 L4.64070743,24.8573841 C4.62917105,24.3996545 4.62472131,23.9417769 4.62735968,23.4839064 C4.63484766,22.1236947 4.69507737,20.685014 4.78004988,19.1489976 C10.06789,19.0659786 15.7158315,16.7310193 21.6404269,12.6891183 L21.6404269,2.03007728 C3.14828105,-7.66852515 -8.1071741,19.7444664 7.10552134,34.4128187 C7.07329032,34.3617049 7.04659387,34.3096141 7.01533921,34.2581749 C6.94273802,34.1399941 6.87469466,34.020512 6.80632564,33.9010291 C6.70540002,33.7248983 6.60773022,33.5474645 6.51526989,33.3690547 L6.51531513,33.3690029 Z M36.6734974,34.3111891 C41.53159,30.1266875 43.6725126,24.3902016 43.7464125,18.808046 C43.6288832,24.3205241 41.4834026,30.0163143 36.6734974,34.3111891 Z" id="形状" fill="#646464" fill-rule="nonzero"></path>
                                    <path d="M21.6404115,12.6890075 C25.876346,16.952616 31.2286486,19.6105385 38.7684699,19.1488867 C38.9208347,20.3287405 39.0305502,21.437617 39.093059,22.4908224 C39.2568189,25.2330668 39.0933846,27.5927665 38.510296,29.8193109 C38.125477,31.2885882 37.556388,32.7008946 36.7730775,34.124592 C36.7388931,34.1864496 36.7082899,34.2489583 36.6731287,34.311141 C41.482711,30.016605 43.6285177,24.3205155 43.7460438,18.807998 C44.0048683,6.63511596 34.3687692,-4.64286916 21.6587128,2.03939512 L21.6401555,2.03027923 L21.6401555,12.6890052 L21.6404115,12.6890075 Z" id="路径" fill="#4D4D4D" fill-rule="nonzero"></path>
                                    <polygon id="路径-2" fill="#FFFFFF" fill-rule="evenodd" points="21.8901833 43.4566019 18.4492446 52.2526345 21.967837 55.3801841 25.4365283 52.2526345"></polygon>
                                </g>
                            </g>
                        </g>
                        <path d="M268,122 L352,122 C356.418278,122 360,125.581722 360,130 L360,242 C360,246.418278 356.418278,250 352,250 L268,250 C263.581722,250 260,246.418278 260,242 L260,130 C260,125.581722 263.581722,122 268,122 Z" id="矩形备份-17" fill="#FFFFFF"></path>
                        <path d="M274.5,132 L345.5,132 C347.985281,132 350,134.014719 350,136.5 L350,147.5 C350,149.985281 347.985281,152 345.5,152 L274.5,152 C272.014719,152 270,149.985281 270,147.5 L270,136.5 C270,134.014719 272.014719,132 274.5,132 Z" id="矩形" fill="#F1F9FF"></path>
                        <path d="M274.5,162 L345.5,162 C347.985281,162 350,164.014719 350,166.5 L350,167.5 C350,169.985281 347.985281,172 345.5,172 L274.5,172 C272.014719,172 270,169.985281 270,167.5 L270,166.5 C270,164.014719 272.014719,162 274.5,162 Z" id="矩形备份-18" fill="#F1F9FF"></path>
                        <path d="M274.5,182 L345.5,182 C347.985281,182 350,184.014719 350,186.5 L350,187.5 C350,189.985281 347.985281,192 345.5,192 L274.5,192 C272.014719,192 270,189.985281 270,187.5 L270,186.5 C270,184.014719 272.014719,182 274.5,182 Z" id="矩形备份-19" fill="#F1F9FF"></path>
                        <path d="M274.5,202 L325.5,202 C327.985281,202 330,204.014719 330,206.5 L330,207.5 C330,209.985281 327.985281,212 325.5,212 L274.5,212 C272.014719,212 270,209.985281 270,207.5 L270,206.5 C270,204.014719 272.014719,202 274.5,202 Z" id="矩形备份-20" fill="#F1F9FF"></path>
                        <rect id="矩形" fill="#3B91F4" x="17" y="46" width="16" height="16" rx="6"></rect>
                        <rect id="矩形备份-7" fill="#3BC2F4" x="17" y="68" width="16" height="16" rx="6"></rect>
                        <rect id="矩形备份-8" fill="#2ACD41" x="17" y="90" width="16" height="16" rx="6"></rect>
                        <rect id="矩形备份-9" fill="#FF9106" x="17" y="112" width="16" height="16" rx="6"></rect>
                        <path d="M24.3375024,49.2156471 C24.7000364,48.9281176 25.2679512,48.9281176 25.6304883,49.2156471 L25.6304883,49.2156471 L29.8737778,52.5427681 C30.0166494,52.6570653 30.0434376,52.8660156 29.9273546,53.0106726 C29.8612767,53.0946097 29.763052,53.1374712 29.6648277,53.1374712 C29.5916058,53.1374712 29.5201704,53.1142546 29.45945,53.0660354 L29.45945,53.0660354 L29.3094346,52.9481667 L29.3094346,56.9825054 C29.3094346,57.5789943 28.957613,57.9790353 28.4361318,57.9790353 L28.4361318,57.9790353 L25.9894571,57.9790353 L25.9894571,55.4555231 C25.9894571,55.020624 25.6787108,54.5514959 24.9929272,54.5514959 C24.3089294,54.5514959 23.9963974,55.020624 23.9963974,55.4555231 L23.9963974,55.4555231 L23.9963974,57.9790353 L21.7926064,57.9790353 C21.2639802,57.9790353 20.6728485,57.552206 20.6728485,56.9825054 L20.6728485,56.9825054 L20.6728485,52.9588812 L20.5371202,53.0660344 C20.3942489,53.1785455 20.1835129,53.1535429 20.0710013,53.0106716 C19.9584902,52.8678003 19.981707,52.65885 20.1263641,52.5445528 L20.1263641,52.5445528 Z" id="形状结合" fill="#FFFFFF" fill-rule="nonzero"></path>
                        <path d="M27.7618801,75.3230669 L24.1512467,73.0988583 C23.6349948,72.81154 23,73.1848728 23,73.7757913 L23,78.2242087 C23,78.8151272 23.6349948,79.18846 24.1512467,78.9011417 L27.7618801,76.6769331 C28.2924404,76.3815561 28.2924404,75.6184439 27.7618801,75.3230669 Z" id="路径" fill="#FFFFFF" fill-rule="nonzero"></path>
                        <path d="M20,0 L350,0 C361.045695,-2.02906125e-15 370,8.954305 370,20 L370,30 L370,30 L0,30 L0,20 C-1.3527075e-15,8.954305 8.954305,2.02906125e-15 20,0 Z" id="矩形备份-6" fill="#FFFFFF"></path>
                        <circle id="椭圆形" fill="#FF8083" cx="20" cy="15" r="6"></circle>
                        <circle id="椭圆形备份" fill="#FFC12F" cx="38" cy="15" r="6"></circle>
                        <circle id="椭圆形备份-2" fill="#2ACD41" cx="56" cy="15" r="6"></circle>
                        <rect id="矩形" fill="#F1F9FF" x="62" y="214" width="68" height="8"></rect>
                        <rect id="矩形备份-14" fill="#F1F9FF" x="62" y="230" width="174" height="8"></rect>
                        <path d="M25.0201586,102.232951 C23.52881,102.258271 22.0160307,101.840125 22.0004107,100.841 C21.9740924,99.0981936 23.2159248,97.6507369 24.7969163,97.5356866 C23.9693659,97.4625751 23.3084967,96.7237341 23.2948477,95.8035771 C23.2792499,94.8230116 23.9986302,94.0159245 24.8973093,94.0003202 C25.7940756,93.9818089 26.5368311,94.7684091 26.553395,95.7431261 C26.5660631,96.6671764 25.9266194,97.4264879 25.1049441,97.5288597 C26.6888756,97.5892869 27.9725972,98.9909439 27.9999205,100.735733 C28.0125725,101.733877 26.5134325,102.203677 25.0201743,102.232941 L25.0201586,102.232951 Z" id="路径" fill="#FFFFFF" fill-rule="nonzero"></path>
                        <path d="M21.5522313,117 C21.2472419,117 21,117.247242 21,117.552231 L21,122.447769 C21,122.752758 21.2472419,123 21.5522312,123 L26.6093305,123 C26.9143199,123 27.1615617,122.752758 27.1615617,122.447769 L27.1615617,117.552231 C27.1615617,117.247972 26.9151114,117 26.6093305,117 L21.5522313,117 Z M23.8213996,121.544118 C23.5795132,121.738844 23.2220081,121.566937 23.2220081,121.256592 L23.2220081,118.743408 C23.2220081,118.434584 23.5810345,118.262677 23.8213996,118.455882 L25.3837728,119.712475 C25.5663286,119.861562 25.5663286,120.139959 25.3837728,120.287525 L23.8213996,121.544118 Z M28.7011155,117.909736 L27.5783975,118.76927 L27.5783975,121.206389 L28.7011155,122.093306 C29.0236307,122.362576 29.51501,122.134381 29.51501,121.712982 L29.51501,118.290061 C29.51501,117.868661 29.0236307,117.638945 28.7011155,117.909736 Z" id="形状" fill="#FFFFFF" fill-rule="nonzero"></path>
                        <rect id="矩形" fill="#F1F9FF" x="146" y="213" width="20" height="9" rx="4.5"></rect>
                        <rect id="矩形备份-15" fill="#F1F9FF" x="176" y="213" width="20" height="9" rx="4.5"></rect>
                        <rect id="矩形备份-16" fill="#F1F9FF" x="206" y="213" width="20" height="9" rx="4.5"></rect>
                    </g>
                    <g id="矩形">
                        <use fill="black" fill-opacity="1" filter="url(#filter-19)" xlink:href="#path-18"></use>
                        <use fill="#FFFFFF" fill-rule="evenodd" xlink:href="#path-18"></use>
                    </g>
                    <path d="M360,80 L450,80 C455.522847,80 460,84.4771525 460,90 L460,240 C460,245.522847 455.522847,250 450,250 L360,250 C354.477153,250 350,245.522847 350,240 L350,90 C350,84.4771525 354.477153,80 360,80 Z" id="矩形备份-21" fill="#F1F9FF"></path>
                    <rect id="矩形" fill="#D3ECFF" x="360" y="159" width="17" height="8" rx="4"></rect>
                    <rect id="矩形备份-26" fill="#D3ECFF" x="383" y="159" width="36" height="8" rx="4"></rect>
                    <rect id="矩形备份-27" fill="#D3ECFF" x="386" y="173" width="52" height="8" rx="4"></rect>
                    <rect id="矩形备份-28" fill="#D3ECFF" x="383" y="187" width="36" height="8" rx="4"></rect>
                    <rect id="矩形备份-24" fill="#D3ECFF" x="360" y="173" width="20" height="8" rx="4"></rect>
                    <rect id="矩形备份-25" fill="#D3ECFF" x="360" y="187" width="17" height="8" rx="4"></rect>
                    <rect id="矩形" fill="#9ACEF5" x="360" y="224" width="68" height="16" rx="8"></rect>
                    <circle id="椭圆形" fill="#9ACEF5" cx="442" cy="232" r="8"></circle>
                    <path d="M442,228 C442.552285,228 443,228.447715 443,229 L443,231 L445,231 C445.552285,231 446,231.447715 446,232 C446,232.552285 445.552285,233 445,233 L443,233 L443,235 C443,235.552285 442.552285,236 442,236 C441.447715,236 441,235.552285 441,235 L441,233 L439,233 C438.447715,233 438,232.552285 438,232 C438,231.447715 438.447715,231 439,231 L441,231 L441,229 C441,228.447715 441.447715,228 442,228 Z" id="形状结合" fill="#FFFFFF"></path>
                    <path d="M366,100 L404,100 C407.313708,100 410,102.686292 410,106 L410,134 C410,137.313708 407.313708,140 404,140 L366,140 C362.686292,140 360,137.313708 360,134 L360,106 C360,102.686292 362.686292,100 366,100 Z" id="矩形备份-22" fill="#FFFFFF"></path>
                    <path d="M422,100 L460,100 C463.313708,100 466,102.686292 466,106 L466,134 C466,137.313708 463.313708,140 460,140 L422,140 C418.686292,140 416,137.313708 416,134 L416,106 C416,102.686292 418.686292,100 422,100 Z" id="矩形备份-31" fill="#FFFFFF"></path>
                    <path d="M384.74796,120.239555 C388.452277,120.239555 391.466462,117.270581 391.466262,113.61979 C391.466262,109.9692 388.452302,107 384.747985,107 C381.043693,107 378.029734,109.970252 378.029734,113.61979 C378.029734,117.269504 381.043668,120.239555 384.74796,120.239555 L384.74796,120.239555 Z M387.516555,120.87701 L382.482669,120.87701 C377.804808,120.87701 374,124.623357 374,129.229658 L374,129.725449 C374,132.133501 377.743917,132.133501 382.482669,132.133501 L387.516555,132.133501 C392.068878,132.133501 396,132.133501 396,129.725449 L396,129.229658 C396,124.624409 392.194541,120.87701 387.516555,120.87701 Z" id="形状" fill="#287CFF" fill-rule="nonzero"></path>
                    <path d="M385,117 C386.656854,117 388,115.656854 388,114 C386.656854,114 383.343146,114 382,114 C382,115.656854 383.343146,117 385,117 Z" id="椭圆形" fill="#FFFFFF"></path>
                    <path d="M440.74796,120.239555 C444.452277,120.239555 447.466462,117.270581 447.466262,113.61979 C447.466262,109.9692 444.452302,107 440.747985,107 C437.043693,107 434.029734,109.970252 434.029734,113.61979 C434.029734,117.269504 437.043668,120.239555 440.74796,120.239555 L440.74796,120.239555 Z M443.516555,120.87701 L438.482669,120.87701 C433.804808,120.87701 430,124.623357 430,129.229658 L430,129.725449 C430,132.133501 433.743917,132.133501 438.482669,132.133501 L443.516555,132.133501 C448.068878,132.133501 452,132.133501 452,129.725449 L452,129.229658 C452,124.624409 448.194541,120.87701 443.516555,120.87701 Z" id="形状备份" fill="#3CB4F4" fill-rule="nonzero"></path>
                    <path d="M381,80 L429,80 C426.790861,80 425,81.790861 425,84 L425,85 C425,87.7614237 422.761424,90 420,90 L390,90 C387.238576,90 385,87.7614237 385,85 L385,84 C385,81.790861 383.209139,80 381,80 L381,80 L381,80 Z" id="矩形" fill="#FFFFFF"></path>
                    <rect id="矩形" fill="#9ACEF5" x="395" y="78" width="20" height="4" rx="2"></rect>
                    <g id="编组-13" transform="translate(338.000000, 135.000000)">
                        <path d="M8,10 L24,10 L24,10 L32,0 L32,10 L34,10 C38.418278,10 42,13.581722 42,18 C42,22.418278 38.418278,26 34,26 L8,26 C3.581722,26 5.41083001e-16,22.418278 0,18 C-5.41083001e-16,13.581722 3.581722,10 8,10 Z" id="矩形" fill="#FF8083"></path>
                        <path d="M20.5,13 C20.7761424,13 21,13.2238576 21,13.5 L21,22.5 C21,22.7761424 20.7761424,23 20.5,23 C20.2238576,23 20,22.7761424 20,22.5 L20,13.5 C20,13.2238576 20.2238576,13 20.5,13 Z M23.5,15 C23.7761424,15 24,15.2238576 24,15.5 L24,20.5 C24,20.7761424 23.7761424,21 23.5,21 C23.2238576,21 23,20.7761424 23,20.5 L23,15.5 C23,15.2238576 23.2238576,15 23.5,15 Z M17.5,15 C17.7761424,15 18,15.2238576 18,15.5 L18,20.5 C18,20.7761424 17.7761424,21 17.5,21 C17.2238576,21 17,20.7761424 17,20.5 L17,15.5 C17,15.2238576 17.2238576,15 17.5,15 Z M26.5,16 C26.7761424,16 27,16.2238576 27,16.5 L27,19.5 C27,19.7761424 26.7761424,20 26.5,20 C26.2238576,20 26,19.7761424 26,19.5 L26,16.5 C26,16.2238576 26.2238576,16 26.5,16 Z M14.5,16 C14.7761424,16 15,16.2238576 15,16.5 L15,19.5 C15,19.7761424 14.7761424,20 14.5,20 C14.2238576,20 14,19.7761424 14,19.5 L14,16.5 C14,16.2238576 14.2238576,16 14.5,16 Z" id="形状结合" fill="#FFFFFF"></path>
                    </g>
                    <g id="编组-12" transform="translate(440.000000, 172.000000)">
                        <circle id="椭圆形" fill="url(#linearGradient-20)" cx="20" cy="20" r="20"></circle>
                        <path d="M14.6187576,18.7812664 C16.0625107,21.6125224 18.3875156,23.9375273 21.2187716,25.3812804 L23.4125262,23.1875257 C23.6750268,22.9250252 24.0875276,22.831275 24.4250283,22.9437752 C25.5500307,23.318776 26.7687833,23.5062764 28.0062859,23.5062764 C28.5500371,23.5062764 29.000038,23.9562774 29.000038,24.5000285 L29.000038,27.9875359 C29.000038,28.531287 28.5500371,28.9813225 28.0062859,28.9813225 C18.6125161,29.000038 11,21.3875219 11,11.9937521 C11,11.4500009 11.450001,11 11.9937521,11 L15.5,11 C16.0437606,11 16.4937616,11.4312509 16.4937616,11.9750021 C16.4937616,13.2312547 16.700012,14.4312572 17.0562628,15.5562596 C17.168763,15.9125104 17.0937629,16.2875112 16.8125123,16.5687618 L14.6187576,18.7812664 Z" id="路径" fill="#FFFFFF" fill-rule="nonzero"></path>
                    </g>
                    <g id="编组-10" transform="translate(398.000000, 128.000000)">
                        <rect id="矩形" fill="#3C92F4" x="0" y="0" width="16" height="16" rx="4"></rect>
                        <path d="M5.94117613,7.05881995 L5.94118103,7.29411406 C5.94118123,8.59361042 6.99462886,9.64705163 8.2941186,9.64705163 C9.59361496,9.64705143 10.6470562,8.5936038 10.6470562,7.29411406 L10.6470562,7.05881995 L11.5882323,7.05881995 L11.5882323,7.34117325 L11.5872911,7.34117325 L11.58635,7.40705501 C11.5316934,9.00105873 10.343236,10.3270808 8.7647065,10.5552904 L8.76470594,12 L7.82352981,12 L7.8235295,10.5552904 C6.22023901,10.3236385 5.02313971,8.96094472 5,7.34117628 L5,7.05881995 L5.94117613,7.05881995 Z M8.2941186,4 C9.23529473,4 9.70588335,4.47058862 9.70588335,5.41176475 L9.70588335,7.29412142 C9.70588335,8.17993425 9.28902977,8.64889448 8.45532352,8.70100117 L8.2941186,8.70588617 C7.35294247,8.70588617 6.88235385,8.23529756 6.88235385,7.29412142 L6.88235385,5.41176475 C6.88235385,4.52595192 7.29920744,4.0569917 8.13291369,4.004885 L8.2941186,4 Z" id="形状结合" fill="#FFFFFF" fill-rule="nonzero"></path>
                    </g>
                </g>
                <g id="编组-11" transform="translate(90.000000, 80.000000)" fill="#FFFFFF">
                    <text id="闪会" font-family="SourceHanSansCN-Bold, Source Han Sans CN" font-size="36" font-weight="bold">
                        <tspan x="194" y="32">闪会</tspan>
                    </text>
                    <g id="编组-14" transform="translate(0.000000, 86.000000)">
                        <rect id="矩形" fill-opacity="0.099486451" x="0" y="0" width="140" height="40" rx="20"></rect>
                        <rect id="矩形备份-3" fill-opacity="0.099486451" x="0" y="60" width="140" height="40" rx="20"></rect>
                        <rect id="矩形备份-4" fill-opacity="0.099486451" x="160" y="60" width="140" height="40" rx="20"></rect>
                        <rect id="矩形备份" fill-opacity="0.099486451" x="160" y="0" width="140" height="40" rx="20"></rect>
                        <text id="视频会议" font-family="SourceHanSansCN-Regular, Source Han Sans CN" font-size="20" font-weight="normal">
                            <tspan x="30" y="28">视频会议</tspan>
                        </text>
                        <text id="远程信访" font-family="SourceHanSansCN-Regular, Source Han Sans CN" font-size="20" font-weight="normal">
                            <tspan x="30" y="88">远程信访</tspan>
                        </text>
                        <text id="基层党建" font-family="SourceHanSansCN-Regular, Source Han Sans CN" font-size="20" font-weight="normal">
                            <tspan x="190" y="88">基层党建</tspan>
                        </text>
                        <rect id="矩形备份-5" fill-opacity="0.099486451" x="320" y="60" width="140" height="40" rx="20"></rect>
                        <text id="政务服务" font-family="SourceHanSansCN-Regular, Source Han Sans CN" font-size="20" font-weight="normal">
                            <tspan x="350" y="88">政务服务</tspan>
                        </text>
                        <text id="远程面试" font-family="SourceHanSansCN-Regular, Source Han Sans CN" font-size="20" font-weight="normal">
                            <tspan x="190" y="28">远程面试</tspan>
                        </text>
                        <rect id="矩形备份-2" fill-opacity="0.099486451" x="320" y="0" width="140" height="40" rx="20"></rect>
                        <text id="企业培训" font-family="SourceHanSansCN-Regular, Source Han Sans CN" font-size="20" font-weight="normal">
                            <tspan x="350" y="28">企业培训</tspan>
                        </text>
                    </g>
                </g>
            </g>
        </g>
    </g>
</svg>