<?xml version="1.0" encoding="UTF-8"?>
<svg width="40px" height="44px" viewBox="0 0 40 44" version="1.1" xmlns="http://www.w3.org/2000/svg" xmlns:xlink="http://www.w3.org/1999/xlink">
    <!-- Generator: Sketch 59.1 (86144) - https://sketch.com -->
    <title>4</title>
    <desc>Created with Sketch.</desc>
    <g id="页面-1" stroke="none" stroke-width="1" fill="none" fill-rule="evenodd">
        <g id="画板" transform="translate(-835.000000, -746.000000)">
            <g id="4" transform="translate(834.000000, 746.000000)">
                <g id="编组-5备份">
                    <g id="编组-4">
                        <path d="M37.5831965,17.0162543 C38.799721,17.0162543 39.7859479,18.0024812 39.7859479,19.2190057 C39.7859479,28.6380094 32.7059264,36.4033967 23.5774408,37.4836104 L23.5957461,41.7876803 C23.6009568,43.0042048 22.6190253,43.994672 21.4025008,43.9999794 C20.1981465,44.0051351 19.2153339,43.0428631 19.1907182,41.8431897 L19.1902226,41.8067341 L19.1715689,37.4792015 C10.0609291,36.3824391 3,28.6253009 3,19.2190057 C3,18.0024812 3.98622686,17.0162543 5.20275137,17.0162543 C6.40710568,17.0162543 7.38573304,17.9828216 7.40522739,19.1826052 L7.40550274,19.2190057 C7.40550274,26.9440547 13.6679249,33.2064769 21.3929739,33.2064769 C29.0408165,33.2064769 35.2550535,27.0686754 35.3785728,19.4502946 L35.3804451,19.2190057 C35.3804451,18.0024812 36.366672,17.0162543 37.5831965,17.0162543 Z M21.3654395,1.77635684e-15 C27.1896794,1.77635684e-15 31.9111117,4.72143235 31.9111117,10.5456722 L31.9111117,10.5456722 L31.9111117,18.4205083 C31.9111117,24.2447481 27.1896794,28.9661805 21.3654395,28.9661805 C15.5411997,28.9661805 10.8197674,24.2447481 10.8197674,18.4205083 L10.8197674,18.4205083 L10.8197674,10.5456722 C10.8197674,4.72143235 15.5411997,1.77635684e-15 21.3654395,1.77635684e-15 Z M21.3654395,4.40550274 C17.9743038,4.40550274 15.2252701,7.15453645 15.2252701,10.5456722 L15.2252701,10.5456722 L15.2252701,18.4205083 C15.2252701,21.8116441 17.9743038,24.5606778 21.3654395,24.5606778 C24.7565753,24.5606778 27.505609,21.8116441 27.505609,18.4205083 L27.505609,18.4205083 L27.505609,10.5456722 C27.505609,7.15453645 24.7565753,4.40550274 21.3654395,4.40550274 Z" id="形状结合" fill="#FFFFFF" fill-rule="nonzero"></path>
                        <path d="M21,-4 C22.1045695,-4 23,-3.1045695 23,-2 L23,46.598625 C23,47.7031945 22.1045695,48.598625 21,48.598625 C19.8954305,48.598625 19,47.7031945 19,46.598625 L19,-2 C19,-3.1045695 19.8954305,-4 21,-4 Z" id="矩形" fill="#F9612D" transform="translate(21.000000, 22.299313) rotate(-315.000000) translate(-21.000000, -22.299313) "></path>
                    </g>
                    <g id="编组" transform="translate(3.000000, 0.000000)"></g>
                </g>
            </g>
        </g>
    </g>
</svg>