<?xml version="1.0" encoding="UTF-8"?>
<svg width="84px" height="84px" viewBox="0 0 84 84" version="1.1" xmlns="http://www.w3.org/2000/svg" xmlns:xlink="http://www.w3.org/1999/xlink">
    <!-- Generator: Sketch 59.1 (86144) - https://sketch.com -->
    <title>1</title>
    <desc>Created with Sketch.</desc>
    <g id="页面-1" stroke="none" stroke-width="1" fill="none" fill-rule="evenodd">
        <g id="画板" transform="translate(-295.000000, -1987.000000)">
            <g id="1" transform="translate(295.000000, 1987.000000)">
                <rect id="矩形备份-4" fill="#FFEAE3" x="0" y="0" width="84" height="84" rx="16"></rect>
                <path d="M58.8835203,28.7580688 C57.9011581,28.7580688 56.9508792,29.2179305 56.3443507,29.6823755 L51.1667058,33.9525193 L51.1667058,29.5555698 C51.1667058,27.0286224 49.1103145,24.9722311 46.5833671,24.9722311 L26.7222329,24.9722311 C24.1952855,24.9722311 22.1388942,27.0286224 22.1388942,29.5555698 L22.1388942,54.0000427 C22.1388942,56.5269901 24.1952855,58.5833813 26.7222329,58.5833813 L46.5833671,58.5833813 C49.1103145,58.5833813 51.1667058,56.5269901 51.1667058,54.0000427 L51.1667058,49.596982 L56.4085174,53.9099037 C56.68199,54.1192095 57.6674078,54.7975436 58.8942148,54.7975436 C59.7849103,54.7975436 60.5686612,54.4232376 61.0988007,53.7449035 C61.6121346,53.0864305 61.8611627,52.2018461 61.8611627,51.0407337 L61.8611627,32.5148788 C61.8611627,29.7450144 60.3226887,28.7580688 58.8835203,28.7580688 Z M58.8056036,51.0407337 C58.8056036,51.3783729 58.7719924,51.5892065 58.739909,51.7160122 C58.5871311,51.6732344 58.4022698,51.5876787 58.3075474,51.5143453 L50.610594,45.1801713 C50.1537879,44.8043375 49.5182316,44.7264208 48.9880921,44.9785044 C48.4533693,45.2321158 48.1111467,45.7698942 48.1111467,46.3611449 L48.1111467,54.0000427 C48.1111467,54.843377 47.4267014,55.5278222 46.5833671,55.5278222 L26.7222329,55.5278222 C25.8804264,55.5278222 25.1944533,54.843377 25.1944533,54.0000427 L25.1944533,29.5555698 C25.1944533,28.7137632 25.8804264,28.0277902 26.7222329,28.0277902 L46.5833671,28.0277902 C47.4267014,28.0277902 48.1111467,28.7137632 48.1111467,29.5555698 L48.1111467,37.1944676 C48.1111467,37.7857182 48.4533693,38.3234966 48.9865644,38.5755803 C49.5258705,38.8291917 50.1568435,38.7482194 50.610594,38.3723856 L58.2433807,32.0733505 C58.3732419,31.9740448 58.5764366,31.8793225 58.7368535,31.8365447 C58.7704646,31.9602948 58.8056036,32.1741839 58.8056036,32.5148788 L58.8056036,51.0407337 Z" id="形状" fill="#FF5319" fill-rule="nonzero"></path>
            </g>
        </g>
    </g>
</svg>