<?xml version="1.0" encoding="UTF-8"?>
<svg width="46px" height="39px" viewBox="0 0 46 39" version="1.1" xmlns="http://www.w3.org/2000/svg" xmlns:xlink="http://www.w3.org/1999/xlink">
    <!-- Generator: Sketch 59.1 (86144) - https://sketch.com -->
    <title>5</title>
    <desc>Created with Sketch.</desc>
    <g id="页面-1" stroke="none" stroke-width="1" fill="none" fill-rule="evenodd">
        <g id="画板" transform="translate(-1024.000000, -750.000000)">
            <g id="5" transform="translate(1024.000000, 749.000000)">
                <g id="视频-关闭">
                    <g id="编组-9" transform="translate(0.989364, 0.288677)">
                        <path d="M43.3751947,9.50081065 C42.321851,8.04673831 40.3010339,7.72043074 38.8469616,8.69362876 L35.6125093,10.9606077 L35.6125093,10.8003162 C35.6125093,6.35222881 31.9716038,2.71132327 27.5235163,2.71132327 L8.09962876,2.71132327 C3.65154132,2.71132327 0.010635782,6.35222881 0.010635782,10.8003162 L0.010635782,26.9783022 C0.010635782,31.4263896 3.65154132,35.0672952 8.09962876,35.0672952 L27.512067,35.0672952 C31.7998629,35.0672952 35.2804771,31.7526972 35.6010599,27.6251926 L38.9156579,29.8921716 C39.4824026,30.2986249 40.1292931,30.4589163 40.7761835,30.4589163 C42.5565634,30.4589163 44.0106358,29.004844 44.0106358,27.224464 L44.0106358,11.367061 C43.9419395,10.7144458 43.7759233,10.0675554 43.3751947,9.50081065 Z M32.3723324,26.9725775 C32.3723324,29.640285 30.1854992,31.8271182 27.5177916,31.8271182 L8.09962876,31.8271182 C5.43192124,31.8271182 3.24508803,29.640285 3.24508803,26.9725775 L3.24508803,10.7945915 C3.24508803,8.12688403 5.43192124,5.94005082 8.09962876,5.94005082 L27.512067,5.94005082 C30.1797745,5.94005082 32.3666077,8.12688403 32.3666077,10.7945915 L32.3666077,26.9725775 L32.3723324,26.9725775 Z M40.7017625,27.2187393 L35.6067846,23.6579795 L35.6067846,14.9220961 L40.7017625,11.3613363 L40.7017625,27.2187393 Z M8.09962876,13.2218619 C8.09962876,14.5614404 9.18732066,15.6491323 10.5268991,15.6491323 C11.8664776,15.6491323 12.9541695,14.5614404 12.9541695,13.2218619 C12.9541695,11.8822835 11.8664776,10.7945915 10.5268991,10.7945915 C9.18732066,10.7945915 8.09962876,11.8822835 8.09962876,13.2218619 L8.09962876,13.2218619 Z" id="形状" stroke="#FFFFFF" fill="#FFFFFF" fill-rule="nonzero"></path>
                        <path d="M20.0106358,-6.28867673 C21.1152053,-6.28867673 22.0106358,-5.39324623 22.0106358,-4.28867673 L22.0106358,44.3099483 C22.0106358,45.4145178 21.1152053,46.3099483 20.0106358,46.3099483 C18.9060663,46.3099483 18.0106358,45.4145178 18.0106358,44.3099483 L18.0106358,-4.28867673 C18.0106358,-5.39324623 18.9060663,-6.28867673 20.0106358,-6.28867673 Z" id="矩形" fill="#F9612D" transform="translate(20.010636, 20.010636) rotate(-315.000000) translate(-20.010636, -20.010636) "></path>
                    </g>
                </g>
            </g>
        </g>
    </g>
</svg>