<?xml version="1.0" encoding="UTF-8"?>
<svg width="23px" height="23px" viewBox="0 0 23 23" version="1.1" xmlns="http://www.w3.org/2000/svg" xmlns:xlink="http://www.w3.org/1999/xlink">
    <!-- Generator: Sketch 59.1 (86144) - https://sketch.com -->
    <title>设置备份</title>
    <desc>Created with Sketch.</desc>
    <g id="页面-1" stroke="none" stroke-width="1" fill="none" fill-rule="evenodd">
        <g id="首页-多人入会情况" transform="translate(-705.000000, -841.000000)">
            <g id="编组-14" transform="translate(703.000000, 841.000000)">
                <g id="设置备份" transform="translate(2.000000, 0.000000)">
                    <rect id="矩形" x="0" y="0" width="24" height="24"></rect>
                    <g id="设置" fill-rule="nonzero">
                        <g id="a-link" transform="translate(0.432002, 0.432002)" fill="#505050">
                            <path d="M12.1787467,22.1760307 L9.99727913,22.1760307 L9.99727922,22.1760307 C9.35331812,22.1774682 8.77301904,21.7876632 8.53084001,21.1909747 C8.39298235,20.8536318 8.19399212,20.3314062 7.97916187,19.6512754 C7.7258874,19.5592053 7.47673628,19.4559152 7.231711,19.341405 C6.59885276,19.6703329 6.08850717,19.8990232 5.75264928,20.0400983 L5.75264931,20.0400983 C5.15974752,20.2902147 4.47438458,20.1555904 4.0201473,19.6997854 L2.475003,18.1568686 L2.47500302,18.1568686 C2.01907284,17.7026982 1.88443269,17.0172536 2.13469013,16.4243666 C2.27576529,16.0882612 2.50445556,15.5776681 2.83338344,14.9448099 C2.71986322,14.7001145 2.6169031,14.450881 2.52450308,14.1971115 C1.84461979,13.9822813 1.32214668,13.783291 0.984803788,13.6454334 L0.984803893,13.6454334 C0.388211874,13.4031772 -0.00148227979,12.8228934 -3.96830837e-06,12.1789942 L-3.96830837e-06,9.99703168 L-3.96830837e-06,9.99702793 C-0.00144060666,9.35306683 0.388365315,8.77276776 0.98505386,8.5305912 C1.32239675,8.39273354 1.84486986,8.19349581 2.52500065,7.97891306 C2.61707076,7.72547276 2.72027838,7.4764058 2.83462351,7.23170969 C2.50569315,6.59885393 2.27700289,6.08850833 2.13592772,5.75265044 L2.13592777,5.75265056 C1.88567033,5.15976362 2.02031024,4.474319 2.47624067,4.02014854 L4.01915746,2.47500425 L4.01915743,2.47500428 C4.47332788,2.0190741 5.15877251,1.88443394 5.75165945,2.13469139 C6.08776484,2.27576655 6.59786293,2.50445682 7.23072117,2.8333847 C7.47574645,2.72002957 7.72514507,2.61706945 7.97891454,2.52450434 C8.19374479,1.84437355 8.39273502,1.32190044 8.53084018,0.984557547 L8.53084013,0.984557673 C8.77317434,0.388064654 9.35343951,-0.00152307461 9.99727933,-2.93150465e-06 L12.1789944,-2.93150465e-06 L12.1789943,-2.93150465e-06 C12.8229554,-0.00144086236 13.4032545,0.388364129 13.6454335,0.985052673 C13.7832912,1.32239557 13.9825289,1.84486867 14.1971117,2.52475197 C14.4503862,2.61682207 14.6995373,2.72011211 14.9445626,2.83462233 C15.5771733,2.50569444 16.0875189,2.27700418 16.4233768,2.13592901 L16.4233768,2.135929 C17.0162638,1.88567155 17.7017084,2.02031146 18.1558788,2.47624189 L19.7010231,4.01915869 L19.7010231,4.0191587 C20.1569533,4.47332915 20.2915935,5.15877378 20.041336,5.75166072 C19.9002609,6.08776611 19.6715706,6.5978642 19.3426427,7.23072244 C19.4561629,7.47574772 19.5591231,7.72514634 19.6515231,7.97891581 C20.3314064,8.19374606 20.8538795,8.39273629 21.1912224,8.53059395 L21.1912224,8.53059395 C21.7878986,8.77288411 22.17761,9.35328986 22.1760308,9.99728066 L22.1760308,12.1789957 L22.1760308,12.1789993 C22.177467,12.8229604 21.787661,13.4032594 21.1909724,13.645436 C20.8536295,13.7832937 20.3314039,13.9822839 19.6512731,14.1971141 C19.559203,14.4503886 19.455913,14.6995397 19.3414028,14.944565 C19.6703331,15.5771733 19.8990234,16.0875189 20.0400986,16.4233768 L20.0400986,16.4233768 C20.290356,17.0162637 20.1557161,17.7017083 19.6997857,18.1558788 L18.1568689,19.7010231 L18.1568689,19.7010231 C17.7026984,20.1569533 17.0172538,20.2915934 16.4243669,20.041336 C16.0882615,19.9002608 15.5781634,19.6715705 14.9453051,19.3426427 C14.7002799,19.4561629 14.4508812,19.559123 14.1971118,19.651523 C13.9822815,20.3314063 13.7832913,20.8538794 13.6454336,21.1912223 L13.6454336,21.1912223 C13.4031435,21.7878984 12.8227377,22.1776099 12.1787469,22.1760307 L12.1787467,22.1760307 Z M7.2193359,17.6591455 L7.21933591,17.6591455 C7.34791306,17.659101 7.47456811,17.6903613 7.58835884,17.7502257 L7.58835843,17.7502254 C7.99281845,17.9631388 8.41591029,18.1386054 8.85233993,18.274431 L8.85233988,18.274431 C9.10470355,18.352855 9.30132521,18.5519828 9.37654549,18.8053192 C9.61785827,19.6173676 9.84679604,20.2247333 9.99702872,20.5912812 L12.1789913,20.5912812 C12.3292239,20.2239908 12.5586567,19.6163776 12.799722,18.8045767 L12.7997219,18.8045768 C12.874943,18.5512405 13.0715639,18.3521116 13.3239275,18.2736887 L13.3239277,18.2736886 C13.7603573,18.1378632 14.1834492,17.9623976 14.5879092,17.749483 L14.5879091,17.7494831 C14.8218716,17.6262641 15.1018954,17.6279352 15.33437,17.7539379 C16.0793459,18.1578584 16.6708715,18.4251587 17.0364295,18.5786089 L18.5798413,17.0361871 C18.4261436,16.6701342 18.1590908,16.078361 17.7549228,15.3333851 L17.7549227,15.333385 C17.6289199,15.10091 17.6272487,14.8208862 17.7504678,14.5869242 L17.7504679,14.5869239 C17.9633791,14.1824614 18.1388454,13.7593696 18.2746736,13.3229399 L18.2746736,13.3229399 C18.3530975,13.0705763 18.5522253,12.8739546 18.8055617,12.7987343 C19.6176101,12.5574215 20.2249758,12.3284838 20.5915238,12.1782511 L20.5915238,9.99628856 C20.2242333,9.84605588 19.6168676,9.61662311 18.8048192,9.37555783 L18.8048191,9.37555782 C18.5514828,9.30033679 18.352354,9.10371588 18.273931,8.85135221 L18.273931,8.8513522 C18.1381029,8.41492257 17.9626375,7.99183073 17.7497254,7.58736823 L17.7497253,7.58736813 C17.6265063,7.35340561 17.6281775,7.07338181 17.7541804,6.84090726 C18.1581009,6.0959314 18.4254012,5.50440571 18.5786039,5.13884778 L17.0369246,3.59617849 C16.6708717,3.74962867 16.0790985,4.01692898 15.3341226,4.42109695 L15.3341227,4.4210969 C15.1016477,4.54709979 14.8216239,4.54877116 14.5876618,4.42555203 L14.5876625,4.42555235 C14.1832024,4.21263899 13.7601106,4.03717243 13.323681,3.90134674 L13.3236809,3.90134674 C13.0713173,3.82292281 12.8746956,3.62379496 12.7994753,3.37045862 C12.55841,2.55865768 12.3292248,1.95104447 12.1789921,1.58449654 L9.99702957,1.58449654 C9.8485294,1.95030197 9.61934413,2.55445017 9.37827885,3.36130111 L9.37827884,3.36130113 C9.30534744,3.61913455 9.10699378,3.82260949 8.85110323,3.90208926 L8.85110301,3.90208932 C8.41468081,4.03783506 7.99159144,4.21321698 7.58712152,4.42604743 L7.58712162,4.42604738 C7.3531591,4.54926639 7.07313529,4.54759527 6.84066075,4.4215925 C6.09568488,4.01767203 5.50415919,3.75037172 5.13860127,3.59716904 L3.59617947,5.13909583 C3.74962965,5.50514876 4.01692996,6.09692195 4.42109793,6.84189781 L4.42109796,6.84189786 C4.54710085,7.0743729 4.54877197,7.35439671 4.42555294,7.58835873 L4.42555265,7.58835927 C4.21272443,7.9928292 4.03734102,8.41591856 3.90159454,8.85234077 L3.90159455,8.85234074 C3.82317062,9.10470441 3.62404278,9.30132606 3.37070643,9.37654635 C2.55865799,9.61761163 1.95129228,9.8467969 1.58449685,9.99702957 L1.58449685,12.1789921 C1.94931228,12.3274923 2.54974798,12.55544 3.35412391,12.7945253 L3.35412393,12.7945253 C3.62233752,12.8679564 3.83256179,13.0763985 3.90827707,13.343976 L3.90827728,13.3439766 C4.04151386,13.7675981 4.21204923,14.1785748 4.41788037,14.572073 L4.41788037,14.572073 C4.55318976,14.8158321 4.55036975,15.112782 4.41045536,15.3539264 C4.0127224,16.0892498 3.74888709,16.6738455 3.59692191,17.0369284 L5.13959121,18.5805877 C5.50564413,18.4271375 6.09741732,18.1598372 6.84239319,17.7556692 L6.84239322,17.7556692 C6.95805926,17.6926497 7.08761675,17.6594733 7.21933616,17.6591441 L7.2193359,17.6591455 Z" id="a"></path>
                        </g>
                        <g id="a-link" transform="translate(0.432002, 0.432002)" fill="#333333">
                            <path d="M12.1790025,4.43267801e-06 C12.8229636,-0.00143349818 13.4032627,0.388371493 13.6454417,0.985060038 C13.7832994,1.32240293 13.9825371,1.84487604 14.1971198,2.52475933 C14.4503943,2.61682944 14.6995454,2.72011947 14.9445707,2.83462969 C15.4981051,2.54681779 15.9580303,2.33575032 16.2893611,2.19297117 L16.423385,2.13593636 C17.0162719,1.88567892 17.7017165,2.02031883 18.155887,2.47624926 L19.7010313,4.01916607 C20.1569615,4.47333652 20.2916016,5.15878114 20.0413442,5.75166808 C19.900269,6.08777347 19.6715788,6.59787157 19.3426509,7.2307298 C19.4561711,7.47575509 19.5591312,7.7251537 19.6515312,7.97892317 C20.2464291,8.16689964 20.7208098,8.3427486 21.0561031,8.47612757 L21.1912305,8.53060132 C21.7879067,8.77289148 22.1776182,9.35329723 22.176039,9.99728802 L22.176039,12.1790066 C22.1774751,12.8229677 21.7876691,13.4032668 21.1909806,13.6454434 C20.8536377,13.783301 20.3314121,13.9822913 19.6512813,14.1971215 C19.5592112,14.450396 19.4559211,14.6995471 19.3414109,14.9445724 C19.629225,15.4981046 19.8402927,15.9580295 19.9830719,16.2893603 L20.0401067,16.4233841 C20.2903642,17.0162711 20.1557243,17.7017157 19.6997938,18.1558862 L18.156877,19.7010304 C17.7027066,20.1569606 17.017262,20.2916008 16.424375,20.0413433 C16.0882696,19.9002682 15.5781715,19.6715779 14.9453133,19.34265 C14.700288,19.4561702 14.4508894,19.5591304 14.1971199,19.6515304 C14.0091435,20.2464283 13.8332945,20.720809 13.6999155,21.0561023 L13.6454418,21.1912296 C13.4031517,21.7879058 12.8227459,22.1776173 12.1787551,22.1760381 L9.99728738,22.1760381 C9.35332628,22.1774756 8.7730272,21.7876706 8.53084817,21.190982 C8.39299051,20.8536391 8.19400028,20.3314135 7.97917003,19.6512827 C7.72589556,19.5592126 7.47674444,19.4559226 7.23171916,19.3414124 C6.6779682,19.6292243 6.21801599,19.8402917 5.88668174,19.9830709 L5.75265747,20.0401057 C5.15975568,20.290222 4.47439274,20.1555977 4.02015546,19.6997928 L2.47501118,18.156876 C2.019081,17.7027055 1.88444084,17.0172609 2.13469829,16.424374 C2.27577345,16.0882686 2.50446372,15.5776755 2.8333916,14.9448173 C2.71987138,14.7001219 2.61691126,14.4508884 2.52451124,14.1971189 C1.92961336,14.0091424 1.45523265,13.8332935 1.11993937,13.6999145 L0.984812053,13.6454408 C0.388220033,13.4031845 -0.00147412013,12.8229008 4.19134988e-06,12.1790016 L4.19134988e-06,9.9970353 C-0.001432447,9.3530742 0.388373475,8.77277512 0.985062019,8.53059857 C1.32240491,8.3927409 1.84487802,8.19350317 2.52500881,7.97892042 C2.61707892,7.72548013 2.72028654,7.47641316 2.83463167,7.23171705 C2.54681761,6.67796826 2.33574987,6.21801632 2.19297069,5.88668211 L2.13593593,5.75265792 C1.88567849,5.15977098 2.0203184,4.47432636 2.47624883,4.02015591 L4.01916559,2.47501165 C4.47333604,2.01908146 5.15878067,1.88444131 5.75166761,2.13469875 C6.087773,2.27577391 6.59787109,2.50446418 7.23072933,2.83339206 C7.47575461,2.72003693 7.72515323,2.61707681 7.9789227,2.5245117 C8.16689917,1.92939726 8.34274812,1.45498948 8.47629289,1.11969282 L8.53084829,0.984565037 C8.7731825,0.388072018 9.35344767,-0.00151571042 9.99728749,4.43267801e-06 L12.1790025,4.43267801e-06 Z M12.1790003,1.58450391 L9.99703773,1.58450391 C9.86503758,1.90966428 9.66928624,2.42314488 9.45810772,3.09991456 L9.378287,3.36130849 C9.31577437,3.58230857 9.16111478,3.7633718 8.95705819,3.86064534 L8.85111117,3.90209669 C8.52379452,4.00390599 8.20397758,4.12801065 7.89389066,4.27348774 L7.58712978,4.42605474 C7.35316726,4.54927375 7.07314345,4.54760263 6.84066891,4.42159986 C6.09569304,4.01767939 5.50416735,3.75037908 5.13860943,3.5971764 L3.59618763,5.1391032 C3.73258779,5.46448358 3.95894361,5.96821083 4.29142104,6.59935354 L4.42110612,6.84190522 C4.5291086,7.04116954 4.54576528,7.27536765 4.47072455,7.48554946 L4.42556081,7.58836664 C4.26593964,7.89171908 4.12738119,8.20554496 4.01081023,8.52761399 L3.90160271,8.8523481 C3.82317878,9.10471177 3.62405094,9.30133342 3.37071459,9.37655371 C2.55866615,9.61761899 1.95130044,9.84680426 1.58450501,9.99703693 L1.58450501,12.1789995 C1.90878539,12.3109996 2.41923487,12.5057732 3.09360356,12.7153438 L3.35413209,12.7945327 C3.58881898,12.8587849 3.7791078,13.0264049 3.87373635,13.2465619 L3.90828544,13.343984 C4.00821288,13.6617001 4.12912088,13.9723035 4.27016443,14.273755 L4.41788853,14.5720804 C4.55319792,14.8158395 4.55037791,15.1127893 4.41046352,15.3539338 C4.01273056,16.0892572 3.74889525,16.6738528 3.59693007,17.0369358 L5.13959937,18.5805951 C5.46497975,18.4441949 5.968707,18.2178391 6.59984971,17.8853617 L6.84240138,17.7556766 C6.92915091,17.708412 7.02371438,17.6779341 7.1211434,17.6655103 L7.21934407,17.6591529 C7.31577693,17.6591195 7.41112861,17.6766951 7.50078287,17.7107402 L7.58836659,17.7502328 C7.89171161,17.9099178 8.20553702,18.048539 8.52760942,18.1651708 L8.85234804,18.2744384 C9.10471171,18.3528623 9.30133337,18.5519902 9.37655365,18.8053265 C9.61786643,19.617375 9.8468042,20.2247407 9.99703688,20.5912886 L12.1789994,20.5912886 C12.3125396,20.2648082 12.5086576,19.7484432 12.7198986,19.0675723 L12.7997301,18.8045842 C12.8642053,18.5874387 13.0178722,18.4101192 13.2193841,18.3145022 L13.3239359,18.273696 C13.6512581,18.1718269 13.9710778,18.0476603 14.2811616,17.9021204 L14.5879173,17.7494904 C14.8218798,17.6262714 15.1019036,17.6279425 15.3343781,17.7539453 C16.079354,18.1578658 16.6708797,18.4251661 17.0364376,18.5786163 L18.5798494,17.0361945 C18.4432293,16.7108141 18.2170446,16.2070868 17.8846079,15.5759441 L17.7549309,15.3333924 C17.6469284,15.1341281 17.6302717,14.89993 17.7053125,14.6897481 L17.7504761,14.5869313 C17.9101595,14.2835844 18.0487801,13.9697585 18.1654127,13.647686 L18.2746817,13.3229473 C18.3531056,13.0705836 18.5522335,12.873962 18.8055698,12.7987417 C19.6176183,12.5574289 20.224984,12.3284911 20.5915319,12.1782585 L20.5915319,9.99629592 C20.2650515,9.86275576 19.748882,9.66663776 19.0678808,9.45539677 L18.8048273,9.37556518 C18.5876819,9.31109002 18.4103623,9.1574231 18.3147453,8.95591119 L18.2739392,8.85135957 C18.1720681,8.52403734 18.047901,8.20421762 17.9023622,7.89413279 L17.7497335,7.5873755 C17.6265145,7.35341298 17.6281856,7.07338917 17.7541886,6.84091463 C18.1581091,6.09593876 18.4254094,5.50441307 18.578612,5.13885515 L17.0369328,3.59618585 C16.7115524,3.73258601 16.2078251,3.95894183 15.5766824,4.29141925 L15.3341309,4.42110426 C15.1348665,4.52910674 14.9006684,4.54576361 14.6904866,4.47072286 L14.5876706,4.42555972 C14.2843256,4.2658747 13.9705002,4.1272535 13.6484278,4.01062175 L13.3236891,3.9013541 C13.0713254,3.82293017 12.8747038,3.62380233 12.7994835,3.37046598 C12.5584182,2.55866504 12.3292329,1.95105183 12.1790003,1.58450391 Z M11.0880211,6.33601474 C13.7083066,6.33601474 15.8400266,8.46773472 15.8400266,11.0880203 C15.8400266,13.7083058 13.7083066,15.8400258 11.0880211,15.8400258 C8.46773551,15.8400258 6.33601553,13.7083058 6.33601553,11.0880203 C6.33601553,8.46773472 8.46773551,6.33601474 11.0880211,6.33601474 Z M11.0880209,7.92001658 C9.33838199,7.92001658 7.92001724,9.33838133 7.92001724,11.0880203 C7.92001724,12.8376592 9.33838199,14.256024 11.0880209,14.256024 C12.7773275,14.256024 14.1578125,12.9337909 14.2510097,11.2677911 L14.2560247,11.0880986 C14.2540912,9.39960931 12.9329408,8.02023232 11.2677776,7.92523565 L11.0880209,7.92001658 Z" id="形状结合"></path>
                        </g>
                    </g>
                </g>
            </g>
        </g>
    </g>
</svg>