<?xml version="1.0" encoding="UTF-8"?>
<svg width="46px" height="34px" viewBox="0 0 46 34" version="1.1" xmlns="http://www.w3.org/2000/svg" xmlns:xlink="http://www.w3.org/1999/xlink">
    <!-- Generator: Sketch 59.1 (86144) - https://sketch.com -->
    <title>2</title>
    <desc>Created with Sketch.</desc>
    <g id="页面-1" stroke="none" stroke-width="1" fill="none" fill-rule="evenodd">
        <g id="画板" transform="translate(-468.000000, -751.000000)" fill="#FFFFFF" fill-rule="nonzero" stroke="#FFFFFF">
            <g id="2" transform="translate(468.000000, 751.000000)">
                <g id="视频-关闭">
                    <g id="编组-9" transform="translate(0.989364, 0.288677)">
                        <path d="M43.3751947,7.50081065 C42.321851,6.04673831 40.3010339,5.72043074 38.8469616,6.69362876 L35.6125093,8.96060768 L35.6125093,8.80031624 C35.6125093,4.35222881 31.9716038,0.711323267 27.5235163,0.711323267 L8.09962876,0.711323267 C3.65154132,0.711323267 0.010635782,4.35222881 0.010635782,8.80031624 L0.010635782,24.9783022 C0.010635782,29.4263896 3.65154132,33.0672952 8.09962876,33.0672952 L27.512067,33.0672952 C31.7998629,33.0672952 35.2804771,29.7526972 35.6010599,25.6251926 L38.9156579,27.8921716 C39.4824026,28.2986249 40.1292931,28.4589163 40.7761835,28.4589163 C42.5565634,28.4589163 44.0106358,27.004844 44.0106358,25.224464 L44.0106358,9.36706097 C43.9419395,8.71444583 43.7759233,8.06755538 43.3751947,7.50081065 Z M32.3723324,24.9725775 C32.3723324,27.640285 30.1854992,29.8271182 27.5177916,29.8271182 L8.09962876,29.8271182 C5.43192124,29.8271182 3.24508803,27.640285 3.24508803,24.9725775 L3.24508803,8.79459155 C3.24508803,6.12688403 5.43192124,3.94005082 8.09962876,3.94005082 L27.512067,3.94005082 C30.1797745,3.94005082 32.3666077,6.12688403 32.3666077,8.79459155 L32.3666077,24.9725775 L32.3723324,24.9725775 Z M40.7017625,25.2187393 L35.6067846,21.6579795 L35.6067846,12.9220961 L40.7017625,9.36133628 L40.7017625,25.2187393 Z M8.09962876,11.2218619 C8.09962876,12.5614404 9.18732066,13.6491323 10.5268991,13.6491323 C11.8664776,13.6491323 12.9541695,12.5614404 12.9541695,11.2218619 C12.9541695,9.88228346 11.8664776,8.79459155 10.5268991,8.79459155 C9.18732066,8.79459155 8.09962876,9.88228346 8.09962876,11.2218619 L8.09962876,11.2218619 Z" id="形状"></path>
                    </g>
                </g>
            </g>
        </g>
    </g>
</svg>