<?xml version="1.0" encoding="UTF-8"?>
<svg width="80px" height="80px" viewBox="0 0 80 80" version="1.1" xmlns="http://www.w3.org/2000/svg" xmlns:xlink="http://www.w3.org/1999/xlink">
    <title>文件夹_slice</title>
    <g id="页面-1" stroke="none" stroke-width="1" fill="none" fill-rule="evenodd">
        <g id="画板" transform="translate(-490.000000, -569.000000)">
            <g id="文件夹" transform="translate(490.000000, 569.000000)">
                <rect id="矩形备份-16" x="0" y="0" width="80" height="80"></rect>
                <g id="编组" transform="translate(8.000000, 12.000000)" fill="#6D7172" fill-rule="nonzero">
                    <g id="形状结合">
                        <path d="M24.1528321,0 C24.8249358,-0.0071500391 25.5828399,0.228801251 26.1119428,1.1511563 L26.1119428,1.1511563 L32.0107251,9.08054966 L48.0411127,9.08054966 C53.0961904,9.08054966 57.1931628,13.1775221 57.1931628,18.2325997 L57.1931628,18.2325997 L57.1931628,18.5472014 C61.1042342,19.5768071 63.99285,23.1518266 64,27.4060999 C64,28.2426545 63.8855994,29.0506089 63.6782482,29.8228131 L63.6782482,29.8228131 L58.8305217,50.2361747 L58.8162217,50.2504748 C57.779466,54.1543962 54.2330466,57.0287119 50.0073735,57.043012 L50.0073735,57.043012 L49.9716233,57.0716121 L43.4078874,57.0716121 L43.4078874,57.057312 C42.1065803,57.057312 41.0483745,56.0062563 41.0483745,54.7049492 C41.0483745,53.4036421 42.1065803,52.3525863 43.4078874,52.3525863 C43.4793878,52.3525863 43.5580382,52.3525863 43.6295386,52.3597363 L43.6295386,52.3597363 L49.4067702,52.3597363 C49.4925707,52.3668864 49.5855212,52.3668864 49.6784717,52.3668864 C50.8725282,52.3668864 51.9664842,51.9021338 52.7815886,51.1442297 C53.0461401,50.8725282 53.2749413,50.5579265 53.4608424,50.2218747 L53.4608424,50.2218747 L53.5537929,50.2218747 C53.7039437,49.9716233 53.8397944,49.7142219 53.947045,49.4353703 L53.947045,49.4353703 L53.9827952,49.4067702 L54.0900458,48.9920679 L54.0900458,48.9920679 L54.118646,48.8705173 L59.3024243,28.8647079 C59.4382751,28.4214054 59.5169255,27.9495028 59.5169255,27.4704502 C59.5169255,24.9464864 57.4648643,22.8944252 54.9409005,22.8944252 C54.8479499,22.8944252 54.7621495,22.8944252 54.669199,22.9015752 L54.669199,22.9015752 L16.6166909,22.9015752 L16.6023908,22.9087253 C14.443079,22.9158753 12.6412691,24.4102335 12.1622165,26.4193945 L12.1622165,26.4193945 L12.1479164,26.4265445 L6.92123785,46.6182549 C6.82828734,46.9829069 6.77823707,47.369009 6.77823707,47.7622612 C6.77823707,50.286225 8.83029829,52.3382862 11.3542621,52.3382862 L11.3542621,52.3382862 L24.2958329,52.3382862 C24.3673333,52.3382862 24.4459837,52.3311362 24.5174841,52.3311362 C25.8187912,52.3311362 26.876997,53.3821919 26.876997,54.6834991 C26.876997,55.9848062 25.8187912,57.0358619 24.5174841,57.0358619 L24.5174841,57.0358619 L24.5174841,57.0644621 L9.15205005,57.0644621 C4.09697241,57.0644621 0,52.9674897 0,47.912412 L0,47.912412 L0,9.15205005 C0,4.09697241 4.09697241,0 9.15205005,0 L9.15205005,0 L24.1528321,0 Z M32.7757792,52.653443 C33.5058151,52.2332338 34.4052563,52.2332338 35.1352922,52.653443 C35.865328,53.0736522 36.3150486,53.8502308 36.3150486,54.6906491 C36.3150486,55.5310674 35.865328,56.307646 35.1352922,56.7278552 C34.4052563,57.1480643 33.5058151,57.1480643 32.7757792,56.7278552 C32.0457434,56.307646 31.5960228,55.5310674 31.5960228,54.6906491 C31.5960228,53.8502308 32.0457434,53.0736522 32.7757792,52.653443 Z M22.8014747,4.55457491 L9.18065021,4.55457491 C6.6566864,4.55457491 4.60462518,6.60663613 4.60462518,9.13059993 L4.60462518,9.13059993 L4.60462518,37.0300525 L7.32164004,25.5685398 L7.35739024,25.5399397 C8.20109485,21.3571668 11.8976651,18.1968495 16.3306893,18.1968495 L16.3306893,18.1968495 L52.5956876,18.1968495 C52.5813876,15.6800358 50.5364764,13.6422746 48.0196626,13.6422746 L48.0196626,13.6422746 L30.9668193,13.6422746 C30.0873645,13.7423752 29.1864596,13.3276729 28.714557,12.5125684 L28.714557,12.5125684 L22.8014747,4.55457491 Z"></path>
                    </g>
                </g>
            </g>
        </g>
    </g>
</svg>