<?xml version="1.0" encoding="UTF-8"?>
<svg width="80px" height="80px" viewBox="0 0 80 80" version="1.1" xmlns="http://www.w3.org/2000/svg" xmlns:xlink="http://www.w3.org/1999/xlink">
    <title>设置_slice</title>
    <g id="页面-1" stroke="none" stroke-width="1" fill="none" fill-rule="evenodd">
        <g id="画板" transform="translate(-595.000000, -770.000000)" fill="#707273" fill-rule="nonzero">
            <g id="编组" transform="translate(596.600000, 773.600000)">
                <path d="M24.9679958,0.380797004 C26.8912994,-0.442515303 29.4674181,0.116147345 30.8830188,1.60430417 C31.9144324,2.68279404 35.4601121,5.7612165 38.1947932,5.7612165 C40.894333,5.7612165 44.4321509,2.7433205 45.4583549,1.68491152 C46.8764184,0.207552861 49.4794377,-0.320325517 51.3812398,0.504407546 L51.3812398,0.504407546 L51.5209528,0.572795879 L61.027311,5.86588293 C62.9182202,7.18875208 63.6354454,9.76619685 62.7007415,11.8694698 C62.6710939,11.9420258 61.9029091,13.7673883 61.9029091,15.3682627 C61.9029091,20.4358198 66.0235435,24.5563593 71.0896797,24.5563593 L71.0896797,24.5563593 L71.4147611,24.5563593 C73.2895678,24.5563593 74.7534761,26.0996436 75.2050097,28.4862262 C75.2372147,28.6541659 76,32.6928668 76,35.9312727 C76,39.1653212 75.2372142,43.2026013 75.2050092,43.369215 C74.7535704,45.7573131 73.2870099,47.3019235 71.4686568,47.3019235 L71.4686568,47.3019235 L71.089774,47.3019235 C66.0236378,47.3019235 61.9030035,51.4225577 61.9030035,56.4885992 C61.9030035,58.1108805 62.6739353,59.9214665 62.706235,59.9994217 C63.6381919,62.0959694 62.91822,64.6693412 61.0273107,65.9907896 L61.0273107,65.9907896 L60.8849456,66.0823845 L51.2146259,71.4116549 C50.6021619,71.674789 49.9333391,71.8146915 49.2269121,71.8146915 C47.7146015,71.8146915 46.2371481,71.1805364 45.2756384,70.1275265 C44.233332,68.9779015 40.6149068,65.7060593 37.8052069,65.7060593 C35.2131751,65.7060593 31.6834085,68.628761 30.3807148,70.0364051 C28.9704184,71.5781738 26.3621895,72.1316268 24.4334867,71.28274 L24.4334867,71.28274 L24.2911215,71.2182352 L14.9647327,65.9854852 C13.0791279,64.6692465 12.364555,62.0958747 13.2966066,59.9885287 C13.3261595,59.9187196 14.0970912,58.100177 14.0970912,56.4885044 C14.0970912,51.422463 9.976457,47.3018287 4.91041545,47.3018287 L4.91041545,47.3018287 L4.58533402,47.3018287 C2.71043263,47.3018287 1.24642966,45.7572184 0.795180256,43.3691202 C0.761554383,43.2025066 0,39.1652265 0,35.9311779 C0,32.6929616 0.761554383,28.6542607 0.795180256,28.4863209 C1.24642957,26.0996436 2.71043263,24.556454 4.52632301,24.556454 L4.52632301,24.556454 L4.91041545,24.556454 C9.9764569,24.556454 14.0970912,20.4359145 14.0970912,15.3683574 C14.0970912,13.7459814 13.3260648,11.9354901 13.2939545,11.858861 C12.3644604,9.76363932 13.0843377,7.18628925 14.9754363,5.86872444 L14.9754363,5.86872444 L15.1232006,5.77466679 Z M27.0096058,5.53019271 L18.5561629,10.1759585 C18.9215006,11.1296065 19.6091728,13.2127039 19.6091728,15.3683574 C19.6091728,23.0481217 13.7183982,29.3996177 6.12189336,30.0214591 C5.92847373,31.1442782 5.51208157,33.8344405 5.51208157,35.9310831 C5.51208157,38.0236526 5.92847373,40.7124889 6.12189336,41.835308 C13.7183982,42.4584754 19.6091728,48.8086453 19.6091728,56.4884097 C19.6091728,58.6399902 18.9402553,60.6895565 18.553416,61.6929328 L18.553416,61.6929328 L26.4883578,66.1357122 C26.9020979,65.7005653 28.0839279,64.5240396 29.7063986,63.3421147 C32.5564495,61.246893 35.2801431,60.1898101 37.8051125,60.1898101 C40.3516783,60.1898101 43.0970629,61.2737937 45.9605642,63.3958214 C47.5909915,64.610046 48.7890189,65.8189662 49.1947075,66.2433149 L49.1947075,66.2433149 L57.4440274,61.6876284 C57.0786896,60.7325597 56.3909227,58.6561875 56.3909227,56.4884097 C56.3909227,48.8086453 62.2816972,42.4584754 69.880949,41.835308 C70.0717165,40.712489 70.4881086,38.0235579 70.4881086,35.9310831 C70.4881086,33.8478909 70.0717165,31.1468356 69.8808542,30.0214592 C62.2816025,29.3996178 56.3908279,23.0481218 56.3908279,15.3683575 C56.3908279,13.1925285 57.0785949,11.1161562 57.4465848,10.1679073 L57.4465848,10.1679073 L49.310172,5.64849891 C48.9610315,5.97755862 47.7576052,7.14196008 46.0948781,8.31043452 C43.3039329,10.2767413 40.6473017,11.2732978 38.1948882,11.2732978 C35.718321,11.2732978 33.0427456,10.2578919 30.232951,8.25265488 C28.5836742,7.07878131 27.3775957,5.89827734 27.0096058,5.53019271 L27.0096058,5.53019271 Z M37.8348549,22.3590287 C45.2889945,22.3590287 51.3544341,28.4244682 51.3544341,35.8786079 C51.3544341,43.3339789 45.2889946,49.396861 37.8348549,49.396861 C30.38081,49.396861 24.3153705,43.3339789 24.3153705,35.8786079 C24.3153705,28.4244682 30.3807153,22.3590287 37.8348549,22.3590287 Z M37.8348548,27.8737622 C33.4187867,27.8737622 29.8300091,31.466518 29.8300091,35.8786079 C29.8300091,40.2932552 33.4187867,43.8845903 37.8348548,43.8845903 C42.2510177,43.8845903 45.8424475,40.2932552 45.8424475,35.8786079 C45.8424475,31.466518 42.2510178,27.8737622 37.8348548,27.8737622 Z" id="形状结合"></path>
            </g>
        </g>
    </g>
</svg>