<?xml version="1.0" encoding="UTF-8"?>
<svg width="80px" height="80px" viewBox="0 0 80 80" version="1.1" xmlns="http://www.w3.org/2000/svg" xmlns:xlink="http://www.w3.org/1999/xlink">
    <title>表情_slice</title>
    <g id="页面-1" stroke="none" stroke-width="1" fill="none" fill-rule="evenodd">
        <g id="画板" transform="translate(-173.000000, -633.000000)">
            <g id="表情" transform="translate(173.000000, 633.000000)">
                <rect id="矩形" x="0" y="0" width="80" height="80"></rect>
                <g id="编组" transform="translate(8.000000, 8.000000)" fill="#6E7072" fill-rule="nonzero">
                    <path d="M32,0 C49.673112,0 64,14.326888 64,32 C64,49.673112 49.673112,64 32,64 C14.326888,64 0,49.673112 0,32 C0,14.326888 14.326888,0 32,0 Z M32,4.57142857 C22.2007152,4.57142857 13.1458025,9.79928457 8.24616001,18.2857142 C3.34651755,26.7721438 3.34651755,37.2278562 8.24616001,45.7142858 C13.1458025,54.2007154 22.2007152,59.4285714 32,59.4285714 C47.1483816,59.4285714 59.428571,47.1483816 59.428571,32 C59.428571,16.8516184 47.1483816,4.57142857 32,4.57142857 L32,4.57142857 Z M15.616,39.0857143 L20.5257143,39.0857143 C23.0628571,43.4011429 26.3908571,45.952 32,45.952 C37.28,45.952 40.4205714,44.0182857 43.072,39.8857143 L43.5611429,39.0857143 L48.384,39.0857143 C45.8111814,45.6802186 39.5354033,50.089408 32.4591903,50.2740483 C25.3829772,50.4586885 18.8857968,46.3827851 15.9725714,39.9314286 L15.616,39.0857143 L20.5257143,39.0857143 L15.616,39.0857143 Z M43.2731429,21.1382857 C45.1666906,21.1382857 46.7017143,22.6733094 46.7017143,24.5668571 C46.7017143,26.4604049 45.1666906,27.9954286 43.2731429,27.9954286 C41.3795951,27.9954286 39.8445714,26.4604049 39.8445714,24.5668571 C39.8445714,22.6733094 41.3795951,21.1382857 43.2731429,21.1382857 Z M20.7588571,21.1382857 C22.6524049,21.1382857 24.1874286,22.6733094 24.1874286,24.5668571 C24.1874286,26.4604049 22.6524049,27.9954286 20.7588571,27.9954286 C18.8653094,27.9954286 17.3302857,26.4604049 17.3302857,24.5668571 C17.3302857,22.6733094 18.8653094,21.1382857 20.7588571,21.1382857 Z" id="形状"></path>
                </g>
            </g>
        </g>
    </g>
</svg>