<?xml version="1.0" encoding="UTF-8"?>
<svg width="94px" height="76px" viewBox="0 0 94 76" version="1.1" xmlns="http://www.w3.org/2000/svg" xmlns:xlink="http://www.w3.org/1999/xlink">
    <title>名片_slice</title>
    <g id="页面-1" stroke="none" stroke-width="1" fill="none" fill-rule="evenodd">
        <g id="画板" transform="translate(-1030.000000, -580.000000)" fill="#747677" fill-rule="nonzero">
            <g id="名片" transform="translate(1030.000000, 580.000000)">
                <path d="M84.9368624,0 C89.8505652,0 93.8737248,3.60408051 93.8632683,8.00441136 L93.8632683,8.00441136 L93.8632683,67.9955886 C93.8632683,72.3959195 89.8400882,76 84.9263854,76 L84.9263854,76 L8.93686242,76 C4.02315964,76 0,72.3959195 0,67.9955886 L0,67.9955886 L0,8.00441136 C0,3.60408051 4.02315964,0 8.93686242,0 L8.93686242,0 Z M82.9357596,6.71574304 L10.9379653,6.71574304 C8.6120761,6.71574304 6.70526606,8.47587538 6.70526606,10.6236559 L6.70526606,10.6236559 L6.70526606,65.3763441 C6.70526606,67.5241246 8.6120761,69.284257 10.9379653,69.284257 L10.9379653,69.284257 L82.9357596,69.284257 C85.2616487,69.284257 87.1684588,67.5241246 87.1684588,65.3763441 L87.1684588,65.3763441 L87.1684588,10.6236559 C87.1684588,8.47587538 85.2616487,6.71574304 82.9357596,6.71574304 L82.9357596,6.71574304 Z M72.63689,51.4105321 C74.4808382,51.4105321 76,52.919217 76,54.7631652 C76,56.6071133 74.4913151,58.1157982 72.647367,58.1157982 L72.647367,58.1157982 L21.2368348,58.1157982 C19.3928867,58.1157982 17.8842018,56.6071133 17.8842018,54.7631652 C17.8842018,52.919217 19.3928867,51.4105321 21.2368348,51.4105321 L21.2368348,51.4105321 Z M41.352633,35.7684036 C43.1965812,35.7684036 44.7052661,37.2770885 44.7052661,39.1210367 C44.7052661,40.9649848 43.1965812,42.4736697 41.352633,42.4736697 L41.352633,42.4736697 L21.2368348,42.4736697 C19.3928867,42.4736697 17.8842018,40.9649848 17.8842018,39.1210367 C17.8842018,37.2770885 19.3928867,35.7684036 21.2368348,35.7684036 L21.2368348,35.7684036 Z M63.7000276,15.6526055 C70.4891095,15.6526055 75.989523,21.153019 75.989523,27.9421009 C75.989523,34.7311828 70.4891095,40.2315964 63.7000276,40.2315964 C56.9109457,40.2315964 51.4105321,34.7311828 51.4105321,27.9421009 C51.4105321,21.153019 56.9109457,15.6526055 63.7000276,15.6526055 Z M63.7000276,22.3578715 C60.619796,22.3578715 58.1157982,24.8513923 58.1157982,27.9421009 C58.1157982,31.0223325 60.609319,33.5263303 63.7000276,33.5263303 C66.7907361,33.5263303 69.284257,31.0328095 69.284257,27.9421009 C69.284257,24.8618693 66.7802592,22.3578715 63.7000276,22.3578715 Z M36.8789633,17.8842018 C38.7229115,17.8842018 40.2315964,19.3928867 40.2315964,21.2368348 C40.2315964,23.080783 38.7229115,24.5894679 36.8789633,24.5894679 L36.8789633,24.5894679 L21.2368348,24.5894679 C19.3928867,24.5894679 17.8842018,23.080783 17.8842018,21.2368348 C17.8842018,19.3928867 19.3928867,17.8842018 21.2368348,17.8842018 L21.2368348,17.8842018 Z" id="形状结合"></path>
            </g>
        </g>
    </g>
</svg>