<?xml version="1.0" encoding="UTF-8"?>
<svg width="12px" height="12px" viewBox="0 0 12 12" version="1.1" xmlns="http://www.w3.org/2000/svg" xmlns:xlink="http://www.w3.org/1999/xlink">
    <title>聊天人删除icon_slice</title>
    <g id="页面-1" stroke="none" stroke-width="1" fill="none" fill-rule="evenodd">
        <g id="画板" transform="translate(-64.000000, -10.000000)" fill="#C3C3C4">
            <path d="M70,10 C73.3137085,10 76,12.6862915 76,16 C76,19.3137085 73.3137085,22 70,22 C66.6862915,22 64,19.3137085 64,16 C64,12.6862915 66.6862915,10 70,10 Z M68.0967878,13.0985567 C67.9019197,12.9635606 67.6324953,12.9828458 67.4589289,13.1564121 L67.4589289,13.1564121 L67.1564121,13.4589289 L67.0985567,13.5281768 C66.9635606,13.7230449 66.9828458,13.9924693 67.1564121,14.1660357 L67.1564121,14.1660357 L68.99,16 L67.1564121,17.8339643 C66.96115,18.0292265 66.96115,18.345809 67.1564121,18.5410711 L67.1564121,18.5410711 L67.4589289,18.8435879 C67.654191,19.03885 67.9707735,19.03885 68.1660357,18.8435879 L68.1660357,18.8435879 L70,17.01 L71.8339643,18.8435879 L71.9032122,18.9014433 C72.0980803,19.0364394 72.3675047,19.0171542 72.5410711,18.8435879 L72.5410711,18.8435879 L72.8435879,18.5410711 L72.9014433,18.4718232 C73.0364394,18.2769551 73.0171542,18.0075307 72.8435879,17.8339643 L72.8435879,17.8339643 L71.01,16 L72.8435879,14.1660357 C73.03885,13.9707735 73.03885,13.654191 72.8435879,13.4589289 L72.8435879,13.4589289 L72.5410711,13.1564121 C72.345809,12.96115 72.0292265,12.96115 71.8339643,13.1564121 L71.8339643,13.1564121 L70,14.99 L68.1660357,13.1564121 Z" id="聊天人删除icon"></path>
        </g>
    </g>
</svg>