<?xml version="1.0" encoding="UTF-8"?>
<svg width="80px" height="80px" viewBox="0 0 80 80" version="1.1" xmlns="http://www.w3.org/2000/svg" xmlns:xlink="http://www.w3.org/1999/xlink">
    <title>发起群聊_默认_slice</title>
    <g id="页面-1" stroke="none" stroke-width="1" fill="none" fill-rule="evenodd">
        <g id="画板" transform="translate(-731.000000, -556.000000)">
            <g id="编组-2" transform="translate(731.000000, 556.000000)">
                <rect id="矩形" x="0" y="0" width="80" height="80"></rect>
                <g id="编组" transform="translate(4.000000, 4.000000)" fill="#6B6F70" fill-rule="nonzero">
                    <path d="M35.768037,0 C54.411639,0 70.1052271,15.5436787 70.1052271,34.560047 C70.1052271,53.8919007 54.411639,69.4354815 35.768037,69.1199961 C29.4556848,69.4355794 24.1650864,68.1363318 18.599344,66.2399922 L18.599344,66.2399922 L5.72279977,72 L5.68422084,54.9473375 L3.78954584,51.1578896 C1.89467501,47.3684417 0,40.3596129 0,34.5599491 C0,15.5436787 15.6935881,0 35.768037,0 Z M35.6520065,5.6841229 C18.8328737,5.6841229 5.68422084,18.7071495 5.68422084,34.6397506 C5.68422084,39.499029 7.27173323,45.3711506 8.8592457,48.5461756 C8.92379196,48.675362 9.10957987,49.0469917 9.33240524,49.4926723 L9.59426849,50.016423 C9.68380433,50.1954999 9.77410811,50.3761102 9.86073936,50.5493738 L10.0277895,50.8834741 C10.1075505,51.0429953 10.1806787,51.1892497 10.2427337,51.3133573 L10.3507635,51.5294123 C10.3658691,51.5596229 10.3794155,51.586715 10.3912382,51.6103596 L10.4401733,51.708227 L10.4401733,51.708227 L10.4466603,51.7212004 L10.4466603,64.4210063 L21.2674576,61.1825318 C25.9306102,62.7713171 30.3632685,63.8598495 35.6520065,63.5954763 C51.2724514,63.8599474 64.4210063,50.8368229 64.4210063,34.6397506 C64.4210063,18.7072474 51.2724514,5.6841229 35.6520065,5.6841229 Z M36.0019583,18.9474354 C37.0473098,18.9474354 37.894773,19.8089985 37.894773,20.8420125 L37.894773,20.8420125 L37.894773,32.2105521 L49.2632146,32.2105521 C50.3096431,32.210552 51.1578896,33.0492028 51.1578896,34.1031708 L51.1578896,34.1031708 L51.1578896,36.0019583 C51.1578896,37.0473097 50.2963265,37.894675 49.2632146,37.894675 L49.2632146,37.894675 L37.894773,37.894675 L37.894773,49.2632146 C37.894773,50.3096431 37.0560243,51.1578896 36.0019583,51.1578896 L36.0019583,51.1578896 L34.1032688,51.1578896 C33.0579173,51.1578896 32.2104542,50.2963265 32.2104542,49.2632146 L32.2104542,49.2632146 L32.2104542,37.8947729 L20.8420125,37.8947729 C19.795584,37.894773 18.9473375,37.0561222 18.9473375,36.0019583 L18.9473375,36.0019583 L18.9473375,34.1032688 C18.9473375,33.0579174 19.8089005,32.2105521 20.8420125,32.2105521 L20.8420125,32.2105521 L32.2104542,32.2105521 L32.2104542,20.8420125 C32.2104542,19.7956819 33.0493007,18.9474354 34.1032688,18.9474354 L34.1032688,18.9474354 Z" id="形状结合"></path>
                </g>
            </g>
        </g>
    </g>
</svg>