<?xml version="1.0" encoding="UTF-8"?>
<svg width="16px" height="16px" viewBox="0 0 16 16" version="1.1" xmlns="http://www.w3.org/2000/svg" xmlns:xlink="http://www.w3.org/1999/xlink">
    <title>形状_slice</title>
    <g id="页面-1" stroke="none" stroke-width="1" fill="none" fill-rule="evenodd">
        <g id="画板" transform="translate(0.000000, 2.000000)" fill="#000000" fill-rule="nonzero">
            <path d="M5.865,6 C7.52185426,6 8.865,4.65685426 8.865,3 C8.865,1.34314575 7.52185426,0 5.865,0 C4.20814576,0 2.865,1.34314575 2.865,3 C2.865,4.65685426 4.20814576,6 5.865,6 Z M5.86500001,0.750000005 C7.1076407,0.750000005 8.11500001,1.75735932 8.11500001,3 C8.11500001,4.24264069 7.1076407,5.25000001 5.86500001,5.25000001 C4.62235932,5.25000001 3.61500001,4.24264069 3.61500001,3 C3.61500001,1.75735932 4.62235932,0.750000005 5.86500001,0.750000005 Z M14.355,4.87500001 L12.48,4.87500001 L12.48,3 C12.48,2.79289322 12.3121068,2.625 12.105,2.625 C11.8978932,2.625 11.73,2.79289322 11.73,3 L11.73,4.87500001 L9.855,4.87500001 C9.64789321,4.87500001 9.47999999,5.04289323 9.47999999,5.25000001 C9.47999999,5.45710679 9.64789321,5.625 9.855,5.625 L11.73,5.625 L11.73,7.5 C11.73,7.70710678 11.8978932,7.875 12.105,7.875 C12.3121068,7.875 12.48,7.70710678 12.48,7.5 L12.48,5.625 L14.355,5.625 C14.5621068,5.625 14.73,5.45710679 14.73,5.25000001 C14.73,5.04289323 14.5621068,4.87500001 14.355,4.87500001 L14.355,4.87500001 Z M8.77125,6.31875 C8.35358795,6.15062093 7.88386849,6.16973742 7.48125,6.37125001 C6.45980147,6.86275975 5.27019853,6.86275975 4.24875,6.37125001 C3.84613151,6.16973742 3.37641205,6.15062093 2.95875,6.31875 C1.1645432,7.08575046 0.000536278367,8.84872673 -3.19744231e-16,10.8 L-3.19744231e-16,10.875 C-3.19744231e-16,11.4963203 0.503679656,12 1.125,12 L10.605,12 C11.2263203,12 11.73,11.4963203 11.73,10.875 L11.73,10.8 C11.7294637,8.84872673 10.5654568,7.08575046 8.77125,6.31875 Z M10.98,10.875 C10.98,10.9744562 10.9404912,11.0698389 10.870165,11.1401651 C10.7998389,11.2104912 10.7044562,11.25 10.605,11.25 L1.125,11.25 C1.02554381,11.25 0.930161096,11.2104912 0.859834955,11.1401651 C0.789508813,11.0698389 0.749997941,10.9744562 0.749997941,10.875 L0.749997941,10.8 C0.748357178,9.1523774 1.72732711,7.66180721 3.24,7.00875001 C3.32896779,6.97112905 3.42465628,6.95199135 3.52125,6.95249013 C3.65149984,6.95668911 3.77935234,6.98865223 3.89625001,7.04625001 C5.12454927,7.63405082 6.55295074,7.63405082 7.78125,7.04625001 C7.98783904,6.93774232 8.2313074,6.92406432 8.44875,7.00875001 C9.97758311,7.64915572 10.9746,9.1424654 10.98,10.8 L10.98,10.875 Z" id="形状"></path>
        </g>
    </g>
</svg>