<?xml version="1.0" encoding="UTF-8"?>
<svg width="36px" height="36px" viewBox="0 0 36 36" version="1.1" xmlns="http://www.w3.org/2000/svg" xmlns:xlink="http://www.w3.org/1999/xlink">
    <title>我的群组_slice</title>
    <g id="页面-1" stroke="none" stroke-width="1" fill="none" fill-rule="evenodd">
        <g id="画板" transform="translate(-8.000000, -9.000000)">
            <g id="我的群组" transform="translate(8.000000, 9.000000)">
                <rect id="矩形" fill="#1890FF" x="0" y="0" width="36" height="36" rx="6"></rect>
                <path d="M16.2432577,9 C18.7943928,9 20.8648793,11.3339343 20.8648793,14.2603462 C20.8648793,15.6680927 20.4581766,16.9279473 19.6817442,17.8541206 C19.3859604,18.2247748 18.9053117,18.706348 18.9053117,19.2618671 C18.9053117,19.7804132 19.1641226,20.2998837 19.5708253,20.5586946 C19.7926631,20.6335649 20.5690955,20.8554029 20.5690955,20.8554029 C22.4916757,21.4848463 24.0445405,22.4849656 25.0058378,23.7817931 C25.2646486,24.1894203 25.4864865,24.6709935 25.4864865,25.1895396 C25.4864865,26.4863672 24.4512432,27.4864865 23.0832432,27.4864865 L23.0832432,27.4864865 L9.3292973,27.4864865 C8.03524324,27.4864865 7,26.4493942 7,25.1895396 C7,24.7819125 7.11091892,24.3742853 7.36972973,24.0045554 L7.36972973,24.0045554 L7.33275676,24.0045554 C8.2940685,22.6707549 9.85247931,21.7408842 11.8490198,21.0744461 C12.008928,21.0208353 12.248328,20.9422677 12.3786577,20.9006731 C12.4784847,20.8701704 12.6568793,20.7805109 12.9156901,20.6326189 C13.3223928,20.336835 13.5812036,19.8543376 13.5812036,19.3357914 C13.5812036,18.7802723 13.5072577,18.8542182 12.8047712,17.9280449 C12.1022847,17.0018716 11.6216361,15.7429414 11.6216361,14.3351949 C11.6216361,11.4078658 13.6921226,9 16.2432577,9 Z M20.8691255,10.1438424 C21.1732386,9.89539658 21.6386172,9.92087571 21.9085785,10.2007512 L21.9085785,10.2007512 L21.9969173,10.2910827 L22.0067327,10.3028258 C22.1470932,10.4500661 22.2894168,10.6235025 22.8263202,11.3027951 C23.6488524,12.4057353 24.0709155,13.7254781 24.0709155,15.1933645 C24.0709083,16.6215124 23.6036943,18.0017772 22.7046018,19.2483515 C24.668675,19.872542 26.361835,20.9637462 27.4827559,22.3268481 C28.0716811,23.0395634 28.4054054,23.8769361 28.4054054,24.7350851 C28.4054054,25.2237783 28.3052881,25.6393031 28.0873858,26.1036068 L28.0873858,26.1036068 L28.037047,26.1926741 C27.8484054,26.4736669 27.4596221,26.5926305 27.1200762,26.4581579 C26.7465758,26.3102366 26.5740911,25.9116743 26.7348209,25.5679412 L26.7348209,25.5679412 L26.8097165,25.3943457 C26.8966576,25.1706995 26.9330924,24.9728374 26.9330924,24.735085 C26.9330924,24.1858696 26.7122455,23.633041 26.3098133,23.1452511 C25.3194374,21.9420359 23.766638,20.9709726 21.9812131,20.4533733 C21.804011,20.4099764 21.6282387,20.3617789 21.454125,20.3088429 L21.454125,20.3088429 L21.3801453,20.284654 C21.333613,20.2685951 21.2921701,20.2525362 21.2529084,20.2356743 C21.1930343,20.2085748 21.1930343,20.2085748 21.0988063,20.1489561 C20.951575,20.0613345 20.951575,20.0613345 20.7964914,19.5970308 C20.7964478,19.5265063 20.8083699,19.4564076 20.8318269,19.3892684 L20.8318269,19.3892684 L20.8748602,19.2875744 C20.9587457,19.1173455 21.1042048,18.9403209 21.3225979,18.7099757 C22.153964,17.6567108 22.5986025,16.446269 22.5986025,15.1924682 C22.5986025,13.9928663 22.2619336,12.941408 21.6239313,12.0850657 C21.1292341,11.4590686 20.9977075,11.2991819 20.8995533,11.1953007 L20.8995533,11.1953007 L20.891701,11.1880742 L20.8072883,11.1004526 C20.5373271,10.8205768 20.5650127,10.3922881 20.8691255,10.1438424 Z" id="形状结合" fill="#FFFFFF" fill-rule="nonzero"></path>
            </g>
        </g>
    </g>
</svg>