<?xml version="1.0" encoding="UTF-8"?>
<svg width="80px" height="80px" viewBox="0 0 80 80" version="1.1" xmlns="http://www.w3.org/2000/svg" xmlns:xlink="http://www.w3.org/1999/xlink">
    <title>网络断开_slice</title>
    <g id="页面-1" stroke="none" stroke-width="1" fill="none" fill-rule="evenodd">
        <g id="画板" transform="translate(-211.000000, -819.000000)" fill="#FF5219" fill-rule="nonzero">
            <g id="网络断开" transform="translate(213.000000, 823.000000)">
                <path d="M15.6892019,0.439859719 C17.0825782,-0.417602615 18.9072434,0.0168414612 19.7647058,1.41021773 L19.7647058,1.41021773 L33.1944616,24.6988116 C34.7928932,24.5236764 36.3994508,24.4329837 38.0074377,24.4271114 C48.1510265,24.5594611 57.9492734,28.1311684 65.798493,34.5576497 C66.6097138,35.2093997 67.0116083,36.2444227 66.8527866,37.2728356 C66.6939649,38.3012484 65.9985559,39.1668107 65.0285134,39.5434735 C64.0584709,39.9201363 62.9611674,39.7506756 62.1499467,39.0989255 C55.2674336,33.5227137 46.6712626,30.4928034 37.813366,30.5209601 L37.813366,30.5209601 L36.2607931,30.5209601 L42.6263421,41.9711854 C47.0840233,42.7582873 51.2815074,44.6238357 54.8528539,47.4051907 C55.7568941,48.0125976 56.2462499,49.0738475 56.1211885,50.1557862 C55.9961271,51.237725 55.2775704,52.1593522 54.2588005,52.5445013 C53.2400306,52.9296505 52.0914805,52.7138889 51.2819362,51.9852808 C49.9502311,50.9774827 48.5040679,50.1306304 46.9735463,49.4623498 L46.9735463,49.4623498 L57.5310422,67.743896 C58.0510556,68.6452524 58.0506998,69.755564 57.5301089,70.656587 C57.009518,71.55761 56.0477821,72.1121243 55.0071778,72.1121243 C53.9665736,72.1121243 53.0051935,71.5563267 52.4851802,70.6549702 L52.4851802,70.6549702 L39.133053,47.3663763 C33.7009796,46.9721814 28.3135127,48.5884215 23.995467,51.9076521 C22.73071,52.9044521 20.8973559,52.6872301 19.9005559,51.4224731 C18.9037559,50.1577161 19.120978,48.324362 20.385735,47.327562 C24.8430405,43.8434221 30.262279,41.8112076 35.9114642,41.5054135 L35.9114642,41.5054135 L30.0116871,31.2584322 C23.9562009,32.4793723 18.2843228,35.1422259 13.4767854,39.0212969 C12.2227467,40.0288151 10.3893926,39.8289708 9.38187434,38.5749321 C8.37435608,37.3208935 8.57420037,35.4875393 9.82823906,34.480021 C14.8337416,30.4278024 20.6614648,27.5139408 26.9065412,25.94087 L26.9065412,25.94087 L21.8994936,17.2852759 C19.7972675,17.9211905 17.7362061,18.6859869 15.7280162,19.575321 C11.8056021,21.3311738 8.10532539,23.5461282 4.7047484,26.1737559 C3.42927316,27.1598376 1.59591901,26.9252378 0.609837311,25.6497625 C-0.376244391,24.3742873 -0.141644572,22.5409331 1.13383067,21.5548514 C4.96322369,18.6915863 9.11969542,16.2941229 13.5155998,14.413016 C15.3414335,13.6074708 17.2069129,12.8949613 19.1048623,12.2782282 L19.1048623,12.2782282 L14.7188438,4.51536358 C13.8613815,3.12198727 14.2958256,1.29732205 15.6892019,0.439859719 Z M37.813366,58.8942303 C39.7855294,58.8942303 41.3842838,60.4929846 41.3842838,62.465148 C41.3842838,64.4373114 39.7855294,66.0360658 37.813366,66.0360658 C35.8412026,66.0360658 34.2424483,64.4373114 34.2424483,62.465148 C34.2424483,60.4929846 35.8412026,58.8942303 37.813366,58.8942303 Z M38.0074377,8.9013821 C51.4067317,8.95337295 64.3973193,13.5205901 74.8810446,21.865366 L74.8810446,21.865366 L75.0363019,21.7877374 C76.1720735,22.8099573 76.3241752,24.5363547 75.3846351,25.7414169 C74.4450951,26.9464792 72.7337312,27.2200051 71.4653842,26.3678275 C61.9457627,18.8229759 50.1543698,14.7192429 38.0074377,14.7235306 C36.3996958,14.7235305 35.0963635,13.4201982 35.0963635,11.8124563 C35.0963635,10.2047145 36.3996958,8.9013821 38.0074377,8.9013821 Z" id="形状结合"></path>
            </g>
        </g>
    </g>
</svg>