<?xml version="1.0" encoding="UTF-8"?>
<svg width="80px" height="80px" viewBox="0 0 80 80" version="1.1" xmlns="http://www.w3.org/2000/svg" xmlns:xlink="http://www.w3.org/1999/xlink">
    <title>组织_slice</title>
    <g id="页面-1" stroke="none" stroke-width="1" fill="none" fill-rule="evenodd">
        <g id="画板" transform="translate(-1082.000000, -903.000000)">
            <g id="组织" transform="translate(1084.000000, 905.000000)">
                <rect id="矩形" fill="#E6F1FF" x="0" y="0" width="76" height="76" rx="4"></rect>
                <g id="组织架构" transform="translate(19.000000, 16.888889)" fill="#59A7FF" fill-rule="nonzero">
                    <path d="M10.0263026,28.4718519 C10.615385,28.4718519 11.0929293,28.9971506 11.0929293,29.6451412 L11.0929293,29.6451412 L11.0929293,39.5007847 L11.0929293,39.5007847 L11.0866705,39.6286276 C11.028761,40.2164805 10.5761128,40.6740741 10.0263026,40.6740741 L10.0263026,40.6740741 L1.06662671,40.6740741 C0.477544341,40.6740741 0,40.1487753 0,39.5007847 L0,39.5007847 L0,29.6451414 L0,29.6451414 L0.00625881157,29.5172985 C0.0641683034,28.9294456 0.516816499,28.4718519 1.06662671,28.4718519 L1.06662671,28.4718519 Z M23.0558915,0 L23.1743911,0.00693806819 C23.7192813,0.0711323643 24.143432,0.572905587 24.143432,1.18238563 L24.143432,1.18238563 L24.143432,11.1144377 L24.143432,11.1144377 L24.1370505,11.2432718 C24.0780055,11.8356821 23.6164821,12.2968234 23.0558915,12.2968233 L23.0558915,12.2968233 L19.358242,12.2968233 L19.358242,19.3911291 L31.7562304,19.3911291 C32.597117,19.3911291 33.2787879,20.1322489 33.2787879,21.0464698 L33.2787879,21.0464698 L33.2787879,28.377251 L31.5387201,28.377251 L31.5387201,21.2829453 L19.3582383,21.2829453 L19.3582383,28.377251 L23.0558953,28.3772507 C23.656528,28.3772507 24.1434358,28.906622 24.1434358,29.5596364 L24.1434358,29.5596364 L24.1434358,39.4916884 L24.1434358,39.4916884 L24.1370543,39.6205225 C24.0780093,40.2129329 23.6164859,40.6740741 23.0558953,40.6740741 L23.0558953,40.6740741 L13.9205432,40.6740741 L13.9205432,40.6740741 L13.8020435,40.667136 C13.2571534,40.6029417 12.8330026,40.1011685 12.8330027,39.4916884 L12.8330027,39.4916884 L12.8330027,29.5596365 L12.8330027,29.5596365 L12.8393842,29.4308024 C12.8984291,28.8383921 13.3599526,28.3772508 13.9205432,28.3772509 L13.9205432,28.3772509 L17.6181927,28.3772509 L17.6181927,21.2829451 L5.43771087,21.2829451 L5.43771087,28.3772509 L3.6976431,28.3772509 L3.6976431,21.0464696 C3.6976431,20.1322488 4.37931396,19.391129 5.22020055,19.3911289 L5.22020055,19.3911289 L17.618189,19.3911289 L17.618189,12.2968232 L13.9205395,12.2968232 L13.9205395,12.2968232 L13.8020398,12.2898851 C13.2571497,12.2256908 12.8329988,11.7239176 12.8329989,11.1144376 L12.8329989,11.1144376 L12.8329989,1.18238567 L12.8329989,1.18238567 L12.8393804,1.05355155 C12.8984254,0.46114122 13.3599488,0 13.9205394,0 L13.9205394,0 L23.0558915,0 L23.0558915,0 Z M35.9098043,28.4718519 C36.6208899,28.4718519 36.976431,28.8629486 36.976431,29.6451412 L36.976431,39.5007847 C36.976431,40.2829789 36.6208885,40.6740741 35.9098043,40.6740741 L26.9501284,40.6740741 C26.2390427,40.6740741 25.8835017,40.2829774 25.8835017,39.5007847 L25.8835017,29.6451412 C25.8835017,28.862947 26.2390442,28.4718519 26.9501284,28.4718519 L35.9098043,28.4718519 Z" id="形状结合"></path>
                </g>
            </g>
        </g>
    </g>
</svg>