<?xml version="1.0" encoding="UTF-8"?>
<svg width="80px" height="80px" viewBox="0 0 80 80" version="1.1" xmlns="http://www.w3.org/2000/svg" xmlns:xlink="http://www.w3.org/1999/xlink">
    <title>收藏_选中‘_slice</title>
    <g id="页面-1" stroke="none" stroke-width="1" fill="none" fill-rule="evenodd">
        <g id="画板" transform="translate(-412.000000, -780.000000)" fill="#FF6010" fill-rule="nonzero">
            <path d="M431.286205,855.719717 C430.357456,855.719717 429.439311,855.427395 428.654603,854.857421 C427.375916,853.928672 426.686644,852.434367 426.813895,850.860531 L428.46196,830.369731 L415.084794,814.760386 C414.057956,813.562114 413.735413,811.949396 414.223205,810.447138 C414.710997,808.94488 415.918989,807.829674 417.454827,807.464714 L437.453416,802.698138 L448.163632,785.152647 C448.987223,783.805034 450.421438,783 451.999693,783 C453.577947,783 455.013045,783.80415 455.834869,785.152647 L455.836636,785.152647 L466.545969,802.698138 L486.544558,807.464714 C488.080396,807.829674 489.288388,808.94488 489.777064,810.447138 C490.263972,811.949396 489.943196,813.561231 488.913707,814.76127 L475.538309,830.370615 L477.184607,850.860531 C477.310973,852.434367 476.623469,853.929555 475.344783,854.857421 C474.069631,855.78617 472.438355,855.977929 470.974979,855.368188 L451.999693,847.47073 L433.019988,855.369072 C432.45885,855.603248 431.870318,855.719717 431.286205,855.719717 Z M466.868273,803.168399 L466.959173,803.168399 L466.868273,803.168399 Z" id="收藏-选中‘"></path>
        </g>
    </g>
</svg>