<?xml version="1.0" encoding="UTF-8"?>
<svg width="24px" height="24px" viewBox="0 0 24 24" version="1.1" xmlns="http://www.w3.org/2000/svg" xmlns:xlink="http://www.w3.org/1999/xlink">
    <!-- Generator: Sketch 59.1 (86144) - https://sketch.com -->
    <title>问题 _ 疑问@2x</title>
    <desc>Created with Sketch.</desc>
    <g id="页面-1" stroke="none" stroke-width="1" fill="none" fill-rule="evenodd">
        <g id="多人连麦-连麦人视角" transform="translate(-182.000000, -150.000000)" fill="#FFFFFF" fill-rule="nonzero">
            <g id="问题-_-疑问" transform="translate(182.000000, 150.000000)">
                <path d="M11.992281,0.114329654 C5.44641398,0.114329654 0.122064038,5.44125773 0.122064038,11.9845466 C0.122064038,18.5304394 5.44641398,23.8547635 11.992281,23.8547635 C18.538148,23.8547635 23.8624979,18.5304394 23.8624979,11.9845466 C23.8624979,5.44125773 18.538148,0.114329654 11.992281,0.114329654 Z M11.992281,22.1538694 C6.38446586,22.1538694 1.82553633,17.5923875 1.82553633,11.9871247 C1.82553633,6.3793096 6.38704398,1.82038008 11.992281,1.82038008 C17.597518,1.82038008 22.1590256,6.38188773 22.1590256,11.9871247 C22.1590256,17.5923617 17.5975437,22.1538694 11.992281,22.1538694 Z M11.992281,5.15003239 C9.93831218,5.15003239 8.26577742,6.80712416 8.26577742,8.84562419 C8.26577742,9.31466302 8.64718568,9.6986494 9.1162245,9.6986494 C9.58526333,9.6986494 9.96924972,9.31724114 9.96924972,8.84562419 C9.96924972,7.72973305 10.8583429,6.85350468 11.9923068,6.85350468 C13.1081721,6.85350468 14.0153122,7.76837919 14.0153122,8.89460862 C14.0153122,9.31981927 13.4071318,9.92799967 12.8710875,10.464044 C12.0592865,11.2732669 11.1392558,12.1932976 11.1392558,13.425153 L11.1392558,14.6415653 C11.1392558,15.1131823 11.520664,15.4945905 11.992281,15.4945905 C12.4613198,15.4945905 12.8453062,15.1131823 12.8453062,14.6415653 L12.8453062,13.4225748 C12.8453062,12.896843 13.4715335,12.2706157 14.0771873,11.6675658 C14.8477382,10.8970149 15.7213884,10.0233646 15.7213884,8.89458284 C15.7188103,6.83030153 14.0462498,5.15003239 11.992281,5.15003239 L11.992281,5.15003239 Z M10.7140451,18.4247877 C10.7140451,19.1309112 11.2861317,19.7030235 11.992281,19.7030235 C12.6984302,19.7030235 13.2705168,19.1309112 13.2705168,18.4247877 C13.2705168,17.7186642 12.6984302,17.146526 11.992281,17.146526 C11.2861317,17.146526 10.7140451,17.7186384 10.7140451,18.4247619 L10.7140451,18.4247877 Z" id="形状"></path>
            </g>
        </g>
    </g>
</svg>