<?xml version="1.0" encoding="UTF-8"?>
<svg width="20px" height="20px" viewBox="0 0 20 20" version="1.1" xmlns="http://www.w3.org/2000/svg" xmlns:xlink="http://www.w3.org/1999/xlink">
    <title>02</title>
    <g id="页面-1" stroke="none" stroke-width="1" fill="none" fill-rule="evenodd">
        <g id="文件发送进度" transform="translate(-1328.000000, -126.000000)">
            <g id="02" transform="translate(1328.000000, 126.000000)">
                <rect id="矩形备份-16" x="0" y="0" width="20" height="20"></rect>
                <g id="编组" transform="translate(1.000000, 3.000000)" fill="#707273" fill-rule="nonzero">
                    <path d="M0.600150038,8.40210053 L4.20105026,8.40210053 C4.53233308,8.40210053 4.8012003,8.13323331 4.8012003,7.80195049 C4.8012003,7.47066767 4.53233308,7.20180045 4.20105026,7.20180045 L0.600150038,7.20180045 C0.268867217,7.20180045 0,7.47066767 0,7.80195049 C0,8.13323331 0.268867217,8.40210053 0.600150038,8.40210053 Z M17.8316579,13.4169542 L15.7647412,11.3500375 C16.4045011,10.5338335 16.8030008,9.51957989 16.8030008,8.40090023 C16.8030008,5.74943736 14.6532633,3.59969992 12.0018005,3.59969992 C9.35033758,3.59969992 7.20060015,5.74943736 7.20060015,8.40090023 C7.20060015,11.0523631 9.35033758,13.2021005 12.0018005,13.2021005 C13.1204801,13.2021005 14.1347337,12.8036009 14.9509377,12.163841 L17.0178545,14.2307577 C17.2435109,14.4552138 17.6060015,14.4552138 17.8316579,14.2307577 C18.056114,14.0051013 18.056114,13.6426107 17.8316579,13.4169542 Z M14.5752438,10.9155289 C14.5644411,10.9251313 14.5500375,10.9287322 14.5404351,10.9395349 C14.5308327,10.9503376 14.5260315,10.9647412 14.5164291,10.9743436 C13.8670668,11.608102 12.9824456,12.0018005 12.0018005,12.0018005 C10.0129032,12.0018005 8.40090023,10.3897974 8.40090023,8.40090023 C8.40090023,6.412003 10.0129032,4.8 12.0018005,4.8 C13.9906977,4.8 15.6027034,6.412003 15.6027034,8.40090023 C15.603901,9.38154539 15.2102026,10.2661665 14.5752438,10.9155289 Z M0.600150038,1.20030008 L11.4028507,1.20030008 C11.7341335,1.20030008 12.0030008,0.931432858 12.0030008,0.600150038 C12.0030008,0.268867217 11.7341335,0 11.4028507,0 L0.600150038,0 C0.268867217,0 0,0.268867217 0,0.600150038 C0,0.931432858 0.268867217,1.20030008 0.600150038,1.20030008 Z M5.40135034,3.60090023 L0.600150038,3.60090023 C0.268867217,3.60090023 0,3.86976744 0,4.20105026 C0,4.53233308 0.268867217,4.8012003 0.600150038,4.8012003 L5.40135034,4.8012003 C5.73263316,4.8012003 6.00150038,4.53233308 6.00150038,4.20105026 C6.00150038,3.86976744 5.73263316,3.60090023 5.40135034,3.60090023 Z M5.40135034,10.8027007 L0.600150038,10.8027007 C0.268867217,10.8027007 0,11.0715679 0,11.4028507 C0,11.7341335 0.268867217,12.0030008 0.600150038,12.0030008 L5.40135034,12.0030008 C5.73263316,12.0030008 6.00150038,11.7341335 6.00150038,11.4028507 C6.00150038,11.0715679 5.73263316,10.8027007 5.40135034,10.8027007 Z" id="形状"></path>
                </g>
            </g>
        </g>
    </g>
</svg>