<?xml version="1.0" encoding="UTF-8"?>
<svg width="16px" height="16px" viewBox="0 0 16 16" version="1.1" xmlns="http://www.w3.org/2000/svg" xmlns:xlink="http://www.w3.org/1999/xlink">
    <title>发送进度_取消_slice</title>
    <g id="页面-1" stroke="none" stroke-width="1" fill="none" fill-rule="evenodd">
        <g id="画板" transform="translate(-270.000000, 0.000000)" fill-rule="nonzero">
            <g id="发送进度-取消" transform="translate(270.000000, 0.000000)">
                <path d="M8,0 C3.584,0 0,3.584 0,8 C0,12.416 3.584,16 8,16 C12.416,16 16,12.416 16,8 C16,3.584 12.416,0 8,0 Z" id="形状" fill="#CCCCCC"></path>
                <path d="M11.584,11.5733333 C11.3706667,11.7866667 11.0293333,11.7866667 10.8266667,11.5733333 L7.968,8.69333333 L5.06666667,11.5626667 C4.85333333,11.776 4.512,11.776 4.29866667,11.5626667 C4.08533333,11.3493333 4.08533333,11.008 4.29866667,10.8053333 L7.21066667,7.92533333 L4.45866667,5.17333333 C4.24533333,4.96 4.24533333,4.61866667 4.45866667,4.416 C4.672,4.20266667 5.01333333,4.20266667 5.216,4.416 L7.968,7.17866667 L10.7626667,4.416 C10.976,4.20266667 11.3173333,4.20266667 11.5306667,4.416 C11.744,4.62933333 11.744,4.97066667 11.5306667,5.17333333 L8.72533333,7.94666667 L11.5733333,10.816 C11.7866667,11.0186667 11.7866667,11.36 11.584,11.5733333 Z" id="路径" fill="#FFFFFF"></path>
            </g>
        </g>
    </g>
</svg>