<?xml version="1.0" encoding="UTF-8"?>
<svg width="16px" height="14px" viewBox="0 0 16 14" version="1.1" xmlns="http://www.w3.org/2000/svg" xmlns:xlink="http://www.w3.org/1999/xlink">
    <!-- Generator: Sketch 59.1 (86144) - https://sketch.com -->
    <title>1-关闭共享桌面</title>
    <desc>Created with Sketch.</desc>
    <g id="页面-1" stroke="none" stroke-width="1" fill="none" fill-rule="evenodd">
        <g id="首页-两人入会情况备份" transform="translate(-994.000000, -170.000000)" fill="#06B043" fill-rule="nonzero">
            <g id="1-关闭共享桌面" transform="translate(994.000000, 170.000000)">
                <path d="M8.53007516,8.68770696 L11.9810663,12.8288882 L11.9810663,12.8288883 C12.225024,13.1217818 12.1853552,13.556986 11.8924624,13.8009436 C11.7685109,13.9041862 11.6123119,13.96075 11.4509959,13.9608104 L4.54903386,13.9608104 L4.54903387,13.9608104 C4.16784905,13.9606675 3.85895292,13.6515402 3.85909643,13.2703554 C3.85909643,13.109039 3.91572087,12.9528392 4.01896347,12.8288889 L7.46995462,8.68770759 L7.46995459,8.68770763 C7.7140841,8.39495766 8.14931255,8.35554364 8.44206252,8.59967275 C8.47399956,8.62630572 8.50346443,8.65577039 8.5300972,8.68770743 L8.53007516,8.68770696 Z M8.00000396,10.2075205 L6.02258989,12.5804093 L9.97741802,12.5804093 L8.00000396,10.2075205 L8.00000396,10.2075205 Z M12.4697095,9.92177696 L13.7320803,11.18967 L13.6271703,11.1972622 L13.5215702,11.200023 L12.831374,11.200023 L12.831374,11.200023 C12.4501892,11.2001977 12.1410363,10.891327 12.1408603,10.5101422 C12.1407503,10.2701902 12.2652719,10.0474016 12.4697102,9.92177696 L12.4697095,9.92177696 Z M2.7365585,0.156881589 L4.11212021,1.53727603 L2.47842419,1.53727603 L2.4784242,1.53727603 C2.12851258,1.53732218 1.83399937,1.79920979 1.7930587,2.1467192 L1.78822733,2.22747223 L1.78822733,9.12943431 L1.78822732,9.12934337 C1.78822737,9.47925499 2.05007616,9.7738046 2.39758152,9.81478976 L2.47842494,9.81963177 L3.16862115,9.81963177 L3.16862114,9.81963177 C3.54980596,9.82005444 3.85847562,10.1294095 3.85805301,10.5105943 C3.85766562,10.859956 3.59629113,11.1539333 3.24937418,11.1951955 L3.16862155,11.2000268 L2.47842534,11.2000268 L2.47842543,11.2000268 C1.38200724,11.2000268 0.47560821,10.3454391 0.41129251,9.25091151 L0.407841516,9.12943679 L0.407841516,2.22747472 L0.407841516,2.22735967 C0.407841516,1.13094149 1.26254049,0.224590982 2.35707209,0.160327856 L2.47843196,0.156881589 L2.73656627,0.156881589 L2.7365585,0.156881589 Z M6.26139532,0.156191379 L13.5215858,0.156881589 L13.5215857,0.156881589 C14.6180039,0.156820503 15.5244029,1.01146935 15.5887186,2.10599691 L15.5921696,2.22747163 L15.5921696,9.1294337 L15.5894088,9.19362201 L15.5921696,9.23572396 L15.5921696,9.23563291 C15.5921696,9.58554453 15.3303208,9.88009414 14.9828154,9.9210793 L14.9020624,9.92591069 L14.9020624,9.92591069 C14.5208776,9.92575645 14.2119916,9.61662026 14.2121452,9.23543544 C14.2121519,9.21894767 14.2127494,9.20246553 14.2139365,9.18602051 L14.2084149,9.18602051 L14.2117755,9.12943495 L14.2117755,2.22747287 L14.2117755,2.22756391 C14.2117755,1.87765229 13.9499267,1.58310268 13.6024213,1.54211753 L13.5215779,1.53727548 L6.2551797,1.53727548 L6.25379932,1.5358951 L6.25379928,1.5358951 C5.90151983,1.53901763 5.60342555,1.27632715 5.56222201,0.926451926 L5.55808083,0.847079352 L5.55808083,0.847079247 C5.55808083,0.465894429 5.86709222,0.15688304 6.24827703,0.15688304 L6.26139077,0.15688304 L6.26139532,0.156191379 Z" id="形状"></path>
            </g>
        </g>
    </g>
</svg>