<?xml version="1.0" encoding="UTF-8"?>
<svg width="20px" height="20px" viewBox="0 0 20 20" version="1.1" xmlns="http://www.w3.org/2000/svg" xmlns:xlink="http://www.w3.org/1999/xlink">
    <title>1233_slice</title>
    <g id="页面-1" stroke="none" stroke-width="1" fill="none" fill-rule="evenodd">
        <g id="画板" transform="translate(-76.000000, -28.000000)">
            <g id="1233" transform="translate(79.000000, 31.000000)">
                <rect id="矩形" stroke="#D8D8D8" x="0.5" y="0.5" width="13" height="13" rx="2"></rect>
                <path d="M5.12675433,10.3419884 C4.95782494,10.4920089 4.95782494,10.7374642 5.12675433,10.8874847 C5.29568372,11.0375051 5.57207681,11.0375051 5.7410062,10.8874847 L9.24830296,7.77277355 C9.41723235,7.62275309 9.41723235,7.37729778 9.24830296,7.22727732 L9.24824567,7.22722645 L5.74094891,4.11251534 C5.57201952,3.96249489 5.29562643,3.96249489 5.12669704,4.11251534 C4.95776765,4.26253579 4.95776765,4.50799111 5.12669704,4.65801156 L8.32690031,7.5 L5.12675298,10.3419952 L5.12675433,10.3419884 Z" id="路径" fill="#8F8F8F" fill-rule="nonzero" transform="translate(7.187500, 7.500000) rotate(-270.000000) translate(-7.187500, -7.500000) "></path>
            </g>
        </g>
    </g>
</svg>