<?xml version="1.0" encoding="UTF-8"?>
<svg width="80px" height="80px" viewBox="0 0 80 80" version="1.1" xmlns="http://www.w3.org/2000/svg" xmlns:xlink="http://www.w3.org/1999/xlink">
    <title>架构_slice</title>
    <g id="页面-1" stroke="none" stroke-width="1" fill="none" fill-rule="evenodd">
        <g id="画板" transform="translate(-954.000000, -778.000000)" fill="#999999" fill-rule="nonzero">
            <path d="M1013.29493,833.903 C1008.60307,834.023606 1004.50846,837.117487 1003.11093,841.598 L990.190931,841.598 C988.537868,841.171485 987.372154,839.694915 987.340931,837.988 L987.340931,822.788 L1003.22493,822.788 C1004.70087,827.091397 1008.74547,829.98367 1013.29493,829.989 C1019.21874,829.743292 1023.89466,824.869407 1023.89466,818.9405 C1023.89466,813.011593 1019.21874,808.137708 1013.29493,807.892 C1008.74547,807.89733 1004.70087,810.789603 1003.22493,815.093 L987.340931,815.093 L987.340931,801.85 L1005.35293,801.85 C1007.91804,801.777661 1009.95365,799.666038 1009.93193,797.1 L1009.93193,784.845 C1009.96771,783.595161 1009.50526,782.382349 1008.64643,781.473624 C1007.7876,780.564899 1006.6028,780.03478 1005.35293,780 L967.580931,780 C966.331065,780.03478 965.146268,780.564899 964.287434,781.473624 C963.4286,782.382349 962.966156,783.595161 963.001931,784.845 L963.001931,797.252 C962.966911,798.636544 963.53552,799.967922 964.559931,800.9 C965.3787,801.648656 966.476723,802.014663 967.580931,801.907 L979.892931,801.907 L979.892931,837.741 C979.764409,840.58033 980.783371,843.352017 982.720388,845.431988 C984.657405,847.511958 987.349649,848.725366 990.190931,848.799 L1003.22493,848.799 C1004.70087,853.102397 1008.74547,855.99467 1013.29493,856 C1019.21874,855.754292 1023.89466,850.880407 1023.89466,844.9515 C1023.89466,839.022593 1019.21874,834.148708 1013.29493,833.903 L1013.29493,833.903 Z M1016.63893,845.189 C1016.60825,847.069139 1015.16723,848.624781 1013.29493,848.799 C1011.81549,848.908303 1010.41978,848.10141 1009.77628,846.764775 C1009.13277,845.42814 1009.37247,843.833897 1010.38058,842.745594 C1011.3887,841.65729 1012.95997,841.2965 1014.34186,841.836022 C1015.72375,842.375543 1016.6349,843.705531 1016.63893,845.189 L1016.63893,845.189 Z M1009.93193,818.874 C1009.83715,817.615654 1010.45479,816.410148 1011.53148,815.752006 C1012.60817,815.093865 1013.96269,815.093865 1015.03938,815.752006 C1016.11608,816.410148 1016.73372,817.615654 1016.63893,818.874 C1016.70196,819.801431 1016.3783,820.713585 1015.74481,821.39387 C1015.11131,822.074155 1014.2245,822.461887 1013.29493,822.465 C1011.38798,822.372906 1009.89892,820.782893 1009.93193,818.874 L1009.93193,818.874 Z M1002.73093,787.695 L1002.73093,794.649 L970.430931,794.649 L970.430931,787.695 L1002.73093,787.695 Z" id="架构"></path>
        </g>
    </g>
</svg>