<?xml version="1.0" encoding="UTF-8"?>
<svg width="80px" height="80px" viewBox="0 0 80 80" version="1.1" xmlns="http://www.w3.org/2000/svg" xmlns:xlink="http://www.w3.org/1999/xlink">
    <title>设置_选中_slice</title>
    <g id="页面-1" stroke="none" stroke-width="1" fill="none" fill-rule="evenodd">
        <g id="画板" transform="translate(-847.000000, -660.000000)">
            <g id="设置-选中" transform="translate(847.000000, 660.000000)">
                <g id="编组-2">
                    <rect id="矩形" x="0" y="0" width="80" height="80"></rect>
                    <g id="编组" transform="translate(4.000000, 8.000000)" fill="#1677FF" fill-rule="nonzero">
                        <path d="M52.1270516,0 C53.4655548,0 54.7046263,0.71896744 55.3700536,1.8739045 L71.5009295,29.8065544 C72.1663568,30.9614915 72.1663568,32.3994264 71.5009295,33.5543634 L55.3700536,61.4870133 C54.7046263,62.6419504 53.4579062,63.3609178 52.1270516,63.3609178 L19.8729484,63.3609178 C18.5344452,63.3609178 17.2953737,62.6419504 16.6299464,61.4870133 L0.499070484,33.5543634 C-0.166356828,32.3994264 -0.166356828,30.9614915 0.499070484,29.8065544 L16.6299464,1.8739045 C17.2953737,0.71896744 18.5420938,0 19.8729484,0 L52.1270516,0 Z M51.2780581,5.20868965 L20.7142933,5.20868965 L5.4324109,31.6728103 L20.7142933,58.1445796 L51.2780581,58.1445796 L66.5599405,31.6728103 L51.2780581,5.20868965 Z M35.9961757,20.1157912 C42.367451,20.1157912 47.5531949,25.301535 47.5531949,31.6728103 C47.5531949,38.0517342 42.367451,43.2298295 35.9961757,43.2298295 C29.6249004,43.2298295 24.4391565,38.0440856 24.4391565,31.6728103 C24.4391565,25.301535 29.6249004,20.1157912 35.9961757,20.1157912 Z M35.9961757,25.3321294 C32.5007702,25.3321294 29.6554948,28.1774048 29.6554948,31.6728103 C29.6554948,35.1682159 32.5007702,38.0134913 35.9961757,38.0134913 C39.4915812,38.0134913 42.3368566,35.1682159 42.3368566,31.6728103 C42.3368566,28.1774048 39.4992298,25.3321294 35.9961757,25.3321294 Z" id="形状结合"></path>
                    </g>
                </g>
                <g id="编组" transform="translate(0.000000, 4.000000)"></g>
            </g>
        </g>
    </g>
</svg>