<?xml version="1.0" encoding="UTF-8"?>
<svg width="40px" height="44px" viewBox="0 0 40 44" version="1.1" xmlns="http://www.w3.org/2000/svg" xmlns:xlink="http://www.w3.org/1999/xlink">
    <!-- Generator: Sketch 59.1 (86144) - https://sketch.com -->
    <title>静音-灰色</title>
    <desc>Created with Sketch.</desc>
    <g id="页面-1" stroke="none" stroke-width="1" fill="none" fill-rule="evenodd">
        <g id="画板" transform="translate(-177.000000, -519.000000)">
            <g id="静音-灰色" transform="translate(174.000000, 519.000000)">
                <rect id="矩形" x="0" y="1" width="44" height="44"></rect>
                <g id="取消静音" transform="translate(5.666667, 1.000000)" fill="#FFFFFF" fill-rule="nonzero">
                    <path d="M29.2909975,19.8671558 L29.2909975,13.2269041 L25.7864203,16.7314814 L25.7864203,19.8671558 C25.781809,22.2050777 23.8496802,24.11415 21.4518116,24.1095388 C20.571056,24.11415 19.7548584,23.8605293 19.0539429,23.4178459 L16.5638486,25.9540531 C17.9057327,26.9869811 19.6026859,27.614116 21.4518116,27.614116 C25.7771977,27.614116 29.2909975,24.1510403 29.2909975,19.8671558 Z M36.2540392,19.4521401 L33.4872676,19.4521401 C33.2843711,19.4521401 33.1183648,19.6181463 33.1183648,19.8210429 C33.1183648,26.290677 27.8753328,31.533709 21.4056987,31.533709 C18.5005886,31.533709 15.8398767,30.4731132 13.797077,28.7208246 L11.3069827,31.210919 C13.5619015,33.2029945 16.4162874,34.5448786 19.5611844,34.9460605 L19.5611844,41.4829054 C20.0722432,42.4472234 21.2682724,42.8146625 22.2325904,42.3036037 C22.521375,42.1505568 22.7676902,41.9282715 22.9494744,41.656657 L23.0657616,41.4829054 L23.0657616,41.4829054 L23.0657616,34.9460605 C30.6882171,34.1206404 36.622942,27.6648402 36.622942,19.8210429 C36.622942,19.6181463 36.4569357,19.4521401 36.2540392,19.4521401 Z M36.8581176,2.03531338 L35.986287,0.528132822 C35.8433372,0.389794247 37.0021045,0.524243168 36.8591546,0.66719303 L28.6765956,7.5283778 C28.0744916,4.04862329 24.4491474,1.83702809 21.4056987,1.83702809 C17.0757013,1.83702809 13.5665128,5.30932634 13.5665128,9.58398832 L13.5665128,19.9132686 C13.5665128,20.2222248 13.5849579,20.5265697 13.6218482,20.8263032 L10.4861738,23.9619776 C10.0019888,22.6754289 9.73453421,21.2782092 9.73914549,19.8210429 C9.72992292,19.6181463 9.56391663,19.4521401 9.37024262,19.4521401 L6.60347111,19.4521401 C6.40057453,19.4521401 6.23456824,19.6181463 6.23456824,19.8210429 C6.23456824,22.2650244 6.81097898,24.5706673 7.83007315,26.6180783 L1.8189894e-12,31.9437685 L1.9294973,32.8826455 C2.02479721,32.9779454 13.6692077,22.8722673 36.8627289,2.56561125 L36.8673402,2.56099997 C37.01029,2.41343882 37.0056787,2.17826324 36.8581176,2.03531338 Z M17.07109,9.58398832 C17.07109,7.25067768 19.0032188,5.34160534 21.4056987,5.34160534 C23.5268902,5.34160534 25.2425225,6.34564137 25.6619155,9.85420394 L17.07109,17.3770614 L17.07109,9.58398832 Z" id="形状" transform="translate(18.485866, 21.502092) scale(-1, 1) translate(-18.485866, -21.502092) "></path>
                </g>
                <path d="M3.52052318,2.67356835 C2.88661809,2.11837802 2.82281269,1.15442826 3.37800302,0.520523176 C3.93319334,-0.113381909 4.89714311,-0.177187307 5.53104819,0.378003018 L42.1137626,33.3878781 C42.7476677,33.9426493 42.811816,34.9062561 42.2570449,35.5401612 C41.7022737,36.1740662 40.7386669,36.2382146 40.1047619,35.6834434 L4.52204743,3.67356832 L3.52052318,2.67356835 Z" id="路径" fill="#FA612C" fill-rule="nonzero"></path>
            </g>
        </g>
    </g>
</svg>