<?xml version="1.0" encoding="UTF-8"?>
<svg width="80px" height="80px" viewBox="0 0 80 80" version="1.1" xmlns="http://www.w3.org/2000/svg" xmlns:xlink="http://www.w3.org/1999/xlink">
    <title>转发_slice</title>
    <g id="页面-1" stroke="none" stroke-width="1" fill="none" fill-rule="evenodd">
        <g id="画板" transform="translate(-344.000000, -324.000000)" fill="#747677" fill-rule="nonzero">
            <g id="转发" transform="translate(346.000000, 335.000000)">
                <path d="M76,28.5583572 C76,27.7685 75.6554214,27.0633286 75.1200286,26.5624072 L45.125,0.659978582 C44.6478286,0.254464328 44.0382,0 43.3649214,0 C41.8593072,0 40.6453428,1.21667858 40.6453428,2.71957858 L40.6453428,14.18635 C17.7170928,17.8867357 1.57455716,34.7423143 0,56.3744928 C0.0742357461,57.29165 0.827042836,58.0205714 1.76007858,58.0205714 C2.12053575,58.0205714 2.45982142,57.9118643 2.74088575,57.7263428 C2.74617858,57.72105 2.74088575,57.7422214 2.74617858,57.7422214 C6.70632142,54.9298143 10.1309357,52.8331643 12.8028786,51.4230928 C19.2863572,47.8553 29.3536428,44.97395 40.6454786,43.8156286 L40.6454786,54.4394786 C40.6454786,55.9450928 41.8594428,57.1590572 43.3650572,57.1590572 C44.0065786,57.1590572 44.5843143,56.9178929 45.0509,56.5441357 L75.0512214,30.63655 C75.0512214,30.6338357 75.0406357,30.6312572 75.0459286,30.6285428 C75.6289572,30.1327786 76,29.3879786 76,28.5583572 Z M46.0846357,48.4675072 L46.0846357,37.9178929 L43.1636572,38.1353072 C31.3470143,39.0152786 15.6178643,42.4531929 6.72749291,48.8148 C11.0586787,32.8895428 24.8369357,21.4942928 43.6831715,19.2491714 L46.0846357,18.96295 L46.0846357,8.67309284 L69.1190143,28.5716571 L46.0846357,48.4675072 Z" id="形状"></path>
            </g>
        </g>
    </g>
</svg>