<?xml version="1.0" encoding="UTF-8"?>
<svg width="80px" height="80px" viewBox="0 0 80 80" version="1.1" xmlns="http://www.w3.org/2000/svg" xmlns:xlink="http://www.w3.org/1999/xlink">
    <title>消息默认_slice</title>
    <g id="页面-1" stroke="none" stroke-width="1" fill="none" fill-rule="evenodd">
        <g id="画板" transform="translate(-731.000000, -366.000000)">
            <g id="消息默认" transform="translate(731.000000, 366.000000)">
                <g id="编组-2">
                    <rect id="矩形" x="0" y="0" width="80" height="80"></rect>
                    <path d="M66.1,65.6 L43.0024,65.6 L35.707,73.7063 C35.0616712,74.4233321 34.0828307,74.7416182 33.1391983,74.541263 C32.1955659,74.3409079 31.4305018,73.6523502 31.1321983,72.734963 C30.8338948,71.8175758 31.0476712,70.810732 31.693,70.0937 L39.793,61.0937 C40.3050765,60.5247805 41.0345643,60.1999457 41.8,60.2 L66.1,60.2 C67.2934742,60.2 68.4380668,59.7258942 69.2819805,58.8819805 C70.1258942,58.0380668 70.6,56.8934742 70.6,55.7 L70.6,17.9 C70.6,16.7065258 70.1258942,15.5619332 69.2819805,14.7180195 C68.4380668,13.8741058 67.2934742,13.4 66.1,13.4 L13.9,13.4 C12.7065258,13.4 11.5619332,13.8741058 10.7180195,14.7180195 C9.87410575,15.5619332 9.39999997,16.7065258 9.4,17.9 L9.4,55.7 C9.4,56.8934742 9.87410579,58.0380668 10.7180195,58.8819805 C11.5619332,59.7258942 12.7065258,60.2 13.9,60.2 L25.6,60.2 C27.0911688,60.2 28.3,61.4088312 28.3,62.9 C28.3,64.3911688 27.0911688,65.6 25.6,65.6 L13.9,65.6 C8.43250005,65.6 4,61.1675 4,55.7 L4,17.9 C4,12.4325001 8.43249997,8 13.9,8 L66.1,8 C71.5674999,8 76,12.4325 76,17.9 L76,55.7 C76,61.1675 71.5675,65.6 66.1,65.6 Z M56.2,26.9 C57.6911688,26.9 58.9,28.1088312 58.9,29.6 C58.9,31.0911688 57.6911688,32.3 56.2,32.3 L23.8,32.3 C22.3088312,32.3 21.1,31.0911688 21.1,29.6 C21.1,28.1088312 22.3088312,26.9 23.8,26.9 L56.2,26.9 Z M40,41.3 C41.4911688,41.3 42.7,42.5088312 42.7,44 C42.7,45.4911688 41.4911688,46.7 40,46.7 L23.8,46.7 C22.3088312,46.7 21.1,45.4911688 21.1,44 C21.1,42.5088312 22.3088312,41.3 23.8,41.3 L40,41.3 Z" id="形状" fill="#6B6F70" fill-rule="nonzero"></path>
                </g>
                <g id="编组" transform="translate(0.000000, 4.000000)"></g>
            </g>
        </g>
    </g>
</svg>