<?xml version="1.0" encoding="UTF-8"?>
<svg width="80px" height="80px" viewBox="0 0 80 80" version="1.1" xmlns="http://www.w3.org/2000/svg" xmlns:xlink="http://www.w3.org/1999/xlink">
    <title>编组_13备份_slice</title>
    <g id="页面-1" stroke="none" stroke-width="1" fill="none" fill-rule="evenodd">
        <g id="画板" transform="translate(-281.000000, -633.000000)">
            <g id="编组-13备份" transform="translate(281.000000, 633.000000)">
                <rect id="矩形备份-15" x="0" y="0" width="80" height="80"></rect>
                <g id="编组" transform="translate(8.000000, 8.000000)" fill="#6D7172" fill-rule="nonzero">
                    <path d="M34.2144465,0 C38.4559482,0.00294354539 42.1950721,2.78329203 43.4190197,6.84436312 L43.4190197,6.84436312 L43.4682419,7.02156345 L43.5026976,7.09662751 C43.5274179,7.15886531 43.5495864,7.22208663 43.5691477,7.28613345 L43.5691477,7.28613345 L43.6196006,7.48056158 C44.0687542,9.52697934 44.3025602,11.5783194 44.3025602,13.6333511 C44.3032505,15.4489463 44.1297676,17.260421 43.7844954,19.0428837 L43.7844954,19.0428837 L43.6515951,19.6815433 L54.1384096,19.6889266 C54.3206295,19.6888754 54.5026819,19.6999712 54.6835468,19.7221517 L54.6835468,19.7221517 L54.7573802,19.7319961 L54.9505779,19.7443017 C57.9272975,19.9694938 60.659136,21.5199968 62.326542,24.0131072 L62.326542,24.0131072 L62.5148174,24.3059799 C63.6190616,26.0513282 64.1300839,28.1066392 63.9717979,30.1658967 L63.981,29.998 L63.9853341,30.0662215 C63.9927174,30.3458658 63.9765663,30.621357 63.9399957,30.878159 L63.8967339,31.128193 L63.8413588,31.361999 L58.5007374,54.9321053 C58.3506094,55.4932397 58.1069589,56.021149 57.7722472,56.4899916 L57.881,56.326 L57.7747083,56.5306 C57.1191407,57.7213024 56.2190133,58.7580415 55.1350454,59.57349 L54.8349054,59.7903479 L54.496502,60.0118483 C52.9201573,61.0110614 51.1100067,61.5278957 49.2740142,61.5278957 C49.2124863,61.5278957 49.1509584,61.5254346 49.0906611,61.5217429 L49.0906611,61.5217429 L49.0660499,61.5180512 L4.93209035,61.5082068 C2.3085525,61.509489 0.145334285,59.4523746 0.0147809236,56.8320867 L0.0147809236,56.8320867 L0.00862815805,56.5859751 C3.41613419e-06,56.4739944 -0.00490802707,56.3964692 0.0073975761,56.3103301 L0.0073975761,56.3103301 L0.0110892498,56.2918718 L0.0283170366,29.2934311 C0.0299169794,26.8825454 1.77750231,24.827635 4.15683886,24.4388802 L4.15683886,24.4388802 L4.40295042,24.4056551 C11.7604562,23.5811813 16.610085,22.1525036 18.8275503,20.3202029 C21.868259,17.8074036 24.6025586,12.7805745 24.6025586,9.61804068 C24.6025586,4.18389693 28.8553668,0 34.2144465,0 Z M34.2144465,4.92223168 C31.5539803,4.92223168 29.5235597,6.92065775 29.5235597,9.61804068 L29.5235597,9.61804068 L29.5174069,9.99582198 C29.3414371,14.6990143 25.9574029,20.812426 21.9617813,24.1152435 C18.8127836,26.7166429 13.1842117,28.375435 4.94931813,29.2971228 L4.94931813,29.2971228 L4.93085976,56.5859751 L49.2764753,56.5958196 L49.4241423,56.6007418 L49.577962,56.5970501 C50.2893119,56.5525575 50.981935,56.3508227 51.6059214,56.0063823 L51.6059214,56.0063823 L51.8741831,55.8476403 C52.6032389,55.3840831 53.1907278,54.7289053 53.572353,53.9538117 L53.572353,53.9538117 L53.6621837,53.7901476 L53.7434005,53.6646307 L59.064333,30.1806634 L59.0569496,29.9985408 L59.0771787,29.502626 C59.0905373,28.5881693 58.8359739,27.68971 58.3444566,26.9184544 C57.4934416,25.5500133 56.0160053,24.6961373 54.4054407,24.6419222 L54.4054407,24.6419222 L54.2307015,24.6283861 L54.115029,24.6111583 L40.4041527,24.6013138 C39.6393156,24.6006429 38.9182601,24.2444256 38.4529798,23.6373914 C37.9876994,23.0303572 37.8310828,22.2415081 38.029176,21.502769 L38.029176,21.502769 L38.0833205,21.3304909 C39.5152703,17.2177807 39.7680371,12.7864752 38.8130414,8.53761085 L38.813,8.538 L38.8819526,8.87847535 L38.8376526,8.75788069 L38.7256718,8.33087712 C38.1504361,6.31570503 36.3101101,4.92516951 34.2144465,4.92223168 L34.2144465,4.92223168 Z M13.5447652,33.2250637 C14.1974937,33.2250637 14.8234881,33.4843591 15.2850369,33.9459078 C15.7465856,34.4074566 16.005881,35.033451 16.005881,35.6861795 L16.005881,49.2223166 C16.005881,50.5815533 14.9040019,51.6834324 13.5447652,51.6834324 L11.0836494,51.6834324 L11.0836494,33.2250637 L13.5447652,33.2250637 Z" id="形状结合"></path>
                </g>
            </g>
        </g>
    </g>
</svg>