<?xml version="1.0" encoding="UTF-8"?>
<svg width="22px" height="19px" viewBox="0 0 22 19" version="1.1" xmlns="http://www.w3.org/2000/svg" xmlns:xlink="http://www.w3.org/1999/xlink">
    <title>屏幕共享</title>
    <g id="页面-1" stroke="none" stroke-width="1" fill="none" fill-rule="evenodd">
        <g id="pc桌面共享中" transform="translate(-261.000000, -843.000000)" fill="#FFFFFF" fill-rule="nonzero">
            <g id="编组-23" transform="translate(0.000000, 830.000000)">
                <g id="编组-14备份-3" transform="translate(244.000000, 11.000000)">
                    <g id="屏幕共享" transform="translate(17.000000, 2.000000)">
                        <path d="M19.826959,-1.38200562e-12 C20.7654857,-1.38200562e-12 21.5271661,0.763231657 21.5271661,1.69865582 L21.5271661,1.69865582 L21.5271661,13.0292331 C21.5271661,13.9677598 20.7639344,14.7294402 19.826959,14.7294402 L19.826959,14.7294402 L11.5151801,14.7294402 L11.5151801,17.1401353 L14.3338628,17.1401353 C14.7868377,17.1401353 15.1529407,17.4767639 15.1529407,17.8909567 C15.1529407,18.3051495 14.7868377,18.6417781 14.3338628,18.6417781 L14.3338628,18.6417781 L7.19330324,18.6417781 C6.74032836,18.6417781 6.37422537,18.3051495 6.37422537,17.8909567 C6.37422537,17.4767639 6.74032836,17.1401353 7.19330324,17.1401353 L7.19330324,17.1401353 L10.011986,17.1401353 L10.011986,14.7294402 L1.69865582,14.7294402 C0.763231657,14.7294402 -4.4408921e-13,13.9662086 -4.4408921e-13,13.0292331 L-4.4408921e-13,13.0292331 L-4.4408921e-13,1.70020711 C-4.4408921e-13,0.763231657 0.761680373,-1.38200562e-12 1.69865582,-1.38200562e-12 L1.69865582,-1.38200562e-12 Z M19.4050073,1.42407915 L2.1221539,1.42407915 C1.82585868,1.42407915 1.58230489,1.66452815 1.58230489,1.96392593 L1.58230489,1.96392593 L1.58230489,12.7655177 C1.58230489,13.0636667 1.82400461,13.305362 2.12215409,13.305362 L2.12215409,13.305362 L19.4065611,13.305362 C19.7047081,13.3045042 19.9457116,13.0621136 19.9448588,12.7639666 L19.9448588,12.7639666 L19.9448588,1.96392593 C19.9448588,1.66452815 19.7028538,1.42407915 19.4050073,1.42407915 L19.4050073,1.42407915 Z M12.6839896,4.22592419 C12.9848229,3.92469194 13.472861,3.92469194 13.7740833,4.22592419 C14.0753056,4.52715102 14.0753056,5.0155059 13.7740833,5.31673815 L13.7740833,5.31673815 L11.5883744,7.50394021 L13.7665613,9.68360158 C14.0673675,9.98462498 14.0673675,10.4732009 13.7665613,10.7742528 C13.4653403,11.0752491 12.9772874,11.0752491 12.6764676,10.7742528 L12.6764676,10.7742528 L10.4982537,8.59476773 L8.32363132,10.7710928 C8.02241039,11.0721162 7.53435743,11.0721162 7.23353767,10.7710928 C6.93231539,10.4696666 6.93231539,9.98128321 7.23353767,9.68006588 L7.23353767,9.68006588 L9.40817358,7.50395784 L7.22563616,5.32013281 C6.92478795,5.01890191 6.92478795,4.53051856 7.22563616,4.22930122 C7.52684354,3.92806896 8.0148965,3.92806896 8.31571626,4.22930122 L8.31571626,4.22930122 L10.4982537,6.41312624 Z" id="形状结合"></path>
                    </g>
                </g>
            </g>
        </g>
    </g>
</svg>