<?xml version="1.0" encoding="UTF-8"?>
<svg width="22px" height="19px" viewBox="0 0 22 19" version="1.1" xmlns="http://www.w3.org/2000/svg" xmlns:xlink="http://www.w3.org/1999/xlink">
    <title>屏幕共享</title>
    <g id="页面-1" stroke="none" stroke-width="1" fill="none" fill-rule="evenodd">
        <g id="pc桌面共享中" transform="translate(-185.000000, -843.000000)" fill="#FFFFFF" fill-rule="nonzero">
            <g id="编组-23" transform="translate(0.000000, 830.000000)">
                <g id="编组-14" transform="translate(168.000000, 11.000000)">
                    <g id="屏幕共享" transform="translate(17.000000, 2.000000)">
                        <path d="M19.8705379,0.269644621 C20.8090646,0.269644621 21.570745,1.03287628 21.570745,1.96830044 L21.570745,1.96830044 L21.570745,13.2988777 C21.570745,14.2374045 20.8075134,14.9990848 19.8705379,14.9990848 L19.8705379,14.9990848 L11.558759,14.9990848 L11.558759,17.40978 L14.3774418,17.40978 C14.8304167,17.40978 15.1965197,17.7464085 15.1965197,18.1606013 C15.1965197,18.5747941 14.8304167,18.9114227 14.3774418,18.9114227 L14.3774418,18.9114227 L7.23688219,18.9114227 C6.7839073,18.9114227 6.41780431,18.5747941 6.41780431,18.1606013 C6.41780431,17.7464085 6.7839073,17.40978 7.23688219,17.40978 L7.23688219,17.40978 L10.055565,17.40978 L10.055565,14.9990848 L1.74223477,14.9990848 C0.8068106,14.9990848 0.043578943,14.2358532 0.043578943,13.2988777 L0.043578943,13.2988777 L0.043578943,1.96985173 C0.043578943,1.03287628 0.805259317,0.269644621 1.74223477,0.269644621 L1.74223477,0.269644621 Z M19.4485863,1.69372377 L2.16573284,1.69372377 C1.86943763,1.69372377 1.62588383,1.93417277 1.62588383,2.23357055 L1.62588383,2.23357055 L1.62588383,13.0351623 C1.62588383,13.3333113 1.86758355,13.5750066 2.16573304,13.5750066 L2.16573304,13.5750066 L19.45014,13.5750066 C19.7482871,13.5741488 19.9892906,13.3317583 19.9884378,13.0336112 L19.9884378,13.0336112 L19.9884378,2.23357055 C19.9884378,1.93417277 19.7464328,1.69372377 19.4485863,1.69372377 L19.4485863,1.69372377 Z M11.4703358,5.17480418 C11.4703358,4.72027801 11.7309515,4.53257266 12.050516,4.79008578 L12.050516,4.79008578 L15.0274297,7.18681934 C15.3469942,7.44433246 15.3469942,7.86473038 15.0274297,8.12069222 L15.0274297,8.12069222 L12.0737852,10.491054 C11.7526695,10.7485671 11.4703358,10.4879514 11.4703358,10.1063356 L11.4703358,10.1063356 L11.4703358,8.82807766 L11.0220148,8.82807766 C9.72979534,8.82807766 7.19344624,9.38653985 6.58999682,10.4631308 C6.47054796,10.6601439 6.34644525,10.6167079 6.34644525,10.4631308 C6.37281708,8.54419271 9.54984642,6.38635687 11.4175922,6.38635687 L11.4175922,6.38635687 L11.4703358,6.38635687 Z" id="形状结合"></path>
                    </g>
                </g>
            </g>
        </g>
    </g>
</svg>