<?xml version="1.0" encoding="UTF-8"?>
<svg width="94px" height="94px" viewBox="0 0 94 94" version="1.1" xmlns="http://www.w3.org/2000/svg" xmlns:xlink="http://www.w3.org/1999/xlink">
    <title>ai_slice</title>
    <g id="页面-1" stroke="none" stroke-width="1" fill="none" fill-rule="evenodd">
        <g id="画板" transform="translate(-452.000000, -1474.000000)">
            <g id="ai" transform="translate(465.000000, 1479.000000)">
                <path d="M6,0 L51.437198,0 L51.437198,0 L68,21.3728059 L68,78 C68,81.3137085 65.3137085,84 62,84 L6,84 C2.6862915,84 4.05812251e-16,81.3137085 0,78 L0,6 C-4.05812251e-16,2.6862915 2.6862915,6.08718376e-16 6,0 Z" id="矩形" fill="#261302"></path>
                <path d="M23.6367318,50.1260929 L21.2298398,59.6765171 C21.1784104,59.9362351 21.0806947,60.0005218 20.7772618,60.0005218 L16.3157685,60.0005218 C16.0174785,60.0005218 15.9660492,59.8976631 16.0174785,59.527372 L24.6421749,27.8597702 C24.7913199,27.2811904 24.89675,26.782326 24.9456079,25.2060175 C24.9456079,25.0003002 25.0458951,24.8897272 25.1976115,24.8897272 L31.5671324,24.8897272 C31.7651353,24.8897272 31.8679939,24.9411565 31.9194233,25.2060175 L41.5984207,59.5788014 C41.64985,59.8410909 41.5984207,60.0005218 41.346417,60.0005218 L36.3320586,60.0005218 C36.0826264,60.0005218 35.93091,59.9362351 35.8794806,59.7279464 L33.3723015,50.1286644 L23.6367318,50.1286644 L23.6367318,50.1260929 Z M32.1097117,44.9523037 L28.5019452,29.9863725 L24.9430364,44.9523037 L32.1097117,44.9523037 Z M45.7847671,27.2554758 C45.7847671,25.2085889 47.1399296,24 48.8885263,24 C50.7476961,24 52,25.314019 52,27.2554758 C52,29.3563633 50.6936954,30.513523 48.8422399,30.513523 C47.0370709,30.513523 45.7821956,29.3563633 45.7821956,27.2554758 L45.7847671,27.2554758 Z M46.126772,34.4941521 C46.126772,34.2318626 46.2244877,34.1264325 46.4764914,34.1264325 L51.2465605,34.1264325 C51.4985642,34.1264325 51.5988513,34.2292911 51.5988513,34.4941521 L51.5988513,59.6328021 C51.5988513,59.8950917 51.547422,60.0005218 51.2465605,60.0005218 L46.5279207,60.0005218 C46.2244877,60.0005218 46.1242006,59.8462338 46.1242006,59.5788014 L46.1242006,34.4941521 L46.126772,34.4941521 Z" id="形状" fill="#FB7C33" fill-rule="nonzero"></path>
            </g>
        </g>
    </g>
</svg>