<?xml version="1.0" encoding="UTF-8"?>
<svg width="94px" height="94px" viewBox="0 0 94 94" version="1.1" xmlns="http://www.w3.org/2000/svg" xmlns:xlink="http://www.w3.org/1999/xlink">
    <title>通用安装包样式_slice</title>
    <g id="页面-1" stroke="none" stroke-width="1" fill="none" fill-rule="evenodd">
        <g id="画板" transform="translate(-53.000000, -1474.000000)">
            <g id="通用安装包样式" transform="translate(66.000000, 1479.000000)">
                <path d="M6,0 L51.437198,0 L51.437198,0 L68,21.3728059 L68,78 C68,81.3137085 65.3137085,84 62,84 L6,84 C2.6862915,84 4.05812251e-16,81.3137085 0,78 L0,6 C-4.05812251e-16,2.6862915 2.6862915,6.08718376e-16 6,0 Z" id="矩形" fill="#CAE7FF"></path>
                <g id="编组" transform="translate(18.000000, 24.000000)" fill="#0289FF" fill-rule="nonzero">
                    <g id="形状">
                        <path d="M17.5483871,33.0967742 L29.1612903,26.3870968 C29.6774194,26.1290323 29.9354839,25.6129032 29.9354839,25.0967742 L29.9354839,11.6774194 L18.3225806,18.3870968 C18.0645161,18.6451613 17.8064516,18.6451613 17.5483871,18.6451613 L17.5483871,33.0967742 L17.5483871,33.0967742 Z M30.7096774,7.5483871 C32,8.32258065 32.7741935,9.61290323 32.7741935,10.9032258 L32.7741935,25.0967742 C32.7741935,26.6451613 32,27.9354839 30.7096774,28.4516129 L18.3225806,35.4193548 C17.0322581,36.1935484 15.483871,36.1935484 14.4516129,35.4193548 L2.06451613,28.4516129 C0.774193548,27.6774194 0,26.3870968 0,25.0967742 L0,10.9032258 C0,9.35483871 0.774193548,8.06451613 2.06451613,7.5483871 L14.4516129,0.580645161 C15.7419355,-0.193548387 17.2903226,-0.193548387 18.3225806,0.580645161 L30.7096774,7.5483871 L30.7096774,7.5483871 Z"></path>
                    </g>
                </g>
            </g>
        </g>
    </g>
</svg>