<?xml version="1.0" encoding="UTF-8"?>
<svg width="12px" height="12px" viewBox="0 0 12 12" version="1.1" xmlns="http://www.w3.org/2000/svg" xmlns:xlink="http://www.w3.org/1999/xlink">
    <title>编组_slice</title>
    <g id="页面-1" stroke="none" stroke-width="1" fill="none" fill-rule="evenodd">
        <g id="画板" transform="translate(-12.000000, -34.000000)" fill="#747677" fill-rule="nonzero">
            <g id="编组" transform="translate(12.000000, 34.000000)">
                <path d="M1.70781213,3.86591186 L3.47580231,5.52256933 C3.7349342,5.7845012 4.00159939,6.20903218 3.74246749,6.47089739 C3.4831356,6.7327626 3.12953756,6.7327626 2.870339,6.47089739 L0.161954048,3.72811262 C-0.043711481,3.52091377 -0.0587113977,3.18918229 0.146954132,2.98198344 L2.87040567,0.196398913 C3.12960423,-0.0654663043 3.48326894,-0.0654663043 3.74246749,0.196398913 C4.00166603,0.45826413 3.73500086,0.882861771 3.47580231,1.1446603 L1.73081201,2.86591741 L7.6820456,2.86591741 C10.0759656,2.86591741 11.9998883,4.94217255 11.9998883,7.33055928 C11.9998883,9.71887934 10.075899,12 7.6820456,12 L1.3352142,12 C0.970882898,12 0.665217925,11.8308676 0.665217925,11.4666696 C0.665217925,11.102405 0.970882898,10.9999389 1.3352142,10.9999389 L7.62917924,10.9999389 C9.23483699,10.9999389 10.9996938,8.93241706 10.9996938,7.33049261 C10.9996938,5.72856817 9.23483698,3.86604518 7.62917924,3.86604518 L1.70781213,3.86604518 L1.70781213,3.86591186 Z" id="路径"></path>
            </g>
        </g>
    </g>
</svg>