<?xml version="1.0" encoding="UTF-8"?>
<svg width="94px" height="94px" viewBox="0 0 94 94" version="1.1" xmlns="http://www.w3.org/2000/svg" xmlns:xlink="http://www.w3.org/1999/xlink">
    <title>docx_slice</title>
    <g id="页面-1" stroke="none" stroke-width="1" fill="none" fill-rule="evenodd">
        <g id="画板" transform="translate(-38.000000, -2102.000000)">
            <g id="docx" transform="translate(51.000000, 2107.000000)">
                <path d="M6,0 L51.437198,0 L51.437198,0 L68,21.3728059 L68,78 C68,81.3137085 65.3137085,84 62,84 L6,84 C2.6862915,84 4.05812251e-16,81.3137085 0,78 L0,6 C-4.05812251e-16,2.6862915 2.6862915,6.08718376e-16 6,0 Z" id="矩形" fill="#5895FF"></path>
                <path d="M24.74534,69 L24.74534,72.50112 L11,72.50112 L11,69 L24.74534,69 L24.74534,69 Z M38.4911,62.00112 L38.4911,65.50224 L11,65.50224 L11,62.00112 L38.4911,62.00112 Z M38.4911,55.00224 L38.4911,58.5 L11,58.5 L11,55.00224 L38.4911,55.00224 Z M38.4911,48 L38.4911,51.50112 L11,51.50112 L11,48 L38.4911,48 L38.4911,48 Z" id="形状" fill="#FFFFFF" fill-rule="nonzero"></path>
            </g>
        </g>
    </g>
</svg>