<?xml version="1.0" encoding="UTF-8"?>
<svg width="94px" height="94px" viewBox="0 0 94 94" version="1.1" xmlns="http://www.w3.org/2000/svg" xmlns:xlink="http://www.w3.org/1999/xlink">
    <title>exeal_slice</title>
    <g id="页面-1" stroke="none" stroke-width="1" fill="none" fill-rule="evenodd">
        <g id="画板" transform="translate(-54.000000, -68.000000)" fill-rule="nonzero">
            <g id="exeal" transform="translate(66.000000, 73.000000)">
                <path d="M40.8003324,1 L68,28.66556 L68,74.31556 C68,79.66491 63.7389099,84 58.4800748,84 L9.52034075,84 C4.26150565,84 0,79.661175 0,74.31556 L0,10.68444 C0,5.33509 4.2619212,1 9.52075631,1 L40.8003324,1 Z" id="路径" fill="#00B654"></path>
                <path d="M45.8401117,35.7233881 C46.443529,35.1113263 47.3434142,34.8626855 48.1908936,35.07406 C49.0383729,35.2854345 49.7010837,35.9234336 49.9217877,36.7412053 C50.1427911,37.5592752 49.887649,38.4286235 49.2548844,39.0129591 L49.2548844,39.0129591 L37.901,50.004 L49.2560822,60.9979909 C49.6461308,61.389055 49.8791819,61.9059261 49.9160455,62.4517461 L49.9210134,62.6346254 C49.9125841,63.2469112 49.6572639,63.8301558 49.2123607,64.2529789 C48.2849248,65.1464758 46.7882105,65.1616804 45.8413096,64.2872639 L45.8413096,64.2872639 L34.494,53.303 L23.0800515,64.3540451 C22.1782411,65.1868227 20.7777337,65.2126878 19.8452431,64.4414265 L19.7090004,64.3197601 C19.2640044,63.8969269 19.0086245,63.3136184 19.000195,62.7012587 C18.9921754,62.0888991 19.231798,61.4990012 19.6652789,61.064474 L19.6652789,61.064474 L31.088,50.005 L19.6652789,38.9473705 C19.23279,38.5116623 18.9932267,37.9218293 19.0012461,37.3095435 C19.0096754,36.6972577 19.2649956,36.114013 19.7098988,35.69119 C20.6376341,34.7976931 22.1343485,34.7824884 23.0812494,35.656905 L23.0812494,35.656905 L34.495,46.707 L45.8410101,35.7233881 Z" id="形状结合" fill="#FFFFFF"></path>
                <path d="M68,28 L50.9264827,28 C45.7099642,28 41,23.1198248 41,17.7053882 L41,0 L68,28 L68,28 Z" id="路径" fill="#78D6A4"></path>
            </g>
        </g>
    </g>
</svg>