<?xml version="1.0" encoding="UTF-8"?>
<svg width="44px" height="38px" viewBox="0 0 44 38" version="1.1" xmlns="http://www.w3.org/2000/svg" xmlns:xlink="http://www.w3.org/1999/xlink">
    <!-- Generator: Sketch 59.1 (86144) - https://sketch.com -->
    <title>分享</title>
    <desc>Created with Sketch.</desc>
    <g id="页面-1" stroke="none" stroke-width="1" fill="none" fill-rule="evenodd">
        <g id="画板" transform="translate(-948.000000, -813.000000)">
            <g id="分享" transform="translate(947.000000, 809.000000)">
                <g id="编组-10">
                    <g id="关闭摄像头-灰色备份-5" transform="translate(0.912842, 0.460711)">
                        <rect id="矩形" x="0" y="0" width="44" height="44"></rect>
                    </g>
                    <path d="M40.6539179,4 L4.39731165,4 C2.52336075,4 1,5.52646331 1,7.40041421 L1,30.0584662 C1,31.9324171 2.52646331,33.4588804 4.39731165,33.4588804 L21.023972,33.4588804 L21.023972,38.2802707 L15.3866065,38.2802707 C14.4806567,38.2802707 13.7484507,38.9535279 13.7484507,39.7819134 C13.7484507,40.610299 14.4806567,41.2835562 15.3866065,41.2835562 L29.6677257,41.2835562 C30.5736754,41.2835562 31.3058814,40.610299 31.3058814,39.7819134 C31.3058814,38.9535279 30.5736754,38.2802707 29.6677257,38.2802707 L24.0303601,38.2802707 L24.0303601,33.4588804 L40.6539179,33.4588804 C42.5278688,33.4588804 44.0543322,31.9355197 44.0543322,30.0584662 L44.0543322,7.39731165 C44.0543322,5.52646331 42.5309714,4 40.6539179,4 Z M40.8897176,29.5279271 L40.8897176,29.5279331 C40.8914233,30.1242273 40.4094162,30.6090083 39.8131221,30.610724 C39.8120864,30.610724 39.8110508,30.610724 39.8100151,30.610724 L5.24430819,30.610724 L5.24430819,30.610724 C4.64800922,30.610724 4.16460978,30.1273333 4.16460978,29.5310353 C4.16460978,29.5299996 4.16460978,29.528964 4.16460978,29.5279283 L4.16460978,7.92785186 C4.16460978,7.3290563 4.65171737,6.8481583 5.2443078,6.8481583 L39.8100147,6.8481583 C40.4057077,6.8481583 40.8897176,7.3290563 40.8897176,7.92785186 L40.8897176,29.5279283 L40.8897176,29.5279271 Z M25.0138741,13.0408823 C24.3747451,12.5258561 23.8535138,12.9012668 23.8535138,13.8103191 L23.8535138,16.2334245 L23.7480265,16.2334245 C20.0125349,16.2334245 13.6584763,20.5490962 13.6057326,24.3869724 C13.6057326,24.6941266 13.853938,24.7809985 14.0928357,24.3869724 C15.2997346,22.2337904 20.3724328,21.1168661 22.9568717,21.1168661 L23.8535138,21.1168661 L23.8535138,23.6733819 C23.8535138,24.4366135 24.4181811,24.9578449 25.0604126,24.4428187 L30.9677015,19.7020952 C31.6068305,19.1901715 31.6068305,18.3493757 30.9677015,17.8343494 L25.0138741,13.0408823 L25.0138741,13.0408823 Z" id="形状" fill="#999999" fill-rule="nonzero"></path>
                </g>
                <g id="屏幕共享" transform="translate(0.912842, 3.460711)"></g>
            </g>
        </g>
    </g>
</svg>