<?xml version="1.0" encoding="UTF-8"?>
<svg width="24px" height="21px" viewBox="0 0 24 21" version="1.1" xmlns="http://www.w3.org/2000/svg" xmlns:xlink="http://www.w3.org/1999/xlink">
    <!-- Generator: Sketch 59.1 (86144) - https://sketch.com -->
    <title>关闭分享备份</title>
    <desc>Created with Sketch.</desc>
    <g id="页面-1" stroke="none" stroke-width="1" fill="none" fill-rule="evenodd">
        <g id="画板" transform="translate(-715.000000, -1681.000000)">
            <g id="关闭分享备份" transform="translate(715.000000, 1679.000000)">
                <g id="编组-10">
                    <g id="关闭摄像头-灰色备份-5" transform="translate(0.533333, 0.000000)">
                        <rect id="矩形" x="0" y="0" width="23.4666667" height="24"></rect>
                    </g>
                    <path d="M1.81189954,2.18181818 L21.1487562,2.18181818 C22.0997967,2.18181818 22.880593,2.93325444 22.956295,3.8833173 L22.9623105,4.03489726 L22.962,16.0688182 L21.274,16.0688182 L21.2745161,4.32428283 C21.2745161,3.99766707 21.0163774,3.73535907 20.6986745,3.73535907 L6.399,3.73481818 L6.4,2.18181818 L21.1487562,2.18181818 Z M12.735397,7.06037381 L12.8073995,7.11320854 L15.9827742,9.72782696 C16.2952372,9.98534008 16.3212758,10.3921643 16.0608899,10.6732591 L15.9827742,10.7465974 L12.8322201,13.3324465 C12.5141625,13.593304 12.231774,13.3667935 12.1930555,12.9997843 L12.1885407,12.9127537 L12.1885407,11.5182906 L11.7103316,11.5182906 C10.3319642,11.5182906 7.62652511,12.1275221 6.98284573,13.301985 C6.85543362,13.5169083 6.7230574,13.4695236 6.7230574,13.301985 C6.75042707,11.2651759 9.95929343,8.9816482 11.9677795,8.85970207 L12.1322808,8.85459518 L12.1885407,8.85459518 L12.1885407,7.53290133 C12.1885407,7.07247222 12.4282362,6.863023 12.735397,7.06037381 Z M3.199,3.73481818 L2.26363083,3.73535907 C1.97918742,3.73535907 1.7403126,3.94782855 1.69538207,4.22842534 L1.68779188,4.32428283 L1.68779188,16.1078374 C1.68779188,16.4005656 1.89662044,16.6434092 2.17022719,16.6890506 L2.26363103,16.6967586 L19.199,16.6958182 L19.199,18.2498182 L12.2828587,18.2502984 L12.2828587,20.8801476 L15.2894537,20.8801476 C15.7726269,20.8801476 16.1631368,21.2473788 16.1631368,21.6992255 C16.1631368,22.1163148 15.8303946,22.4613056 15.3991747,22.5119131 L15.2894537,22.5183034 L7.67285679,22.5183034 C7.18968358,22.5183034 6.79917372,22.1510722 6.79917372,21.6992255 C6.79917372,21.2821363 7.13191585,20.9371454 7.56313576,20.8865379 L7.67285679,20.8801476 L10.6794517,20.8801476 L10.6794517,18.2502984 L1.81189954,18.2502984 C0.864003057,18.2502984 0.0818705568,17.4988622 0.00602704804,16.5473484 L-8.84625706e-13,16.395527 L-8.84625706e-13,4.03658957 C-8.84625706e-13,3.06554229 0.733244306,2.26555366 1.66346402,2.18798242 L1.81189954,2.18181818 L3.2,2.18181818 L3.199,3.73481818 Z" id="形状结合" fill="#333333" fill-rule="nonzero"></path>
                    <path d="M2.41094573,3.64012822 L2.41094569,3.64012819 C2.07286298,3.3372971 2.03883344,2.81150632 2.33493494,2.46573991 C2.63103645,2.1199735 3.14514299,2.08517056 3.4832257,2.38800165 L22.9940067,19.8479335 L22.9940067,19.8479335 C23.3320894,20.150536 23.3663019,20.6761397 23.0704239,21.0219061 C22.774546,21.3676725 22.2606224,21.4026625 21.9225397,21.1000601 L2.41175863,3.64012818 L2.41094573,3.64012822 Z" id="路径" fill="#FA612C" fill-rule="nonzero"></path>
                </g>
            </g>
        </g>
    </g>
</svg>