<?xml version="1.0" encoding="UTF-8"?>
<svg width="44px" height="38px" viewBox="0 0 44 38" version="1.1" xmlns="http://www.w3.org/2000/svg" xmlns:xlink="http://www.w3.org/1999/xlink">
    <!-- Generator: Sketch 59.1 (86144) - https://sketch.com -->
    <title>关闭分享</title>
    <desc>Created with Sketch.</desc>
    <g id="页面-1" stroke="none" stroke-width="1" fill="none" fill-rule="evenodd">
        <g id="画板" transform="translate(-1010.000000, -813.000000)">
            <g id="关闭分享" transform="translate(1010.000000, 809.000000)">
                <g id="编组-10">
                    <g id="关闭摄像头-灰色备份-5" transform="translate(1.000000, 0.000000)">
                        <rect id="矩形" x="0" y="0" width="44" height="44"></rect>
                    </g>
                    <path d="M3.39731165,4 L39.6539179,4 C41.468403,4 42.9523818,5.42639516 43.0492976,7.21141854 L43.0543322,7.39731165 L43.054,29.46 L39.889,29.46 L39.8897176,7.92785186 C39.8897176,7.3290563 39.4057077,6.8481583 38.8100147,6.8481583 L12,6.848 L12,4 L39.6539179,4 Z M23.9189394,12.9702621 L24.0138741,13.0408823 L29.9677015,17.8343494 C30.5692347,18.31908 30.604619,19.0923816 30.0738544,19.6084751 L29.9677015,19.7020952 L24.0604126,24.4428187 C23.4502927,24.9320936 22.9101744,24.486146 22.8576879,23.7859523 L22.8535138,23.6733819 L22.8535138,21.1168661 L21.9568717,21.1168661 C19.3724328,21.1168661 14.2997346,22.2337904 13.0928357,24.3869724 C12.853938,24.7809985 12.6057326,24.6941266 12.6057326,24.3869724 C12.6575509,20.6164273 18.791525,16.3847045 22.5490519,16.2373835 L22.7480265,16.2334245 L22.8535138,16.2334245 L22.8535138,13.8103191 C22.8535138,12.9467194 23.3239251,12.5647312 23.9189394,12.9702621 Z M6,6.848 L4.2443078,6.8481583 C3.69122339,6.8481583 3.23002627,7.26707389 3.17099147,7.80977227 L3.16460978,7.92785186 L3.16460978,29.5310353 C3.16460978,30.0875801 3.5857044,30.5457701 4.1266635,30.6043886 L4.24430819,30.610724 L36,30.61 L36,33.458 L23.0303601,33.4588804 L23.0303601,38.2802707 L28.6677257,38.2802707 C29.5736754,38.2802707 30.3058814,38.9535279 30.3058814,39.7819134 C30.3058814,40.5642776 29.6527718,41.2082711 28.8170128,41.2774112 L28.6677257,41.2835562 L14.3866065,41.2835562 C13.4806567,41.2835562 12.7484507,40.610299 12.7484507,39.7819134 C12.7484507,38.9995493 13.4015604,38.3555558 14.2373194,38.2864157 L14.3866065,38.2802707 L20.023972,38.2802707 L20.023972,33.4588804 L3.39731165,33.4588804 C1.58882493,33.4588804 0.102146871,32.0324853 0.00504443037,30.2446594 L-8.84625706e-13,30.0584662 L-8.84625706e-13,7.40041421 C-8.84625706e-13,5.58892834 1.42349599,4.10215032 3.21112863,4.00504455 L3.39731165,4 L6,4 L6,6.848 Z" id="形状结合" fill="#333333" fill-rule="nonzero"></path>
                    <path d="M4.52052324,6.6735684 L4.52052318,6.67356835 C3.88661809,6.11837802 3.82281269,5.15442826 4.37800302,4.52052318 C4.93319334,3.88661809 5.89714311,3.82281269 6.53104819,4.37800302 L43.1137626,36.3878781 L43.1137626,36.3878781 C43.7476677,36.9426493 43.811816,37.9062561 43.2570449,38.5401612 C42.7022737,39.1740662 41.7386669,39.2382146 41.1047619,38.6834434 L4.52204743,6.67356832 L4.52052324,6.6735684 Z" id="路径" fill="#FA612C" fill-rule="nonzero"></path>
                </g>
            </g>
        </g>
    </g>
</svg>