<?xml version="1.0" encoding="UTF-8"?>
<svg width="25px" height="20px" viewBox="0 0 25 20" version="1.1" xmlns="http://www.w3.org/2000/svg" xmlns:xlink="http://www.w3.org/1999/xlink">
    <!-- Generator: Sketch 59.1 (86144) - https://sketch.com -->
    <title>关闭摄像头-灰色备份 6</title>
    <desc>Created with Sketch.</desc>
    <g id="页面-1" stroke="none" stroke-width="1" fill="none" fill-rule="evenodd">
        <g id="画板" transform="translate(-508.000000, -1678.000000)">
            <g id="关闭摄像头-灰色备份-6" transform="translate(508.200000, 1676.000000)">
                <g id="摄像头_关闭" transform="translate(0.000000, 4.181818)" fill="#333333" fill-rule="nonzero">
                    <path d="M17.7891764,7.33882326 L16.8263859,5.98359998 L21.3061056,2.80256667 L21.3061057,2.8025666 C22.0548535,2.27079995 23.092914,2.44669837 23.6246807,3.19544625 C23.8217423,3.47291626 23.92892,3.8041717 23.9317468,4.14448708 L23.9999237,12.006445 L23.9999238,12.0064495 C24.0043667,12.470468 23.8144234,12.915174 23.4761232,13.2327992 L22.3370705,12.0205811 L22.2688936,4.15862321 L17.789174,7.33965651 L17.7891764,7.33882326 Z M16.8870799,5.93537731 L17.8124563,7.3172062 C17.5330974,7.5042769 17.1805731,7.63314783 16.8455087,7.63314783 L16.8455086,7.63314783 C15.9271422,7.63314783 15.182658,6.88866361 15.182658,5.97029717 C15.182658,5.97029717 15.182658,5.97029717 15.182658,5.97029717 L15.182658,2.80755522 L15.182658,2.80755522 C15.182658,2.34837201 14.8104158,1.9761299 14.3512326,1.9761299 L9.00017921,1.9761299 L9.00017921,0.31327924 L14.3512326,0.31327924 L14.3512325,0.31327924 C15.7287822,0.31327924 16.8455085,1.43000557 16.8455085,2.80755522 L16.8455085,5.95865722 C16.856317,5.95283724 16.873777,5.94452299 16.8870798,5.93537731 L16.8870799,5.93537731 Z M15.1818266,11.1218085 L16.8446773,11.1218085 L16.8446773,13.6518358 L16.8446773,13.6518358 C16.8446773,15.0293854 15.7279509,16.1461118 14.3504013,16.1461118 L2.49427609,16.1461118 L2.49427598,16.1461118 C1.11672633,16.1461118 0,15.0293854 0,13.6518358 C0,13.6518358 0,13.6518358 0,13.6518358 L0,2.80755522 L0,2.80755485 C0,1.43000519 1.11672633,0.313278863 2.49427598,0.313278863 L4.98855197,0.313278863 L4.98855197,1.97612952 L2.49427598,1.97612952 L2.49427595,1.97612952 C2.03509273,1.97612954 1.66285062,2.34837163 1.66285062,2.80755485 C1.66285062,2.80755485 1.66285062,2.80755485 1.66285062,2.80755485 L1.66285062,13.6518354 L1.66285062,13.6518355 C1.66285069,14.1110187 2.03509273,14.4832609 2.49427595,14.4832609 L14.3504011,14.4832609 L14.3504011,14.4832609 C14.8095843,14.4832609 15.1818264,14.1110187 15.1818264,13.6518355 L15.1818264,11.1218083 L15.1818266,11.1218085 Z" id="形状"></path>
                </g>
                <path d="M1.53065414,3.45831004 L1.5306541,3.45831001 C1.18488769,3.15547892 1.15008475,2.62968814 1.45291584,2.28392173 C1.75574692,1.93815532 2.2815377,1.90335238 2.62730411,2.20618346 L22.581512,19.6661154 L22.581512,19.6661153 C22.9272784,19.9687178 22.9622684,20.4943215 22.6596659,20.8400879 C22.3570635,21.1858543 21.8314598,21.2208443 21.4856934,20.9182419 L1.53148551,3.45830999 L1.53065414,3.45831004 Z" id="路径" fill="#FA612C" fill-rule="nonzero"></path>
                <rect id="矩形" x="0" y="0" width="24" height="24"></rect>
            </g>
        </g>
    </g>
</svg>