<?xml version="1.0" encoding="UTF-8"?>
<svg width="44px" height="36px" viewBox="0 0 44 36" version="1.1" xmlns="http://www.w3.org/2000/svg" xmlns:xlink="http://www.w3.org/1999/xlink">
    <!-- Generator: Sketch 59.1 (86144) - https://sketch.com -->
    <title>关闭摄像头-灰色备份</title>
    <desc>Created with Sketch.</desc>
    <g id="页面-1" stroke="none" stroke-width="1" fill="none" fill-rule="evenodd">
        <g id="画板" transform="translate(-865.000000, -741.000000)">
            <g id="关闭摄像头-灰色备份" transform="translate(865.000000, 738.000000)">
                <g id="摄像头_关闭" transform="translate(0.000000, 7.666667)" fill="#999999" fill-rule="nonzero">
                    <path d="M32.6134901,13.4545093 L30.8483741,10.9699333 L39.0611935,5.1380389 L39.0611937,5.13803877 C40.4338982,4.16313325 42.3370091,4.48561368 43.3119146,5.85831812 C43.6731942,6.36701315 43.8696867,6.97431479 43.8748692,7.59822631 L43.9998602,22.0118158 L43.9998602,22.011824 C44.0080056,22.8625246 43.6597763,23.677819 43.0395592,24.2601319 L40.9512959,22.037732 L40.826305,7.62414255 L32.6134856,13.4560369 L32.6134901,13.4545093 Z M30.9596466,10.8815251 L32.6561699,13.414878 C32.1440119,13.757841 31.4977173,13.9941044 30.8834326,13.9941044 L30.8834324,13.9941044 C29.1997606,13.9941044 27.8348729,12.6292166 27.8348729,10.9455448 C27.8348729,10.9455448 27.8348729,10.9455448 27.8348729,10.9455448 L27.8348729,5.14718458 L27.8348729,5.14718458 C27.8348729,4.30534868 27.152429,3.62290481 26.3105931,3.62290481 L16.5003286,3.62290481 L16.5003286,0.574345273 L26.3105931,0.574345273 L26.3105929,0.574345273 C28.8361006,0.574345273 30.8834322,2.62167688 30.8834322,5.14718458 L30.8834322,10.9242049 C30.9032479,10.9135349 30.9352578,10.8982921 30.9596462,10.8815251 L30.9596466,10.8815251 Z M27.8333488,20.3899823 L30.8819083,20.3899823 L30.8819083,25.0283656 L30.8819083,25.0283656 C30.8819083,27.5538733 28.8345767,29.6012049 26.309069,29.6012049 L4.5728395,29.6012049 L4.5728393,29.6012049 C2.04733161,29.6012049 0,27.5538733 0,25.0283656 C0,25.0283656 0,25.0283656 0,25.0283656 L0,5.14718458 L0,5.14718389 C0,2.62167619 2.04733161,0.574344583 4.5728393,0.574344583 L9.14567861,0.574344583 L9.14567861,3.62290412 L4.5728393,3.62290412 L4.57283924,3.62290412 C3.73100334,3.62290416 3.04855947,4.30534799 3.04855947,5.14718389 C3.04855947,5.14718389 3.04855947,5.14718389 3.04855947,5.14718389 L3.04855947,25.0283649 L3.04855947,25.0283651 C3.0485596,25.870201 3.73100334,26.5526449 4.57283924,26.5526449 L26.3090687,26.5526449 L26.3090687,26.5526449 C27.1509046,26.5526449 27.8333484,25.870201 27.8333484,25.0283651 L27.8333484,20.3899818 L27.8333488,20.3899823 Z" id="形状"></path>
                </g>
                <path d="M2.80619925,6.34023507 L2.80619919,6.34023502 C2.17229411,5.78504469 2.10848871,4.82109493 2.66367903,4.18718984 C3.21886936,3.55328476 4.18281912,3.48947936 4.8167242,4.04466968 L41.3994386,36.0545448 L41.3994386,36.0545448 C42.0333437,36.6093159 42.0974921,37.5729227 41.5427209,38.2068278 C40.9879498,38.8407329 40.024343,38.9048813 39.3904379,38.3501101 L2.80772344,6.34023499 L2.80619925,6.34023507 Z" id="路径" fill="#FA612C" fill-rule="nonzero"></path>
                <rect id="矩形" x="0" y="0" width="44" height="44"></rect>
            </g>
        </g>
    </g>
</svg>