<?xml version="1.0" encoding="UTF-8"?>
<svg width="24px" height="21px" viewBox="0 0 24 21" version="1.1" xmlns="http://www.w3.org/2000/svg" xmlns:xlink="http://www.w3.org/1999/xlink">
    <!-- Generator: Sketch 59.1 (86144) - https://sketch.com -->
    <title>共享屏幕</title>
    <desc>Created with Sketch.</desc>
    <g id="页面-1" stroke="none" stroke-width="1" fill="none" fill-rule="evenodd">
        <g id="关闭摄像头" transform="translate(-630.000000, -843.000000)">
            <g id="共享屏幕" transform="translate(630.000000, 841.000000)">
                <rect id="矩形" x="0" y="0" width="24" height="24"></rect>
                <g id="邀请" transform="translate(0.000000, 2.000000)" fill="#333333" fill-rule="nonzero">
                    <g id="屏幕共享" transform="translate(0.000000, 0.000000)">
                        <path d="M22.1044894,0 L1.89378108,0 C0.849174894,0 0,0.850904374 0,1.89551056 L0,14.5259062 C0,15.5705124 0.850904374,16.4214167 1.89378108,16.4214167 L11.1620667,16.4214167 L11.1620667,19.1090293 L8.01960078,19.1090293 C7.51459249,19.1090293 7.10643511,19.4843266 7.10643511,19.9460979 C7.10643511,20.4078691 7.51459249,20.7831664 8.01960078,20.7831664 L15.9803992,20.7831664 C16.4854075,20.7831664 16.8935649,20.4078691 16.8935649,19.9460979 C16.8935649,19.4843266 16.4854075,19.1090293 15.9803992,19.1090293 L12.8379333,19.1090293 L12.8379333,16.4214167 L22.1044894,16.4214167 C23.1490956,16.4214167 24,15.5722418 24,14.5259062 L24,1.89378108 C24,0.850904374 23.1508251,0 22.1044894,0 Z M22.2359325,14.230165 L22.2359325,14.2301684 C22.2368833,14.5625637 21.9681956,14.8327977 21.6358003,14.8337541 C21.6352229,14.8337541 21.6346456,14.8337541 21.6340683,14.8337541 L2.36592676,14.8337541 L2.36592676,14.8337541 C2.03352873,14.8337541 1.76406487,14.5642951 1.76406487,14.2318976 C1.76406487,14.2313203 1.76406487,14.230743 1.76406487,14.2301657 L1.76406487,2.18952287 C1.76406487,1.85573314 2.03559578,1.58766367 2.36592654,1.58766367 L21.6340681,1.58766367 C21.9661283,1.58766367 22.2359325,1.85573314 22.2359325,2.18952287 L22.2359325,14.2301657 L22.2359325,14.230165 Z M13.3861786,5.03970599 C13.0299056,4.75261224 12.7393529,4.96187937 12.7393529,5.46861714 L12.7393529,6.81934136 L12.6805506,6.81934136 C10.5982561,6.81934136 7.05628018,9.22504864 7.02687901,11.3644159 C7.02687901,11.5356345 7.16523744,11.58406 7.29840744,11.3644159 C7.97117533,10.1641565 10.7988758,9.54154356 12.239533,9.54154356 L12.7393529,9.54154356 L12.7393529,10.9666354 C12.7393529,11.3920876 13.0541183,11.6826403 13.4121208,11.3955466 L16.7050515,8.75290048 C17.0613245,8.46753621 17.0613245,7.99884701 16.7050515,7.71175326 L13.3861786,5.03970599 L13.3861786,5.03970599 Z" id="形状"></path>
                    </g>
                </g>
            </g>
        </g>
    </g>
</svg>