<?xml version="1.0" encoding="UTF-8"?>
<svg width="60px" height="8px" viewBox="0 0 60 13" version="1.1" xmlns="http://www.w3.org/2000/svg" xmlns:xlink="http://www.w3.org/1999/xlink">
    <!-- Generator: Sketch 59.1 (86144) - https://sketch.com -->
    <title>更多</title>
    <desc>Created with Sketch.</desc>
    <g id="页面-1" stroke="none" stroke-width="1" fill="none" fill-rule="evenodd">
        <g id="未加入、已离开" transform="translate(-294.000000, -285.000000)" fill="#A8B2BC" fill-rule="nonzero">
            <g id="更多" transform="translate(294.000000, 285.000000)">
                <path d="M47.1217548,6.76702971 C47.1217548,10.1480355 49.8641372,12.8894787 53.2442038,12.8894787 C56.6262728,12.8894787 59.3666528,10.1481008 59.3666528,6.76702971 C59.3666528,3.38595867 56.6262728,0.644580734 53.2442038,0.644580734 C49.8641372,0.644580734 47.1217548,3.38595867 47.1217548,6.76702971 Z M0.41924537,6.76702971 C0.41924537,10.1480355 3.16156255,12.8894787 6.54162912,12.8894787 C9.92176745,12.8894787 12.6640781,10.1481008 12.6640781,6.76702971 C12.6640781,3.38595867 9.92176092,0.644580734 6.54162912,0.644580734 C3.16162778,0.644580734 0.41924537,3.38595867 0.41924537,6.76702971 Z M23.7704349,6.76702971 C23.7704349,10.1480355 26.5108148,12.8894787 29.8929556,12.8894787 C33.2730222,12.8894787 36.0153393,10.1481008 36.0153393,6.76702971 C36.0153393,3.38595867 33.2730222,0.644580734 29.8929556,0.644580734 C26.5108148,0.644580734 23.7704349,3.38595867 23.7704349,6.76702971 L23.7704349,6.76702971 Z" id="形状"></path>
            </g>
        </g>
    </g>
</svg>