<?xml version="1.0" encoding="UTF-8"?>
<svg width="16px" height="22px" viewBox="0 0 16 22" version="1.1" xmlns="http://www.w3.org/2000/svg" xmlns:xlink="http://www.w3.org/1999/xlink">
    <!-- Generator: Sketch 59.1 (86144) - https://sketch.com -->
    <title>没静音</title>
    <desc>Created with Sketch.</desc>
    <g id="页面-1" stroke="none" stroke-width="1" fill="none" fill-rule="evenodd">
        <g id="画板" transform="translate(-429.000000, -1677.000000)">
            <g id="没静音" transform="translate(425.000000, 1676.000000)">
                <rect id="矩形" x="0" y="0" width="24" height="24"></rect>
                <g id="语音" transform="translate(4.000000, 1.000000)" fill="#333333" fill-rule="nonzero">
                    <path d="M2.15066803,10.3149712 C2.15166692,14.1936491 4.58298343,17.1661553 7.80288002,17.1661553 C11.0227766,17.1661553 13.5547149,14.2436867 13.5547149,10.3736516 L13.5577386,10.3223344 C13.5577386,9.86100142 15.2727273,9.99861443 15.2727273,10.4599474 C15.2727273,14.9021865 12.2567144,18.5286165 8.7101877,19.0626592 L8.71022727,21.2262495 C8.7122581,21.6518989 8.29418339,21.9983125 7.77642227,21.999994 C7.28290511,22.0015851 6.87238925,21.6883669 6.837571,21.2836554 L6.83522727,21.2258521 L6.83528605,19.0504276 C3.3096239,18.4714669 0.272727273,14.8206738 0.272727273,10.4083582 C0.272727273,9.94702542 2.15066803,9.85363828 2.15066803,10.3149712 Z M7.80925356,0 C10.1989127,0.000388190876 12.1635134,2.20994708 12.2679625,4.96061314 L12.2723299,5.19105211 L12.2723299,10.113279 C12.2723299,12.8416985 10.4395909,15.101178 8.11706519,15.291547 L7.91682341,15.3027598 L7.80891448,15.3043435 C5.41925792,15.3043435 3.45497822,13.0947846 3.35054649,10.3437553 L3.34617979,10.1132852 L3.34617979,5.1910583 C3.34617979,2.33441146 5.35287857,0 7.80925356,0 Z M7.80892648,1.91304269 C6.17126932,1.91304269 5.20210588,3.34195673 5.13496877,5.12474842 L5.131233,5.32423805 L5.131233,9.98010056 C5.131233,11.7876244 6.07609928,13.2790868 7.6268123,13.3853457 L7.80158972,13.3913976 L7.87918715,13.3901726 C9.47972238,13.3394488 10.4183064,11.9276908 10.4833066,10.1757333 L10.4869231,9.97972319 L10.4869231,5.32460665 C10.4869231,3.45013969 9.55774366,1.91304269 7.80892648,1.91304269 Z" id="形状结合"></path>
                </g>
            </g>
        </g>
    </g>
</svg>