<?xml version="1.0" encoding="UTF-8"?>
<svg width="94px" height="94px" viewBox="0 0 94 94" version="1.1" xmlns="http://www.w3.org/2000/svg" xmlns:xlink="http://www.w3.org/1999/xlink">
    <title>jpg_slice</title>
    <g id="页面-1" stroke="none" stroke-width="1" fill="none" fill-rule="evenodd">
        <g id="画板" transform="translate(-344.000000, -410.000000)" fill-rule="nonzero">
            <g id="jpg" transform="translate(356.000000, 415.000000)">
                <path d="M41.23686,0 L68.72754,27.99888 L68.72754,74.19888 C68.72754,79.61268 64.42086,84 59.10576,84 L9.6222,84 C4.3071,84 0,79.6089 0,74.19888 L0,9.80112 C0,4.38732 4.30752,0 9.62262,0 L41.23686,0 Z" id="路径" fill="#36D2AD"></path>
                <path d="M68.72754,27.99888 L51.34374,27.99888 C46.03242,27.99888 41.23686,23.1189 41.23686,17.70468 L41.23686,0 L68.72754,27.99888 L68.72754,27.99888 Z" id="路径" fill-opacity="0.4" fill="#FFFFFF"></path>
                <path d="M42.76398,35.00112 L15.27246,35.00112 C14.43246,35.00112 13.74534,35.69622 13.74534,36.55512 L13.74534,61.446 C13.74534,62.3049 14.43246,63 15.27246,63 L42.76356,63 C43.60734,63 44.2907232,62.3049 44.2907232,61.446 L44.2907232,36.55512 C44.2969741,35.7047486 43.6139118,35.0096632 42.76356,35.00112 L42.76398,35.00112 Z M39.70932,58.33044 L18.32754,58.33044 L18.32754,50.55624 L22.90974,45.89088 L30.54576,53.66844 L35.12796,48.99888 L39.70932,53.66844 L39.70932,58.33422 L39.70932,58.33002 L39.70932,58.33044 Z M36.65466,45.89088 C35.8367517,45.8837861 35.055229,45.5517641 34.4823204,44.9679834 C33.9094117,44.3842027 33.5921385,43.5965771 33.60042,42.77868 C33.60042,41.06088 34.9671,39.6669 36.65466,39.6669 C38.34264,39.6669 39.70932,41.06088 39.70932,42.7791 C39.70932,44.4969 38.34264,45.89088 36.65466,45.89088 Z" id="形状" fill="#FFFFFF"></path>
            </g>
        </g>
    </g>
</svg>