<?xml version="1.0" encoding="UTF-8"?>
<svg width="94px" height="94px" viewBox="0 0 94 94" version="1.1" xmlns="http://www.w3.org/2000/svg" xmlns:xlink="http://www.w3.org/1999/xlink">
    <title>js_slice</title>
    <g id="页面-1" stroke="none" stroke-width="1" fill="none" fill-rule="evenodd">
        <g id="画板" transform="translate(-452.000000, -1234.000000)">
            <g id="js" transform="translate(465.000000, 1239.000000)">
                <path d="M6,0 L51.437198,0 L51.437198,0 L68,21.3728059 L68,78 C68,81.3137085 65.3137085,84 62,84 L6,84 C2.6862915,84 4.05812251e-16,81.3137085 0,78 L0,6 C-4.05812251e-16,2.6862915 2.6862915,6.08718376e-16 6,0 Z" id="矩形" fill="#FFCA28"></path>
                <path d="M43.9473684,72.0614737 L47.8524211,69.4770526 C48.1593684,70.4376842 50.0976842,72.7227368 52.5456842,72.7227368 C54.9955789,72.7227368 56.1324211,71.3850526 56.1324211,70.4983158 C56.1324211,68.0825263 53.6313684,67.2298947 52.4301053,66.8225263 C52.2727671,66.77122 52.1173007,66.7143421 51.964,66.652 C51.8806592,66.6168953 51.7966433,66.5834153 51.712,66.5515789 C50.3762105,66.04 45.448,64.1585263 45.448,58.7016842 C45.448,52.6915789 51.2496842,52 52.5608421,52 C53.4191579,52 57.544,52.1061053 59.6016842,55.9675789 L55.8122105,58.6126316 C54.9804211,56.9282105 53.6010526,56.3730526 52.7503158,56.3730526 C50.6509474,56.3730526 50.2151579,57.9115789 50.2151579,58.6126316 C50.2151579,60.5774737 52.4945263,61.4585263 54.4214737,62.2012632 C54.9235789,62.3964211 55.4029474,62.5802105 55.8122105,62.7734737 C57.9096842,63.7663158 61,65.3882105 61,70.4983158 C61,73.0562105 58.8532632,77.2 53.4494737,77.2 C46.1926316,77.2 44.2675789,72.8421053 43.9473684,72.0614737 Z M25,72.5749474 L29.0717895,69.9905263 C29.3901053,70.9530526 30.6292632,72.7246316 32.4292632,72.7246316 C34.2273684,72.7246316 35.1482105,70.8772632 35.1482105,69.9905263 L35.1482105,52.5684211 L40.1541053,52.5684211 L40.1541053,69.9905263 C40.2355789,72.3930526 38.9035789,77.2 33.0204211,77.2 C27.6128421,77.2 25.3656842,73.9865263 25,72.5749474 Z" id="形状" fill="#3E3E3E" fill-rule="nonzero"></path>
            </g>
        </g>
    </g>
</svg>