<?xml version="1.0" encoding="UTF-8"?>
<svg width="39px" height="44px" viewBox="0 0 39 44" version="1.1" xmlns="http://www.w3.org/2000/svg" xmlns:xlink="http://www.w3.org/1999/xlink">
    <!-- Generator: Sketch 59.1 (86144) - https://sketch.com -->
    <title>静音-灰色备份 3</title>
    <desc>Created with Sketch.</desc>
    <g id="页面-1" stroke="none" stroke-width="1" fill="none" fill-rule="evenodd">
        <g id="画板" transform="translate(-798.000000, -805.000000)">
            <g id="静音-灰色备份-3" transform="translate(794.000000, 805.000000)">
                <rect id="矩形" x="0" y="1" width="44" height="44"></rect>
                <g id="取消静音" transform="translate(4.666667, 1.000000)" fill="#333333" fill-rule="nonzero">
                    <path d="M27.8563518,19.8671558 L27.8563518,13.2269041 L24.3517746,16.7314814 L24.3517746,19.8671558 C24.3471633,22.2050777 22.4150345,24.11415 20.0171659,24.1095388 C19.1364103,24.11415 18.3202127,23.8605293 17.6192972,23.4178459 L15.1292029,25.9540531 C16.471087,26.9869811 18.1680402,27.614116 20.0171659,27.614116 C24.342552,27.614116 27.8563518,24.1510403 27.8563518,19.8671558 Z M34.8193934,19.4521401 L32.0526219,19.4521401 C31.8497254,19.4521401 31.6837191,19.6181463 31.6837191,19.8210429 C31.6837191,26.290677 26.4406871,31.533709 19.971053,31.533709 C17.0659429,31.533709 14.405231,30.4731132 12.3624313,28.7208246 L9.87233698,31.210919 C12.1272558,33.2029945 14.9816417,34.5448786 18.1265387,34.9460605 L18.1265387,41.4829054 C18.6375975,42.4472234 19.8336267,42.8146625 20.7979447,42.3036037 C21.0867293,42.1505568 21.3330445,41.9282715 21.5148287,41.656657 L21.6311159,41.4829054 L21.6311159,41.4829054 L21.6311159,34.9460605 C29.2535714,34.1206404 35.1882963,27.6648402 35.1882963,19.8210429 C35.1882963,19.6181463 35.02229,19.4521401 34.8193934,19.4521401 Z M35.4234719,2.03531338 L34.5516413,0.528132822 C36.274583,1.03230765 36.3769356,1.03756224 36.2339857,1.1805121 L28.4574096,7.05293006 C27.1616383,4.54900184 23.0145017,1.83702809 19.971053,1.83702809 C15.6410556,1.83702809 12.131867,5.30932634 12.131867,9.58398832 L12.131867,19.9132686 C12.131867,20.2222248 12.1503122,20.5265697 12.1872025,20.8263032 L9.0515281,23.9619776 C8.56734308,22.6754289 8.2998885,21.2782092 8.30449979,19.8210429 C8.29527722,19.6181463 8.12927093,19.4521401 7.93559692,19.4521401 L5.16882541,19.4521401 C4.96592883,19.4521401 4.79992254,19.6181463 4.79992254,19.8210429 C4.79992254,22.2650244 5.37633327,24.5706673 6.39542745,26.6180783 L0.257618745,31.4916743 L0.494851598,32.8826455 C0.590151506,32.9779454 12.234562,22.8722673 35.4280832,2.56561125 L35.4326945,2.56099997 C35.5756443,2.41343882 35.571033,2.17826324 35.4234719,2.03531338 Z M15.6364443,17.3770614 L15.6364443,9.58398832 C15.6364443,7.25067768 17.5685731,5.34160534 19.971053,5.34160534 C22.0922445,5.34160534 23.8491444,6.83105067 24.2272698,8.78623587 L15.6364443,17.3770614 L15.6364443,17.3770614 Z" id="形状" transform="translate(18.268543, 21.531090) scale(-1, 1) translate(-18.268543, -21.531090) "></path>
                </g>
                <path d="M4.5308962,3.5819166 L4.53089613,3.58191655 C3.90713983,3.0435263 3.84435596,2.10874569 4.39065772,1.4940226 C4.93695948,0.879299499 5.88547646,0.817424854 6.50923276,1.3558151 L42.50626,32.3970704 L42.50626,32.3970703 C43.1300163,32.9350541 43.1931377,33.8695021 42.6472484,34.4842252 C42.1013591,35.0989483 41.1531796,35.1611555 40.5294233,34.6231718 L4.53239598,3.58191652 L4.5308962,3.5819166 Z" id="路径" fill="#FA612C" fill-rule="nonzero" transform="translate(23.518707, 17.989250) rotate(2.000000) translate(-23.518707, -17.989250) "></path>
            </g>
        </g>
    </g>
</svg>