<?xml version="1.0" encoding="UTF-8"?>
<svg width="21px" height="24px" viewBox="0 0 21 24" version="1.1" xmlns="http://www.w3.org/2000/svg" xmlns:xlink="http://www.w3.org/1999/xlink">
    <!-- Generator: Sketch 59.1 (86144) - https://sketch.com -->
    <title>静音-灰色备份 4</title>
    <desc>Created with Sketch.</desc>
    <g id="页面-1" stroke="none" stroke-width="1" fill="none" fill-rule="evenodd">
        <g id="画板" transform="translate(-469.000000, -1676.000000)">
            <g id="静音-灰色备份-4" transform="translate(466.600000, 1676.000000)">
                <rect id="矩形" x="0" y="0.545454545" width="24" height="24"></rect>
                <g id="取消静音" transform="translate(2.545455, 0.545455)" fill="#333333" fill-rule="nonzero">
                    <path d="M15.1943737,10.8366304 L15.1943737,7.21467499 L13.2827861,9.12626258 L13.2827861,10.8366304 C13.2802709,12.1118606 12.2263825,13.1531728 10.9184541,13.1506575 C10.438042,13.1531728 9.99284327,13.0148342 9.61052575,12.7733705 L8.25229246,14.1567562 C8.98422929,14.7201715 9.90984013,15.0622451 10.9184541,15.0622451 C13.2777556,15.0622451 15.1943737,13.1732947 15.1943737,10.8366304 Z M18.9923964,10.6102582 L17.4832483,10.6102582 C17.3725775,10.6102582 17.2820286,10.7008071 17.2820286,10.811478 C17.2820286,14.3403693 14.4221929,17.2002049 10.8933016,17.2002049 C9.30869613,17.2002049 7.85739871,16.6216981 6.74314437,15.6659043 L5.38491108,17.0241376 C6.61486678,18.1107243 8.17180457,18.8426611 9.8872029,19.0614876 L9.8872029,22.6270393 C10.1659623,23.1530309 10.8183418,23.3534523 11.3443335,23.0746929 C11.5018523,22.9912128 11.6362061,22.8699662 11.7353611,22.7218129 L11.7987905,22.6270393 L11.7987905,22.6270393 L11.7987905,19.0614876 C15.9564935,18.6112584 19.1936162,15.0899128 19.1936162,10.811478 C19.1936162,10.7008071 19.1030673,10.6102582 18.9923964,10.6102582 Z M19.3218938,1.11017094 L18.8463498,0.288072449 C19.7861362,0.563076898 19.8419649,0.565943038 19.7639922,0.64391569 L15.5222234,3.84705276 C14.8154391,2.48127373 12.5533645,1.00201532 10.8933016,1.00201532 C8.53148486,1.00201532 6.61738203,2.89599618 6.61738203,5.22762999 L6.61738203,10.8617829 C6.61738203,11.0303044 6.62744301,11.1963107 6.64756499,11.3598018 L4.93719714,13.0701696 C4.67309623,12.3684157 4.52721191,11.606296 4.52972716,10.811478 C4.52469666,10.7008071 4.43414778,10.6102582 4.32850741,10.6102582 L2.81935931,10.6102582 C2.70868845,10.6102582 2.61813957,10.7008071 2.61813957,10.811478 C2.61813957,12.1445588 2.93254542,13.4021822 3.48841497,14.5189518 L0.140519315,17.1772769 L0.269919053,17.9359885 C0.321900821,17.9879702 6.67339747,12.4757822 19.324409,1.39942432 L19.3269243,1.39690907 C19.4048969,1.31642118 19.4023817,1.18814359 19.3218938,1.11017094 Z M8.52896962,9.47839714 L8.52896962,5.22762999 C8.52896962,3.9549151 9.58285804,2.91360291 10.8933016,2.91360291 C12.0503152,2.91360291 13.0086242,3.72602764 13.2148745,4.79249229 L8.52896962,9.47839714 L8.52896962,9.47839714 Z" id="形状" transform="translate(9.964660, 11.744231) scale(-1, 1) translate(-9.964660, -11.744231) "></path>
                </g>
                <path d="M2.47139792,1.95377269 L2.47139789,1.95377266 C2.13116718,1.66010526 2.09692143,1.15022492 2.39490421,0.814921416 C2.69288699,0.479617909 3.21025989,0.445868102 3.5504906,0.73953551 L23.1852328,17.6711293 L23.1852327,17.6711293 C23.5254634,17.964575 23.5598933,18.4742739 23.2621355,18.8095774 C22.9643777,19.1448809 22.4471889,19.1788121 22.1069581,18.8853664 L2.47221599,1.95377265 L2.47139792,1.95377269 Z" id="路径" fill="#FA612C" fill-rule="nonzero" transform="translate(12.828385, 9.812318) rotate(2.000000) translate(-12.828385, -9.812318) "></path>
            </g>
        </g>
    </g>
</svg>