<?xml version="1.0" encoding="UTF-8"?>
<svg width="24px" height="21px" viewBox="0 0 24 21" version="1.1" xmlns="http://www.w3.org/2000/svg" xmlns:xlink="http://www.w3.org/1999/xlink">
    <!-- Generator: Sketch 59.1 (86144) - https://sketch.com -->
    <title>分享备份</title>
    <desc>Created with Sketch.</desc>
    <g id="页面-1" stroke="none" stroke-width="1" fill="none" fill-rule="evenodd">
        <g id="画板" transform="translate(-674.000000, -1680.000000)">
            <g id="分享备份" transform="translate(674.000000, 1678.000000)">
                <g id="编组-10">
                    <g id="关闭摄像头-灰色备份-5" transform="translate(0.486849, 0.245712)">
                        <rect id="矩形" x="0" y="0" width="23.4666667" height="23.4666667"></rect>
                    </g>
                    <path d="M21.6820896,2.13333333 L2.34523288,2.13333333 C1.3457924,2.13333333 0.533333333,2.9474471 0.533333333,3.94688758 L0.533333333,16.031182 C0.533333333,17.0306225 1.3474471,17.8447362 2.34523288,17.8447362 L11.2127851,17.8447362 L11.2127851,20.4161444 L8.20619012,20.4161444 C7.72301691,20.4161444 7.33250706,20.7752149 7.33250706,21.2170205 C7.33250706,21.6588261 7.72301691,22.0178966 8.20619012,22.0178966 L15.822787,22.0178966 C16.3059602,22.0178966 16.6964701,21.6588261 16.6964701,21.2170205 C16.6964701,20.7752149 16.3059602,20.4161444 15.822787,20.4161444 L12.8161921,20.4161444 L12.8161921,17.8447362 L21.6820896,17.8447362 C22.68153,17.8447362 23.4956438,17.0322772 23.4956438,16.031182 L23.4956438,3.94523288 C23.4956438,2.9474471 22.6831847,2.13333333 21.6820896,2.13333333 Z M21.8078494,15.7482278 L21.8078494,15.748231 C21.8087591,16.0662545 21.5516887,16.3248044 21.2336651,16.3257195 C21.2331128,16.3257195 21.2325604,16.3257195 21.232008,16.3257195 L2.79696437,16.3257195 L2.79696437,16.3257195 C2.47893825,16.3257195 2.22112521,16.0679111 2.22112521,15.7498855 C2.22112521,15.7493331 2.22112521,15.7487808 2.22112521,15.7482284 L2.22112521,4.22818766 C2.22112521,3.90883002 2.48091593,3.65235109 2.79696416,3.65235109 L21.2320078,3.65235109 C21.5497108,3.65235109 21.8078494,3.90883002 21.8078494,4.22818766 L21.8078494,15.7482284 L21.8078494,15.7482278 Z M13.3407329,6.95513723 C12.9998641,6.68045657 12.721874,6.88067561 12.721874,7.36550352 L12.721874,8.6578264 L12.6656141,8.6578264 C10.673352,8.6578264 7.28452068,10.959518 7.25639073,13.0063853 C7.25639073,13.1702009 7.38876695,13.2165326 7.51617907,13.0063853 C8.15985845,11.8580216 10.8652975,11.2623286 12.2436649,11.2623286 L12.721874,11.2623286 L12.721874,12.6258037 C12.721874,13.0328605 13.0230299,13.3108506 13.3655534,13.03617 L16.5161075,10.5077841 C16.8569763,10.2347581 16.8569763,9.78633369 16.5161075,9.51165303 L13.3407329,6.95513723 L13.3407329,6.95513723 Z" id="形状" fill="#333333" fill-rule="nonzero"></path>
                </g>
                <g id="屏幕共享" transform="translate(0.486849, 1.845712)"></g>
            </g>
        </g>
    </g>
</svg>