<?xml version="1.0" encoding="UTF-8"?>
<svg width="25px" height="16px" viewBox="0 0 25 16" version="1.1" xmlns="http://www.w3.org/2000/svg" xmlns:xlink="http://www.w3.org/1999/xlink">
    <!-- Generator: Sketch 59.1 (86144) - https://sketch.com -->
    <title>摄像头</title>
    <desc>Created with Sketch.</desc>
    <g id="页面-1" stroke="none" stroke-width="1" fill="none" fill-rule="evenodd">
        <g id="画板" transform="translate(-549.000000, -1680.000000)" fill-rule="nonzero">
            <g id="摄像头" transform="translate(549.800000, 1676.000000)">
                <rect id="矩形" x="0" y="0" width="24" height="24"></rect>
                <path d="M22.2009231,5.80218182 C21.6073846,5.80218182 21.0332308,6.02109091 20.6667692,6.24218182 L17.5384615,8.27490909 L17.5384615,6.18181818 C17.5384615,4.97890909 16.296,4 14.7692308,4 L2.76923077,4 C1.24246154,4 0,4.97890909 0,6.18181818 L0,17.8181818 C0,19.0210909 1.24246154,20 2.76923077,20 L14.7692308,20 C16.296,20 17.5384615,19.0210909 17.5384615,17.8181818 L17.5384615,15.7221818 L20.7055385,17.7752727 C20.8707692,17.8749091 21.4661538,18.1978182 22.2073846,18.1978182 C22.7455385,18.1978182 23.2190769,18.0196364 23.5393846,17.6967273 C23.8495385,17.3832727 24,16.9621818 24,16.4094545 L24,7.59054545 C24,6.272 23.0704615,5.80218182 22.2009231,5.80218182 Z M22.301452,16.394039 C22.301452,16.5536501 22.3024769,16.7390574 22.2830923,16.7990018 C22.1907846,16.7787796 21.9316798,16.768584 21.8744491,16.7339174 L17.2239875,13.739584 C16.9479875,13.5619174 16.7607304,13.4517217 16.4404227,13.5708884 C16.1173458,13.6907773 15.9105766,13.9449995 15.9105766,14.2244995 L15.9105766,17.7216258 C15.9105766,18.1202924 15.2847779,18.2813256 14.7752394,18.2813256 L2.77523942,18.2813256 C2.26662404,18.2813256 1.63411765,17.9044647 1.63411765,17.505798 L1.66841173,6.66767722 C1.66841173,6.26973278 2.29490946,5.67509623 2.80352485,5.67509623 L14.8035248,5.67509623 C15.3130633,5.67509623 15.9448706,6.01175231 15.9448706,6.40969675 L15.9105766,9.89116618 C15.9105766,10.1706662 16.1173458,10.4248884 16.4394996,10.5440551 C16.7653458,10.663944 16.8686143,10.529716 17.1427681,10.3520493 L21.7544604,7.37432708 C21.832922,7.32738263 22.1030243,7.15242329 22.2269355,7.22649228 C22.2472432,7.28499228 22.301452,7.47531676 22.301452,7.63637231 L22.301452,16.394039 Z" id="形状" fill="#333333"></path>
            </g>
        </g>
    </g>
</svg>