<?xml version="1.0" encoding="UTF-8"?>
<svg width="94px" height="94px" viewBox="0 0 94 94" version="1.1" xmlns="http://www.w3.org/2000/svg" xmlns:xlink="http://www.w3.org/1999/xlink">
    <title>mpp_slice</title>
    <g id="页面-1" stroke="none" stroke-width="1" fill="none" fill-rule="evenodd">
        <g id="画板" transform="translate(-344.000000, -638.000000)" fill-rule="nonzero">
            <g id="mpp" transform="translate(356.000000, 643.000000)">
                <path d="M4.19164137,0 C3.08152671,-0.00470856162 2.01929251,0.451757178 1.25870272,1.26038582 C0.489755117,2.04969277 0.0412232774,3.0963673 0,4.19754392 L0,79.8024655 C-0.0049909018,80.9135222 0.450726826,81.9769654 1.25870272,82.7396236 C2.02713341,83.5369833 3.08430555,83.9912738 4.19164137,84 L65.6981198,84 C66.8080998,84.004057 67.8700818,83.5476997 68.6310584,82.7396236 C69.425735,81.9677497 69.8789063,80.9102485 69.8897198,79.8024655 L69.8897198,23.7935065 L46.1245203,0 L4.19164137,0 Z" id="路径" fill="#5ACC9B"></path>
                <path d="M69.8897198,23.7935065 L50.3216056,23.7935065 C48.0287573,23.7386536 46.1823267,21.8918011 46.1245203,19.5959991 L46.1245203,3.66307252e-05 L69.8897198,23.7935065 Z" id="路径" fill="#BDEBD7"></path>
                <path d="M34.3155498,53.5376646 C34.3155498,60.1081898 39.6345866,65.4343996 46.195407,65.4343996 C52.7566493,65.4343996 58.0752642,60.1081898 58.0752642,53.5376646 C58.0752642,46.9675614 52.7566494,41.6409296 46.195407,41.6409296 C39.6341645,41.6409296 34.3155498,46.9675613 34.3155498,53.5376646 Z" id="路径" fill="#9CE0C3"></path>
                <path d="M23.1306347,49.3401572 C23.1285261,54.154548 26.0226458,58.4963605 30.4640373,60.3402594 C34.9053973,62.1839366 40.0202568,61.1666625 43.418166,57.7638642 C46.819126,54.3577957 47.8366047,49.2399377 45.9970929,44.7920137 C44.1578353,40.3438712 39.8240398,37.4434217 35.0159782,37.4434217 C31.8633701,37.4424016 28.8398263,38.6954182 26.6121027,40.9261551 C24.3824936,43.1586686 23.1303034,46.1849594 23.1306347,49.3401572 L23.1306347,49.3401572 Z" id="路径" fill="#CDF0E1"></path>
                <path d="M11.9676609,44.4413776 C11.9676609,51.0114808 17.2862777,56.3381125 23.8475202,56.3381125 C30.4087626,56.3381125 35.7273773,51.0114808 35.7273773,44.4413776 C35.7273773,37.8708525 30.4087625,32.5446418 23.8475202,32.5446418 C20.6953766,32.5434658 17.6723,33.7965404 15.4453324,36.0273754 C13.2167085,38.260066 11.9658328,41.2863292 11.9676609,44.4409557 L11.9676609,44.4413776 Z" id="路径" fill="#FFFFFF"></path>
            </g>
        </g>
    </g>
</svg>