<?xml version="1.0" encoding="UTF-8"?>
<svg width="94px" height="94px" viewBox="0 0 94 94" version="1.1" xmlns="http://www.w3.org/2000/svg" xmlns:xlink="http://www.w3.org/1999/xlink">
    <title>音乐文件_slice</title>
    <g id="页面-1" stroke="none" stroke-width="1" fill="none" fill-rule="evenodd">
        <g id="画板" transform="translate(-38.000000, -1616.000000)">
            <g id="音乐文件" transform="translate(51.000000, 1621.000000)">
                <path d="M6,0 L51.437198,0 L51.437198,0 L68,21.3728059 L68,78 C68,81.3137085 65.3137085,84 62,84 L6,84 C2.6862915,84 4.05812251e-16,81.3137085 0,78 L0,6 C-4.05812251e-16,2.6862915 2.6862915,6.08718376e-16 6,0 Z" id="矩形" fill="#8183F1"></path>
                <path d="M49.5373439,49.1444765 L49.48858,49.1444765 L49.48858,49.6613738 C49.48858,49.7979127 49.48858,49.9442044 49.4495689,50.0904961 C49.4495689,50.227035 49.4495689,50.3733267 49.4105578,50.5586295 C48.8448966,53.8550688 46.2018934,56.5565887 43.4516097,56.5565887 C40.7208315,56.5565887 38.9848368,53.8648216 39.5895092,50.5586295 C40.1551703,47.2621901 42.7981735,44.5606703 45.5484572,44.5606703 C45.6849961,44.5606703 45.7825239,44.5996814 45.870299,44.5996814 L45.870299,30.0972987 L29.0370021,32.9646158 L29.0370021,52.3433881 C29.0370021,52.8115215 29.0370021,53.2894077 28.9394743,53.7575411 C28.3738131,57.0539804 25.7308099,58 22.9805262,58 C20.2887591,58 18.5137533,57.0637332 19.1184256,53.7575411 C19.6840868,50.4611017 22.32709,47.7595819 25.0773737,47.7595819 C25.2139126,47.7595819 25.3114404,47.798593 25.3992154,47.798593 L25.3992154,31.4139239 C25.3992154,30.5166682 26.0526516,29.7071876 26.9401545,29.5706487 L47.4014853,26.0303898 C47.9183826,25.932862 48.474291,26.0694009 48.8936605,26.4497593 C49.31303,26.8301177 49.5470967,27.2982511 49.5470967,27.8639123 L49.5470967,49.1444765 L49.5373439,49.1444765 Z" id="路径" fill="#FFFFFF" fill-rule="nonzero"></path>
            </g>
        </g>
    </g>
</svg>