<?xml version="1.0" encoding="UTF-8"?>
<svg width="94px" height="94px" viewBox="0 0 94 94" version="1.1" xmlns="http://www.w3.org/2000/svg" xmlns:xlink="http://www.w3.org/1999/xlink">
    <title>通用图片样式_slice</title>
    <g id="页面-1" stroke="none" stroke-width="1" fill="none" fill-rule="evenodd">
        <g id="画板" transform="translate(-53.000000, -1110.000000)">
            <g id="通用图片样式" transform="translate(65.745340, 1115.000000)">
                <path d="M6,0 L51.437198,0 L51.437198,0 L68,21.3728059 L68,78 C68,81.3137085 65.3137085,84 62,84 L6,84 C2.6862915,84 4.05812251e-16,81.3137085 0,78 L0,6 C-4.05812251e-16,2.6862915 2.6862915,6.08718376e-16 6,0 Z" id="矩形" fill="#36D2AD"></path>
                <path d="M50.2005723,26 L17.7998217,26 C16.8098208,26 16,26.8192258 16,27.8315017 L16,57.1672094 C16,58.1794854 16.8098208,58.9987111 17.7998217,58.9987111 L50.2000773,58.9987111 C51.1945332,58.9987111 51.9999498,58.1794854 51.9999498,57.1672094 L51.9999498,27.8315017 C52.007317,26.8292774 51.2022785,26.0100687 50.2000773,26 L50.2005723,26 Z M46.6004339,53.495296 L21.4004551,53.495296 L21.4004551,44.3328373 L26.8009102,38.8343721 L35.8005137,48.0007908 L41.2009688,42.4973756 L46.6004339,48.0007908 L46.6004339,53.499751 L46.6004339,53.494801 L46.6004339,53.495296 Z M43.0002955,38.8343721 C42.0363313,38.8260115 41.1152501,38.4346994 40.4400356,37.7466715 C39.7648212,37.0586436 39.3908917,36.1303697 39.4006521,35.1664187 C39.4006521,33.1418667 41.0113836,31.4989602 43.0002955,31.4989602 C44.9897024,31.4989602 46.6004339,33.1418667 46.6004339,35.1669137 C46.6004339,37.1914656 44.9897024,38.8343721 43.0002955,38.8343721 Z" id="形状" fill="#FFFFFF" fill-rule="nonzero"></path>
            </g>
        </g>
    </g>
</svg>