<?xml version="1.0" encoding="UTF-8"?>
<svg width="40px" height="8px" viewBox="0 0 40 8" version="1.1" xmlns="http://www.w3.org/2000/svg" xmlns:xlink="http://www.w3.org/1999/xlink">
    <!-- Generator: Sketch 59.1 (86144) - https://sketch.com -->
    <title>其它</title>
    <desc>Created with Sketch.</desc>
    <g id="页面-1" stroke="none" stroke-width="1" fill="none" fill-rule="evenodd">
        <g id="app我的直播" transform="translate(-686.000000, -719.000000)" fill="#999999" fill-rule="nonzero">
            <g id="其它" transform="translate(686.000000, 719.000000)">
                <path d="M4.46800753,0.524021555 C5.55334355,0.524021555 6.38934453,0.86868848 6.97601044,1.55802276 C7.56267636,2.24735833 7.85601147,2.98802442 7.85601147,3.78002534 L7.85601147,4.26402591 C7.85601147,5.26136183 7.59934465,6.10469328 7.08601057,6.79402885 C6.57267521,7.48336442 5.71467421,7.82803005 4.51200758,7.82803005 L4.20400722,7.82803005 C3.08934069,7.82803005 2.20200489,7.5200297 1.54200412,6.90402898 C0.882003354,6.28802826 0.55200297,5.43736204 0.55200297,4.35202601 L0.55200297,3.73602529 C0.55200297,3.35469137 0.632669587,2.97335917 0.794003251,2.59202396 C0.955336915,2.21069004 1.18267023,1.86602312 1.47600404,1.55802276 C1.76933786,1.2500224 2.13600481,1.00068734 2.57600532,0.810021888 C3.01600584,0.619355143 3.5000064,0.524021555 4.02800701,0.524021555 L4.46800753,0.524021555 L4.46800753,0.524021555 Z M20.308026,0.524021555 C21.393362,0.524021555 22.229363,0.86868848 22.8160289,1.55802276 C23.4026948,2.24735833 23.6960299,2.98802442 23.6960299,3.78002534 L23.6960299,4.26402591 C23.6960299,5.26136183 23.4393631,6.10469328 22.926029,6.79402885 C22.4126936,7.48336442 21.5546926,7.82803005 20.352026,7.82803005 L20.0440257,7.82803005 C18.9293591,7.82803005 18.0420233,7.5200297 17.3820226,6.90402898 C16.7220218,6.28802826 16.3920214,5.43736204 16.3920214,4.35202601 L16.3920214,3.73602529 C16.3920214,3.35469137 16.472688,2.97335917 16.6340217,2.59202396 C16.7953553,2.21069004 17.0226887,1.86602312 17.3160225,1.55802276 C17.6093563,1.2500224 17.9760232,1.00068734 18.4160238,0.810021888 C18.8560243,0.619355143 19.3400248,0.524021555 19.8680254,0.524021555 L20.308026,0.524021555 L20.308026,0.524021555 Z M36.1480444,0.524021555 C37.2333804,0.524021555 38.0693814,0.86868848 38.6560473,1.55802276 C39.2427132,2.24735833 39.5360483,2.98802442 39.5360483,3.78002534 L39.5360483,4.26402591 C39.5360483,5.26136183 39.2793815,6.10469328 38.7660474,6.79402885 C38.2527121,7.48336442 37.3947111,7.82803005 36.1920444,7.82803005 L35.8840441,7.82803005 C34.7693776,7.82803005 33.8820418,7.5200297 33.222041,6.90402898 C32.5620402,6.28802826 32.2320398,5.43736204 32.2320398,4.35202601 L32.2320398,3.73602529 C32.2320398,3.35469137 32.3127065,2.97335917 32.4740401,2.59202396 C32.6353738,2.21069004 32.8627071,1.86602312 33.1560409,1.55802276 C33.4493747,1.2500224 33.8160417,1.00068734 34.2560422,0.810021888 C34.6960427,0.619355143 35.1800433,0.524021555 35.7080439,0.524021555 L36.1480444,0.524021555 L36.1480444,0.524021555 Z" id="形状"></path>
            </g>
        </g>
    </g>
</svg>