<?xml version="1.0" encoding="UTF-8"?>
<svg width="94px" height="94px" viewBox="0 0 94 94" version="1.1" xmlns="http://www.w3.org/2000/svg" xmlns:xlink="http://www.w3.org/1999/xlink">
    <title>df_slice</title>
    <g id="页面-1" stroke="none" stroke-width="1" fill="none" fill-rule="evenodd">
        <g id="画板" transform="translate(-38.000000, -2459.000000)">
            <g id="df" transform="translate(51.000000, 2464.000000)">
                <path d="M6,0 L51.437198,0 L51.437198,0 L68,21.3728059 L68,78 C68,81.3137085 65.3137085,84 62,84 L6,84 C2.6862915,84 4.05812251e-16,81.3137085 0,78 L0,6 C-4.05812251e-16,2.6862915 2.6862915,6.08718376e-16 6,0 Z" id="矩形" fill="#E94848"></path>
                <path d="M31.806772,27 C29.9798625,27.0251025 28.5145115,28.5178187 28.523212,30.34488 C28.523212,32.62422 29.767672,35.45754 31.081012,38.11908 C30.050332,41.38668 28.889452,44.88444 27.404332,47.83998 C24.361432,49.05378 21.646132,49.95888 20.016532,51.2991 C19.3608466,51.9470565 18.9943765,52.8321877 19.0000653,53.754 C19.0000653,55.58688 20.481892,57.0991791 22.284532,57.0991791 C23.193288,57.1112441 24.0651137,56.7397612 24.685672,56.07576 C25.884772,54.61332 27.301432,51.96354 28.565212,49.54266 C31.470772,48.378 34.521232,47.19066 37.461232,46.48086 C39.607432,48.24066 42.715432,49.40532 45.269452,49.40532 C47.071672,49.40532 48.5534528,47.8971 48.5534528,46.06044 C48.5598195,44.2348514 47.0948826,42.7446214 45.269452,42.71976 C43.219432,42.71976 40.241212,43.464 37.965652,44.24688 C36.048471,42.4113295 34.4394281,40.278986 33.200332,37.93176 C34.074772,35.19756 35.090332,32.46378 35.090332,30.34488 C35.0990326,28.5178187 33.6336816,27.0251025 31.806772,27 L31.806772,27 Z M31.806772,29.00466 C32.543452,29.00466 33.120112,29.59266 33.120112,30.3411 C33.120112,31.3449 32.593432,33.1971 31.982332,35.18244 C31.165432,33.25044 30.493432,31.39488 30.493432,30.34488 C30.493432,29.59308 31.069672,29.00844 31.806772,29.00844 L31.806772,29.00466 L31.806772,29.00466 Z M32.371672,40.45176 C33.3491993,42.0371974 34.4908889,43.5153405 35.777872,44.86176 C33.830332,45.40356 31.928992,46.09866 30.050332,46.824 C30.959212,44.74332 31.684132,42.57822 32.371672,40.44798 L32.371672,40.45176 L32.371672,40.45176 Z M45.269872,44.72778 C46.006552,44.72778 46.583212,45.312 46.583212,46.06422 C46.583212,46.81266 46.006552,47.40066 45.269452,47.40066 C43.788112,47.40066 41.688112,46.7211 40.004332,45.77022 C41.936332,45.21288 44.040532,44.72442 45.269452,44.72442 L45.269452,44.72778 L45.269872,44.72778 Z M25.670572,50.71488 C24.746572,52.39488 23.830132,53.96022 23.188372,54.74688 C22.9459839,54.9795094 22.6193957,55.1035341 22.283692,55.09044 C21.9310122,55.0915323 21.5928002,54.9503255 21.3456002,54.6987776 C21.0984001,54.4472296 20.9631112,54.1066072 20.970352,53.754 C20.972872,53.41254 21.095932,53.08242 21.317692,52.82244 C22.088812,52.21554 23.765032,51.486 25.670572,50.71488 L25.670572,50.71488 Z" id="形状" fill="#FFFFFF" fill-rule="nonzero"></path>
            </g>
        </g>
    </g>
</svg>