<?xml version="1.0" encoding="UTF-8"?>
<svg width="94px" height="94px" viewBox="0 0 94 94" version="1.1" xmlns="http://www.w3.org/2000/svg" xmlns:xlink="http://www.w3.org/1999/xlink">
    <title>ppt_slice</title>
    <g id="页面-1" stroke="none" stroke-width="1" fill="none" fill-rule="evenodd">
        <g id="画板" transform="translate(-344.000000, -296.000000)" fill-rule="nonzero">
            <g id="PPT" transform="translate(356.000000, 301.000000)">
                <path d="M41.23686,0 L68.72754,27.99888 L68.72754,74.19888 C68.72754,79.61268 64.42086,84 59.10576,84 L9.6222,84 C4.3071,84 0,79.6089 0,74.19888 L0,9.80112 C0,4.38732 4.30752,0 9.62262,0 L41.23686,0 Z" id="路径" fill="#FD7541"></path>
                <path d="M68.72754,27.99888 L51.34374,27.99888 C46.03242,27.99888 41.23686,23.1189 41.23686,17.70468 L41.23686,0 L68.72754,27.99888 L68.72754,27.99888 Z" id="路径" fill-opacity="0.4" fill="#FFFFFF"></path>
                <path d="M26.49864,37.03266 C19.45776,37.03266 13.75332,42.84378 13.75332,50.01066 C13.75332,57.17712 19.46154,62.98866 26.49864,62.98866 C33.53532,62.98866 39.24354,57.17712 39.24354,50.00646 L26.49906,50.00646 L26.49906,37.03266 L26.49864,37.03266 Z" id="路径" fill="#FFFFFF" opacity="0.4"></path>
                <path d="M28.48398,35.0049 L28.48398,47.9871 L41.2251,47.9871 C41.2251,40.81644 35.52066,35.0049 28.4802,35.0049 L28.48398,35.0049 L28.48398,35.0049 Z" id="路径" fill="#FFFFFF"></path>
            </g>
        </g>
    </g>
</svg>