<?xml version="1.0" encoding="UTF-8"?>
<svg width="94px" height="94px" viewBox="0 0 94 94" version="1.1" xmlns="http://www.w3.org/2000/svg" xmlns:xlink="http://www.w3.org/1999/xlink">
    <title>ps_slice</title>
    <g id="页面-1" stroke="none" stroke-width="1" fill="none" fill-rule="evenodd">
        <g id="画板" transform="translate(-452.000000, -986.000000)">
            <g id="ps" transform="translate(465.000000, 991.000000)">
                <path d="M6,0 L51.437198,0 L51.437198,0 L68,21.3728059 L68,78 C68,81.3137085 65.3137085,84 62,84 L6,84 C2.6862915,84 4.05812251e-16,81.3137085 0,78 L0,6 C-4.05812251e-16,2.6862915 2.6862915,6.08718376e-16 6,0 Z" id="矩形" fill="#021D25"></path>
                <path d="M16,26.4738964 C16,26.2848964 16.405,26.1408964 16.63675,26.1408964 C19.086344,26.0376256 21.5380016,25.9911131 23.98975,26.0013964 C31.89175,26.0013964 34.96975,30.3348964 34.96975,35.8901464 C34.96975,43.1418964 29.716,46.2513964 23.272,46.2513964 C22.192,46.2513964 21.814,46.2063964 21.06025,46.2063964 L21.06025,57.1706464 C21.06025,57.4068964 20.968,57.5013964 20.7295,57.5013964 L16.33075,57.5013964 C16.0945,57.5013964 16,57.4068964 16,57.1706464 L16,26.4738964 Z M21.0625,41.6366464 C21.71725,41.6816464 22.237,41.6816464 23.3665,41.6816464 C26.7055,41.6816464 29.84425,40.5048964 29.84425,35.9868964 C29.84425,32.3598964 27.601,30.5216464 23.7895,30.5216464 C22.66225,30.5216464 21.57775,30.5688964 21.06025,30.6161464 L21.06025,41.6366464 L21.0625,41.6366464 Z M45.601,38.2436464 C43.34425,38.2436464 42.5905,39.3753964 42.5905,40.3181464 C42.5905,41.3531464 43.108,42.0596464 46.1185,43.6121464 C50.58925,45.7811464 52,47.8511464 52,50.9133964 C52,55.4808964 48.517,57.5013964 43.8145,57.5013964 C41.3215,57.5013964 39.1975,56.9973964 37.97575,56.2886464 C37.789,56.1963964 37.7395,56.0546464 37.7395,55.8161464 L37.7395,52.0406464 C37.7395,51.7571464 37.879,51.6648964 38.07025,51.8043964 C39.7807376,52.9133055 41.7760093,53.5025867 43.8145,53.5008964 C46.0735,53.5008964 47.014,52.5581464 47.014,51.2868964 C47.014,50.2518964 46.35475,49.3563964 43.48375,47.8511464 C39.43825,45.9206464 37.74175,43.9406464 37.74175,40.6443964 C37.74175,36.9701464 40.61275,34.2026464 45.59875,34.2026464 C48.0445,34.2026464 49.7725,34.2858964 50.713,34.7111464 C50.94925,34.8506464 50.9965,35.0868964 50.9965,35.2736464 L50.9965,39.1841464 C50.9965,39.4181464 50.85475,39.5621464 50.5735,39.4698964 C49.6645,38.9298964 47.86,38.2436464 45.601,38.2436464 L45.601,38.2436464 Z" id="形状" fill="#32CAFA" fill-rule="nonzero"></path>
            </g>
        </g>
    </g>
</svg>