<?xml version="1.0" encoding="UTF-8"?>
<svg width="20px" height="24px" viewBox="0 0 20 24" version="1.1" xmlns="http://www.w3.org/2000/svg" xmlns:xlink="http://www.w3.org/1999/xlink">
    <!-- Generator: Sketch 59.1 (86144) - https://sketch.com -->
    <title>取消静音备份</title>
    <desc>Created with Sketch.</desc>
    <g id="页面-1" stroke="none" stroke-width="1" fill="none" fill-rule="evenodd">
        <g id="仅自己离开会议还是结束会议" transform="translate(-1405.000000, -133.000000)" fill="#333333" fill-rule="nonzero">
            <g id="编组-6" transform="translate(1216.000000, 124.000000)">
                <g id="取消静音备份" transform="translate(189.000000, 9.000000)">
                    <path d="M15.2103264,10.8366304 L15.2103264,7.21467499 L13.2987388,9.12626258 L13.2987388,10.8366304 C13.2962236,12.1118606 12.2423351,13.1531728 10.9344068,13.1506575 C10.4539946,13.1531728 10.0087959,13.0148342 9.62647843,12.7733705 L8.26824514,14.1567562 C9.00018197,14.7201715 9.9257928,15.0622451 10.9344068,15.0622451 C13.2937083,15.0622451 15.2103264,13.1732947 15.2103264,10.8366304 Z M19.0083491,10.6102582 L17.499201,10.6102582 C17.3885301,10.6102582 17.2979813,10.7008071 17.2979813,10.811478 C17.2979813,14.3403693 14.4381456,17.2002049 10.9092543,17.2002049 C9.32464881,17.2002049 7.87335139,16.6216981 6.75909704,15.6659043 L5.40086375,17.0241376 C6.63081945,18.1107243 8.18775724,18.8426611 9.90315558,19.0614876 L9.90315558,22.6270393 C10.1819149,23.1530309 10.8342945,23.3534523 11.3602861,23.0746929 C11.517805,22.9912128 11.6521587,22.8699662 11.7513138,22.7218129 L11.8147432,22.6270393 L11.8147432,22.6270393 L11.8147432,19.0614876 C15.9724462,18.6112584 19.2095688,15.0899128 19.2095688,10.811478 C19.2095688,10.7008071 19.11902,10.6102582 19.0083491,10.6102582 Z M19.3378464,1.11017094 L18.2437141,0.0562825136 C18.1657414,-0.0191748913 18.0399791,-0.0191748913 17.9620064,0.0587977605 L14.717338,3.30346617 C14.0105537,1.93768714 12.5693172,1.00201532 10.9092543,1.00201532 C8.54743754,1.00201532 6.6333347,2.89599618 6.6333347,5.22762999 L6.6333347,10.8617829 C6.6333347,11.0303044 6.64339569,11.1963107 6.66351766,11.3598018 L4.95314982,13.0701696 C4.6890489,12.3684157 4.54316459,11.606296 4.54567983,10.811478 C4.54064934,10.7008071 4.45010045,10.6102582 4.34446009,10.6102582 L2.83531199,10.6102582 C2.72464113,10.6102582 2.63409224,10.7008071 2.63409224,10.811478 C2.63409224,12.1445588 2.9484981,13.4021822 3.50436764,14.5189518 L0.0584794888,17.9648399 C-0.0194931629,18.0428126 -0.0194931629,18.1710902 0.0584794888,18.2490628 L1.13248988,19.3230732 C1.21046254,19.4010459 1.33874012,19.4010459 1.41671278,19.3230732 L19.3403617,1.39942432 L19.3428769,1.39690907 C19.4208496,1.31642118 19.4183343,1.18814359 19.3378464,1.11017094 Z M8.54492229,9.47839714 L8.54492229,5.22762999 C8.54492229,3.9549151 9.59881071,2.91360291 10.9092543,2.91360291 C12.0662679,2.91360291 13.0245769,3.72602764 13.2308271,4.79249229 L8.54492229,9.47839714 L8.54492229,9.47839714 Z" id="形状" transform="translate(9.699909, 11.600195) scale(-1, 1) translate(-9.699909, -11.600195) "></path>
                </g>
            </g>
        </g>
    </g>
</svg>