<?xml version="1.0" encoding="UTF-8"?>
<svg width="12px" height="12px" viewBox="0 0 12 12" version="1.1" xmlns="http://www.w3.org/2000/svg" xmlns:xlink="http://www.w3.org/1999/xlink">
    <title>形状_slice</title>
    <g id="页面-1" stroke="none" stroke-width="1" fill="none" fill-rule="evenodd">
        <g id="画板" transform="translate(2.000000, 2.000000)" fill="#00B578" fill-rule="nonzero">
            <path d="M3.60168409,6.13698015 C3.50559998,6.13698015 3.40950612,6.10028088 3.33622478,6.02689212 L1.7924143,4.48330626 C1.64592974,4.33670452 1.64592974,4.09916516 1.7924143,3.95256342 C1.93885979,3.80597145 2.17655539,3.80597145 2.32307901,3.95256342 L3.60168409,5.23125639 L6.86776229,1.96479733 C7.01436403,1.81820535 7.25198151,1.81820535 7.39857348,1.96479733 C7.54490179,2.11121352 7.54490179,2.348831 7.39857348,2.49546204 L3.86685042,6.02699955 C3.79364721,6.10028088 3.69747522,6.13698015 3.60168409,6.13698015 L3.60168409,6.13698015 Z M4.00002441,8 C1.79443578,8 0,6.20560328 0,4.00003418 C0,1.79443578 1.79443578,0 4.00002441,0 C4.78680272,0 5.54841498,0.228310828 6.20217554,0.660244945 C6.33385539,0.747227477 6.3700273,0.92445425 6.28316197,1.0561341 C6.1961892,1.18774559 6.01895266,1.22410305 5.88727281,1.13712053 C5.32712564,0.767022422 4.67446859,0.571406953 4.00002441,0.571406953 C2.10941664,0.571406953 0.571416711,2.10941664 0.571416711,4.00002442 C0.571416711,5.89058337 2.1094264,7.42860283 4.00002441,7.42860283 C5.89059312,7.42860283 7.42860282,5.89058338 7.42860282,4.00002442 C7.42860282,3.8806981 7.42253836,3.76056124 7.41033131,3.64288531 C7.39408129,3.4858734 7.50821229,3.34553144 7.66515584,3.32935954 C7.82194314,3.31307045 7.96250972,3.42724052 7.97868162,3.58414501 C7.99287109,3.72124478 8,3.8610887 8,4.00002442 C8,6.20560328 6.20560328,8 4.00002441,8 L4.00002441,8 Z" id="形状"></path>
        </g>
    </g>
</svg>