<?xml version="1.0" encoding="UTF-8"?>
<svg width="40px" height="37px" viewBox="0 0 40 37" version="1.1" xmlns="http://www.w3.org/2000/svg" xmlns:xlink="http://www.w3.org/1999/xlink">
    <!-- Generator: Sketch 59.1 (86144) - https://sketch.com -->
    <title>1-关闭共享桌面</title>
    <desc>Created with Sketch.</desc>
    <g id="页面-1" stroke="none" stroke-width="1" fill="none" fill-rule="evenodd">
        <g id="首页-两人入会情况备份" transform="translate(-356.000000, -428.000000)" fill="#CCCCCC" fill-rule="nonzero">
            <g id="编组-4" transform="translate(356.000000, 419.000000)">
                <g id="1-关闭共享桌面" transform="translate(0.000000, 9.000000)">
                    <path d="M21.3963985,22.4719868 L30.4878839,33.3816607 L30.4878839,33.3816608 C31.1305797,34.1532698 31.026074,35.2997871 30.2544609,35.9424777 C29.9279159,36.2144636 29.5164166,36.3634771 29.0914366,36.3636364 L10.9085191,36.3636364 L10.9085191,36.3636364 C9.90430437,36.3632599 9.090531,35.548884 9.09090909,34.5446773 C9.09090909,34.1196997 9.24008369,33.7082015 9.51207182,33.3816624 L18.6035572,22.4719885 L18.6035571,22.4719886 C19.2467057,21.7007578 20.393296,21.5969241 21.164533,22.2400664 C21.2486698,22.3102292 21.3262937,22.387852 21.3964565,22.4719881 L21.3963985,22.4719868 Z M19.5454545,26.3636364 L14.5454545,32.7272727 L24.5454545,32.7272727 L19.5454545,26.3636364 L19.5454545,26.3636364 Z M31.8484766,25.4545455 L35.4545455,29.0614567 L35.1548612,29.083055 L34.8532055,29.0909091 L32.8816017,29.0909091 L32.8816018,29.0909091 C31.7927151,29.091406 30.9095936,28.2127284 30.9090909,27.1283311 C30.9087769,26.4457141 31.2644833,25.8119232 31.8484785,25.4545455 L31.8484766,25.4545455 Z M6.28655988,0 L10,3.63636701 L5.58970543,3.63636701 L5.58970547,3.63636701 C4.64509074,3.63648859 3.85002851,4.32637797 3.73950585,5.24182049 L3.72646317,5.45454786 L3.72646317,23.6363563 L3.72646315,23.6361167 C3.7264633,24.5578874 4.43334526,25.3338181 5.37146412,25.4417851 L5.58970747,25.4545404 L7.45294797,25.4545404 L7.45294795,25.4545404 C8.4819872,25.4556539 9.31526592,26.2705866 9.31412505,27.2747401 C9.31307927,28.1950619 8.60747767,28.9694852 7.6709473,29.0781819 L7.45294904,29.0909091 L5.58970854,29.0909091 L5.58970879,29.0909091 C2.62983919,29.0909091 0.182941673,26.8396723 0.00931623846,23.9563632 L0,23.6363628 L0,5.4545544 L0,5.45425134 C0,2.56596171 2.30732902,0.178366558 5.26210563,0.00907848602 L5.58972641,0 L6.28658086,0 L6.28655988,0 Z M15.4842571,0 L34.5597331,0.00179831073 L34.5597331,0.00179831073 C37.44047,0.00163915333 39.8219493,2.22838664 39.9909328,5.08012686 L40,5.39662354 L40,23.379362 L39.9927462,23.5466017 L40,23.6562963 L40,23.6560591 C40,24.5677374 39.3120165,25.3351726 38.3989784,25.4419575 L38.1868073,25.4545455 L38.1868073,25.4545455 C37.1852796,25.4541436 36.3737103,24.6487037 36.374114,23.6555446 C36.3741316,23.6125865 36.3757014,23.569643 36.3788204,23.5267963 L36.364313,23.5267963 L36.3731426,23.3793653 L36.3731426,5.39662678 L36.3731426,5.39686399 C36.3731426,4.48518567 35.6851591,3.71775048 34.772121,3.61096557 L34.5597124,3.59834985 L15.4679262,3.59834985 L15.4642994,3.59475333 L15.4642993,3.59475333 C14.5387177,3.60288893 13.7555027,2.91846121 13.6472442,2.00687773 L13.6363636,1.80007621 L13.6363636,1.80007594 C13.6363636,0.806916772 14.4482624,0.00180209042 15.4497901,0.00180209042 L15.4842452,0.00180209042 L15.4842571,0 Z" id="形状"></path>
                </g>
            </g>
        </g>
    </g>
</svg>