<?xml version="1.0" encoding="UTF-8"?>
<svg width="24px" height="20px" viewBox="0 0 24 20" version="1.1" xmlns="http://www.w3.org/2000/svg" xmlns:xlink="http://www.w3.org/1999/xlink">
    <!-- Generator: Sketch 59.1 (86144) - https://sketch.com -->
    <title>摄像头_关闭</title>
    <desc>Created with Sketch.</desc>
    <g id="页面-1" stroke="none" stroke-width="1" fill="none" fill-rule="evenodd">
        <g id="发起会议弹出" transform="translate(-744.000000, -548.000000)" fill="#999999" fill-rule="nonzero">
            <g id="编组-7" transform="translate(450.000000, 298.000000)">
                <g id="编组-22" transform="translate(294.000000, 248.000000)">
                    <g id="摄像头_关闭" transform="translate(0.000000, 2.000000)">
                        <path d="M1.53065414,1.45831004 L1.5306541,1.45831001 C1.18488769,1.15547892 1.15008475,0.629688143 1.45291584,0.283921733 C1.75574692,-0.0618446775 2.2815377,-0.0966476221 2.62730411,0.206183464 L22.581512,17.6661154 L22.581512,17.6661153 C22.9272784,17.9687178 22.9622684,18.4943215 22.6596659,18.8400879 C22.3570635,19.1858543 21.8314598,19.2208443 21.4856934,18.9182419 L1.53148551,1.45830999 L1.53065414,1.45831004 Z M17.7891764,9.52064144 L16.8263859,8.16541816 L21.3061056,4.98438485 L21.3061057,4.98438478 C22.0548535,4.45261813 23.092914,4.62851655 23.6246807,5.37726443 C23.8217423,5.65473444 23.92892,5.98598988 23.9317468,6.32630526 L23.9999237,14.1882632 L23.9999238,14.1882677 C24.0043667,14.6522861 23.8144234,15.0969922 23.4761232,15.4146174 L22.3370705,14.2023993 L22.2688936,6.34044139 L17.789174,9.5214747 L17.7891764,9.52064144 Z M16.8870799,8.11719549 L17.8124563,9.49902438 C17.5330974,9.68609508 17.1805731,9.81496601 16.8455087,9.81496601 L16.8455086,9.81496601 C15.9271422,9.81496601 15.182658,9.07048179 15.182658,8.15211535 C15.182658,8.15211535 15.182658,8.15211535 15.182658,8.15211535 L15.182658,4.98937341 L15.182658,4.98937341 C15.182658,4.53019019 14.8104158,4.15794808 14.3512326,4.15794808 L9.00017921,4.15794808 L9.00017921,2.49509742 L14.3512326,2.49509742 L14.3512325,2.49509742 C15.7287822,2.49509742 16.8455085,3.61182375 16.8455085,4.98937341 L16.8455085,8.1404754 C16.856317,8.13465542 16.873777,8.12634117 16.8870798,8.11719549 L16.8870799,8.11719549 Z M15.1818266,13.3036267 L16.8446773,13.3036267 L16.8446773,15.833654 L16.8446773,15.833654 C16.8446773,17.2112036 15.7279509,18.3279299 14.3504013,18.3279299 L2.49427609,18.3279299 L2.49427598,18.3279299 C1.11672633,18.3279299 0,17.2112036 0,15.833654 C0,15.833654 0,15.833654 0,15.833654 L0,4.98937341 L0,4.98937303 C0,3.61182338 1.11672633,2.49509705 2.49427598,2.49509705 L4.98855197,2.49509705 L4.98855197,4.1579477 L2.49427598,4.1579477 L2.49427595,4.1579477 C2.03509273,4.15794772 1.66285062,4.53018981 1.66285062,4.98937303 C1.66285062,4.98937303 1.66285062,4.98937303 1.66285062,4.98937303 L1.66285062,15.8336536 L1.66285062,15.8336537 C1.66285069,16.2928369 2.03509273,16.665079 2.49427595,16.665079 L14.3504011,16.665079 L14.3504011,16.665079 C14.8095843,16.6650791 15.1818264,16.2928369 15.1818264,15.8336537 L15.1818264,13.3036264 L15.1818266,13.3036267 Z" id="形状"></path>
                    </g>
                </g>
            </g>
        </g>
    </g>
</svg>