<?xml version="1.0" encoding="UTF-8"?>
<svg width="94px" height="94px" viewBox="0 0 94 94" version="1.1" xmlns="http://www.w3.org/2000/svg" xmlns:xlink="http://www.w3.org/1999/xlink">
    <title>通用文件样式_slice</title>
    <g id="页面-1" stroke="none" stroke-width="1" fill="none" fill-rule="evenodd">
        <g id="画板" transform="translate(-53.000000, -876.000000)">
            <g id="通用文件样式" transform="translate(66.000000, 881.000000)">
                <path d="M6,0 L51.437198,0 L51.437198,0 L68,21.3728059 L68,78 C68,81.3137085 65.3137085,84 62,84 L6,84 C2.6862915,84 4.05812251e-16,81.3137085 0,78 L0,6 C-4.05812251e-16,2.6862915 2.6862915,6.08718376e-16 6,0 Z" id="矩形" fill="#CAE7FF"></path>
                <path d="M22,24 L36.5,24 L36.5,24 L36.5,38.1286696 L51,38.1286696 L51,57 C51,59.209139 49.209139,61 47,61 L22,61 C19.790861,61 18,59.209139 18,57 L18,28 C18,25.790861 19.790861,24 22,24 Z" id="矩形" fill="#0289FF"></path>
                <polygon id="矩形" fill="#6ABAFF" points="38 24 51 37 38 37"></polygon>
            </g>
        </g>
    </g>
</svg>