<?xml version="1.0" encoding="UTF-8"?>
<svg width="94px" height="94px" viewBox="0 0 94 94" version="1.1" xmlns="http://www.w3.org/2000/svg" xmlns:xlink="http://www.w3.org/1999/xlink">
    <title>通用视频样式_slice</title>
    <g id="页面-1" stroke="none" stroke-width="1" fill="none" fill-rule="evenodd">
        <g id="画板" transform="translate(-53.000000, -1354.000000)">
            <g id="通用视频样式" transform="translate(66.090909, 1359.000000)">
                <path d="M6,0 L51.437198,0 L51.437198,0 L68,21.3728059 L68,78 C68,81.3137085 65.3137085,84 62,84 L6,84 C2.6862915,84 4.05812251e-16,81.3137085 0,78 L0,6 C-4.05812251e-16,2.6862915 2.6862915,6.08718376e-16 6,0 Z" id="矩形" fill="#6DC880"></path>
                <g id="编组" transform="translate(16.000000, 28.500000)" fill="#E2F4E5" fill-rule="nonzero">
                    <path d="M28.6282054,4.8605312 C28.6282054,2.17572449 26.4384589,0 23.7369907,0 L4.89137965,0 C2.18991147,0 0,2.17572449 0,4.8605312 L0,21.2036219 C0,23.8884287 2.18991147,26.0644831 4.89121467,26.0644831 L23.7369907,26.0644831 C26.4384588,26.0644831 28.6282054,23.8880987 28.6282054,21.2037869 C28.6281759,21.0321372 28.7092504,20.8705655 28.8468814,20.767992 C28.9845125,20.6654186 29.1625163,20.6339047 29.3269975,20.6829921 L33.4549187,21.9131367 C34.502612,22.2254156 35.6052386,21.6292318 35.9175175,20.5813736 C35.9722033,20.3979083 36,20.2074804 36,20.0160383 L36,5.97107614 C36,4.87785254 35.1136426,3.99149515 34.020419,3.99149515 C33.8289216,3.99149239 33.6384371,4.01927601 33.4549187,4.07397768 L29.2529281,5.32622763 C29.1058646,5.37010594 28.9467153,5.34191567 28.823671,5.25019285 C28.7006266,5.15847004 28.6281567,5.01400104 28.6282054,4.8605312 L28.6282054,4.8605312 Z M10.3928002,17.3533369 L10.3928002,8.87578132 C10.3928002,7.78239274 11.2791576,6.89620032 12.3723812,6.89620032 C12.7473577,6.89620032 13.1146331,7.00262617 13.431457,7.20320033 L20.1244203,11.4416482 C21.0482248,12.0266144 21.3227267,13.2496655 20.7377605,14.173305 C20.581198,14.4205022 20.3717824,14.6299177 20.1245853,14.7864802 L13.431622,19.0257529 C12.5079824,19.610884 11.2850963,19.3363821 10.6999652,18.4127427 C10.4993029,18.0958889 10.3928002,17.7285507 10.3928002,17.3535018 L10.3928002,17.3533369 Z" id="形状"></path>
                </g>
            </g>
        </g>
    </g>
</svg>