<?xml version="1.0" encoding="UTF-8"?>
<svg width="29px" height="42px" viewBox="0 0 29 42" version="1.1" xmlns="http://www.w3.org/2000/svg" xmlns:xlink="http://www.w3.org/1999/xlink">
    <!-- Generator: Sketch 59.1 (86144) - https://sketch.com -->
    <title>没静音-灰色</title>
    <desc>Created with Sketch.</desc>
    <g id="页面-1" stroke="none" stroke-width="1" fill="none" fill-rule="evenodd">
        <g id="画板" transform="translate(-248.000000, -521.000000)">
            <g id="没静音-灰色" transform="translate(241.000000, 520.000000)">
                <rect id="矩形" x="0" y="0" width="44" height="44"></rect>
                <g id="语音" transform="translate(7.333333, 1.833333)" fill="#FFFFFF" fill-rule="nonzero">
                    <path d="M3.94289139,18.9107806 C3.94472269,26.02169 8.40213628,31.4712848 14.30528,31.4712848 C20.2084238,31.4712848 24.8503106,26.1134255 24.8503106,19.0183614 L24.8558541,18.9242797 C24.8558542,18.0785026 28,18.3307931 28,19.1765702 C28,27.3205813 22.4707705,33.968977 15.9689023,34.9481747 L15.96875,38.9147907 C15.9724732,39.6951479 15.2060029,40.3302396 14.2567742,40.3333223 C13.3519927,40.3362393 12.5993803,39.762006 12.5355468,39.020035 L12.53125,38.9140622 L12.5315163,34.92581 C6.06773484,33.8644654 0.5,27.1713014 0.5,19.0819901 C0.5,18.2362133 3.94289139,18.0650035 3.94289139,18.9107806 Z M14.3169649,0 C18.7392962,0.000711683273 22.3675958,4.12828492 22.4957678,9.23730085 L22.4992715,9.51692887 L22.4992715,18.5410115 C22.4992715,23.5924854 19.0725949,27.7671808 14.7549462,28.0437256 L14.5141762,28.0550596 L14.3163432,28.0579631 C9.89401665,28.0579631 6.26631663,23.9303899 6.13816609,18.8206889 L6.13466295,18.5410229 L6.13466295,9.51694022 C6.13466295,4.27975434 9.81361071,0 14.3169649,0 Z M14.3169209,3.50723688 C11.6830153,3.50723688 9.51284683,6.19200293 9.41099831,9.51671879 L9.40726049,9.7611031 L9.40726049,18.296851 C9.40726049,21.6515557 11.5152537,24.4161995 14.1120557,24.5459475 L14.3029145,24.5507092 L14.4451764,24.5486498 C17.0249097,24.4629439 19.1214982,21.8067085 19.2222361,18.5421138 L19.2260256,18.2961592 L19.2260256,9.76177886 C19.2260256,6.3252561 17.0145083,3.50723688 14.3169209,3.50723688 Z" id="形状结合"></path>
                </g>
            </g>
        </g>
    </g>
</svg>