<?xml version="1.0" encoding="UTF-8"?>
<svg width="94px" height="94px" viewBox="0 0 94 94" version="1.1" xmlns="http://www.w3.org/2000/svg" xmlns:xlink="http://www.w3.org/1999/xlink">
    <title>未知文件_slice</title>
    <g id="页面-1" stroke="none" stroke-width="1" fill="none" fill-rule="evenodd">
        <g id="画板" transform="translate(-54.000000, -757.000000)" fill-rule="nonzero">
            <g id="未知文件" transform="translate(66.000000, 762.000000)">
                <path d="M41.23686,0 L68.72754,27.99888 L68.72754,74.19888 C68.72754,79.61268 64.42086,84 59.10576,84 L9.6222,84 C4.3071,84 0,79.6089 0,74.19888 L0,9.80112 C0,4.38732 4.30752,0 9.62262,0 L41.23686,0 Z" id="路径" fill="#D0D8E1"></path>
                <g id="编组" transform="translate(21.000000, 31.000000)" fill="#FFFFFF">
                    <path d="M0,11.5625 C0,9.25 0.46,7.4 0.92,6.24375 C1.38,5.0875 2.3,3.93125 3.45,3.00625 C4.6,1.85 5.75,1.15625 7.36,0.69375 C8.74,0.23125 10.12,0 11.73,0 C14.95,0 17.48,0.925 19.78,2.775 C21.85,4.625 23,6.9375 23,9.94375 C23,11.33125 22.54,12.4875 22.08,13.64375 C21.62,14.8 20.47,16.1875 18.63,17.80625 C16.79,19.425 16.1,20.58125 15.41,21.275 C14.72,21.96875 14.49,22.89375 14.03,23.81875 C13.57,24.74375 13.8,25.4375 13.8,27.75 L9.2,27.75 C9.2,25.4375 9.43,24.28125 9.66,23.125 C9.89,21.96875 10.35,21.04375 11.04,20.11875 C11.73,19.19375 12.42,18.0375 14.03,16.41875 C15.64,14.8 16.79,13.64375 17.25,12.95 C17.71,12.25625 18.17,11.1 18.17,9.48125 C18.17,7.8625 17.48,6.70625 16.33,5.55 C15.18,4.39375 13.57,3.7 11.5,3.7 C6.9,3.7 4.6,6.9375 4.6,11.5625 L0,11.5625 Z M13.8,37 L9.2,37 L9.2,32.375 L13.8,32.375 L13.8,37 Z" id="形状"></path>
                </g>
                <path d="M68.72754,27.99888 L51.34374,27.99888 C46.03242,27.99888 41.23686,23.1189 41.23686,17.70468 L41.23686,0 L68.72754,27.99888 L68.72754,27.99888 Z" id="路径" fill-opacity="0.4" fill="#FFFFFF"></path>
            </g>
        </g>
    </g>
</svg>