<?xml version="1.0" encoding="UTF-8"?>
<svg width="94px" height="94px" viewBox="0 0 94 94" version="1.1" xmlns="http://www.w3.org/2000/svg" xmlns:xlink="http://www.w3.org/1999/xlink">
    <title>xd_slice</title>
    <g id="页面-1" stroke="none" stroke-width="1" fill="none" fill-rule="evenodd">
        <g id="画板" transform="translate(-452.000000, -1354.000000)">
            <g id="xd" transform="translate(465.000000, 1359.000000)">
                <path d="M6,0 L51.437198,0 L51.437198,0 L68,21.3728059 L68,78 C68,81.3137085 65.3137085,84 62,84 L6,84 C2.6862915,84 4.05812251e-16,81.3137085 0,78 L0,6 C-4.05812251e-16,2.6862915 2.6862915,6.08718376e-16 6,0 Z" id="矩形" fill="#2E001F"></path>
                <path d="M34.6947992,28 C34.8907901,28 34.9647867,28.1539929 34.8407924,28.3599834 L34.8407924,28.3599834 L28.333093,41.9933538 L35.1467783,55.6127248 C35.2707726,55.8187153 35.196776,55.998707 35.0007851,55.998707 L35.0007851,55.998707 L30.7309822,55.998707 C30.4609947,55.998707 30.3390003,55.9487093 30.217006,55.6887213 L30.217006,55.6887213 L25.4732251,45.0352133 L20.7034453,55.7147201 C20.5834509,55.9207106 20.4594566,55.998707 20.2634657,55.998707 L20.2634657,55.998707 L16.2196524,55.998707 C15.9736638,55.998707 15.9496649,55.7927165 16.0716592,55.6387236 L16.0716592,55.6387236 L22.8493462,41.9933538 L16.3536462,28.3859822 C16.205653,28.1799917 16.3536462,28.0259988 16.5016394,28.0259988 L16.5016394,28.0259988 L20.7194446,28.0259988 C20.9654332,28.0259988 21.0614288,28.0779964 21.1614242,28.3099857 L21.1614242,28.3099857 L25.7952102,38.6435085 L30.3070018,28.3359845 C30.410997,28.1599926 30.5109924,28 30.7469815,28 L30.7469815,28 Z M51.632017,28.0259988 C51.8280079,28.0259988 51.8780056,28.1019953 51.8780056,28.2299894 L51.8780056,28.2299894 L51.8782439,52.1581226 C51.8799118,52.8050732 51.8932549,53.5800687 52,54.4147801 C52,54.568773 51.9500023,54.6207706 51.8040091,54.698767 C49.7441042,55.7287194 47.540206,55.9988612 45.4803011,55.9988612 C40.1605468,56.0247058 36.40872,52.7648563 36.40872,45.75518 C36.40872,39.7514573 40.2085446,35.059674 46.240266,35.059674 L46.240266,35.059674 C46.7562422,35.0616739 47.0262297,35.0616739 47.5162071,35.1116716 L47.5162071,35.1116716 L47.5162071,28.281987 C47.513953,28.1443338 47.622593,28.0303509 47.7601958,28.0259988 L47.7601958,28.0259988 Z M46.0922728,38.8994966 C43.0024155,38.9014965 40.8465151,41.4013811 40.8465151,45.5491895 C40.8465151,50.2909706 43.0524132,52.1988825 45.8222853,52.1988825 C46.4122581,52.1988825 47.0482287,52.1208861 47.5122073,51.9148956 L47.5122073,51.9148956 L47.5122073,39.1594846 C47.172223,39.0034918 46.6802457,38.8994966 46.0922728,38.8994966 L46.0922728,38.8994966 Z" id="形状结合" fill="#FF26BE" fill-rule="nonzero"></path>
            </g>
        </g>
    </g>
</svg>