<?xml version="1.0" encoding="UTF-8"?>
<svg width="94px" height="94px" viewBox="0 0 94 94" version="1.1" xmlns="http://www.w3.org/2000/svg" xmlns:xlink="http://www.w3.org/1999/xlink">
    <title>xls_slice</title>
    <g id="页面-1" stroke="none" stroke-width="1" fill="none" fill-rule="evenodd">
        <g id="画板" transform="translate(-38.000000, -1740.000000)">
            <g id="xls" transform="translate(51.000000, 1745.000000)">
                <path d="M6,0 L51.437198,0 L51.437198,0 L68,21.3728059 L68,78 C68,81.3137085 65.3137085,84 62,84 L6,84 C2.6862915,84 4.05812251e-16,81.3137085 0,78 L0,6 C-4.05812251e-16,2.6862915 2.6862915,6.08718376e-16 6,0 Z" id="矩形" fill="#BDEBD7"></path>
                <g id="编组" transform="translate(14.000000, 22.000000)" fill-rule="nonzero">
                    <path d="M38.8160677,4.4397463 L21.0570825,4.4397463 L21.0570825,35.5179704 L38.8160677,35.5179704 C39.4503171,35.5179704 39.9154334,35.0105708 39.9154334,34.4186047 L39.9154334,5.58139535 C39.9154334,4.94714588 39.4503171,4.4397463 38.8160677,4.4397463 Z" id="路径" fill="#4CAF50"></path>
                    <path d="M28.8372093,10.0211416 L36.6173362,10.0211416 L36.6173362,13.3615222 L28.8372093,13.3615222 L28.8372093,10.0211416 Z M28.8372093,21.0993658 L36.6173362,21.0993658 L36.6173362,24.4397463 L28.8372093,24.4397463 L28.8372093,21.0993658 Z M28.8372093,26.6384778 L36.6173362,26.6384778 L36.6173362,29.9788584 L28.8372093,29.9788584 L28.8372093,26.6384778 Z M28.8372093,15.5602537 L36.6173362,15.5602537 L36.6173362,18.9006342 L28.8372093,18.9006342 L28.8372093,15.5602537 Z M21.0570825,10.0211416 L26.5961945,10.0211416 L26.5961945,13.3615222 L21.0570825,13.3615222 L21.0570825,10.0211416 Z M21.0570825,21.0993658 L26.5961945,21.0993658 L26.5961945,24.4397463 L21.0570825,24.4397463 L21.0570825,21.0993658 Z M21.0570825,26.6384778 L26.5961945,26.6384778 L26.5961945,29.9788584 L21.0570825,29.9788584 L21.0570825,26.6384778 Z M21.0570825,15.5602537 L26.5961945,15.5602537 L26.5961945,18.9006342 L21.0570825,18.9006342 L21.0570825,15.5602537 Z" id="形状" fill="#FFFFFF"></path>
                    <polygon id="路径" fill="#2E7D32" points="23.2980973 40 0 35.5602537 0 4.4397463 23.2980973 0"></polygon>
                    <path d="M14.5031712,27.6109937 L11.8816068,22.6638478 C11.7970402,22.4947146 11.6701903,22.1564482 11.5856237,21.6490486 L11.5010571,21.6490486 C11.4587738,21.9027484 11.3319239,22.2410148 11.1627907,22.7061311 L8.54122622,27.6109937 L4.4397463,27.6109937 L9.30232558,20 L4.86257928,12.3890063 L9.04862579,12.3890063 L11.2473573,16.9556025 C11.4164905,17.3361522 11.5856237,17.7589852 11.7124736,18.2241015 L11.7547569,18.2241015 C11.8393235,17.9281184 12.0084567,17.5052854 12.2198732,16.9133192 L14.5877378,12.3890063 L18.3932347,12.3890063 L13.8689218,19.9154334 L18.5623679,27.6109937 L14.5031712,27.6109937 Z" id="路径" fill="#FFFFFF"></path>
                </g>
            </g>
        </g>
    </g>
</svg>