<?xml version="1.0" encoding="UTF-8"?>
<svg width="94px" height="94px" viewBox="0 0 94 94" version="1.1" xmlns="http://www.w3.org/2000/svg" xmlns:xlink="http://www.w3.org/1999/xlink">
    <title>zip02_slice</title>
    <g id="页面-1" stroke="none" stroke-width="1" fill="none" fill-rule="evenodd">
        <g id="画板" transform="translate(-343.000000, -68.000000)" fill-rule="nonzero">
            <g id="ZIP02" transform="translate(348.000000, 77.000000)">
                <path d="M79.8032275,75.606455 L4.1967725,75.606455 C1.89025031,75.606455 0,73.9957524 0,72.0399354 L0,50.4044728 L83.9837354,50.4044728 L83.9837354,72.0287534 C83.9837354,73.9850787 82.0929767,75.5957813 79.7869629,75.5957813 L79.8032275,75.606455 Z" id="路径" fill="#5ACC9B"></path>
                <path d="M4.1967725,0 L79.8032275,0 C82.1097497,0 84,1.61121096 84,3.56651965 L84,25.2019822 L0.0162645558,25.2019822 L0.0162645558,3.57820981 C0.0162645558,1.62137628 1.90702318,0.0111819329 4.21354536,0.0111819329 L4.1967725,0 Z" id="路径" fill="#6CCBFF"></path>
                <polygon id="路径" fill="#FFD766" points="0.0162645558 25.2075732 83.9888181 25.2075732 83.9888181 50.3988818 0.0162645558 50.3988818"></polygon>
                <polygon id="路径" fill="#FF5562" points="28.0071158 0.0162645558 55.9979669 0.0162645558 55.9979669 75.5901904 28.0071158 75.5901904"></polygon>
                <path d="M36.0499555,4.21354536 L41.6495489,4.21354536 L41.6495489,8.41540055 L36.0499555,8.41540055 L36.0499555,4.21303705 L36.0499555,4.21354536 Z M41.6495489,0.0157563231 L47.248634,0.0157563231 L47.248634,4.21354536 L41.6495489,4.21354536 L41.6495489,0.0162645558 L41.6495489,0.0157563231 Z M41.6495489,8.41489225 L47.248634,8.41489225 L47.248634,12.6004829 L41.6495489,12.6004829 L41.6495489,8.41489225 Z M36.0499555,12.6004829 L41.6495489,12.6004829 L41.6495489,16.7972554 L36.0499555,16.7972554 L36.0499555,12.6004829 Z M41.6495489,16.7972554 L47.248634,16.7972554 L47.248634,20.9996188 L41.6495489,20.9996188 L41.6495489,16.7972554 Z M36.0499555,20.9996188 L41.6495489,20.9996188 L41.6495489,25.201474 L36.0499555,25.201474 L36.0499555,20.9996188 Z M41.6495489,25.1963913 L47.248634,25.1963913 L47.248634,29.3931638 L41.6495489,29.3931638 L41.6495489,25.1963913 Z M36.0499555,29.3931638 L41.6495489,29.3931638 L41.6495489,33.5950189 L36.0499555,33.5950189 L36.0499555,29.3931638 Z M41.6495489,33.5950189 L47.248634,33.5950189 L47.248634,37.8029733 L41.6495489,37.8029733 L41.6495489,33.5950189 Z M36.0499555,37.8029733 L41.6495489,37.8029733 L41.6495489,41.9997458 L36.0499555,41.9997458 L36.0499555,37.8029733 L36.0499555,37.8029733 Z M41.6495489,41.9997458 L47.248634,41.9997458 L47.248634,46.201601 L41.6495489,46.201601 L41.6495489,41.9997458 Z M36.0499555,46.201601 L41.6495489,46.201601 L41.6495489,50.4039645 L36.0499555,50.4039645 L36.0499555,46.201601 Z M41.6495489,50.3983735 L47.248634,50.3983735 L47.248634,54.595146 L41.6495489,54.595146 L41.6495489,50.3983735 Z M36.0499555,54.595146 L41.6495489,54.595146 L41.6495489,58.7975095 L36.0499555,58.7975095 L36.0499555,54.595146 Z M41.6495489,58.7975095 L47.248634,58.7975095 L47.248634,63.0049556 L41.6495489,63.0049556 L41.6495489,58.7975095 Z M36.0499555,63.0049556 L41.6495489,63.0049556 L41.6495489,67.2017281 L36.0499555,67.2017281 L36.0499555,63.0049556 Z M36.0499555,71.4040915 L41.6495489,71.4040915 L41.6495489,75.6059467 L36.0499555,75.6059467 L36.0499555,71.4040915 L36.0499555,71.4040915 Z M41.6495489,67.2017281 L47.248634,67.2017281 L47.248634,71.4040915 L41.6495489,71.4040915 L41.6495489,67.2017281 Z" id="形状" fill="#FFFFFF"></path>
            </g>
        </g>
    </g>
</svg>