<?xml version="1.0" encoding="UTF-8"?>
<svg width="22px" height="22px" viewBox="0 0 22 22" version="1.1" xmlns="http://www.w3.org/2000/svg" xmlns:xlink="http://www.w3.org/1999/xlink">
    <!-- Generator: Sketch 59.1 (86144) - https://sketch.com -->
    <title>结束直播</title>
    <desc>Created with Sketch.</desc>
    <g id="页面-1" stroke="none" stroke-width="1" fill="none" fill-rule="evenodd">
        <g id="推流异常" transform="translate(-404.000000, -452.000000)" fill="#FFBF00" fill-rule="nonzero">
            <g id="反馈:6/弹窗:6/成功:7" transform="translate(372.000000, 420.000000)">
                <g id="反馈:6/弹窗/成功">
                    <g id="反馈/弹窗/状态反馈/成功">
                        <g id="结束直播" transform="translate(32.000000, 32.000000)">
                            <path d="M11.0122631,0 C12.5328874,0 13.9595026,0.290225883 15.2920847,0.870680045 C16.624674,1.45113421 17.7855896,2.23597256 18.7748049,3.22519509 C19.7640274,4.21441763 20.5488658,5.37941206 21.12932,6.72017837 C21.7097741,8.06094469 22,9.4916388 22,11.0122631 C22,12.5328874 21.7097741,13.9595026 21.12932,15.2920847 C20.5488658,16.624674 19.7640274,17.7855896 18.7748049,18.7748049 C17.7855824,19.7640274 16.624674,20.5488658 15.2920847,21.12932 C13.9594954,21.7097741 12.5328874,22 11.0122631,22 C9.4916388,22 8.06095187,21.7097741 6.72017837,21.12932 C5.37941206,20.5488658 4.21441045,19.7640274 3.22519509,18.7748049 C2.23597256,17.7855824 1.45113421,16.624674 0.870680045,15.2920847 C0.290225883,13.9594954 0,12.5328874 0,11.0122631 C0,9.4916388 0.290225883,8.06095187 0.870680045,6.72017837 C1.45113421,5.37941206 2.23597256,4.21441045 3.22519509,3.22519509 C4.21441763,2.23597256 5.37941206,1.45113421 6.72017837,0.870680045 C8.06094469,0.290225883 9.4916388,0 11.0122631,0 Z M12.3366778,9.4916388 C12.3366778,9.09921962 12.209959,8.76811594 11.9565217,8.49832776 C11.7030852,8.22853958 11.3883307,8.09364548 11.0122631,8.09364548 C10.6361955,8.09364548 10.3173549,8.22853958 10.0557414,8.49832776 C9.79412778,8.76811594 9.66332219,9.09921962 9.66332219,9.4916388 L9.66332219,17.7079153 C9.66332219,18.1003344 9.7941285,18.4150865 10.0557414,18.6521739 C10.3173549,18.8892606 10.6361955,19.0078038 11.0122631,19.0078038 C11.3883307,19.0078038 11.7071713,18.8851728 11.9687848,18.6399108 C12.2303984,18.3946488 12.361204,18.0758082 12.361204,17.6833891 L12.3366778,9.4916388 Z M11.0122631,6.45039019 C11.4864355,6.45039019 11.8911177,6.28279458 12.2263099,5.94760312 C12.5615021,5.61241094 12.729097,5.20772867 12.729097,4.7335563 C12.729097,4.25938393 12.5615014,3.85470165 12.2263099,3.51950948 C11.8911177,3.1843173 11.4864355,3.01672241 11.0122631,3.01672241 C10.5380907,3.01672241 10.12932,3.18431802 9.78595318,3.51950948 C9.4425864,3.85470165 9.27090301,4.25938393 9.27090301,4.7335563 C9.27090301,5.20772867 9.4425864,5.61241094 9.78595318,5.94760312 C10.12932,6.2827953 10.5380907,6.45039019 11.0122631,6.45039019 Z" id="形状"></path>
                        </g>
                    </g>
                </g>
            </g>
        </g>
    </g>
</svg>